<svg width="68" height="44" viewBox="0 0 68 44" fill="none" xmlns="http://www.w3.org/2000/svg">
<path d="M30.4864 2.87917C33.0271 0.802858 36.3681 -0.232439 39.6261 0.0440213C42.6424 0.272816 45.5512 1.62843 47.6954 3.7791C49.6868 5.73911 50.9817 8.36453 51.4291 11.1291C51.9802 11.1921 52.5956 11.1444 53.0599 11.5066C53.4412 11.7679 53.5545 12.2426 53.7187 12.6487C54.1434 12.7212 54.57 12.7917 54.9966 12.8603C55.6006 12.3513 56.3519 11.9395 57.1673 12.0672C58.549 12.153 59.623 13.5849 59.3833 14.9481C59.2059 16.176 58.0431 17.1846 56.803 17.0835C55.9555 17.1045 55.2609 16.5382 54.7437 15.9205C54.3076 15.9052 53.8735 15.8976 53.4393 15.8919C53.1845 16.2122 52.9675 16.5935 52.5994 16.7956C52.1011 17.032 51.5367 16.9176 51.01 16.8986C50.2248 19.4611 48.6524 21.7433 46.5818 23.4154C51.8198 23.4173 57.0578 23.4192 62.2959 23.4154C63.2887 23.4231 64.342 23.3125 65.2594 23.7777C66.4429 24.3325 67.2507 25.5451 67.3848 26.8493V34.7141C67.1526 36.4872 65.6048 38.0011 63.8078 38.0183C54.5341 38.0469 45.2605 38.0049 35.9887 38.0392C35.9188 39.3205 35.4904 40.6017 34.5975 41.5398C33.7425 42.4912 32.5269 43.0575 31.2716 43.1986H4.8078C2.42945 42.964 0.422959 40.9373 0.187012 38.5369V22.9235C0.355006 21.7891 0.817463 20.6832 1.62723 19.8634C2.61066 18.8128 4.04333 18.2504 5.46845 18.2809C12.5374 18.2828 19.6045 18.279 26.6735 18.2828C26.1978 17.114 25.8751 15.8881 25.6995 14.6373C25.1691 14.5725 24.5764 14.6011 24.1272 14.2579C23.7478 13.9948 23.6288 13.5239 23.4608 13.1177C23.0361 13.0415 22.6133 12.9671 22.1867 12.8985C21.5808 13.4037 20.8352 13.8175 20.0217 13.6916C18.6343 13.6154 17.5546 12.1702 17.7981 10.8031C17.9888 9.49516 19.2893 8.48083 20.5955 8.69247C21.3826 8.71916 21.9149 9.34644 22.4793 9.80975C22.8946 9.88983 23.3193 9.86695 23.7402 9.86886C23.9988 9.54092 24.2215 9.15197 24.6047 8.95368C25.137 8.70772 25.7335 8.85263 26.2903 8.88695C27.1209 6.55133 28.5554 4.42544 30.4864 2.87917ZM33.3555 1.98497C31.2018 3.04123 29.2878 4.71334 28.1401 6.85258C27.6833 7.63811 27.287 8.47511 27.0246 9.34835C25.9959 12.2293 26.2809 15.5239 27.5456 18.2866C28.58 18.2809 29.6162 18.3019 30.6525 18.2694C32.6684 18.1932 34.6013 19.4096 35.4885 21.2266C35.7603 21.9302 35.934 22.668 35.983 23.423C38.8352 23.4269 41.6854 23.4173 44.5375 23.4288C44.9188 23.4345 45.3284 23.4097 45.6304 23.1447C47.4765 21.7814 49.0545 19.9358 49.8322 17.7432C50.0795 17.1655 50.2607 16.5573 50.3909 15.9415C51.0667 13.4781 50.8156 10.8012 49.8718 8.44461C48.7393 5.62662 46.5327 3.27194 43.8089 1.97925C40.5566 0.402467 36.6059 0.408187 33.3555 1.98497ZM18.7362 9.97181C18.5248 10.4084 18.2851 10.8679 18.3625 11.3751C18.4267 12.4504 19.5215 13.3141 20.5728 13.1139C21.0542 13.0625 21.426 12.7288 21.7922 12.4428C22.0017 11.9871 22.2264 11.5047 22.1528 10.988C22.098 9.99279 21.1372 9.2206 20.1783 9.26064C19.6215 9.29687 19.1647 9.64578 18.7362 9.97181ZM24.348 10.3989C24.3367 11.356 24.0498 12.2979 24.1234 13.2531C24.2838 13.9452 25.0558 14.0081 25.6297 14.0482C25.5164 12.4886 25.7599 10.9423 26.0638 9.41889C25.6844 9.42461 25.3031 9.40364 24.9275 9.46847C24.5764 9.63434 24.3253 10.0004 24.348 10.3989ZM22.6869 10.4103C22.87 11.0777 22.787 11.7717 22.5208 12.4047C22.8663 12.4409 23.206 12.5038 23.5496 12.5477C23.5703 11.8403 23.6326 11.1349 23.7119 10.4332C23.3702 10.4275 23.0286 10.4218 22.6869 10.4103ZM51.5461 11.7011C51.6292 13.2607 51.548 14.8318 51.178 16.3514C51.7556 16.4048 52.5805 16.4353 52.7825 15.7394C52.8485 14.6564 53.0939 13.5791 53.0297 12.4943C52.8731 11.8346 52.0954 11.7659 51.5461 11.7011ZM55.4477 13.2493C55.2061 13.6649 54.9381 14.1035 54.9834 14.6068C54.9626 15.7432 56.1008 16.706 57.2069 16.4906C57.6751 16.4372 58.0394 16.115 58.4037 15.8423C58.6056 15.3943 58.8454 14.9271 58.785 14.4162C58.7453 13.4228 57.8015 12.5744 56.8181 12.6602C56.2915 12.6411 55.8705 12.9881 55.4477 13.2493ZM53.63 13.1978C53.5526 13.9052 53.5073 14.6164 53.4431 15.3256C53.7942 15.3313 54.1434 15.3409 54.4945 15.3561C54.3208 14.6888 54.385 13.991 54.6663 13.3637C54.319 13.3141 53.9735 13.255 53.63 13.1978ZM4.43784 19.6842C3.16561 19.974 2.07836 20.9711 1.67254 22.2238C1.39506 23.015 1.46868 23.8673 1.46113 24.691C1.46301 28.7006 1.46301 32.7102 1.46113 36.7199C1.46679 37.4787 1.41016 38.2509 1.59137 38.9945C1.9217 40.331 3.0146 41.4387 4.33591 41.7781C5.07584 41.965 5.84219 41.904 6.59534 41.9116C14.2721 41.9097 21.9508 41.9097 29.6276 41.9116C30.5827 41.9135 31.5982 41.9802 32.4778 41.5303C33.7897 40.9163 34.69 39.5073 34.6712 38.0411C34.6749 33.1545 34.6806 28.2659 34.6693 23.3773C34.6844 21.3868 32.9421 19.6022 30.9715 19.5945C22.5359 19.5736 14.0985 19.5984 5.66099 19.5831C5.25138 19.5869 4.83989 19.5965 4.43784 19.6842ZM36.8324 27.4117C36.7985 27.5661 36.7324 27.875 36.6984 28.0295C38.6709 28.0237 40.6472 28.0714 42.6198 28.0047C42.6311 27.8407 42.6556 27.5128 42.6688 27.3488C40.7246 27.3907 38.7672 27.2611 36.8324 27.4117ZM46.1174 27.4708C44.9736 27.835 44.0505 28.8379 43.807 30.0276C43.4994 31.3927 44.1713 32.8913 45.3473 33.614C46.51 34.3499 48.1201 34.2794 49.2036 33.4214C50.2758 32.6168 50.8043 31.1373 50.4249 29.8312C49.9643 28.0104 47.888 26.8435 46.1174 27.4708ZM51.9236 27.3545C52.7485 28.6224 53.5828 29.8846 54.4133 31.1487C54.5492 30.9237 54.6814 30.6968 54.8135 30.468C54.1057 29.4327 53.445 28.3631 52.7258 27.3354C52.5258 27.3412 52.1237 27.3507 51.9236 27.3545ZM57.2504 27.6386C55.8234 29.7816 54.4039 31.9285 52.975 34.0715C53.2581 34.0715 53.5432 34.0715 53.8282 34.0735C55.3213 31.8275 56.8181 29.5853 58.2942 27.3278C57.945 27.385 57.4353 27.2268 57.2504 27.6386ZM60.4498 27.6043C59.3928 28.0028 58.9567 29.6158 59.8741 30.3765C60.9066 31.1201 62.2977 30.9523 63.3718 31.6044C63.9984 31.959 63.8776 33.0229 63.1943 33.2384C61.9485 33.7093 60.4894 33.3852 59.4702 32.5462C59.3607 32.7464 59.2493 32.9466 59.1398 33.1468C59.9402 33.8752 61.0501 34.1478 62.1052 34.1268C62.7847 34.1078 63.5133 33.9934 64.0513 33.5377C64.7875 32.918 64.8026 31.5605 63.9664 31.019C62.9376 30.3613 61.6333 30.4585 60.5668 29.8979C59.8798 29.5223 60.1289 28.3917 60.8254 28.1744C61.8636 27.7873 63.0603 28.0142 63.938 28.6796C64.0268 28.487 64.1174 28.2964 64.208 28.1057C63.217 27.1791 61.656 27.1238 60.4498 27.6043ZM39.3316 34.0563C39.5845 34.0639 39.8375 34.0735 40.0923 34.0811C40.0942 32.2107 40.0923 30.3422 40.0942 28.4718C39.9054 28.4699 39.5279 28.468 39.3391 28.4661C39.3316 30.3288 39.3448 32.1935 39.3316 34.0563Z" fill="#372E38"/>
<path d="M33.599 5.87448C34.3446 5.36732 35.4602 5.8802 35.5376 6.78966C35.698 7.72009 34.6428 8.53994 33.7972 8.13383C33.0516 7.85737 32.7741 6.84304 33.2649 6.21195C33.3046 6.25008 33.3838 6.32635 33.4235 6.36448C33.4612 6.64475 33.3876 7.12713 33.801 7.13666C34.1124 7.22818 34.4843 6.92312 34.4069 6.58946C34.4579 6.21767 33.9765 6.20242 33.7595 6.06895C33.7198 6.01938 33.6405 5.92405 33.599 5.87448Z" fill="#372E38"/>
<path d="M45.0019 7.07947C45.772 6.49604 47.0103 7.14238 46.9706 8.11476C47.0518 9.05663 45.9173 9.74874 45.1189 9.27399C44.2827 8.87551 44.2166 7.56756 45.0019 7.07947ZM45.1397 7.39215C44.5489 7.68005 45.0963 8.65815 45.6455 8.28827C46.2703 8.00609 45.7003 6.98604 45.1397 7.39215Z" fill="#372E38"/>
<path d="M32.8251 10.9747C32.8478 10.4694 33.0365 9.82501 33.5952 9.70298C34.2502 9.60956 34.8996 9.81166 35.5281 9.97182L35.4224 9.95275C35.2582 9.92415 34.9316 9.86886 34.7674 9.84026C34.8222 10.4103 35.0336 10.9995 35.5734 11.2721C36.9891 12.0882 38.6747 12.174 40.2622 12.3456C39.8809 12.5057 39.4694 12.5591 39.0617 12.582C37.2836 12.3684 35.228 12.704 33.9916 14.1283C33.2593 13.255 32.7062 12.1492 32.8251 10.9747Z" fill="#372E38"/>
<path d="M44.6206 10.8012C45.1963 10.8031 46.0004 10.8584 46.159 11.5562C46.4327 13.1959 45.3001 14.6983 43.9618 15.4877C44.1355 15.3409 44.3035 15.1864 44.4752 15.0339C43.4597 13.6344 41.8043 12.9519 40.1678 12.6392L40.181 12.6201C40.2263 12.5572 40.315 12.4314 40.3603 12.3703C41.389 12.3818 42.448 12.4619 43.4427 12.1339C43.8203 11.9986 44.2261 11.7926 44.3884 11.398C44.4885 11.2092 44.564 11.009 44.6206 10.8012Z" fill="#372E38"/>
<path d="M5.21741 24.1018C8.00724 24.0999 10.7952 24.1056 13.585 24.098C14.4024 24.0961 15.2612 24.138 15.9823 24.5689C17.3432 25.3011 18.1398 27.0571 17.5791 28.55C17.2658 29.4918 16.4749 30.1553 15.6029 30.5519C16.5976 30.8398 17.6131 31.3737 18.1058 32.3384C18.6551 33.4538 18.6135 34.9791 17.6716 35.8714C16.5051 37.0383 14.7685 37.2823 13.2 37.3281C10.8801 37.3319 8.5603 37.3357 6.24047 37.3281C5.7648 37.3776 5.25327 37.0497 5.24006 36.5349C5.16833 35.0153 5.25516 33.49 5.19853 31.9666C6.11589 33.1163 7.68069 32.7598 8.95481 32.8094C9.00955 33.3547 8.75473 34.2355 9.45313 34.4395C10.3271 34.5272 11.2067 34.4472 12.0844 34.4777C12.8413 34.47 13.7134 34.5654 14.325 34.0201C14.8082 33.614 14.7553 32.7865 14.2891 32.388C13.9569 32.0658 13.4812 31.9876 13.0376 31.9933C11.0198 31.9743 9.002 32.0238 6.98418 31.9743C5.99131 31.9628 5.17022 31.0267 5.21929 30.0333C5.20608 28.0561 5.21929 26.079 5.21741 24.1018ZM8.96425 27.0075C8.96236 27.5681 8.93405 28.1286 8.97935 28.6872C8.96802 29.0209 9.27947 29.3126 9.60602 29.3012C10.5498 29.3374 11.4974 29.3126 12.4431 29.3145C12.9867 29.2993 13.6587 29.2211 13.9644 28.6987C14.1494 28.2449 14.1268 27.5967 13.6851 27.2992C13.2755 27.0075 12.7507 27.0209 12.2732 27.0056C11.1689 27.0056 10.0666 27.0113 8.96425 27.0075Z" fill="#372E38"/>
<path d="M20.1161 26.1324C21.2052 24.6223 23.1456 24.0618 24.9162 24.0008C26.9132 23.8902 28.8291 24.5518 30.694 25.181C31.0961 25.2839 31.4 25.732 31.2263 26.14C30.8847 26.9045 30.4128 27.6024 30.0221 28.3421C28.2704 27.6462 26.4319 26.8817 24.5103 27.0495C24.0554 27.1047 23.4042 27.2134 23.3079 27.7606C23.2419 28.3631 23.9233 28.5862 24.3707 28.7483C25.9996 29.2478 27.7098 29.5071 29.2765 30.2087C30.1901 30.6225 31.0357 31.3546 31.3037 32.3632C31.5812 33.4805 31.4302 34.7751 30.6714 35.675C29.8258 36.7198 28.4837 37.1832 27.202 37.37C24.6462 37.7151 22.0168 37.2823 19.6385 36.3004C19.2119 36.1746 18.9307 35.6807 19.1515 35.2613C19.5083 34.5024 19.9594 33.7951 20.3614 33.061C22.1471 33.8561 24.0705 34.5406 26.0506 34.4338C26.5527 34.3823 27.3153 34.2984 27.3927 33.6616C27.3115 33.0896 26.6716 32.9142 26.2167 32.7369C24.3253 32.1478 22.232 31.9781 20.5879 30.7674C19.1779 29.7187 19.1496 27.4937 20.1161 26.1324Z" fill="#372E38"/>
<path d="M46.1137 28.2258C47.418 27.6214 49.096 28.3402 49.583 29.6997C50.1776 31.0839 49.3754 32.8666 47.9371 33.2975C46.6686 33.7303 45.1718 33.0077 44.7074 31.7417C44.1336 30.4356 44.8244 28.7749 46.1137 28.2258Z" fill="#372E38"/>
<path d="M33.2649 6.21195C33.3197 6.04226 33.431 5.92977 33.599 5.87448C33.6405 5.92405 33.7198 6.01938 33.7595 6.06895C33.9765 6.20242 34.4579 6.21767 34.4069 6.58946C34.4843 6.92312 34.1124 7.22818 33.801 7.13666C33.3876 7.12713 33.4612 6.64475 33.4235 6.36448C33.3838 6.32635 33.3046 6.25008 33.2649 6.21195Z" fill="#372E38"/>
<path d="M45.6455 8.28827C46.2703 8.00609 45.7003 6.98604 45.1397 7.39215C44.5489 7.68005 45.0963 8.65815 45.6455 8.28827Z" fill="#372E38"/>
<path d="M34.7674 9.84026C34.9316 9.86886 35.2582 9.92415 35.4224 9.95275L35.6527 10.1053C35.7433 10.1434 35.9283 10.2216 36.0208 10.2597L36.2228 10.2654C36.3115 10.3112 36.487 10.4046 36.5757 10.4504L36.7909 10.4485C36.8777 10.4961 37.0533 10.5915 37.1401 10.6391L37.3628 10.6677C37.5082 10.8069 37.6781 10.8698 37.8782 10.8565L38.1273 10.8756C38.2727 11.03 38.4425 11.0757 38.6351 11.0147L38.8031 10.9709L38.9748 11.0147C40.2037 11.3217 41.5136 11.274 42.7481 11.0147C43.3068 10.8832 43.8788 10.845 44.4488 10.7879C44.4337 10.9404 44.4035 11.2454 44.3884 11.398C44.2261 11.7926 43.8203 11.9986 43.4427 12.1339C42.448 12.4619 41.389 12.3818 40.3603 12.3703C40.315 12.4314 40.2263 12.5572 40.181 12.6201C39.8073 12.6335 39.4335 12.6201 39.0617 12.582C39.4694 12.5591 39.8809 12.5057 40.2622 12.3456C38.6747 12.174 36.9891 12.0882 35.5734 11.2721C35.0336 10.9995 34.8222 10.4103 34.7674 9.84026Z" fill="#372E38"/>
<path d="M33.9916 14.1283C35.228 12.704 37.2836 12.3684 39.0617 12.582C39.4335 12.6201 39.8073 12.6335 40.181 12.6201L40.1678 12.6392C41.8043 12.9519 43.4597 13.6344 44.4752 15.0339C44.3035 15.1864 44.1355 15.3409 43.9618 15.4877C42.3461 16.4868 40.366 16.6317 38.5237 16.4048C36.8324 16.1378 35.1808 15.3962 33.9916 14.1283Z" fill="#372E38"/>
</svg>
