<svg width="63" height="19" viewBox="0 0 63 19" fill="none" xmlns="http://www.w3.org/2000/svg">
<path d="M58.5411 0.327393C59.7464 0.334588 60.9533 0.330271 62.1601 0.330271C62.1718 6.42789 62.1587 12.5269 62.1674 18.6246C60.9562 18.6447 59.745 18.639 58.5338 18.6289C58.5382 12.5284 58.5235 6.42789 58.5411 0.327393Z" fill="#372E38"/>
<path d="M0.973698 0.386398C3.21059 0.372006 5.44894 0.38208 7.68583 0.379202C10.0601 0.438206 12.259 1.77516 13.6411 3.63453C14.7968 5.25211 15.5347 7.21797 15.4353 9.21549C15.4821 11.662 15.0087 14.3086 13.3022 16.1881C11.8323 17.6834 9.78391 18.5987 7.69167 18.8088C5.45332 18.8448 3.21497 18.8102 0.975159 18.826C0.966393 12.6795 0.969315 6.53295 0.973698 0.386398ZM4.91565 3.72807C4.90542 7.69001 4.91273 11.6519 4.91126 15.6139C6.58564 15.7089 8.44412 15.5707 9.73862 14.3949C10.7599 13.53 10.9586 12.1456 11.1208 10.905C11.4349 8.82693 10.9484 6.56029 9.53845 4.94702C8.3623 3.718 6.51259 3.66331 4.91565 3.72807Z" fill="#372E38"/>
<path d="M30.3586 1.07574C31.5625 1.08582 32.7679 1.08582 33.9733 1.0743C34.0098 2.38104 33.9616 3.68921 33.9981 4.99451C34.6425 4.97724 35.2897 4.98444 35.9355 4.99307C35.9486 5.91124 35.953 6.83085 35.9311 7.74902C35.2839 7.74326 34.6381 7.75045 33.9908 7.75045C33.9791 9.92067 33.9864 12.0894 33.9864 14.2582C33.9704 14.8756 34.2889 15.5981 34.958 15.7377C35.5702 15.8326 36.1956 15.7722 36.8151 15.7938C36.8297 16.7465 36.8267 17.6992 36.8165 18.6519C35.728 18.6649 34.6381 18.6404 33.5496 18.6231C32.5619 18.4763 31.3945 18.2547 30.8305 17.3452C30.5018 16.8098 30.3542 16.1766 30.3498 15.5549C30.3484 12.9616 30.3557 10.3697 30.3469 7.7778C29.7216 7.7778 29.0977 7.77348 28.4724 7.76916C28.4811 6.83804 28.4665 5.90836 28.4841 4.97724C29.105 4.99163 29.726 4.98443 30.3469 4.97436C30.3601 3.67482 30.3382 2.37528 30.3586 1.07574Z" fill="#372E38"/>
<path d="M38.5566 1.12323C39.7912 1.09733 41.0288 1.06999 42.2619 1.13763C42.2414 2.42134 42.2546 3.70361 42.2517 4.98731C42.8887 4.98875 43.5243 4.99883 44.1613 4.98444C44.1774 5.90117 44.1671 6.81789 44.1701 7.73462C43.5783 7.73462 42.988 7.74182 42.3978 7.74038C42.3861 9.9106 42.389 12.0808 42.3949 14.251C42.3788 14.8267 42.5527 15.5722 43.2014 15.7405C43.7595 15.8398 44.3322 15.788 44.8962 15.7851C44.9137 16.7422 44.9093 17.6978 44.9006 18.6548C44.0386 18.6663 43.1795 18.5972 42.3174 18.6174C41.4393 18.6433 40.5612 18.4245 39.7839 18.0273C38.8693 17.5035 38.6005 16.3809 38.5654 15.411C38.5508 12.8666 38.5698 10.3207 38.5566 7.77636C37.9459 7.7778 37.3367 7.77204 36.7259 7.77348C36.7347 6.84236 36.6748 5.90836 36.7639 4.98012C37.363 5.00027 37.9605 4.99019 38.5596 4.98587C38.5625 3.69785 38.5625 2.41126 38.5566 1.12323Z" fill="#372E38"/>
<path d="M49.9807 4.5714C51.5879 4.31668 53.2754 4.69517 54.6313 5.57592C56.329 6.67542 57.4774 8.52615 57.7799 10.4978C58.1276 12.5687 57.5344 14.7792 56.1844 16.4054C54.9264 17.9338 52.9496 18.9239 50.9348 18.8505C49.3495 18.8807 47.7993 18.2288 46.6173 17.2085C45.0657 15.8557 44.1847 13.8322 44.1467 11.8016C44.1262 10.089 44.6902 8.35921 45.7904 7.02369C46.8087 5.72415 48.3399 4.84484 49.9807 4.5714ZM50.2539 7.66267C49.1274 8.01238 48.3618 9.04855 48.0594 10.1351C47.6182 11.6822 47.792 13.4638 48.7855 14.7763C49.3086 15.4959 50.1765 16.001 51.0882 15.9895C51.9356 15.9219 52.6983 15.4182 53.1892 14.7475C54.0439 13.5861 54.228 12.0693 53.9942 10.682C53.8028 9.62565 53.2754 8.5794 52.3739 7.9433C51.7647 7.51731 50.9552 7.43672 50.2539 7.66267Z" fill="#372E38"/>
<path d="M17.7569 6.75889C19.9705 4.21306 24.4077 3.93674 26.8404 6.32427C28.4899 7.97784 29.2394 10.361 29.1342 12.6507C26.0163 12.6622 22.8984 12.6435 19.782 12.6593C19.7849 13.6121 20.1341 14.5892 20.8865 15.2138C21.7456 15.978 23.0752 16.0888 24.1067 15.6225C24.6575 15.3707 24.9322 14.8051 25.1338 14.2741C26.4693 14.2625 27.8061 14.2597 29.143 14.2769C28.2079 17.4992 24.4252 19.6651 21.1349 18.6922C19.2516 18.2662 17.5641 16.9955 16.762 15.2498C16.2944 14.2107 15.9072 13.094 15.9131 11.9455C16.0197 10.1006 16.5063 8.18507 17.7569 6.75889ZM21.7106 7.77636C20.755 8.12895 20.1385 9.09461 20.0464 10.0718C21.7676 10.089 23.4887 10.1452 25.2098 10.1624C25.0272 9.48605 24.8226 8.76073 24.266 8.28293C23.5983 7.6454 22.5755 7.57056 21.7106 7.77636Z" fill="#372E38"/>
</svg>
