<svg width="94" height="25" viewBox="0 0 94 25" fill="none" xmlns="http://www.w3.org/2000/svg">
<path fill-rule="evenodd" clip-rule="evenodd" d="M63.1924 12.4224C63.1924 11.1922 63.2083 10.8358 63.903 10.1965C64.9626 9.22117 67.2024 9.24805 68.2042 10.205C68.8047 10.7787 68.8092 11.3101 68.8014 12.366L63.1924 12.4224ZM71.3618 19.6943L71.3563 17.3216C69.5435 17.2859 67.7559 17.2673 65.9661 17.2396C63.2183 17.1972 63.2123 17.1688 63.1997 14.4438C65.2498 14.4348 67.3036 14.4159 69.3534 14.4196C69.8755 14.4205 70.2109 14.4767 70.577 14.2192C71.7611 13.386 71.6013 11.8544 71.3104 10.5809C71.1583 9.91469 70.7204 9.02129 70.3637 8.50415C69.9031 7.8363 69.4459 7.49411 68.3792 7.38273C66.8399 7.22194 63.8534 7.0927 62.5968 7.70048C60.4671 8.73048 60.6756 10.3496 60.6745 11.8941C60.6726 14.5045 60.0268 17.6177 62.3955 19.3094C63.2167 19.8959 64.04 19.7034 65.1427 19.7029C67.2124 19.702 69.2935 19.7195 71.3618 19.6943Z" fill="#372E38"/>
<path fill-rule="evenodd" clip-rule="evenodd" d="M42.107 14.1106C42.5794 13.9515 46.6914 13.8875 47.0167 14.0945C47.2111 14.2801 47.2434 17.102 47.0622 17.4186C46.2621 17.5808 43.7961 17.4326 42.8127 17.4334C41.7904 17.4343 42.0079 17.1847 42.0173 16.1945C42.0231 15.5804 41.9265 14.6503 42.107 14.1106ZM40.8213 11.7255C40.2782 11.9835 39.5338 12.7273 39.3251 13.4295C39.1805 13.9164 39.2701 15.8335 39.2745 16.4687C39.2822 17.6192 39.2162 18.3185 39.8729 19.0474C40.5726 19.824 41.0764 19.7042 42.3611 19.7044C44.255 19.7048 46.9027 19.8608 48.7052 19.6791C49.5503 19.2321 49.2488 15.5293 49.243 14.5473C49.2343 13.0538 49.3788 10.3355 49.1914 8.9884C49.0834 8.21232 48.5296 7.71339 47.8967 7.45422C46.935 7.06039 40.8759 7.18121 39.8216 7.26727L39.8658 9.63168C41.3483 9.6841 42.885 9.65758 44.3739 9.66789C45.8071 9.67781 46.8939 9.38791 46.9844 10.5297L46.9657 11.3192C46.9051 11.6076 47.0234 11.3311 46.8878 11.5002C46.322 11.8139 41.6831 11.3161 40.8213 11.7255Z" fill="#372E38"/>
<path fill-rule="evenodd" clip-rule="evenodd" d="M22.1427 0.182983H22.0499C21.3561 0.681324 7.28753 5.35894 7.14684 5.71472L6.96342 11.4099L16.6266 7.93509C17.3296 7.6836 21.0957 6.41657 21.4365 6.15769C22.0329 5.70463 22.178 4.55002 22.1682 3.56822C22.1581 2.54473 22.2574 1.1536 22.1427 0.182983Z" fill="#372E38"/>
<path fill-rule="evenodd" clip-rule="evenodd" d="M28.2698 19.7028L31.2409 19.7072L31.2284 13.0215L37.4603 13.007L37.4059 10.6195L31.2003 10.6313L31.2562 6.37671L39.8093 6.30255L39.7976 3.91594C38.2445 3.90634 30.96 3.84543 29.6426 3.94119C28.6164 4.01575 28.2909 4.95152 28.2946 6.03696C28.3098 10.5902 28.2751 15.1489 28.2698 19.7028Z" fill="#372E38"/>
<path fill-rule="evenodd" clip-rule="evenodd" d="M93.5969 17.0069V15.4127C93.1945 14.6703 93.8463 14.8744 92.2056 14.2011L86.5935 11.8547C85.9298 11.5742 85.4134 11.3885 85.597 10.3851C85.7779 9.39572 86.5582 9.59978 87.4669 9.60772C89.2397 9.62315 91.0134 9.64312 92.7862 9.65201L92.7849 7.23418C90.4285 7.23758 88.0775 7.24465 85.7265 7.24608C84.4434 7.24679 83.9495 7.69634 83.4839 8.55457C83.0499 9.35458 82.8275 10.4611 82.9513 11.4915C83.0962 12.6965 83.7628 12.7803 84.7687 13.221C86.381 13.9274 88.255 14.5446 89.9296 15.194C90.4162 15.3827 90.7913 15.4576 90.9905 15.8749C91.2198 16.3552 91.1214 17.006 90.7916 17.2389C90.1695 17.44 84.4952 17.2764 83.2718 17.3056L83.2369 19.6974C85.4103 19.6974 87.5823 19.7029 89.7542 19.7028C91.5463 19.7028 92.481 19.8879 93.2116 18.2781C93.388 17.8895 93.4251 17.3635 93.5969 17.0069Z" fill="#372E38"/>
<path fill-rule="evenodd" clip-rule="evenodd" d="M74.6834 9.63226C80.1155 9.53429 80.1951 9.33804 80.1869 11.894C80.1786 14.4879 80.171 17.0817 80.1627 19.69L82.2763 19.6808C82.2763 16.7803 82.2757 13.8797 82.2763 10.9791C82.2767 9.13411 82.1226 8.65156 81.0504 7.78772C80.1231 7.04061 78.6024 7.2791 77.2197 7.27901C71.6188 7.27865 72.2864 6.62361 72.2795 11.0706C72.2751 13.9458 72.2657 16.8212 72.264 19.697L74.6807 19.6764L74.6834 9.63226Z" fill="#372E38"/>
<path fill-rule="evenodd" clip-rule="evenodd" d="M60.3554 19.6446L60.3588 17.7416C60.358 17.6984 60.3511 17.5172 60.3447 17.482C60.3012 17.2411 60.3532 17.3527 60.2399 17.2227C59.9253 17.0725 55.5677 17.1145 54.8011 17.1008C52.2965 17.0557 52.7446 15.7751 52.7375 13.6324C52.7308 11.592 52.3709 10.1691 54.3579 9.70617C55.2612 9.49572 58.6802 9.63216 59.8578 9.62578L59.8617 7.26283C58.4856 7.25457 57.1479 7.25042 55.8104 7.24436C54.3532 7.23781 53.4709 7.08512 52.2514 7.6932C49.7741 8.9285 50.3028 11.1999 50.2803 13.731C50.2585 16.1888 49.7184 18.4199 52.5527 19.4532C53.6318 19.8466 55.1457 19.692 56.3594 19.6884C57.4656 19.6851 59.3413 19.7889 60.3554 19.6446Z" fill="#372E38"/>
<path fill-rule="evenodd" clip-rule="evenodd" d="M0 10.5001V12.3776C0.0969257 12.6428 0.215279 13.813 0.306175 14.2442C0.667361 15.9572 1.3639 17.4632 2.2901 18.8445C3.46686 20.5993 4.9105 21.7942 6.93184 22.9256C6.83621 22.4716 6.64161 22.294 6.63497 21.6849C6.62732 20.9889 6.85015 20.8213 6.97849 20.2845C6.33868 19.9885 4.78586 18.3901 4.32979 17.8106C-2.45861 9.18507 5.64623 -1.21645 15.7622 1.71927C16.2711 1.86699 17.355 1.56594 17.7577 1.29461C15.7795 0.795621 14.5498 0.45395 12.3511 0.255236C7.21043 0.104499 3.33612 1.94923 1.20668 6.15003C0.0702467 8.39184 0.304619 9.68912 0 10.5001Z" fill="#372E38"/>
<path fill-rule="evenodd" clip-rule="evenodd" d="M7.004 18.4309C7.35912 18.4057 13.1371 16.2027 13.9686 15.8898C15.4732 15.3236 16.8587 15.1083 17.0143 14.084C17.1785 13.0035 17.0001 10.5648 16.9843 9.34401C16.6807 9.36965 7.3069 12.9448 6.9438 13.1751L7.004 18.4309Z" fill="#372E38"/>
<path fill-rule="evenodd" clip-rule="evenodd" d="M17.7657 19.6879C16.5252 20.4926 15.0695 21.1119 13.2958 21.2749C13.1851 22.2846 13.7516 22.1536 12.6731 23.7104C17.0198 23.1405 20.5732 20.7076 22.1545 17.947C23.1491 16.2104 23.6653 14.1966 23.6244 11.8025C23.5992 10.3229 23.0949 7.25422 22.5066 5.85567L22.3669 5.60444C22.3609 5.57024 22.3399 5.56428 22.3242 5.5459C21.988 6.11993 22.0616 6.43431 21.5009 6.66058C22.7767 10.2656 22.6003 13.5321 20.7976 16.5907C20.1005 17.7735 18.8795 18.9653 17.7657 19.6879Z" fill="#372E38"/>
<path fill-rule="evenodd" clip-rule="evenodd" d="M9.47276 24.6115H10.3893C10.6849 24.429 11.0152 24.3829 11.3422 24.1493C13.6615 22.4924 12.5816 18.6153 9.79067 18.6654C7.41249 18.7081 6.28377 21.8069 7.78719 23.5963C8.42071 24.3505 8.59686 24.1993 9.47276 24.6115Z" fill="#372E38"/>
</svg>
