<svg width="43" height="42" viewBox="0 0 43 42" fill="none" xmlns="http://www.w3.org/2000/svg">
<path d="M16.5398 0.591136C21.2088 -0.50975 26.2622 0.0247802 30.5723 2.12746C30.8198 2.228 31.0521 2.36326 31.2873 2.49056C32.7878 3.27825 34.1987 4.2475 35.4481 5.39034C39.3017 8.77401 41.7938 13.6513 42.2692 18.7427C42.4148 19.6556 42.3792 20.5829 42.3748 21.5044C42.3748 21.9839 42.2925 22.457 42.2496 22.9336C41.9118 26.0728 40.8321 29.1317 39.1189 31.7914C37.5311 34.2485 35.435 36.3895 32.9654 37.9793C30.4434 39.6596 27.5305 40.7467 24.5309 41.1973C20.429 41.8165 16.1474 41.1995 12.3964 39.4354C9.94724 38.2896 7.73322 36.6585 5.89634 34.6839C3.60005 32.2065 1.9146 29.1672 1.07152 25.9028C0.703848 24.5611 0.532027 23.1759 0.410442 21.7937C0.376223 20.8997 0.354382 19.9977 0.470871 19.1087C0.689287 16.345 1.47413 13.6209 2.78317 11.1725C3.93933 8.96641 5.51556 6.97874 7.38375 5.32451C9.97854 3.02654 13.1536 1.3781 16.5398 0.591136ZM18.9307 2.42691C16.0374 2.66416 13.1623 3.3976 10.5894 4.75092C9.92976 5.09233 9.31383 5.50751 8.67387 5.88291C7.3721 6.68796 6.15844 7.67384 5.25565 8.9165C4.67102 9.72517 4.23637 10.638 3.97791 11.6007C3.16031 15.1435 3.05911 18.8368 3.58331 22.4309C3.9386 24.8244 4.5538 27.1867 5.50027 29.4189C6.15116 30.9791 6.96949 32.4734 7.97057 33.8398C9.07502 35.6213 10.8864 36.8466 12.7903 37.6632C14.3549 38.3272 16.0134 38.7562 17.693 39.0115C21.0282 39.4976 24.4697 39.3616 27.7329 38.5023C29.3222 38.064 30.8825 37.4607 32.2643 36.5544C33.352 35.8521 34.3313 34.9588 35.0324 33.868C35.3644 33.3617 35.5944 32.8011 35.8958 32.2781C37.3709 29.5173 38.4193 26.5278 38.9391 23.4428C39.4961 20.1981 39.4757 16.8672 38.9944 13.6144C38.8634 12.826 38.7833 12.0202 38.4935 11.2694C38.0735 10.0224 37.4277 8.8391 36.5351 7.86263C35.8856 7.11834 35.0841 6.52305 34.2424 6.01022C33.1576 5.40625 32.0837 4.77335 30.9283 4.30753C27.1643 2.71696 23.0027 2.09563 18.9307 2.42691Z" fill="#372E38"/>
<path d="M19.4163 5.43735C22.464 5.26376 25.54 5.41493 28.5396 5.9943C29.9454 6.28146 31.3426 6.66699 32.6363 7.29483C32.9159 7.43877 33.221 7.53207 33.4896 7.69844C34.3749 8.20186 35.0578 9.03006 35.3993 9.98339C36.0509 11.6723 35.8827 13.5117 35.9038 15.2817C35.8798 21.1622 34.7775 27.0283 32.7499 32.5501C32.5635 33.0608 32.3903 33.5794 32.1595 34.072C31.3841 34.8705 30.3633 35.3783 29.3382 35.7884C27.7831 36.3793 26.1319 36.681 24.4799 36.8524C22.3824 37.0556 20.2638 37.0253 18.1699 36.7844C16.7895 36.6108 15.412 36.3663 14.0877 35.9345C13.2177 35.656 12.3644 35.2965 11.6101 34.7779C11.2555 34.5081 10.869 34.2195 10.7161 33.7841C9.24102 30.5082 8.15549 27.058 7.51407 23.526C6.83917 19.8588 6.64114 16.112 6.84426 12.3928C6.78675 11.0958 6.98332 9.70636 7.81403 8.659C8.34551 7.961 9.13473 7.51327 9.95015 7.21743C12.9738 6.08978 16.2056 5.6189 19.4163 5.43735ZM16.6133 12.7645C16.6024 18.3724 16.6082 23.981 16.6111 29.5896C17.1972 29.6026 17.784 29.5961 18.3701 29.5997C18.3599 23.9861 18.3737 18.3731 18.3636 12.7595C17.7804 12.7588 17.1965 12.7624 16.6133 12.7645ZM20.4145 12.766C20.3934 14.183 20.4152 15.6007 20.4057 17.0176C20.4138 21.1941 20.3956 25.3705 20.4138 29.5462C20.9438 29.544 21.4738 29.5368 22.0031 29.5512C22.0271 26.8894 22.049 24.2276 22.0548 21.5666C22.8404 21.5564 23.6267 21.5716 24.4122 21.5658C24.4093 24.0056 24.4188 26.4453 24.4217 28.8843C24.4253 29.1071 24.402 29.3321 24.4443 29.5527C25.0274 29.531 25.6128 29.5491 26.1967 29.5411C26.2047 25.0609 26.2083 20.5792 26.1945 16.1005C25.6521 14.9815 25.0879 13.8719 24.5338 12.758C23.1607 12.7689 21.7876 12.7479 20.4145 12.766ZM10.7619 12.8065C10.7692 18.4028 10.7648 23.9984 10.7634 29.5946C11.3546 29.5975 11.9457 29.6019 12.5369 29.6004C12.5631 26.9285 12.5442 24.2559 12.55 21.5832C13.4164 21.5666 14.2835 21.568 15.1499 21.5825C15.1521 20.9438 15.1528 20.3051 15.1426 19.6664C14.2777 19.6765 13.4128 19.6585 12.5478 19.6729C12.5522 18.0194 12.55 16.3666 12.5471 14.7132C13.6508 14.6777 14.756 14.7175 15.8598 14.6929C15.8641 14.0694 15.851 13.4459 15.8634 12.8231C15.7491 12.7949 15.6312 12.8 15.5147 12.8007C13.9304 12.8065 12.3462 12.7935 10.7619 12.8065ZM26.5534 12.8087C26.5476 13.4459 26.5454 14.0839 26.5498 14.7211C27.125 14.7146 27.7009 14.7283 28.276 14.7334C28.3088 19.6693 28.3343 24.6045 28.3503 29.5404C28.9444 29.5621 29.5392 29.5382 30.134 29.5491C30.15 24.6059 30.1289 19.6621 30.158 14.7189C30.7347 14.7132 31.312 14.7182 31.8894 14.7233C31.9025 14.0875 31.8864 13.4517 31.9163 12.8166C30.1289 12.8043 28.3415 12.8188 26.5534 12.8087Z" fill="#372E38"/>
<path d="M22.0672 14.6459C22.552 14.6415 23.0369 14.6336 23.5225 14.6444C23.7803 15.2737 24.0395 15.903 24.3067 16.5294C24.3584 16.6625 24.4341 16.7956 24.4253 16.9431C24.4181 17.7279 24.4261 18.5127 24.4239 19.2968C23.6347 19.3033 22.8447 19.304 22.0555 19.2946C22.0752 17.7453 22.0482 16.1959 22.0672 14.6459Z" fill="#372E38"/>
</svg>
