<svg width="72" height="18" viewBox="0 0 72 18" fill="none" xmlns="http://www.w3.org/2000/svg">
<path d="M1.01669 0.451933C2.69486 0.374625 4.65878 0.3772 5.83558 1.77905C8.79704 5.6393 11.7923 9.47636 14.7408 13.3469C14.6317 9.04859 14.72 4.74768 14.6966 0.449354C15.6734 0.454508 16.6527 0.454509 17.6295 0.454509C17.6269 5.99492 17.6295 11.5379 17.6295 17.0809C16.4579 17.0757 15.2863 17.0886 14.1147 17.068C10.735 12.5945 7.29293 8.16728 3.87425 3.72207C3.87165 8.17501 3.87685 12.628 3.87165 17.0809C2.8845 17.0783 1.89474 17.0783 0.904989 17.0861C0.897196 11.5405 0.993314 5.99492 1.01669 0.451933Z" fill="#372E38"/>
<path d="M21.1053 0.451932C31.086 0.454509 41.0641 0.454509 51.0447 0.451932C51.0473 1.4389 51.0473 2.42586 51.0395 3.41283C50.9954 3.41025 50.9044 3.39995 50.8603 3.39737C50.5278 3.36129 50.1953 3.33552 49.8627 3.32521C41.7161 3.34583 33.5695 3.32779 25.4254 3.33552C24.0122 3.35356 22.599 3.26852 21.1884 3.37933L21.0975 3.38448C21.1131 2.40782 21.1053 1.43117 21.1053 0.451932Z" fill="#372E38"/>
<path d="M54.5128 0.446777C60.0616 0.459662 65.6079 0.454507 71.1567 0.449353C71.1567 1.36932 71.1567 2.28929 71.1567 3.20925C68.8811 3.20152 66.608 3.20668 64.335 3.20668C64.3376 7.07981 64.3376 10.9529 64.335 14.8287C64.3402 15.6069 64.1168 16.4882 63.4076 16.9263C62.7789 17.2871 62.0048 17.2767 61.3163 17.1273C61.3397 12.4862 61.3163 7.84516 61.3267 3.20668C59.0511 3.21956 56.7754 3.17575 54.5024 3.26595C54.505 2.32536 54.4998 1.38736 54.5128 0.446777Z" fill="#372E38"/>
<path d="M21.1079 7.34524C31.086 7.34781 41.0667 7.34524 51.0473 7.34524C51.0447 8.3219 51.0473 9.29855 51.0421 10.2778C41.0641 10.2752 31.0886 10.2726 21.1105 10.2778C21.1053 9.30113 21.1079 8.3219 21.1079 7.34524Z" fill="#372E38"/>
<path d="M21.1729 14.2385C21.9028 14.2746 22.6354 14.2952 23.368 14.2901C32.5667 14.2592 41.7681 14.3158 50.9668 14.2643L51.0889 14.2617C51.0811 15.2152 51.0811 16.1687 51.0889 17.1247C41.1082 17.1247 31.1301 17.1247 21.1521 17.1247C21.1547 16.1635 21.1391 15.1997 21.1729 14.2385Z" fill="#372E38"/>
</svg>
