<svg width="109" height="19" viewBox="0 0 109 19" fill="none" xmlns="http://www.w3.org/2000/svg">
<path d="M28.5358 2.72289C28.5197 2.89693 28.3209 3.31735 27.8045 3.4344C27.4779 3.5102 27.1615 3.62609 26.8785 3.7489C27.4159 2.65266 27.7635 2.18657 27.9615 1.98989L28.1035 1.91064C28.5047 2.12075 28.5632 2.44868 28.5358 2.72289ZM25.2632 5.0023C25.2296 5.08308 25.0285 5.59081 24.732 6.33532C24.3974 7.17751 21.6281 14.166 21.4821 14.4485C19.8814 17.5436 16.3229 17.415 14.7336 16.1828C15.2412 15.9667 15.7389 15.7222 16.2049 14.6109C16.2699 14.4576 20.1235 4.67667 20.2602 4.35084C20.9389 2.71732 22.0777 1.79647 23.9234 1.61552C24.2663 1.58098 24.6392 1.5639 25.035 1.5639C25.7515 1.5639 26.4419 1.61897 26.9832 1.68057C26.5375 2.2733 25.9845 3.28684 25.2632 5.0023ZM13.8965 15.4609C13.3852 15.0597 12.4922 13.4554 12.4146 11.1321C12.5344 10.8093 14.583 5.45284 14.6235 5.35824C15.165 4.06474 15.8421 3.5407 16.2612 3.59175C16.7731 3.99298 17.6661 5.59695 17.7434 7.92011C17.6245 8.24209 15.5749 13.5998 15.5344 13.6949C14.9928 14.9868 14.3165 15.5103 13.8965 15.4609ZM9.89872 14.7018C9.22008 16.3358 8.0812 17.256 6.23454 17.4378C5.89147 17.4717 5.51863 17.488 5.12341 17.488C4.40714 17.488 3.71656 17.432 3.17464 17.3714C3.62123 16.7784 4.17401 15.7656 4.89493 14.0499C4.92949 13.9691 5.13053 13.4619 5.42622 12.7178C5.76096 11.8749 8.46026 4.88659 8.60559 4.60452C10.2065 1.50921 13.836 1.63797 15.4246 2.87026C14.9165 3.08421 14.4891 3.33059 14.0234 4.4418C13.9591 4.5955 10.0343 14.3761 9.89872 14.7018ZM2.12227 17.1046C1.72126 16.8943 1.63026 16.6045 1.65709 16.3301C1.67313 16.154 1.83796 15.7357 2.35373 15.6183C2.68045 15.5424 2.99753 15.4271 3.27973 15.302C2.74305 16.4002 2.39435 16.8658 2.19662 17.0608L2.12227 17.1046ZM28.2338 0.407023C27.8059 0.333148 26.4859 0.128021 25.035 0.128021C24.5947 0.128021 24.1727 0.147978 23.7826 0.185779C20.7767 0.482626 19.5508 2.3159 18.9335 3.79898C18.9081 3.86058 18.6557 4.59109 18.5203 4.94761C18.0535 2.82133 15.7643 0.644002 13.056 0.642083C11.69 0.687368 9.07751 0.736491 7.37393 3.92851C7.18355 4.28465 4.45697 11.2693 4.11173 12.1364C3.81131 12.894 3.78965 13.0906 3.64042 13.3571C3.49065 13.6246 3.20484 14.0564 2.18643 14.198C0.870888 14.3838 0.223875 15.3721 0.2229 16.4549C0.2229 17.5359 1.14395 18.3634 1.92461 18.5759C2.69224 18.7837 3.67243 18.8548 5.12279 18.8548C5.56353 18.8548 5.98622 18.835 6.37561 18.7961C9.38154 18.4998 10.6977 16.5518 11.2726 15.3181C11.2998 15.2586 11.5375 14.6359 11.6725 14.2795C12.164 16.1272 14.3944 18.4089 17.1023 18.4112C18.4679 18.3654 21.0108 18.3144 22.7148 15.1241C22.9043 14.7682 26.3708 5.92431 26.4013 5.85005C26.4099 5.83565 26.786 4.87719 28.1257 4.77318C29.1132 4.67667 29.9911 3.67311 30.0087 2.59011C30.0287 1.34822 28.89 0.538081 28.2338 0.407023Z" fill="#372E38"/>
<path d="M93.4652 13.5788C93.0103 14.2476 92.3955 14.5559 91.5343 14.5559C90.6823 14.5559 90.0516 14.2379 89.6035 13.581C89.2219 13.0167 89.0286 12.2651 89.0286 11.3472C89.0286 10.4338 89.2234 9.67318 89.602 9.09196C90.0516 8.43302 90.6823 8.11315 91.5343 8.11315C92.4014 8.11315 93.0118 8.42938 93.4618 9.10827C93.8448 9.69582 94.038 10.4495 94.038 11.3472C94.038 12.2673 93.8448 13.0167 93.4652 13.5788ZM91.5343 5.38127C89.8204 5.38127 88.4125 5.95405 87.3491 7.08886C86.2971 8.2089 85.7643 9.64861 85.7643 11.3696C85.7643 13.0888 86.2887 14.5222 87.3272 15.6294C88.4066 16.775 89.8213 17.358 91.5343 17.358C93.2609 17.358 94.6705 16.7906 95.7193 15.6713C96.773 14.5514 97.3037 13.104 97.3037 11.3696C97.3037 9.64861 96.773 8.2089 95.7193 7.08886C94.6551 5.95405 93.2484 5.38127 91.5343 5.38127Z" fill="#372E38"/>
<path d="M48.3969 1.61014H47.1644C46.6436 1.68843 45.5601 2.02596 45.3732 3.51787V11.4283C45.3657 11.795 45.0529 11.839 44.8773 11.5492C44.8729 11.5421 44.8654 11.5398 44.8581 11.5363L40.7602 4.11252C39.0294 0.835119 35.1246 1.61014 35.1246 1.61014C34.9588 1.61014 34.8246 1.74389 34.8246 1.91064V16.8188C34.8246 16.9833 34.9588 17.1175 35.1246 17.1175H36.165C36.7464 17.0876 38.1491 16.8166 38.1491 14.8836V6.89736C38.207 6.64752 38.4478 6.6316 38.6063 6.84823L43.2404 15.1882C44.0138 16.5478 45.1362 17.2349 46.574 17.2349C47.1399 17.2349 47.9308 17.154 48.5086 16.9218C48.6233 16.8768 48.6982 16.7673 48.6982 16.6444V1.91064C48.6982 1.74389 48.5646 1.61014 48.3969 1.61014Z" fill="#372E38"/>
<path d="M56.3283 9.97981H53.4235C52.9749 9.97981 53.0208 9.6467 53.0486 9.53694C53.3272 8.67902 54.0003 8.13886 54.8794 8.13886C55.4809 8.13886 55.9478 8.33497 56.303 8.72507C56.4972 8.96512 56.632 9.24374 56.7101 9.57493C56.7355 9.70906 56.7291 9.97981 56.3283 9.97981ZM54.8584 5.38127C53.1785 5.38127 51.8313 5.98092 50.8559 7.16734C49.9569 8.2513 49.5008 9.67318 49.5008 11.3923C49.5008 13.172 50.0435 14.628 51.1138 15.7245C52.2008 16.8074 53.6358 17.358 55.3804 17.358C56.6854 17.358 57.9511 17.0853 59.2486 16.5261C59.3987 16.4627 59.4689 16.288 59.4065 16.1391L58.966 15.0565C58.4644 14.1621 57.4311 14.2512 57.0599 14.3156C56.571 14.4293 56.0662 14.4918 55.5335 14.4918C54.2231 14.4918 53.4128 14.0124 53.0724 13.0338C53.0678 12.9886 53.0411 12.6289 53.4537 12.6289H59.6519C59.8014 12.6289 59.9277 12.5189 59.9507 12.373C60.0486 11.6971 60.1059 11.1576 60.1059 10.8895C60.1059 9.26676 59.6473 7.93661 58.7418 6.93958C57.7995 5.90531 56.4922 5.38127 54.8584 5.38127Z" fill="#372E38"/>
<path d="M108.176 12.8625H108.171V9.739C108.171 6.96779 106.465 5.39605 103.119 5.55973C102.325 5.59945 101.986 5.78961 101.609 5.99032C101.244 6.17434 101.237 5.82569 101.237 5.82569H101.236C101.207 5.68945 101.093 5.58545 100.948 5.58545H98.3315C98.1649 5.58545 98.0327 5.71976 98.0327 5.88613L98.0227 16.8188C98.0227 16.9833 98.1572 17.1175 98.3226 17.1175H99.2617C99.8333 17.0893 101.185 16.8227 101.24 14.9933L101.247 9.88291V9.53138C101.247 9.53138 101.247 8.46526 102.24 8.18664C102.546 8.1262 102.833 8.09396 103.096 8.09396C104.364 8.09396 104.955 8.63738 104.955 9.79906V13.7306C104.955 13.742 104.959 13.7517 104.959 13.7628L104.961 14.9706C105.017 16.7995 106.37 17.0657 106.939 17.0952H107.879C108.044 17.0952 108.179 16.9605 108.179 16.794L108.176 12.8625Z" fill="#372E38"/>
<path d="M85.947 16.7069L85.5521 15.5484C85.2481 14.8261 84.8346 14.5827 84.2958 14.6179C83.9542 14.6226 83.6142 14.6179 83.3571 14.5485C83.0579 14.4595 82.9252 14.2342 82.9252 13.899V8.79089C82.9323 8.7055 82.9796 8.56005 83.1579 8.50459H83.9734V8.48636H84.5247C85.4962 8.3697 85.7075 7.49796 85.7463 6.99426V5.92047C85.7463 5.75603 85.6117 5.62132 85.4463 5.62132H83.374C83.3552 5.61653 83.3333 5.61384 83.3057 5.61384C82.9894 5.61384 82.9323 5.40526 82.9252 5.29761V2.93454C82.9252 2.76779 82.7897 2.63597 82.6249 2.63597H81.6773C80.1814 2.63597 79.8011 3.83218 79.7103 4.60087V14.1791C79.7103 16.391 80.9391 17.5096 83.3655 17.5096C84.1755 17.5096 85.0275 17.47 85.7624 17.0876C85.9072 17.0118 86.0001 16.8639 85.947 16.7069Z" fill="#372E38"/>
<path d="M78.7229 5.59945H77.2436C75.9447 5.59945 75.3885 6.81811 75.2534 7.12877C75.2449 7.15142 73.456 11.6894 73.456 11.6894C73.4433 11.7142 73.4303 11.7426 73.4186 11.7732C73.2933 12.1476 73.029 12.055 72.9615 11.8316C72.9596 11.818 72.9511 11.813 72.9425 11.8081L71.1605 6.84133C70.7045 5.97151 69.899 5.69712 69.299 5.62132H68.3451C68.2158 5.62132 68.1014 5.70268 68.0606 5.82568L65.7126 11.788C65.587 12.1625 65.2575 12.0701 65.1911 11.8467C65.1871 11.8368 65.1811 11.8316 65.1757 11.8279L63.5574 7.20591C63.1625 6.06784 62.322 5.71899 61.6508 5.62132H60.1249C60.0273 5.62132 59.9344 5.66987 59.8782 5.74988C59.8212 5.83182 59.8093 5.9339 59.8444 6.02678L63.0823 14.9617C64.0319 17.072 64.872 17.2921 66.5447 17.2921C66.6728 17.2921 66.786 17.2104 66.829 17.0893L69.1125 11.2883C69.114 11.2823 69.119 11.2748 69.1209 11.2676C69.2364 10.9245 69.4615 10.9738 69.549 11.1566L70.9053 14.9348C71.6152 16.8312 72.444 17.2921 74.4033 17.2921C74.53 17.2921 74.6424 17.2144 74.6852 17.0952L78.9971 5.99435C79.0314 5.90531 79.0184 5.80534 78.9623 5.72686C78.9101 5.64799 78.8194 5.59945 78.7229 5.59945Z" fill="#372E38"/>
</svg>
