<svg width="53" height="42" viewBox="0 0 53 42" fill="none" xmlns="http://www.w3.org/2000/svg">
<path d="M13.5021 4.93275C15.316 2.81322 17.5644 0.855562 20.3425 0.195097C22.6256 -0.374716 25.0989 0.339709 26.8544 1.86784C30.0151 4.60683 31.5674 8.69481 32.4365 12.6792C28.4693 14.7836 25.6458 18.5262 23.7736 22.5214C23.0861 24.0366 22.5002 25.6489 22.4613 27.3324C22.4353 28.2735 22.7553 29.2383 23.5012 29.8513C20.7252 30.1383 17.9557 30.5679 15.1603 30.6391C13.2794 30.6218 11.245 30.5074 9.65384 29.3894C8.26154 28.4224 7.58052 26.754 7.31892 25.1352C6.83681 22.0358 7.24109 18.8629 8.01291 15.8434C9.06579 11.8871 10.8278 8.0624 13.5021 4.93275Z" fill="#372E38"/>
<path d="M26.636 33.9781C26.9862 33.991 27.3386 34.004 27.6889 34.0277C27.624 34.2587 27.6824 34.468 27.8618 34.6515L27.9007 34.7184C27.9807 35.5537 28.1494 36.3761 28.3504 37.1919L28.3461 37.3214C28.2921 37.6042 28.3764 37.8783 28.5061 38.1287L28.5385 38.3941C28.5277 38.6791 28.5882 38.9618 28.7244 39.2143C28.9342 39.6266 28.9493 40.095 28.9904 40.5482C28.5818 40.5547 27.7429 40.695 27.9505 39.9957C27.9959 39.6417 27.9461 39.2791 27.7732 38.964C27.7256 38.8625 27.6348 38.6575 27.5894 38.556C26.8457 38.5344 26.1042 38.5366 25.3604 38.5344C25.2869 38.6769 25.1378 38.964 25.0621 39.1086C25.0578 39.1172 25.0491 39.1345 25.0448 39.1431C24.9389 39.3481 24.8286 39.5532 24.7162 39.7582C24.5692 40.0108 24.4222 40.2611 24.273 40.5115C24.0092 40.4986 23.7455 40.4835 23.4817 40.464L23.4341 40.2331C23.6439 39.769 23.8882 39.3201 24.1195 38.8668C24.1238 38.856 24.1368 38.8345 24.1411 38.8237L24.327 38.4589C24.3314 38.4481 24.3422 38.4287 24.3465 38.42L24.5411 38.0337C24.5476 38.0229 24.5584 38.0013 24.5627 37.9905L24.7616 37.5999C24.7681 37.5891 24.781 37.5632 24.7875 37.5524L24.9843 37.1639C24.9908 37.1509 25.0037 37.1272 25.008 37.1142L25.2005 36.7344C25.2069 36.7257 25.2156 36.7063 25.2221 36.6955L25.4167 36.3113C25.421 36.3005 25.4318 36.2811 25.4383 36.2703L25.6372 35.8796C25.6437 35.8667 25.6566 35.8451 25.661 35.8321L25.8599 35.4415C25.8642 35.4307 25.875 35.4091 25.8793 35.4005L26.0782 35.0076C26.0825 34.999 26.0912 34.9796 26.0955 34.9709L26.2922 34.5954C26.2987 34.5846 26.3095 34.563 26.3139 34.5544C26.3939 34.4098 26.556 34.1227 26.636 33.9781ZM26.6468 35.9444C26.5452 36.1278 26.4479 36.3135 26.3528 36.5012C26.3463 36.5142 26.3333 36.5401 26.3268 36.5552C26.1863 36.8358 26.0566 37.1229 25.9399 37.4164L25.8036 37.2049C25.7907 37.3344 25.7626 37.5912 25.7496 37.7207C26.3463 37.7207 26.943 37.7186 27.5397 37.7099C27.49 37.3689 27.4532 37.0171 27.2608 36.7192L27.2543 36.6847C27.3084 36.1559 27.2089 35.6357 27.0295 35.1415C26.8522 35.3854 26.7246 35.653 26.6468 35.9444Z" fill="#372E38"/>
<path d="M5.99148 36.92C6.40658 35.7998 7.92427 34.8738 8.92958 35.8753L8.98147 35.9185C9.38143 35.8839 9.77923 35.8127 10.1705 35.7178C10.1316 36.1019 10.0689 36.4861 9.97597 36.8617C9.69708 37.9258 9.48304 39.0568 9.73815 40.1489C9.75977 40.246 9.80301 40.4403 9.82247 40.5374C9.50466 40.5396 9.18469 40.5417 8.86689 40.5439C8.83229 40.2266 8.79986 39.9093 8.7696 39.5942C8.41936 39.9525 8.07993 40.3583 7.59133 40.5309C6.96869 40.8029 6.19471 40.5288 5.85312 39.9547C5.7234 39.128 5.75151 38.2884 5.83798 37.4596C5.87258 37.3322 5.94176 37.0797 5.97635 36.9545C5.97851 36.9459 5.98716 36.9286 5.99148 36.92ZM7.88968 36.4106L7.6497 36.3869C7.29082 36.3307 7.14597 36.484 7.21515 36.8487C6.96869 37.1682 6.7806 37.5524 6.74601 37.9582C6.3374 38.0423 6.3374 39.0654 6.74817 39.1539L6.77411 39.4086C6.6098 40.0475 7.87455 40.123 7.84428 39.5014C8.09507 39.2143 8.41071 38.9035 8.45179 38.5107L8.64637 38.5042L8.76744 38.31L8.69177 38.1308L8.69825 37.902L8.8885 37.8394L8.95337 37.6128L8.82797 37.4596C8.85824 37.3603 8.91661 37.1639 8.94688 37.0646C9.38792 37.0452 9.05498 36.2271 8.70258 36.3717L8.42801 36.4041C8.5534 36.0221 7.74267 36.035 7.88968 36.4106Z" fill="#372E38"/>
<path d="M45.3218 35.5926C45.6374 35.4846 46.0223 35.3573 46.3466 35.5062C46.6082 35.6465 46.8676 35.7955 47.1249 35.9487C47.5464 35.858 47.9659 35.7631 48.3831 35.6552C48.3334 35.7803 48.2339 36.0307 48.1842 36.1581C48.0286 36.4797 47.9788 36.8401 48.0069 37.1962C47.9421 38.3057 47.7756 39.4194 47.9334 40.5331C47.6221 40.5288 47.3129 40.5266 47.0016 40.5223C46.9735 40.2266 46.9454 39.9331 46.9195 39.6374C46.6211 39.905 46.3293 40.1791 45.9942 40.4036C45.9877 40.4058 45.9769 40.4144 45.9704 40.4165C45.3326 40.8245 44.4267 40.641 44.0246 39.9978C44.0203 39.9913 44.0116 39.9784 44.0073 39.9719L43.923 39.8252C43.8689 39.0525 43.8646 38.2798 43.9079 37.507L43.9727 37.4509C44.016 37.3452 44.1003 37.1358 44.1435 37.03L44.2127 36.7516C44.2149 36.743 44.2214 36.73 44.2257 36.7214C44.4829 36.2725 44.8224 35.8494 45.2915 35.6077C45.3002 35.6034 45.3153 35.5969 45.3218 35.5926ZM45.6331 36.5466C45.3802 36.7732 45.1856 37.0559 45.0191 37.3516C44.6754 37.8481 44.5824 38.4977 44.7662 39.0719C44.9543 39.4539 45.3412 39.9762 45.8082 39.6158C46.1952 39.7 46.3466 39.5489 46.2666 39.1625C46.4806 38.8496 46.7487 38.4999 46.74 38.1092L46.9303 38.0747L47.0211 37.861L46.9151 37.6927C47.0189 37.3344 47.0795 36.9653 47.1486 36.5984C47.0341 36.5444 46.8027 36.4343 46.6881 36.3804C46.66 35.8839 45.6093 36.1214 45.6331 36.5466Z" fill="#372E38"/>
<path d="M33.2559 12.9943C35.0287 12.1676 37.0782 11.8698 38.9808 12.4137C41.9578 13.2101 44.23 15.5649 45.8017 18.114C47.4362 20.8271 48.5301 23.9308 48.6231 27.1144C48.6793 28.2131 48.3593 29.5361 47.2546 30.0218C45.845 30.6197 44.2711 30.3024 42.8161 30.0736C37.6901 29.193 32.4646 29.0764 27.2846 29.4455C29.853 28.1483 31.8031 25.7935 32.737 23.0891C33.8699 19.8623 33.8894 16.329 33.2559 12.9943Z" fill="#372E38"/>
<path d="M25.4664 20.5659C27.2457 17.6499 29.5309 14.9131 32.5662 13.2447C33.2386 16.806 33.2148 20.6415 31.7469 24.0085C30.5686 26.5403 28.4693 28.88 25.661 29.5426C24.9886 29.657 24.1108 29.8966 23.6006 29.2944C22.9953 28.5908 23.0342 27.585 23.099 26.7173C23.3693 24.5114 24.3508 22.4653 25.4664 20.5659Z" fill="#372E38"/>
<path d="M7.66267 33.8335C7.7578 33.8378 7.94589 33.8443 8.03886 33.8486C7.93508 33.8918 7.7297 33.9781 7.62592 34.0191L7.66267 33.8335Z" fill="#372E38"/>
<path d="M8.03886 33.8486C8.09074 33.8421 8.19668 33.8313 8.24857 33.8249C8.69177 34.1723 9.21929 34.3472 9.69491 33.95L10.0927 34.0493L9.92408 34.1745C9.69708 34.2889 9.56952 34.4659 9.54358 34.7055L9.34684 34.6882C9.07443 34.658 8.80419 34.6494 8.53178 34.658C8.39558 34.6191 8.12317 34.5457 7.98697 34.5069C7.88103 34.5868 7.667 34.7443 7.56106 34.8242C7.4508 34.7292 7.23028 34.5393 7.12003 34.4465C7.21515 34.3321 7.40756 34.1054 7.50269 33.991L7.62592 34.0191C7.7297 33.9781 7.93508 33.8918 8.03886 33.8486Z" fill="#372E38"/>
<path d="M8.24857 33.8249C8.53178 33.9177 8.81716 34.0105 9.10038 34.1054C9.33387 33.8982 9.60628 33.8011 9.9176 33.8141L9.69491 33.95C9.21929 34.3472 8.69177 34.1723 8.24857 33.8249Z" fill="#372E38"/>
<path d="M36.7864 34.1853C36.8145 33.8011 37.0047 33.6954 37.3528 33.8637C37.2036 34.0407 37.0155 34.1486 36.7864 34.1853Z" fill="#372E38"/>
<path d="M37.3528 33.8637C37.4285 33.7925 37.5798 33.65 37.6555 33.581C37.7355 33.6975 37.8933 33.9328 37.9733 34.0493C37.7895 34.2457 37.6101 34.4465 37.4306 34.6472C37.195 34.7724 36.9529 34.876 36.6999 34.9602C36.6286 34.9256 36.488 34.8566 36.4188 34.822C36.2826 34.5954 36.3475 34.4011 36.6156 34.2349L36.7864 34.1853C37.0155 34.1486 37.2036 34.0407 37.3528 33.8637Z" fill="#372E38"/>
<path d="M1.52705 34.0083C2.31832 34.0515 3.16365 33.8572 3.92033 34.1098C4.03275 34.1313 4.25976 34.1745 4.37434 34.1983L4.68134 34.2997C4.68999 34.304 4.70296 34.3105 4.70944 34.3148C4.97969 34.481 5.19805 34.699 5.36235 34.9688C5.36668 34.9753 5.37316 34.9904 5.37749 34.9969C5.78826 35.817 5.40343 36.8336 4.69863 37.3603C3.91601 37.9711 2.87827 38.0315 1.92268 38.0251C1.78432 38.8539 1.64811 39.6827 1.49462 40.5115L1.27626 40.4835C1.14438 40.4878 0.878458 40.4986 0.746579 40.505L0.469849 40.5612C0.510926 40.0302 0.545517 39.4906 0.750903 38.9942C0.900078 38.6683 0.982232 38.3164 0.945479 37.9603C0.930345 37.438 0.988718 36.907 1.19194 36.4235C1.32382 36.1624 1.38219 35.871 1.37355 35.5796L1.40165 35.3249C1.52704 34.9947 1.68271 34.6386 1.57677 34.2781L1.52705 34.0083ZM2.6664 34.8803L2.44371 34.8652C2.44588 34.9947 2.4502 35.2537 2.45236 35.3854C2.03078 35.394 2.0243 36.1408 2.26427 36.389L2.22536 36.5142C2.0697 36.7214 1.98754 36.9567 1.97457 37.2178C2.45669 37.2157 2.98637 37.3214 3.40146 37.0106L3.60901 36.9351C3.61766 36.9286 3.63711 36.92 3.64576 36.9157L3.88142 36.7797C4.23814 36.8746 4.40893 36.7408 4.38947 36.3804L4.35705 36.0955C4.71377 36.2228 4.73755 35.4264 4.3765 35.5321L4.41974 35.3206C4.31164 35.2559 4.09112 35.1264 3.98086 35.0594C3.91817 34.6666 2.76585 34.3601 2.6664 34.8803Z" fill="#372E38"/>
<path d="M12.2633 35.6595C13.2535 35.2559 14.6328 35.3789 15.0847 36.4969C15.0868 36.5034 15.0933 36.5164 15.0976 36.5228C15.3311 37.1574 15.3484 37.874 15.1387 38.5172C15.0933 38.6208 14.9982 38.828 14.9506 38.9316C14.5572 40.2525 12.8492 41.0921 11.5953 40.382C10.6246 39.8036 10.5121 38.4503 10.871 37.4833C10.9229 37.384 11.0288 37.1833 11.0829 37.0818C11.1088 36.7495 11.3942 36.512 11.5477 36.2314L11.7358 36.2077C11.9952 36.1926 12.1552 36.0566 12.2179 35.8041L12.2633 35.6595ZM12.5768 36.5595C12.3844 36.743 12.2158 36.9437 12.0687 37.1639C12.0644 37.1703 12.0558 37.1833 12.0536 37.1898C11.658 37.8891 11.6839 38.7201 11.9217 39.4669C12.192 39.6417 12.4471 39.946 12.8103 39.8597C13.3465 39.8079 13.6837 39.3093 13.9367 38.8863C14.0015 38.7762 14.0534 38.6596 14.0945 38.5409C14.4707 37.8999 14.4058 37.0495 13.9172 36.4883C13.848 36.4559 13.714 36.389 13.647 36.3545C13.5886 35.8861 12.5379 36.1149 12.5768 36.5595Z" fill="#372E38"/>
<path d="M30.1038 36.7818C30.5318 35.6983 31.9241 35.2774 32.9986 35.517C33.4137 35.7696 34.0818 36.0415 33.7856 36.6588C33.7034 36.6782 33.5434 36.7171 33.4635 36.7387C32.9359 36.443 32.3414 36.2099 31.7512 36.484C31.7296 36.4926 31.6885 36.512 31.669 36.5207C31.3426 36.73 31.0615 37.002 30.8432 37.3193C30.8345 37.3365 30.8151 37.3711 30.8043 37.3883C30.5124 37.9733 30.547 38.6359 30.7048 39.251C30.7459 39.4928 30.8972 39.6309 31.1545 39.6676L31.3555 39.7367C31.6366 39.8877 31.9933 39.9395 32.2549 39.7151C32.4776 39.5575 32.7219 39.4669 32.9878 39.4388C33.0743 39.4172 33.2429 39.3697 33.3294 39.346C33.3445 39.5359 33.3791 39.9158 33.3964 40.1057C33.2624 40.1424 32.9965 40.2115 32.8624 40.246C32.7673 40.3086 32.5771 40.4317 32.4819 40.4921L32.2311 40.5245C32.1209 40.5482 31.9025 40.5979 31.7944 40.6238C31.442 40.9518 31.0615 41.526 30.4973 41.308C30.3913 41.2605 30.1773 41.1677 30.0713 41.1202C30.147 41.0425 30.3027 40.8849 30.3805 40.8051C30.3892 40.8007 30.4086 40.7878 30.4173 40.7813C30.534 40.7187 30.7653 40.5935 30.8821 40.5309C30.4216 40.3151 29.9373 40.0604 29.7362 39.5597C29.7341 39.5532 29.7276 39.5381 29.7233 39.5316C29.5179 38.9273 29.4184 38.1805 29.7168 37.5955C29.9135 37.3603 30.0497 37.0818 30.1038 36.7818Z" fill="#372E38"/>
<path d="M41.3373 35.571C41.841 35.34 42.4248 35.4803 42.9371 35.6098C42.948 35.612 42.9696 35.6185 42.9804 35.6228L43.2744 35.735C43.3782 36.0005 43.4668 36.2703 43.5382 36.5466C43.4409 36.5897 43.2506 36.6782 43.1555 36.7214C42.5199 36.3027 41.7935 36.3199 41.1016 36.5725C40.8573 36.607 40.7082 36.7451 40.6541 36.989C40.2088 37.8761 39.9666 39.21 41.0671 39.7259C41.3157 39.9611 41.707 39.9072 41.9643 39.7151C42.2064 39.5813 42.4485 39.4496 42.6928 39.3179C42.7491 39.6093 42.8226 39.8964 42.8896 40.1856L42.5891 40.2611C42.4875 40.313 42.2842 40.4165 42.1805 40.4683C41.2314 40.8461 39.8974 40.5676 39.4391 39.5748C39.1537 38.9186 39.1645 38.133 39.4023 37.4639C39.4564 37.3668 39.5688 37.1703 39.625 37.0732C39.6596 36.7149 39.9364 36.3458 40.2736 36.212C40.5417 36.1581 40.7082 36.007 40.7752 35.7609L40.9309 35.7739C41.0325 35.7242 41.2357 35.6206 41.3373 35.571Z" fill="#372E38"/>
<path d="M3.92033 34.1098L4.06086 33.9716L4.29219 34.0169L4.37434 34.1983C4.25976 34.1745 4.03275 34.1313 3.92033 34.1098Z" fill="#372E38"/>
<path d="M27.6889 34.0277C28.0197 34.1421 28.0759 34.3493 27.8618 34.6515C27.6824 34.468 27.624 34.2587 27.6889 34.0277Z" fill="#372E38"/>
<path d="M37.9733 34.0493C38.477 34.1551 37.7506 34.9731 37.4306 34.6472C37.6101 34.4465 37.7895 34.2457 37.9733 34.0493Z" fill="#372E38"/>
<path d="M1.40165 35.3249C1.20708 35.0551 1.18762 34.3321 1.57677 34.2781C1.68271 34.6386 1.52704 34.9947 1.40165 35.3249Z" fill="#372E38"/>
<path d="M9.92408 34.1745C9.69708 34.2889 9.56952 34.4659 9.54358 34.7055C9.90462 34.7012 10.03 34.5242 9.92408 34.1745Z" fill="#372E38"/>
<path d="M35.8546 34.7314C36.1097 34.5695 36.3648 34.4033 36.6156 34.2349C36.3475 34.4011 36.2826 34.5954 36.4188 34.822C36.488 34.8566 36.6286 34.9256 36.6999 34.9602C36.4988 35.0379 36.2978 35.1156 36.0967 35.1933C36.0362 35.0767 35.9151 34.8458 35.8546 34.7314Z" fill="#372E38"/>
<path d="M6.99896 34.4745L7.12003 34.4465C7.23028 34.5393 7.4508 34.7292 7.56106 34.8242L7.55025 34.945C7.29082 35.1134 6.86924 34.7551 6.99896 34.4745Z" fill="#372E38"/>
<path d="M3.98086 35.0594C3.91817 34.6666 2.76585 34.3601 2.6664 34.8803C3.10744 34.9191 3.55064 34.958 3.98086 35.0594Z" fill="#372E38"/>
<path d="M9.34684 34.6882C9.07443 34.658 8.80419 34.6494 8.53178 34.658C8.47341 35.0314 9.37062 35.0551 9.34684 34.6882Z" fill="#372E38"/>
<path d="M27.9007 34.7184C28.1926 35.5062 28.3396 36.3502 28.3504 37.1919C28.1494 36.3761 27.9807 35.5537 27.9007 34.7184Z" fill="#372E38"/>
<path d="M2.45236 35.3854C2.03078 35.394 2.0243 36.1408 2.26427 36.389C2.39399 36.0696 2.48912 35.7307 2.45236 35.3854Z" fill="#372E38"/>
<path d="M26.6468 35.9444C26.7246 35.653 26.8522 35.3854 27.0295 35.1415C27.2089 35.6357 27.3084 36.1559 27.2543 36.6847C27.17 36.2336 27.0835 35.7825 27.0057 35.3292C26.9149 35.4825 26.7355 35.789 26.6468 35.9444Z" fill="#372E38"/>
<path d="M1.19194 36.4235C0.945479 36.2207 0.982232 35.5537 1.37355 35.5796C1.38219 35.871 1.32382 36.1624 1.19194 36.4235Z" fill="#372E38"/>
<path d="M4.35705 36.0955C4.71377 36.2228 4.73755 35.4264 4.3765 35.5321C4.37218 35.6724 4.36137 35.9552 4.35705 36.0955Z" fill="#372E38"/>
<path d="M8.92958 35.8753C9.10903 35.4652 9.97813 35.3141 10.1705 35.7178C9.77923 35.8127 9.38143 35.8839 8.98147 35.9185L8.92958 35.8753Z" fill="#372E38"/>
<path d="M18.8508 35.6573C19.0238 35.6185 19.3718 35.5429 19.5448 35.5041C19.6723 36.0933 19.4453 36.6933 19.2681 37.2502C19.3286 36.7581 19.3956 36.2681 19.4691 35.7782C19.3913 35.7674 19.2335 35.7415 19.1556 35.7307L18.8508 35.6573Z" fill="#372E38"/>
<path d="M32.9986 35.517C33.3575 35.64 33.7099 35.7933 34.0407 35.9832C33.9564 36.4279 33.831 37.1077 33.2083 36.8034L33.4635 36.7387C33.5434 36.7171 33.7034 36.6782 33.7856 36.6588C34.0818 36.0415 33.4137 35.7696 32.9986 35.517Z" fill="#372E38"/>
<path d="M40.9611 35.5775L41.1687 35.476L41.3373 35.571C41.2357 35.6206 41.0325 35.7242 40.9309 35.7739L40.9611 35.5775Z" fill="#372E38"/>
<path d="M46.3466 35.5062C46.7314 35.5883 47.1486 35.8688 47.5248 35.5947C47.8015 35.4458 48.1064 35.5753 48.3831 35.6552C47.9659 35.7631 47.5464 35.858 47.1249 35.9487C46.8676 35.7955 46.6082 35.6465 46.3466 35.5062Z" fill="#372E38"/>
<path d="M49.5571 35.571C49.903 35.5926 50.251 35.6185 50.597 35.6508C50.5256 35.9185 50.3851 36.4559 50.3159 36.7257C50.7072 36.3243 51.0834 35.8839 51.6044 35.6444C51.6109 35.6422 51.6261 35.6357 51.6325 35.6336C51.9655 35.5019 52.3092 35.4523 52.6681 35.4803L52.4973 35.7696C52.3265 35.9379 52.2595 36.1365 52.2898 36.361C52.1644 36.3653 51.9136 36.3739 51.7882 36.3782C51.2909 36.389 50.9666 36.8531 50.8153 37.2804C50.6899 37.5632 50.5753 37.8589 50.3808 38.1071C50.331 38.2107 50.2337 38.4157 50.184 38.5193L50.1689 38.746C50.1213 38.8496 50.0284 39.0568 49.9808 39.1604C49.983 39.6244 49.8597 40.0798 49.7733 40.5353C49.449 40.5417 49.1268 40.5482 48.8047 40.5547C48.9625 38.8819 49.2846 37.2265 49.5571 35.571Z" fill="#372E38"/>
<path d="M11.7358 36.2077C11.7163 35.8688 11.8763 35.735 12.2179 35.8041C12.1552 36.0566 11.9952 36.1926 11.7358 36.2077Z" fill="#372E38"/>
<path d="M18.7059 36.6372C18.4876 36.3912 18.5395 35.8041 18.8962 35.7221C18.9481 36.0394 18.8335 36.3523 18.7059 36.6372Z" fill="#372E38"/>
<path d="M18.8962 35.7221L19.1556 35.7307C19.2335 35.7415 19.3913 35.7674 19.4691 35.7782C19.3956 36.2681 19.3286 36.7581 19.2681 37.2502C19.1146 38.3423 18.853 39.4302 18.9784 40.5417C18.7168 40.5374 18.453 40.5331 18.1914 40.5288L18.2454 40.2698C18.2887 40.1489 18.3687 39.6957 18.1049 39.8467C17.8671 40.0108 17.6833 40.2374 17.4801 40.4403C17.0088 40.8784 16.2478 40.4511 16.0251 39.9331C16.0057 39.223 16.0532 38.5085 16.2327 37.82C16.518 37.3301 16.9353 36.8487 17.5363 36.7818C17.8866 36.7991 18.2022 36.9718 18.5243 37.0926C18.5697 36.9782 18.6605 36.7516 18.7059 36.6372C18.8335 36.3523 18.9481 36.0394 18.8962 35.7221ZM17.3245 37.5955C17.2423 37.6991 17.078 37.9042 16.998 38.0078C16.9937 38.0143 16.9872 38.0272 16.9829 38.0337L16.8769 38.3294L16.6932 38.4006L16.637 38.6294L16.7688 38.7762C16.7688 38.964 16.7688 39.3395 16.7688 39.5251C16.7732 39.5338 16.7775 39.551 16.7818 39.5575C16.9634 39.987 17.2423 40.0453 17.6185 39.7345C17.6271 39.7259 17.6466 39.7086 17.6552 39.7021C17.7568 39.5489 17.9622 39.2424 18.0638 39.0891C18.0682 39.0784 18.0768 39.0611 18.0811 39.0503C18.2692 38.5992 18.36 38.1157 18.4465 37.6366C18.4465 37.0646 17.3353 37.0193 17.3245 37.5955Z" fill="#372E38"/>
<path d="M21.1706 36.8746C21.6419 36.661 22.2688 36.8444 22.6169 37.2178C22.6602 37.5006 22.6969 37.7833 22.7423 38.0682L22.7704 38.2927C22.5326 38.3445 22.3661 38.4934 22.271 38.7373C22.0764 38.8992 21.8516 38.9726 21.5986 38.9596C21.3089 38.9402 21.0236 38.9899 20.7533 39.0956C20.6322 39.1323 20.3901 39.2035 20.2669 39.2402L20.3296 39.3503C20.5285 39.987 21.2571 40.2007 21.8084 39.8575L21.9294 39.8187C22.0159 39.7993 22.1932 39.7626 22.2818 39.7431C22.3143 39.8597 22.3769 40.0949 22.4094 40.2115L22.2213 40.2719C21.6592 40.4489 21.0711 40.5094 20.4852 40.5676L20.4333 40.4446C20.3231 40.1036 20.0334 39.8618 19.7069 39.7388L19.7134 39.6093C19.7394 39.1906 19.7221 38.7697 19.6983 38.3531C19.6702 38.1157 19.7567 37.9344 19.9556 37.8049C20.2561 37.615 20.5609 37.3927 20.6755 37.0408L20.7598 37.0581C20.8636 37.0106 21.069 36.92 21.1706 36.8746ZM20.5609 37.9754L20.4636 38.215C20.4593 38.2258 20.4506 38.2495 20.4463 38.2603L20.3296 38.6294C20.5004 38.5949 20.8463 38.5301 21.0192 38.4956C21.3349 38.7157 21.5359 38.6488 21.6203 38.2992L21.8429 38.3294C21.9532 38.133 22.0591 37.9344 22.1629 37.7358C21.8321 36.9782 20.7447 37.2524 20.5609 37.9754Z" fill="#372E38"/>
<path d="M34.8017 35.776C35.1563 35.6854 35.5151 35.6271 35.8827 35.6012C35.74 36.3696 35.6557 37.1552 35.4352 37.9085C35.2838 38.4114 35.0417 39.0676 35.42 39.5187C35.9519 40.082 36.6394 39.4151 36.8599 38.8906C36.8664 38.8819 36.8772 38.8625 36.8837 38.8539L37.0566 38.5862C37.102 38.4805 37.1928 38.2711 37.2382 38.1654L37.2577 37.9128C37.3009 37.8114 37.3917 37.6042 37.435 37.5006C37.4566 37.397 37.4977 37.1854 37.5193 37.0818C37.5474 36.9696 37.6036 36.7473 37.6317 36.6372C37.662 36.4451 37.7203 36.0609 37.7485 35.8688C37.7528 35.8602 37.7636 35.8473 37.7679 35.8408C38.0857 35.6875 38.423 35.6055 38.784 35.5947C38.5441 37.2286 38.1441 38.8733 38.3668 40.5331C38.0619 40.5288 37.7571 40.5266 37.4544 40.5266C37.4155 40.2352 37.3766 39.946 37.3398 39.659C37.0739 39.9244 36.8339 40.2288 36.501 40.4187C36.4924 40.4209 36.4772 40.4295 36.4707 40.4338C35.8157 40.7662 34.832 40.7274 34.4796 39.9827C34.4753 39.9762 34.4688 39.9611 34.4644 39.9547C34.1099 38.9381 34.4147 37.8157 34.7023 36.8207C34.8147 36.5746 34.9768 36.3005 34.8622 36.0264L34.8017 35.776Z" fill="#372E38"/>
<path d="M40.2736 36.212C40.2585 35.871 40.425 35.7199 40.7752 35.7609C40.7082 36.007 40.5417 36.1581 40.2736 36.212Z" fill="#372E38"/>
<path d="M43.2744 35.735C43.3955 35.8149 43.6398 35.9746 43.7608 36.0545C43.6182 36.4775 43.5122 37.0646 42.909 36.8336L43.1555 36.7214C43.2506 36.6782 43.4409 36.5897 43.5382 36.5466C43.4668 36.2703 43.3782 36.0005 43.2744 35.735Z" fill="#372E38"/>
<path d="M52.4973 35.7696C52.3265 35.9379 52.2595 36.1365 52.2898 36.361C52.6422 36.2984 52.7113 36.1019 52.4973 35.7696Z" fill="#372E38"/>
<path d="M34.7023 36.8207C34.4731 36.6329 34.4817 35.9789 34.8622 36.0264C34.9768 36.3005 34.8147 36.5746 34.7023 36.8207Z" fill="#372E38"/>
<path d="M8.42801 36.4041C8.5534 36.0221 7.74267 36.035 7.88968 36.4106C8.02588 36.4084 8.29397 36.4041 8.42801 36.4041Z" fill="#372E38"/>
<path d="M13.647 36.3545C13.5886 35.8861 12.5379 36.1149 12.5768 36.5595C12.927 36.4646 13.2859 36.4063 13.647 36.3545Z" fill="#372E38"/>
<path d="M46.6881 36.3804C46.66 35.8839 45.6093 36.1214 45.6331 36.5466C45.9812 36.4732 46.3336 36.4235 46.6881 36.3804Z" fill="#372E38"/>
<path d="M48.1842 36.1581C48.0286 36.4797 47.9788 36.8401 48.0069 37.1962C48.4199 37.1639 48.3983 36.4192 48.1842 36.1581Z" fill="#372E38"/>
<path d="M3.88142 36.7797C3.98735 36.5487 4.15598 36.4171 4.38947 36.3804C4.40893 36.7408 4.23814 36.8746 3.88142 36.7797Z" fill="#372E38"/>
<path d="M7.6497 36.3869C7.29082 36.3307 7.14597 36.484 7.21515 36.8487C7.45297 36.7667 7.59782 36.6135 7.6497 36.3869Z" fill="#372E38"/>
<path d="M8.94688 37.0646C9.38792 37.0452 9.05498 36.2271 8.70258 36.3717C8.76311 36.6092 8.84527 36.8401 8.94688 37.0646Z" fill="#372E38"/>
<path d="M51.7882 36.3782C51.2909 36.389 50.9666 36.8531 50.8153 37.2804C51.1937 37.207 51.6996 36.743 51.7882 36.3782Z" fill="#372E38"/>
<path d="M1.97457 37.2178C1.98754 36.9567 2.0697 36.7214 2.22536 36.5142C2.21239 36.6653 2.1886 36.9675 2.17779 37.1185C2.5864 37.0862 2.99285 37.0538 3.40146 37.0106C2.98637 37.3214 2.45669 37.2157 1.97457 37.2178Z" fill="#372E38"/>
<path d="M14.0945 38.5409C14.4707 37.8999 14.4058 37.0495 13.9172 36.4883C14.1767 37.1423 14.2112 37.8502 14.0945 38.5409Z" fill="#372E38"/>
<path d="M37.4479 36.702L37.6317 36.6372C37.6036 36.7473 37.5474 36.9696 37.5193 37.0818L37.3896 36.9308L37.4479 36.702Z" fill="#372E38"/>
<path d="M41.1016 36.5725C40.8573 36.607 40.7082 36.7451 40.6541 36.989C41.0044 37.0603 41.1535 36.9221 41.1016 36.5725Z" fill="#372E38"/>
<path d="M20.7966 36.8682C20.8895 36.8703 21.0776 36.8725 21.1706 36.8746C21.069 36.92 20.8636 37.0106 20.7598 37.0581L20.7966 36.8682Z" fill="#372E38"/>
<path d="M27.2608 36.7192C27.4532 37.0171 27.49 37.3689 27.5397 37.7099C26.943 37.7186 26.3463 37.7207 25.7496 37.7207C25.7626 37.5912 25.7907 37.3344 25.8036 37.2049L25.9399 37.4164L25.888 37.6366C26.3852 37.6344 26.8825 37.6344 27.3797 37.6322C27.3494 37.4034 27.2911 36.948 27.2608 36.7192Z" fill="#372E38"/>
<path d="M29.7168 37.5955C29.533 37.3279 29.7406 36.7214 30.1038 36.7818C30.0497 37.0818 29.9135 37.3603 29.7168 37.5955Z" fill="#372E38"/>
<path d="M9.97597 36.8617C9.69708 37.9258 9.48304 39.0568 9.73815 40.1489C9.71221 39.0438 9.883 37.956 9.97597 36.8617Z" fill="#372E38"/>
<path d="M10.8862 37.1013L11.0829 37.0818C11.0288 37.1833 10.9229 37.384 10.871 37.4833L10.7781 37.3085L10.8862 37.1013Z" fill="#372E38"/>
<path d="M19.9556 37.8049C19.8475 37.4488 20.3231 36.989 20.6755 37.0408C20.5609 37.3927 20.2561 37.615 19.9556 37.8049Z" fill="#372E38"/>
<path d="M39.4305 37.0862L39.625 37.0732C39.5688 37.1703 39.4564 37.3668 39.4023 37.4639L39.3159 37.2869L39.4305 37.0862Z" fill="#372E38"/>
<path d="M43.9533 37.0732L44.1435 37.03C44.1003 37.1358 44.016 37.3452 43.9727 37.4509L43.8646 37.2891L43.9533 37.0732Z" fill="#372E38"/>
<path d="M18.4465 37.6366C18.4465 37.0646 17.3353 37.0193 17.3245 37.5955C17.6942 37.4725 18.0768 37.561 18.4465 37.6366Z" fill="#372E38"/>
<path d="M22.1629 37.7358C21.8321 36.9782 20.7447 37.2524 20.5609 37.9754C20.9565 37.4639 21.644 37.2718 22.1629 37.7358Z" fill="#372E38"/>
<path d="M22.6169 37.2178C23.0255 37.1509 23.2352 38.1114 22.7423 38.0682C22.6969 37.7833 22.6602 37.5006 22.6169 37.2178Z" fill="#372E38"/>
<path d="M28.3461 37.3214C28.7288 37.2761 28.7569 37.9452 28.5061 38.1287C28.3764 37.8783 28.2921 37.6042 28.3461 37.3214Z" fill="#372E38"/>
<path d="M5.8596 37.2265L5.83798 37.4596C5.75151 38.2884 5.7234 39.128 5.85312 39.9547C5.43802 39.0956 5.56342 38.1006 5.8596 37.2265Z" fill="#372E38"/>
<path d="M8.69825 37.902C8.73068 37.792 8.79554 37.5696 8.82797 37.4596L8.95337 37.6128L8.8885 37.8394L8.69825 37.902Z" fill="#372E38"/>
<path d="M37.2469 37.5351L37.435 37.5006C37.3917 37.6042 37.3009 37.8114 37.2577 37.9128L37.1561 37.7445L37.2469 37.5351Z" fill="#372E38"/>
<path d="M45.0191 37.3516C44.6754 37.8481 44.5824 38.4977 44.7662 39.0719C44.7856 38.4913 44.8678 37.9128 45.0191 37.3516Z" fill="#372E38"/>
<path d="M43.923 39.8252C43.5793 39.1043 43.6333 38.2409 43.9079 37.507C43.8646 38.2798 43.8689 39.0525 43.923 39.8252Z" fill="#372E38"/>
<path d="M46.74 38.1092C46.7833 38.0035 46.8719 37.7963 46.9151 37.6927L47.0211 37.861L46.9303 38.0747L46.74 38.1092Z" fill="#372E38"/>
<path d="M0.750903 38.9942C0.530384 38.7287 0.539031 37.9948 0.945479 37.9603C0.982232 38.3164 0.900078 38.6683 0.750903 38.9942Z" fill="#372E38"/>
<path d="M6.74601 37.9582C6.3374 38.0423 6.3374 39.0654 6.74817 39.1539C6.75033 38.7546 6.74817 38.3553 6.74601 37.9582Z" fill="#372E38"/>
<path d="M16.0251 39.9331C15.6533 39.2489 15.9235 38.4697 16.2327 37.82C16.0532 38.5085 16.0057 39.223 16.0251 39.9331Z" fill="#372E38"/>
<path d="M35.4352 37.9085C35.2838 38.4114 35.0417 39.0676 35.42 39.5187C35.5584 39.0136 35.5692 38.4157 35.4352 37.9085Z" fill="#372E38"/>
<path d="M8.45179 38.5107C8.51233 38.4157 8.63339 38.2258 8.69177 38.1308L8.76744 38.31L8.64637 38.5042L8.45179 38.5107Z" fill="#372E38"/>
<path d="M37.0458 38.1934L37.2382 38.1654C37.1928 38.2711 37.102 38.4805 37.0566 38.5862L36.9507 38.4093L37.0458 38.1934Z" fill="#372E38"/>
<path d="M50.184 38.5193C50.2337 38.4157 50.331 38.2107 50.3808 38.1071L50.4802 38.2798L50.3786 38.4913L50.184 38.5193Z" fill="#372E38"/>
<path d="M16.6932 38.4006L16.8769 38.3294C16.851 38.4395 16.7969 38.6639 16.7688 38.7762L16.637 38.6294L16.6932 38.4006Z" fill="#372E38"/>
<path d="M19.7134 39.6093C19.3243 39.4928 19.3372 38.4762 19.6983 38.3531C19.7221 38.7697 19.7394 39.1906 19.7134 39.6093Z" fill="#372E38"/>
<path d="M21.0192 38.4956C21.19 38.3251 21.3911 38.2603 21.6203 38.2992C21.5359 38.6488 21.3349 38.7157 21.0192 38.4956Z" fill="#372E38"/>
<path d="M22.7704 38.2927C22.5326 38.3445 22.3661 38.4934 22.271 38.7373C22.6299 38.7978 22.7964 38.6488 22.7704 38.2927Z" fill="#372E38"/>
<path d="M28.5385 38.3941C28.9277 38.3553 28.9817 39.0179 28.7244 39.2143C28.5882 38.9618 28.5277 38.6791 28.5385 38.3941Z" fill="#372E38"/>
<path d="M14.9506 38.9316C14.9982 38.828 15.0933 38.6208 15.1387 38.5172L15.2425 38.6877L15.1452 38.8992L14.9506 38.9316Z" fill="#372E38"/>
<path d="M49.9808 39.1604C50.0284 39.0568 50.1213 38.8496 50.1689 38.746L50.2683 38.9165L50.1732 39.128L49.9808 39.1604Z" fill="#372E38"/>
<path d="M12.7779 39.7259C13.273 39.6395 13.6016 39.2208 13.9367 38.8863C13.6837 39.3093 13.3465 39.8079 12.8103 39.8597C12.4471 39.946 12.192 39.6417 11.9217 39.4669C12.2049 39.5575 12.473 39.7194 12.7779 39.7259Z" fill="#372E38"/>
<path d="M21.5986 38.9596C21.3089 38.9402 21.0236 38.9899 20.7533 39.0956C20.9328 39.3741 21.6073 39.3503 21.5986 38.9596Z" fill="#372E38"/>
<path d="M27.9505 39.9957C27.9959 39.6417 27.9461 39.2791 27.7732 38.964C27.5678 39.2294 27.5505 39.9503 27.9505 39.9957Z" fill="#372E38"/>
<path d="M30.7048 39.251C31.0507 39.182 31.1999 39.3223 31.1545 39.6676C30.8972 39.6309 30.7459 39.4928 30.7048 39.251Z" fill="#372E38"/>
<path d="M32.9878 39.4388C33.0181 39.087 33.1327 39.0546 33.3294 39.346C33.2429 39.3697 33.0743 39.4172 32.9878 39.4388Z" fill="#372E38"/>
<path d="M42.6928 39.3179C43.0647 38.8021 43.3371 40.0993 42.8896 40.1856C42.8226 39.8964 42.7491 39.6093 42.6928 39.3179Z" fill="#372E38"/>
<path d="M45.8082 39.6158C45.9142 39.4172 46.0677 39.2661 46.2666 39.1625C46.3466 39.5489 46.1952 39.7 45.8082 39.6158Z" fill="#372E38"/>
<path d="M6.77411 39.4086C7.09841 39.6158 7.48972 39.6546 7.84428 39.5014C7.87455 40.123 6.6098 40.0475 6.77411 39.4086Z" fill="#372E38"/>
<path d="M20.3296 39.3503C20.5025 39.5079 20.6733 39.6698 20.8441 39.8316C21.1641 39.8381 21.4862 39.8467 21.8084 39.8575C21.2571 40.2007 20.5285 39.987 20.3296 39.3503Z" fill="#372E38"/>
<path d="M21.9294 39.8187C21.7435 39.5532 22.2559 39.2143 22.4764 39.4366C22.6623 39.7021 22.6623 39.9676 22.4786 40.2331L22.4094 40.2115C22.3769 40.0949 22.3143 39.8597 22.2818 39.7431C22.1932 39.7626 22.0159 39.7993 21.9294 39.8187Z" fill="#372E38"/>
<path d="M31.3555 39.7367C31.6517 39.4971 31.9501 39.4906 32.2549 39.7151C31.9933 39.9395 31.6366 39.8877 31.3555 39.7367Z" fill="#372E38"/>
<path d="M41.0671 39.7259C41.3611 39.5143 41.6594 39.5122 41.9643 39.7151C41.707 39.9072 41.3157 39.9611 41.0671 39.7259Z" fill="#372E38"/>
<path d="M18.1049 39.8467C18.3687 39.6957 18.2887 40.1489 18.2454 40.2698C18.0141 40.4576 17.759 40.5137 17.4801 40.4403C17.6833 40.2374 17.8671 40.0108 18.1049 39.8467Z" fill="#372E38"/>
<path d="M20.4333 40.4446C20.3231 40.1036 20.0334 39.8618 19.7069 39.7388C19.6529 40.0777 20.0896 40.5396 20.4333 40.4446Z" fill="#372E38"/>
<path d="M24.273 40.5115C24.4222 40.2611 24.5692 40.0108 24.7162 39.7582C24.6297 40.0129 24.5411 40.2655 24.4567 40.5223C23.9725 40.7166 23.1509 40.7036 23.3758 39.9525L23.4341 40.2331L23.4817 40.464C23.7455 40.4835 24.0092 40.4986 24.273 40.5115Z" fill="#372E38"/>
<path d="M22.2213 40.2719C21.6592 40.4489 21.0711 40.5094 20.4852 40.5676C21.0755 40.8461 21.7154 40.613 22.2213 40.2719Z" fill="#372E38"/>
<path d="M32.4819 40.4921C32.5771 40.4317 32.7673 40.3086 32.8624 40.246L32.8581 40.4425L32.6635 40.5676L32.4819 40.4921Z" fill="#372E38"/>
<path d="M42.1805 40.4683C42.2842 40.4165 42.4875 40.313 42.5891 40.2611L42.5653 40.4576L42.3556 40.5633L42.1805 40.4683Z" fill="#372E38"/>
<path d="M1.27626 40.4835C1.14438 40.4878 0.878458 40.4986 0.746579 40.505C0.636319 40.8849 1.43192 40.8525 1.27626 40.4835Z" fill="#372E38"/>
<path d="M31.7944 40.6238C31.9025 40.5979 32.1209 40.5482 32.2311 40.5245L32.1576 40.7036L31.9371 40.7533L31.7944 40.6238Z" fill="#372E38"/>
<path d="M30.0713 41.1202C30.1773 41.1677 30.3913 41.2605 30.4973 41.308L30.3329 41.3986C30.2681 41.3295 30.1362 41.1914 30.0713 41.1202Z" fill="#372E38"/>
</svg>
