<svg width="117" height="21" viewBox="0 0 117 21" fill="none" xmlns="http://www.w3.org/2000/svg">
<path d="M11.177 5.10344C10.3347 3.61702 10.4283 1.6693 11.3919 0.261902C11.494 0.74029 11.6258 1.21654 11.8768 1.64154C13.0127 3.6277 14.1634 5.60532 15.2971 7.59362C15.6523 8.20442 15.7948 8.90492 15.8735 9.60114C17.9602 10.2077 20.168 11.1388 21.3805 13.0524C22.1909 14.2953 22.0037 15.9996 21.0614 17.1187C19.5874 18.919 17.2923 19.7797 15.0887 20.273C11.6641 20.9436 8.00985 20.7877 4.75122 19.4722C3.16444 18.7973 1.54576 17.7914 0.822566 16.1469C0.26528 14.9083 0.635385 13.4218 1.51811 12.4352C2.81561 10.9124 4.7342 10.1671 6.58686 9.57552C6.60813 10.4405 6.7634 11.3161 7.19945 12.0721C8.30977 14.0198 9.4371 15.959 10.5517 17.9067C10.8048 18.3531 10.9686 18.8421 11.1515 19.3205C11.9385 17.896 12.1087 16.0765 11.2983 14.6242C10.3602 12.937 9.35627 11.2862 8.42888 9.5926C7.63549 8.11686 7.84394 6.30155 8.66498 4.88347C8.83727 5.39176 8.99042 5.91072 9.26056 6.37843C10.5857 8.68495 11.9151 10.9893 13.2424 13.2958C13.4955 13.7272 13.6316 14.2142 13.7678 14.6926C14.6441 13.3001 14.7802 11.4528 13.9783 9.99624C13.0595 8.35605 12.0959 6.74149 11.177 5.10344Z" fill="#372E38"/>
<path d="M26.4194 7.73244C27.0108 6.57064 28.3083 5.98974 29.5398 5.82316C31.2202 5.62882 32.9473 5.76977 34.5533 6.31436C34.4724 7.00205 34.3406 7.68546 34.1512 8.35178C32.5942 7.85844 30.8416 7.45908 29.259 8.03998C28.0721 8.47992 28.0062 10.2354 29.0144 10.9103C30.6161 12.0935 32.775 12.3519 34.1917 13.8298C35.8508 15.4742 35.3658 18.714 33.1792 19.6601C30.8969 20.6639 28.17 20.4631 25.8919 19.5341C25.9366 18.8315 26.0663 18.1395 26.2748 17.4668C27.6701 18.1117 29.242 18.3744 30.7714 18.2292C31.4924 18.1502 32.2901 17.9046 32.6772 17.2383C33.0537 16.5015 32.8133 15.5212 32.1476 15.0321C30.6374 13.8725 28.6103 13.6119 27.1894 12.307C25.9323 11.1922 25.6941 9.20605 26.4194 7.73244Z" fill="#372E38"/>
<path d="M59.3972 6.17982C60.1182 6.01537 60.8499 5.90218 61.5901 5.87869C61.5923 7.15154 61.588 8.4244 61.5923 9.69938C62.76 9.69298 63.9299 9.70152 65.0998 9.68871C65.0551 10.3315 64.9828 10.9722 64.8828 11.6087C63.7831 11.5894 62.6834 11.5873 61.5859 11.6023C61.6008 13.2061 61.5838 14.81 61.5923 16.4139C61.5859 17.0717 61.7539 17.8619 62.4197 18.1545C63.2684 18.4705 64.2085 18.2634 65.0487 18.0071C64.9573 18.6563 64.8956 19.3099 64.7382 19.9463C63.4683 20.2901 62.0219 20.3948 60.8223 19.769C59.7694 19.2159 59.3546 17.958 59.3823 16.8325C59.3929 13.2809 59.3652 9.73142 59.3972 6.17982Z" fill="#372E38"/>
<path d="M95.3634 6.17341C96.0759 5.98333 96.8098 5.88509 97.5479 5.88296C97.5436 10.5793 97.5479 15.2756 97.5457 19.974C96.8757 19.9634 96.2036 19.9655 95.5335 19.9911C95.4974 19.5747 95.4676 19.1561 95.4506 18.7396C94.0616 20.886 90.603 20.5998 89.1886 18.635C88.1506 17.2041 87.9868 15.3119 88.2314 13.6055C88.4207 12.2451 89.112 10.8975 90.3159 10.1799C91.8155 9.28293 93.6724 9.19537 95.3549 9.51572C95.3655 8.4009 95.3527 7.28822 95.3634 6.17341ZM91.8155 11.6962C90.7285 12.3412 90.3733 13.708 90.401 14.8997C90.3797 16.0444 90.6711 17.3728 91.7049 18.0199C92.8492 18.6991 94.3466 18.4193 95.3676 17.6355C95.3442 15.5703 95.3698 13.5051 95.3549 11.4399C94.185 11.2435 92.8875 11.0534 91.8155 11.6962Z" fill="#372E38"/>
<path d="M39.9517 9.63318C41.9086 9.1313 44.0186 9.30002 45.933 9.91509C45.9266 13.2702 45.9372 16.6253 45.9266 19.9805C45.248 19.9612 44.5674 19.9634 43.8889 19.989C43.8506 19.5896 43.8208 19.1903 43.791 18.7909C42.4935 20.7941 39.3242 20.5934 37.8332 18.9318C36.4676 17.3728 36.3549 15.1069 36.7101 13.1549C37.027 11.4869 38.3011 10.056 39.9517 9.63318ZM40.0581 11.8372C39.0307 12.5654 38.7563 13.9301 38.7903 15.1176C38.8329 16.1726 39.1094 17.3707 40.0495 17.9857C41.1748 18.6926 42.6871 18.447 43.7144 17.6718C43.691 15.5682 43.7187 13.4646 43.7017 11.3609C42.485 11.2093 41.1131 11.0854 40.0581 11.8372Z" fill="#372E38"/>
<path d="M48.3195 9.90013C50.1041 9.51358 51.9482 9.18042 53.7775 9.44097C54.7645 9.56484 55.8067 9.898 56.4618 10.6946C57.0851 11.4464 57.2084 12.4672 57.2105 13.4133C57.2063 15.6023 57.2106 17.7914 57.2063 19.9783C56.4618 19.9634 55.7152 19.9634 54.9708 19.9805C54.9644 17.785 54.9729 15.5895 54.9686 13.3962C54.9814 12.7 54.7538 11.9012 54.0795 11.5788C52.9607 11.0705 51.6909 11.2541 50.5167 11.4165C50.5189 14.2697 50.5252 17.1251 50.5125 19.9805C49.7829 19.9634 49.0533 19.9612 48.3259 19.9933C48.3004 16.6296 48.3131 13.2638 48.3195 9.90013Z" fill="#372E38"/>
<path d="M69.2666 9.59687C71.1937 9.15265 73.2549 9.30642 75.1309 9.91722C75.1075 13.2745 75.1415 16.6317 75.1139 19.989C74.4332 19.9655 73.7547 19.9634 73.0741 19.974C73.0379 19.5768 73.0039 19.1796 72.9507 18.7845C71.8553 20.6126 69.1497 20.5763 67.5756 19.4273C65.7379 18.0092 65.4996 15.3888 65.8868 13.2553C66.1782 11.4997 67.5331 9.99837 69.2666 9.59687ZM69.2284 11.8521C68.2201 12.5825 67.9606 13.9344 67.9819 15.1069C68.033 16.1512 68.2882 17.3472 69.2135 17.9665C70.311 18.667 71.8808 18.5026 72.8571 17.6654C72.9422 15.5703 72.9209 13.4539 72.8699 11.3524C71.6511 11.2157 70.2791 11.0876 69.2284 11.8521Z" fill="#372E38"/>
<path d="M77.5026 9.91509C79.736 9.4068 82.1565 8.99675 84.3729 9.78908C85.6109 10.2119 86.3702 11.4891 86.3766 12.7705C86.3915 15.1752 86.3872 17.5821 86.3766 19.989C85.6449 19.9634 84.9132 19.9655 84.1815 19.974C84.1772 17.8555 84.1857 15.7369 84.1794 13.6183C84.1836 12.8495 84.022 11.9034 83.235 11.5595C82.1331 11.0769 80.891 11.2627 79.736 11.4036C79.7189 14.259 79.736 17.1165 79.7275 19.974C78.9873 19.9655 78.247 19.9655 77.5089 19.9826C77.5004 16.6253 77.5111 13.2702 77.5026 9.91509Z" fill="#372E38"/>
<path d="M100.449 10.9487C101.602 9.4666 103.68 9.1313 105.429 9.46019C106.696 9.67375 107.838 10.5366 108.334 11.7347C108.891 12.9648 108.764 14.3466 108.674 15.6557C106.316 15.7134 103.952 15.66 101.591 15.6814C101.762 16.7471 102.391 17.8192 103.484 18.1203C105.135 18.5538 106.903 18.2014 108.445 17.5394C108.319 18.2164 108.206 18.8955 108.085 19.5725C106.464 20.3029 104.595 20.3777 102.878 19.9911C101.232 19.6259 99.9025 18.2548 99.5579 16.6018C99.1538 14.7139 99.2495 12.5398 100.449 10.9487ZM102.757 11.5446C101.953 12.0038 101.687 12.9627 101.545 13.8148C103.214 13.8063 104.884 13.8127 106.554 13.8105C106.464 13.1869 106.403 12.5078 105.975 12.0102C105.216 11.0769 103.763 10.9936 102.757 11.5446Z" fill="#372E38"/>
<path d="M110.644 9.90013C112.497 9.35767 114.458 9.23167 116.374 9.43883C116.342 10.0795 116.276 10.7181 116.157 11.3502C115.053 11.2072 113.935 11.205 112.837 11.3887C112.854 14.2526 112.852 17.1165 112.839 19.9805C112.11 19.9634 111.38 19.9612 110.65 19.989C110.629 16.6275 110.644 13.2638 110.644 9.90013Z" fill="#372E38"/>
</svg>
