<svg width="63" height="25" viewBox="0 0 63 25" fill="none" xmlns="http://www.w3.org/2000/svg">
<path d="M22.4879 0.258836C24.2371 -0.221022 26.2087 1.17752 26.2299 3.03273C26.4293 4.77378 24.8425 6.38461 23.1357 6.30433C21.6088 6.27579 20.2179 4.93433 20.1968 3.37524C20.0856 1.95707 21.127 0.581714 22.4879 0.258836Z" fill="#372E38"/>
<path d="M30.9921 7.97759C31.677 7.6886 32.323 8.17738 32.6213 8.77854C34.0776 11.3152 35.4667 13.8929 36.8629 16.4634C36.9141 16.6257 37.02 16.7042 37.1824 16.7007C38.4974 14.1016 39.7824 11.4847 41.115 8.89449C41.371 8.34685 41.9182 7.8884 42.5483 7.96689C43.2367 8.06678 43.8192 8.49491 44.4299 8.80352C45.0353 9.15137 45.8067 9.47425 45.9832 10.2342C46.2091 10.9923 45.7696 11.7023 45.3989 12.3249C43.6374 15.3735 41.9358 18.456 40.1619 21.4975C39.597 22.4697 38.8469 23.4865 37.7013 23.7647C36.8011 23.911 35.8074 23.8218 35.0484 23.2706C34.4235 22.8139 34.0475 22.1147 33.6769 21.4511C31.9224 18.2294 30.1502 15.0185 28.3939 11.7968C28.1592 11.3295 27.8962 10.8086 28.0268 10.2681C28.2068 9.67939 28.7611 9.34759 29.2323 9.01758C29.8025 8.64475 30.3461 8.20949 30.9921 7.97759Z" fill="#372E38"/>
<path d="M1.91557 8.70897C2.45922 8.37004 3.03112 7.93835 3.70186 7.97402C4.39378 8.1096 4.69385 8.82492 5.02745 9.36722C6.42541 11.8932 7.83044 14.4173 9.1931 16.9629C10.5063 14.3513 11.8266 11.7451 13.131 9.12996C13.357 8.68935 13.6518 8.20414 14.1725 8.10068C14.9332 7.90802 15.6057 8.40215 16.2482 8.73216C16.7636 9.03007 17.3391 9.26197 17.7609 9.70258C18.2763 10.2591 18.234 11.1564 17.8527 11.779C15.9782 15.0595 14.1372 18.3579 12.2361 21.6241C11.6837 22.5553 10.9706 23.5667 9.85678 23.8183C8.96893 23.9253 7.97518 23.9396 7.21089 23.3955C6.49955 22.9049 6.1077 22.0986 5.68937 21.3654C3.95603 18.1848 2.21034 15.0096 0.473479 11.8307C0.173411 11.2688 -0.0154544 10.5232 0.334036 9.94162C0.745306 9.39933 1.37192 9.09429 1.91557 8.70897Z" fill="#372E38"/>
<path d="M21.6194 8.51275C22.359 8.4628 23.1021 8.50383 23.8435 8.48777C24.3712 8.50026 24.9467 8.44496 25.4197 8.73216C25.8204 9.00152 25.8557 9.5349 25.8522 9.97729C25.8433 14.1444 25.8504 18.3097 25.8486 22.4768C25.8839 23.069 25.6245 23.8058 24.989 23.9503C24.1365 24.0448 23.2769 23.9663 22.4208 23.9949C21.8577 23.9717 21.1693 24.1001 20.7492 23.622C20.4174 23.1993 20.4139 22.6284 20.4139 22.1164C20.4298 18.0689 20.4015 14.0213 20.4262 9.97551C20.3839 9.25662 20.8499 8.50561 21.6194 8.51275Z" fill="#372E38"/>
<path d="M53.3807 8.49491C55.8201 7.99364 58.4625 8.72502 60.3423 10.3662C61.9962 11.8129 63.0623 13.9945 62.9953 16.2244C63.0676 18.0368 62.374 19.8242 61.2372 21.2085C59.6628 23.1261 57.1828 24.2535 54.7169 24.1572C52.1663 24.1251 49.6493 22.7979 48.2055 20.6662C47.2805 19.3229 46.7563 17.6818 46.8516 16.0406C46.8428 12.3641 49.8435 9.09072 53.3807 8.49491ZM53.912 13.2721C52.8865 13.6021 52.0163 14.4762 51.7922 15.5519C51.7092 16.26 51.6898 17.0289 52.0516 17.6693C52.6747 18.8787 54.1009 19.5994 55.4336 19.3425C56.9515 19.1089 58.2136 17.6247 58.0389 16.0478C58.0124 14.0481 55.7354 12.5924 53.912 13.2721Z" fill="#372E38"/>
</svg>
