<svg width="113" height="25" viewBox="0 0 113 25" fill="none" xmlns="http://www.w3.org/2000/svg">
<path d="M5.93091 2.38397C8.62885 0.609982 12.0443 -0.079285 15.2224 0.563785C18.7928 1.21979 21.9915 3.55924 23.716 6.71545C25.0015 9.04751 25.547 11.8212 25.0949 14.4489C24.6371 17.6975 22.7519 20.7189 20.0503 22.6148C16.59 25.0929 11.7883 25.638 7.89084 23.8732C7.30791 23.6145 6.88939 23.0417 6.93237 22.3949C6.99776 21.1513 7.87777 20.1663 8.65314 19.2627C10.4225 17.5257 12.5207 16.1564 14.6917 14.9645C16.3864 14.0738 18.1352 13.2275 20.0129 12.7951C20.8425 12.5936 21.9579 12.7267 22.2792 13.6395C22.3558 13.6414 22.5091 13.6451 22.5857 13.6469C22.6847 13.4363 22.7856 13.2275 22.8902 13.0205C23.0546 12.0596 23.1294 10.9934 22.6006 10.123C21.9448 8.84424 20.465 8.11986 19.0432 8.18454C18.5032 7.08873 17.3505 6.34218 16.1192 6.2775C13.5931 6.17587 11.1624 7.0296 8.65875 7.2033C7.77687 7.35113 6.86884 7.24026 6.03741 6.92796C5.8487 6.86514 5.47503 6.73763 5.28819 6.6748C5.38535 7.09982 5.54416 7.5082 5.79452 7.86855C4.92199 8.00714 3.94856 8.1716 3.15824 7.66713C2.55288 7.292 2.62949 6.46229 2.81259 5.87651C3.37123 4.37601 4.63239 3.26912 5.93091 2.38397ZM8.69798 21.1661C8.41399 21.6724 8.27199 22.3099 8.5317 22.8532C8.96329 23.5092 9.77978 23.7254 10.5197 23.8178C10.1703 23.1415 9.8433 22.4208 9.92551 21.641C10.0619 20.4565 10.6486 19.3828 11.2801 18.3887C10.2525 19.1408 9.2641 20.0093 8.69798 21.1661Z" fill="#372E38"/>
<path d="M14.1835 9.25817C14.987 8.71858 15.8146 8.00714 16.8703 8.20671C17.0702 8.3915 17.272 8.57629 17.4738 8.76108C17.3392 8.76293 17.0683 8.76847 16.9338 8.77032C16.7899 9.02533 16.6461 9.2785 16.5022 9.53166C16.0874 9.56122 15.5848 9.43926 15.5531 8.94033C15.0785 8.96251 14.6301 9.11588 14.1835 9.25817Z" fill="#372E38"/>
<path d="M1.16468 16.8641C0.643397 15.4172 0.331377 13.8853 0.379955 12.346C0.505137 12.6953 0.785394 12.941 1.14599 13.0334C2.3212 13.3051 3.51136 12.8893 4.67723 12.7821L3.78041 12.5493C4.07748 12.5936 4.37829 12.6158 4.67536 12.6657C4.47731 13.0297 3.98967 12.9965 3.67765 13.2164C2.4277 14.0553 1.28612 15.3101 1.16468 16.8641Z" fill="#372E38"/>
<path d="M5.21159 17.522C7.09865 15.9568 9.5126 15.2417 11.8742 14.7243C11.3623 14.9663 10.8261 15.1548 10.3197 15.4117C8.45696 16.3966 6.59419 17.6052 5.4825 19.4364C4.95375 20.2735 4.84165 21.3194 5.08641 22.2693C4.52402 21.7445 3.8103 21.2123 3.80843 20.3678C3.63094 19.2221 4.36895 18.215 5.21159 17.522Z" fill="#372E38"/>
<path d="M27.9404 0.772598C29.6537 0.74488 31.3689 0.755967 33.0822 0.763358C33.142 0.986955 33.2074 1.2087 33.2728 1.43045C33.4279 2.59648 33.5885 3.7662 33.824 4.91929C34.0762 6.81339 34.3994 8.69825 34.7264 10.5794C34.8815 10.2708 35.0347 9.96037 35.1561 9.63699C36.2809 6.67295 37.458 3.72739 38.5696 0.759663C39.5973 0.767054 40.6267 0.722704 41.6525 0.792925C42.0131 2.4006 42.0953 4.06002 42.4279 5.66954C42.4634 6.10565 42.4634 6.55099 42.6147 6.96862C42.6969 8.15127 42.9585 9.31361 43.1005 10.4907C43.6516 9.43187 44.0197 8.29541 44.4849 7.20145C45.0006 5.88205 45.5686 4.58297 46.0525 3.25248C46.1889 2.94943 46.3122 2.63898 46.4262 2.32853C46.5887 1.9645 46.7289 1.59307 46.8653 1.21979C46.9755 1.05902 47.0073 0.715313 47.28 0.765207C48.3039 0.737488 49.3278 0.767054 50.3535 0.757815C50.176 1.91645 49.4903 2.92356 49.1372 4.0323C47.6369 7.49896 46.2281 11.0026 44.7316 14.4711C43.5339 14.4526 42.3344 14.484 41.1368 14.4619C40.907 14.4803 40.666 14.3011 40.6249 14.0775C40.2101 11.2946 39.9392 8.49314 39.5057 5.71204C38.9863 6.91318 38.5491 8.14943 38.1119 9.38198C37.4766 11.0673 36.7947 12.7415 36.2529 14.4582C34.9655 14.4766 33.6782 14.4545 32.3928 14.4619C32.2657 14.314 32.1387 14.1662 32.0116 14.0184C31.6174 11.3297 31.0606 8.66314 30.6066 5.98184C30.3805 4.77516 30.2273 3.54815 29.891 2.36364C29.6388 1.94232 29.3641 1.47665 28.8765 1.29555C28.5514 1.13109 28.0787 1.18099 27.9404 0.772598Z" fill="#372E38"/>
<path d="M52.3695 0.763358C53.4606 0.750423 54.5518 0.768902 55.641 0.748575C55.7382 1.0812 55.7158 1.42491 55.628 1.75753C55.5028 2.25646 55.6074 2.79051 55.428 3.27836C55.1796 5.80629 54.8021 8.31574 54.5536 10.8418C54.3276 12.0411 54.3182 13.2718 54.0585 14.4656C52.9954 14.4656 51.9323 14.4693 50.8692 14.4637C50.5927 14.0646 50.8244 13.6174 50.8337 13.185C50.8673 12.8302 50.8225 12.4587 50.9757 12.1261C51.2167 9.60188 51.596 7.09243 51.8482 4.57004C52.0724 3.30792 52.093 2.01808 52.3695 0.763358Z" fill="#372E38"/>
<path d="M58.154 1.14587C58.1185 0.870537 58.4436 0.711617 58.6828 0.757815C62.1953 0.757815 65.7079 0.752271 69.2204 0.761511C69.2186 1.29186 69.1924 1.82406 69.1513 2.3544C69.0579 2.663 69.0093 2.98269 68.9701 3.30053C66.4814 6.04097 63.989 8.78141 61.4667 11.4923C63.4172 11.4867 65.3678 11.4941 67.3184 11.4849C67.5949 11.459 67.8603 11.5311 68.0901 11.6845C68.0714 12.0781 68.0602 12.4735 68.0303 12.869C67.8509 13.3808 67.8696 13.9278 67.8621 14.4619C64.1814 14.4766 60.5007 14.4489 56.82 14.4748C56.3772 13.7024 56.9919 12.8486 56.8424 12.0226C57.9373 10.8363 59.0097 9.62775 60.1139 8.45064C61.5302 6.79861 63.1071 5.28333 64.4617 3.57956C62.4774 3.5426 60.4914 3.57587 58.5071 3.56108C58.1764 3.62391 57.8457 3.31901 57.9578 2.98454C58.0606 2.37473 58.1615 1.76492 58.154 1.14587Z" fill="#372E38"/>
<path d="M73.3458 0.767054C75.3338 0.748575 77.3217 0.757815 79.3078 0.761511C79.4087 0.911191 79.5096 1.06087 79.6105 1.2087C79.8571 2.33408 80.1934 3.44097 80.5279 4.54232C81.3107 7.44353 82.1141 10.3429 82.9549 13.2275C83.0539 13.6395 83.1641 14.0498 83.2538 14.4656C82.159 14.4711 81.066 14.4563 79.9711 14.473C79.39 13.8225 79.3956 12.8838 79.1789 12.0799C77.346 12.054 75.5113 12.0577 73.6784 12.0781C73.3495 12.8745 72.9497 13.6432 72.6713 14.4582C71.5466 14.4656 70.4218 14.4711 69.297 14.46C69.3232 13.9962 69.4932 13.5582 69.7137 13.1536C70.4853 11.6623 71.1617 10.1267 71.9184 8.63173C72.7872 6.78752 73.6915 4.95995 74.5528 3.11389C74.7919 2.68518 74.7919 2.20472 74.5715 1.76862C74.3267 1.21055 73.5457 1.30849 73.3458 0.767054ZM77.1517 4.27622C76.4025 5.99292 75.5598 7.67821 74.919 9.43557C76.1222 9.44296 77.3236 9.45589 78.525 9.41894C78.2335 8.49314 78.0635 7.53408 77.8075 6.59719C77.5796 5.82661 77.5142 5.0006 77.1517 4.27622Z" fill="#372E38"/>
<path d="M84.401 0.787382C87.2989 0.722705 90.1986 0.767055 93.0983 0.765207C94.3744 0.874233 95.7907 1.19762 96.6165 2.25462C97.4386 3.29499 97.4853 4.68276 97.4161 5.94488C97.3638 7.67821 96.3568 9.39122 94.7332 10.1193C95.445 11.5995 96.2914 13.0131 97.0574 14.4656C96.0354 14.4545 95.0134 14.473 93.9914 14.4619C93.5822 14.5081 93.2889 14.1588 93.1245 13.8354C92.5789 12.8154 91.9866 11.8175 91.484 10.7753C90.5368 10.742 89.5876 10.7642 88.6404 10.7642C88.5694 12.0042 88.3284 13.2275 88.2163 14.4656C87.1494 14.4711 86.0826 14.4637 85.0157 14.4693C84.784 14.0276 84.827 13.5213 84.9578 13.0575C85.2978 10.2616 85.6267 7.46016 85.9723 4.66613C86.0004 3.88262 86.2974 3.1102 86.1218 2.32484C85.9574 1.8259 85.6211 1.32327 85.0718 1.20131C84.7934 1.15511 84.571 1.00543 84.401 0.787382ZM89.5783 3.56663C89.2756 5.01723 89.2663 6.50849 88.9617 7.95725C90.1538 7.97388 91.3477 7.99236 92.5397 7.95725C93.5991 7.85192 94.0082 6.68035 94.0213 5.77118C94.0755 5.01723 93.9503 3.9861 93.0815 3.73848C91.9511 3.38923 90.7423 3.64978 89.5783 3.56663Z" fill="#372E38"/>
<path d="M98.5858 0.778142C101.235 0.733792 103.888 0.761511 106.538 0.763358C108.139 0.913039 109.83 1.30479 111.04 2.42093C112.059 3.3689 112.584 4.76961 112.559 6.14076C112.612 7.29939 112.496 8.46542 112.12 9.56862C111.509 11.1671 110.362 12.5678 108.83 13.3827C107.444 14.1052 105.869 14.5228 104.297 14.4674C102.612 14.4526 100.923 14.497 99.2378 14.4489C98.9127 14.2512 99.0883 13.8114 99.0528 13.5047C99.4844 10.1581 99.8675 6.80046 100.28 3.45391C100.488 2.74801 100.284 1.93123 99.7143 1.44524C99.3836 1.13479 98.8137 1.21055 98.5858 0.778142ZM103.737 3.55554C103.501 4.20415 103.599 4.90636 103.438 5.5716C103.374 6.46968 103.186 7.35483 103.152 8.25661C102.939 8.85717 103.064 9.50764 102.898 10.1174C102.791 10.5702 102.81 11.0377 102.805 11.4978C103.95 11.4442 105.142 11.6531 106.248 11.2613C107.937 10.7125 108.998 8.96435 108.976 7.2495C108.97 6.32185 109.133 5.2168 108.369 4.5146C107.192 3.24879 105.288 3.62761 103.737 3.55554Z" fill="#372E38"/>
<path d="M30.5506 17.4536C30.8289 17.4499 31.1073 17.4481 31.3876 17.4481C31.3895 18.1688 31.4007 18.8894 31.3689 19.6101C31.7856 19.1038 32.4881 18.8617 33.1214 19.089C33.7492 19.2701 34.0818 19.9261 34.1659 20.5267C34.2574 21.3582 34.235 22.369 33.5063 22.9308C32.8449 23.4371 31.8865 23.2228 31.339 22.6518C31.3091 22.7719 31.2456 23.0103 31.2157 23.1304C30.9896 23.1322 30.7636 23.1341 30.5393 23.1378C30.5524 21.2418 30.5319 19.3477 30.5506 17.4536ZM31.8211 19.8078C31.3185 20.4029 31.3222 21.2529 31.5371 21.9607C31.7482 22.6388 32.8748 22.7054 33.1495 22.0364C33.4148 21.4192 33.426 20.6413 33.0841 20.0499C32.8001 19.6286 32.2452 19.6933 31.8211 19.8078Z" fill="#372E38"/>
<path d="M40.7276 17.7733C41.6095 17.7992 42.5325 17.668 43.3789 17.971C44.5485 18.4164 44.5597 20.2717 43.5022 20.8408C42.9286 21.1642 42.2466 21.155 41.6095 21.1568C41.6132 21.8165 41.6095 22.4762 41.6095 23.1359C41.3124 23.1359 41.0154 23.1359 40.7202 23.1359C40.7351 21.349 40.7202 19.5602 40.7276 17.7733ZM41.6058 18.5088C41.6095 19.1445 41.6076 19.7801 41.617 20.4158C42.0859 20.3788 42.6147 20.4546 43.0257 20.183C43.4237 19.9206 43.3957 19.3643 43.2761 18.9634C42.923 18.4145 42.1663 18.5402 41.6058 18.5088Z" fill="#372E38"/>
<path d="M34.4274 19.1075C34.7395 19.1075 35.0496 19.1093 35.3635 19.1093C35.7391 20.159 36.1669 21.1938 36.4191 22.2822C36.7555 21.2233 37.1273 20.1774 37.486 19.126C37.798 19.1167 38.1082 19.1093 38.4202 19.1056C37.9101 20.5211 37.3552 21.92 36.8358 23.3318C36.634 23.8658 36.4079 24.459 35.881 24.7602C35.4756 24.9968 34.9917 24.9265 34.547 24.8766C34.5508 24.7122 34.5601 24.3814 34.5657 24.2169C34.9282 24.228 35.371 24.2835 35.6382 23.9749C35.8194 23.7236 35.9184 23.4279 36.0473 23.1507C35.5148 21.7999 34.9581 20.4583 34.4274 19.1075Z" fill="#372E38"/>
<path d="M45.0398 19.7746C45.6583 18.7379 47.4613 18.7435 48.0386 19.8189C48.302 20.2624 48.246 20.7928 48.2609 21.2843C47.3548 21.2973 46.4486 21.2806 45.5424 21.301C45.6303 21.7223 45.7386 22.2101 46.1684 22.4208C46.7849 22.6721 47.4669 22.4614 48.0648 22.2582C48.0648 22.4337 48.0666 22.783 48.0666 22.9567C47.181 23.2801 46.0432 23.3983 45.2865 22.7275C44.5279 21.9625 44.526 20.6727 45.0398 19.7746ZM45.5518 20.6782C46.1908 20.6875 46.8316 20.6893 47.4706 20.6653C47.3996 20.1941 47.1212 19.6175 46.5495 19.6656C45.9554 19.6194 45.6826 20.2051 45.5518 20.6782Z" fill="#372E38"/>
<path d="M49.1933 19.3292C49.9556 19.0539 50.858 18.8285 51.6203 19.2258C52.0313 19.4327 52.1957 19.9169 52.1752 20.3493C52.1789 21.2788 52.1696 22.2064 52.1733 23.1359C52.0239 23.1359 51.7249 23.1378 51.5754 23.1378C51.5175 22.9567 51.4596 22.7737 51.4036 22.5945C50.9589 23.1156 50.2377 23.3484 49.5688 23.1599C48.6925 22.9419 48.4478 21.6188 49.1578 21.0866C49.7893 20.608 50.63 20.7022 51.3774 20.6616C51.3195 20.3308 51.312 19.9095 50.9701 19.7321C50.4451 19.5695 49.9257 19.8097 49.4324 19.9612C49.3502 19.7506 49.2699 19.5399 49.1933 19.3292ZM49.6548 21.8405C49.4754 22.5852 50.5609 22.7349 50.9888 22.3339C51.3606 22.0697 51.3344 21.5763 51.3251 21.1753C50.7627 21.301 49.8229 21.1069 49.6548 21.8405Z" fill="#372E38"/>
<path d="M53.3355 19.1186C53.5634 19.113 53.7913 19.1075 54.0193 19.1038C54.0511 19.3422 54.0828 19.5824 54.1127 19.8226C54.477 19.2405 55.1216 18.8968 55.8223 19.0151C55.7943 19.2793 55.7681 19.5436 55.7419 19.8078C55.1609 19.745 54.4621 19.9335 54.2809 20.5507C54.1146 21.4026 54.2024 22.2766 54.1856 23.1396C53.9016 23.1378 53.6195 23.1378 53.3373 23.1359C53.3355 21.798 53.3355 20.4583 53.3355 19.1186Z" fill="#372E38"/>
<path d="M56.521 19.2849C57.2647 18.8211 58.197 19.028 58.9854 19.2646C58.8939 19.49 58.8005 19.7155 58.7108 19.9427C58.1559 19.7727 57.3637 19.4179 56.9078 19.9557C56.962 20.6357 57.8476 20.6302 58.3166 20.948C59.133 21.1975 59.3161 22.4078 58.6248 22.8846C57.8738 23.3854 56.9078 23.2246 56.0876 23.0084C56.0876 22.7534 56.0895 22.4965 56.0913 22.2415C56.6574 22.4448 57.2796 22.6536 57.8831 22.4799C58.2063 22.4115 58.311 21.9625 58.0531 21.7685C57.5673 21.4026 56.9284 21.3065 56.4557 20.9258C55.9269 20.5341 55.9568 19.6323 56.521 19.2849Z" fill="#372E38"/>
<path d="M60.4652 19.1906C61.2761 18.8414 62.3709 18.9744 62.8941 19.7395C63.4023 20.5064 63.4098 21.5671 62.9856 22.3727C62.2943 23.5609 60.1737 23.4889 59.6637 22.1676C59.2414 21.1771 59.3871 19.7099 60.4652 19.1906ZM60.8183 19.8522C60.2092 20.34 60.2746 21.2769 60.4839 21.9496C60.7604 22.7183 62.0533 22.6813 62.2775 21.8978C62.4606 21.2769 62.4943 20.523 62.0739 19.9871C61.7413 19.6896 61.2088 19.6101 60.8183 19.8522Z" fill="#372E38"/>
<path d="M64.1721 19.1186C64.4019 19.1149 64.6336 19.1112 64.8652 19.1075C64.8895 19.2368 64.9381 19.4937 64.9624 19.6231C65.6387 18.7287 67.4585 18.773 67.6921 20.0093C67.7836 21.0478 67.6977 22.0937 67.7257 23.1359C67.4436 23.1359 67.1652 23.1359 66.885 23.1378C66.8513 22.1787 66.9616 21.2086 66.8252 20.2569C66.6533 19.4216 65.2427 19.6009 65.1287 20.3881C64.9456 21.2917 65.0446 22.2212 65.0222 23.1359C64.7382 23.1359 64.4523 23.1359 64.1702 23.1378C64.1795 21.798 64.1683 20.4583 64.1721 19.1186Z" fill="#372E38"/>
</svg>
