<svg width="39" height="31" viewBox="0 0 39 31" fill="none" xmlns="http://www.w3.org/2000/svg">
<path d="M26.0625 23C28.6513 23 30.75 20.9013 30.75 18.3125C30.75 15.7237 28.6513 13.625 26.0625 13.625C23.4737 13.625 21.375 15.7237 21.375 18.3125C21.375 20.9013 23.4737 23 26.0625 23Z" fill="#2E3A59"/>
<path d="M19.5 18.3125C19.5 16.7844 20.2425 15.44 21.375 14.585C20.5894 13.9887 19.6219 13.625 18.5625 13.625C15.9731 13.625 13.875 15.7231 13.875 18.3125C13.875 20.9019 15.9731 23 18.5625 23C19.6219 23 20.5894 22.6362 21.375 22.04C20.2425 21.185 19.5 19.8406 19.5 18.3125Z" fill="#2E3A59"/>
<path d="M34.5 0.5H4.5C2.43188 0.5 0.75 2.18187 0.75 4.25V26.75C0.75 28.8181 2.43188 30.5 4.5 30.5H34.5C36.5681 30.5 38.25 28.8181 38.25 26.75V4.25C38.25 2.18187 36.5681 0.5 34.5 0.5ZM4.5 26.75V4.25H34.5L34.5038 26.75H4.5Z" fill="#2E3A59"/>
</svg>
