<svg width="174" height="46" viewBox="0 0 174 46" fill="none" xmlns="http://www.w3.org/2000/svg">
<path fill-rule="evenodd" clip-rule="evenodd" d="M117.394 22.7049C117.394 20.4433 117.423 19.7882 118.705 18.613C120.661 16.8202 124.795 16.8696 126.644 18.6288C127.753 19.6833 127.761 20.6601 127.746 22.6012L117.394 22.7049ZM132.472 36.0722L132.462 31.7107C129.116 31.6451 125.817 31.6109 122.513 31.56C117.441 31.4819 117.43 31.4298 117.407 26.4206C121.191 26.4041 124.982 26.3693 128.765 26.3761C129.729 26.3778 130.348 26.4812 131.024 26.0077C133.209 24.4761 132.914 21.6607 132.377 19.3196C132.097 18.095 131.288 16.4528 130.63 15.5021C129.78 14.2745 128.936 13.6454 126.967 13.4407C124.126 13.1451 118.614 12.9076 116.294 14.0248C112.363 15.9182 112.748 18.8946 112.746 21.7336C112.743 26.5322 111.551 32.255 115.923 35.3647C117.438 36.4428 118.958 36.089 120.993 36.0881C124.814 36.0865 128.655 36.1186 132.472 36.0722Z" fill="white"/>
<path fill-rule="evenodd" clip-rule="evenodd" d="M78.4748 25.8081C79.3468 25.5157 86.9365 25.398 87.5369 25.7785C87.8959 26.1197 87.9555 31.3069 87.6209 31.889C86.1441 32.1872 81.5925 31.9148 79.7773 31.9163C77.8905 31.9178 78.2919 31.4591 78.3092 29.6387C78.3199 28.51 78.1416 26.8002 78.4748 25.8081ZM76.1017 21.4238C75.0993 21.898 73.7252 23.2653 73.3401 24.5562C73.0731 25.4511 73.2386 28.9751 73.2466 30.1428C73.261 32.2577 73.1391 33.5433 74.3511 34.8831C75.6426 36.3107 76.5726 36.0905 78.9438 36.0909C82.4396 36.0915 87.3265 36.3783 90.6535 36.0443C92.2134 35.2226 91.6569 28.4161 91.6462 26.6109C91.6301 23.8654 91.8968 18.8687 91.5509 16.3923C91.3516 14.9657 90.3294 14.0485 89.1613 13.5721C87.3861 12.8482 76.2024 13.0703 74.2564 13.2285L74.3381 17.5748C77.0744 17.6712 79.9109 17.6224 82.6589 17.6414C85.3043 17.6596 87.3102 17.1267 87.4773 19.2256L87.4428 20.6768C87.331 21.2069 87.5494 20.6988 87.2991 21.0096C86.2547 21.5862 77.6924 20.6711 76.1017 21.4238Z" fill="white"/>
<path fill-rule="evenodd" clip-rule="evenodd" d="M41.6254 0.205872H41.4542C40.1736 1.12194 14.2063 9.7205 13.9466 10.3745L13.6081 20.8436L31.4441 14.4561C32.7417 13.9938 39.6929 11.6647 40.3219 11.1888C41.4227 10.356 41.6906 8.23351 41.6726 6.42873C41.6539 4.54731 41.8372 1.9901 41.6254 0.205872Z" fill="white"/>
<path fill-rule="evenodd" clip-rule="evenodd" d="M52.9347 36.0879L58.4185 36.0959L58.3954 23.8062L69.8981 23.7795L69.7977 19.3906L58.3437 19.4124L58.4469 11.5914L74.2338 11.4551L74.2121 7.06792C71.3456 7.05028 57.9002 6.93831 55.4684 7.11434C53.5743 7.25139 52.9736 8.97156 52.9803 10.9669C53.0085 19.3368 52.9443 27.7167 52.9347 36.0879Z" fill="white"/>
<path fill-rule="evenodd" clip-rule="evenodd" d="M173.513 31.1323V28.2017C172.77 26.8369 173.973 27.2122 170.945 25.9745L160.586 21.6613C159.361 21.1456 158.408 20.8042 158.747 18.9598C159.081 17.1411 160.521 17.5162 162.198 17.5308C165.471 17.5591 168.744 17.5958 172.017 17.6122L172.014 13.1676C167.665 13.1739 163.325 13.1869 158.986 13.1895C156.618 13.1908 155.706 14.0172 154.847 15.5948C154.046 17.0654 153.635 19.0995 153.864 20.9936C154.131 23.2087 155.361 23.3627 157.218 24.1728C160.194 25.4713 163.653 26.6059 166.744 27.7996C167.642 28.1465 168.335 28.2843 168.702 29.0514C169.125 29.9342 168.944 31.1305 168.335 31.5587C167.187 31.9283 156.713 31.6275 154.455 31.6813L154.391 36.0779C158.402 36.0779 162.411 36.088 166.42 36.0879C169.728 36.0878 171.453 36.4281 172.802 33.4689C173.127 32.7546 173.196 31.7877 173.513 31.1323Z" fill="white"/>
<path fill-rule="evenodd" clip-rule="evenodd" d="M138.603 17.5759C148.63 17.3958 148.776 17.035 148.761 21.7335C148.746 26.5016 148.732 31.2696 148.717 36.0643L152.618 36.0474C152.618 30.7156 152.617 25.3836 152.618 20.0517C152.619 16.6601 152.334 15.7731 150.355 14.1852C148.644 12.8118 145.837 13.2502 143.285 13.25C132.947 13.2494 134.179 12.0453 134.166 20.2198C134.158 25.5052 134.141 30.7909 134.138 36.0772L138.598 36.0394L138.603 17.5759Z" fill="white"/>
<path fill-rule="evenodd" clip-rule="evenodd" d="M112.157 35.9809L112.163 32.4827C112.162 32.4033 112.149 32.0703 112.137 32.0055C112.057 31.5627 112.153 31.7678 111.944 31.529C111.363 31.2528 103.32 31.33 101.905 31.3048C97.2822 31.2219 98.1092 28.8679 98.0962 24.9291C98.0839 21.1783 97.4196 18.5627 101.087 17.7117C102.754 17.3249 109.065 17.5757 111.239 17.5639L111.246 13.2203C108.706 13.2051 106.237 13.1975 103.768 13.1863C101.078 13.1743 99.4499 12.8936 97.199 14.0114C92.6264 16.2822 93.6023 20.4575 93.5608 25.1102C93.5205 29.6284 92.5237 33.7296 97.7551 35.6291C99.7468 36.3522 102.541 36.068 104.781 36.0614C106.823 36.0554 110.285 36.2462 112.157 35.9809Z" fill="white"/>
<path fill-rule="evenodd" clip-rule="evenodd" d="M0.755249 19.1712V22.6225C0.934151 23.11 1.1526 25.2611 1.32038 26.0537C1.98704 29.2026 3.27268 31.971 4.98224 34.5101C7.15425 37.736 9.81887 39.9324 13.5498 42.0121C13.3733 41.1777 13.0141 40.851 13.0018 39.7315C12.9877 38.452 13.399 38.144 13.6359 37.1572C12.455 36.613 9.58881 33.6749 8.74702 32.6095C-3.78276 16.7538 11.1769 -2.36661 29.8485 3.02992C30.7878 3.30147 32.7884 2.74807 33.5317 2.2493C29.8804 1.33204 27.6107 0.703972 23.5524 0.33869C14.064 0.061599 6.91294 3.45265 2.98249 11.1747C0.884908 15.2957 1.3175 17.6804 0.755249 19.1712Z" fill="white"/>
<path fill-rule="evenodd" clip-rule="evenodd" d="M13.683 33.7498C14.3385 33.7035 25.0033 29.6539 26.5381 29.0787C29.315 28.0378 31.8723 27.6421 32.1596 25.7592C32.4626 23.773 32.1335 19.29 32.1043 17.046C31.5439 17.0931 14.2421 23.6651 13.5719 24.0884L13.683 33.7498Z" fill="white"/>
<path fill-rule="evenodd" clip-rule="evenodd" d="M33.5465 36.0605C31.2568 37.5396 28.57 38.6782 25.2962 38.9778C25.0918 40.8338 26.1374 40.593 24.1468 43.4547C32.1698 42.4071 38.7286 37.935 41.6471 32.8603C43.483 29.6681 44.4358 25.9662 44.3604 21.5653C44.3138 18.8454 43.383 13.2045 42.2971 10.6336L42.0393 10.1718C42.0282 10.1089 41.9895 10.098 41.9605 10.0642C41.34 11.1194 41.4758 11.6973 40.4408 12.1132C42.7957 18.7401 42.47 24.7446 39.1428 30.367C37.856 32.5414 35.6024 34.7321 33.5465 36.0605Z" fill="white"/>
<path fill-rule="evenodd" clip-rule="evenodd" d="M18.2397 45.1112H19.9314C20.4771 44.7757 21.0867 44.6911 21.6903 44.2617C25.9712 41.2159 23.9779 34.0889 18.8265 34.1809C14.4369 34.2593 12.3536 39.9558 15.1286 43.2451C16.2979 44.6314 16.623 44.3535 18.2397 45.1112Z" fill="white"/>
</svg>
