<svg width="79" height="77" viewBox="0 0 79 77" fill="none" xmlns="http://www.w3.org/2000/svg">
<path d="M30.6135 1.79116C39.2057 -0.232525 48.5054 0.750068 56.4371 4.61529C56.8927 4.8001 57.3201 5.04874 57.7528 5.28276C60.5142 6.73072 63.1108 8.51241 65.4099 10.6132C72.5015 16.8332 77.0877 25.7989 77.9626 35.1581C78.2306 36.8361 78.1649 38.5406 78.1569 40.2346C78.1569 41.1161 78.0055 41.9857 77.9265 42.8619C77.3048 48.6325 75.3178 54.2555 72.1653 59.1445C69.2431 63.6612 65.3858 67.5969 60.8411 70.5194C56.2 73.6082 50.8394 75.6066 45.3193 76.4349C37.7708 77.5731 29.8913 76.4389 22.9886 73.196C18.4814 71.0898 14.407 68.0915 11.0267 64.4617C6.8009 59.9077 3.69922 54.3206 2.14771 48.32C1.4711 45.8536 1.1549 43.3074 0.931153 40.7664C0.868182 39.123 0.827987 37.465 1.04236 35.8309C1.4443 30.7504 2.88863 25.743 5.29762 21.2422C7.42525 17.1869 10.326 13.5331 13.7639 10.4922C18.539 6.26801 24.382 3.23779 30.6135 1.79116ZM35.0134 5.16575C29.689 5.60187 24.3981 6.95011 19.6631 9.43783C18.4493 10.0654 17.3158 10.8286 16.1381 11.5187C13.7425 12.9986 11.509 14.8108 9.84764 17.0951C8.77177 18.5817 7.9719 20.2596 7.49626 22.0294C5.99164 28.5419 5.80541 35.3309 6.77008 41.9378C7.42391 46.3376 8.55606 50.6801 10.2978 54.7833C11.4956 57.6513 13.0016 60.3983 14.8438 62.91C16.8763 66.1849 20.2098 68.4372 23.7134 69.9384C26.5927 71.159 29.6448 71.9475 32.7358 72.4168C38.8735 73.3103 45.2068 73.0604 51.2118 71.4808C54.1367 70.675 57.0079 69.5661 59.5509 67.9001C61.5526 66.609 63.3546 64.9669 64.6449 62.9619C65.2558 62.0311 65.6792 61.0007 66.2339 60.0393C68.9483 54.9642 70.8777 49.4688 71.8343 43.798C72.8593 37.8333 72.8218 31.7104 71.9361 25.731C71.695 24.2818 71.5476 22.8006 71.0143 21.4204C70.2413 19.1281 69.0528 16.9529 67.4102 15.1579C66.2151 13.7897 64.74 12.6954 63.1911 11.7527C61.1948 10.6425 59.2186 9.47905 57.0923 8.62277C50.1654 5.69893 42.507 4.55678 35.0134 5.16575Z" fill="white"/>
<path d="M35.9071 10.6996C41.5156 10.3805 47.1763 10.6584 52.6964 11.7235C55.2835 12.2513 57.8546 12.96 60.2355 14.1141C60.75 14.3787 61.3114 14.5502 61.8058 14.8561C63.435 15.7815 64.6917 17.3039 65.3201 19.0563C66.5193 22.161 66.2098 25.5422 66.2486 28.7958C66.2044 39.6057 64.1759 50.3889 60.4445 60.5393C60.1015 61.478 59.7826 62.4313 59.3579 63.3368C57.931 64.8047 56.0526 65.7381 54.1661 66.492C51.3043 67.5783 48.2656 68.1328 45.2255 68.4479C41.3655 68.8215 37.4666 68.7657 33.6133 68.3229C31.073 68.0038 28.5381 67.5544 26.101 66.7606C24.4999 66.2487 22.9296 65.5879 21.5416 64.6345C20.8891 64.1386 20.1776 63.6081 19.8963 62.8076C17.1818 56.7857 15.1841 50.4434 14.0038 43.9509C12.7617 37.2097 12.3973 30.3222 12.7711 23.4853C12.6653 21.1013 13.027 18.5471 14.5558 16.6218C15.5338 15.3387 16.9862 14.5157 18.4868 13.9719C24.0511 11.899 29.9985 11.0334 35.9071 10.6996ZM30.7488 24.1687C30.7287 34.4773 30.7394 44.7872 30.7448 55.0971C31.8233 55.1211 32.9032 55.1091 33.9818 55.1157C33.963 44.7965 33.9885 34.4786 33.9697 24.1594C32.8965 24.1581 31.822 24.1648 30.7488 24.1687ZM37.744 24.1714C37.7051 26.7761 37.7453 29.3822 37.7279 31.9869C37.7426 39.6642 37.7092 47.3414 37.7426 55.0173C38.718 55.0134 39.6934 55.0001 40.6675 55.0267C40.7117 50.1336 40.7519 45.2406 40.7626 40.3489C42.2083 40.3303 43.6553 40.3582 45.1009 40.3476C45.0956 44.8324 45.113 49.3173 45.1183 53.8007C45.125 54.2103 45.0822 54.6238 45.1599 55.0293C46.2331 54.9894 47.3103 55.0227 48.3848 55.008C48.3996 46.7724 48.4063 38.534 48.3808 30.301C47.3826 28.244 46.3443 26.2044 45.3247 24.1568C42.7978 24.1767 40.2709 24.1382 37.744 24.1714ZM19.9807 24.2459C19.9941 34.5332 19.986 44.8191 19.9834 55.1064C21.0713 55.1118 22.1592 55.1197 23.2472 55.1171C23.2954 50.2054 23.2606 45.2925 23.2713 40.3795C24.8657 40.3489 26.4614 40.3516 28.0558 40.3782C28.0598 39.2041 28.0611 38.0301 28.0424 36.856C26.4507 36.8746 24.859 36.8414 23.2673 36.868C23.2753 33.8285 23.2713 30.7903 23.2659 27.7507C25.2971 27.6856 27.3309 27.7587 29.3621 27.7135C29.3701 26.5674 29.346 25.4212 29.3688 24.2764C29.1584 24.2246 28.9414 24.2339 28.727 24.2352C25.8116 24.2459 22.8961 24.2219 19.9807 24.2459ZM49.0413 24.2498C49.0306 25.4212 49.0266 26.594 49.0346 27.7654C50.0931 27.7534 51.1529 27.7787 52.2113 27.788C52.2716 36.8613 52.3185 45.9334 52.348 55.0067C53.4413 55.0466 54.5359 55.0027 55.6306 55.0227C55.66 45.936 55.6212 36.848 55.6748 27.7614C56.7359 27.7507 57.7984 27.7601 58.8609 27.7694C58.885 26.6006 58.8555 25.4319 58.9104 24.2645C55.6212 24.2419 52.3319 24.2685 49.0413 24.2498Z" fill="white"/>
<path d="M40.7854 27.6271C41.6777 27.6191 42.57 27.6045 43.4637 27.6244C43.938 28.7812 44.4149 29.938 44.9067 31.0894C45.0018 31.3341 45.1411 31.5787 45.125 31.85C45.1116 33.2926 45.1264 34.7353 45.1224 36.1766C43.67 36.1885 42.2163 36.1899 40.7639 36.1726C40.8001 33.3245 40.7505 30.4765 40.7854 27.6271Z" fill="white"/>
</svg>
