<svg width="130" height="32" viewBox="0 0 130 32" fill="none" xmlns="http://www.w3.org/2000/svg">
<path d="M0.430884 0.607289C3.52838 0.465178 7.15332 0.469912 9.3254 3.04685C14.7916 10.1429 20.3201 17.1963 25.7623 24.3113C25.5609 16.41 25.7239 8.50389 25.6808 0.602547C27.4836 0.612021 29.2913 0.612023 31.0942 0.612023C31.0894 10.7966 31.0942 20.9859 31.0942 31.1752C28.9317 31.1658 26.7692 31.1895 24.6067 31.1516C18.3686 22.9281 12.0153 14.7899 5.70526 6.61856C5.70046 14.8041 5.71006 22.9897 5.70047 31.1752C3.87841 31.1705 2.05156 31.1705 0.224704 31.1847C0.21032 20.9907 0.38773 10.7966 0.430884 0.607289Z" fill="white"/>
<path d="M37.5097 0.607287C55.9317 0.612024 74.3488 0.612024 92.7708 0.607287C92.7756 2.42156 92.7756 4.23584 92.7612 6.05011C92.6797 6.04538 92.5119 6.02643 92.4304 6.02169C91.8166 5.95537 91.2029 5.908 90.5891 5.88906C75.5524 5.92695 60.5156 5.8938 45.4836 5.90801C42.8752 5.94117 40.2668 5.78485 37.6632 5.98854L37.4954 5.99801C37.5241 4.20268 37.5097 2.40735 37.5097 0.607287Z" fill="white"/>
<path d="M99.172 0.597811C109.414 0.621496 119.651 0.61202 129.893 0.602545C129.893 2.29366 129.893 3.98478 129.893 5.67589C125.692 5.66168 121.497 5.67116 117.301 5.67116C117.306 12.7909 117.306 19.9106 117.301 27.0351C117.311 28.4657 116.899 30.0857 115.59 30.891C114.429 31.5542 113 31.5353 111.73 31.2605C111.773 22.7291 111.73 14.1978 111.749 5.67116C107.549 5.69484 103.348 5.61431 99.1528 5.78011C99.1576 4.0511 99.148 2.32682 99.172 0.597811Z" fill="white"/>
<path d="M37.5145 13.2788C55.9317 13.2835 74.3536 13.2788 92.7756 13.2788C92.7708 15.0741 92.7756 16.8695 92.766 18.6695C74.3489 18.6648 55.9365 18.66 37.5193 18.6695C37.5097 16.8742 37.5145 15.0741 37.5145 13.2788Z" fill="white"/>
<path d="M37.6344 25.9503C38.9818 26.0166 40.3339 26.0545 41.6861 26.0451C58.6648 25.9882 75.6483 26.0924 92.627 25.9977L92.8523 25.9929C92.8379 27.7456 92.8379 29.4983 92.8523 31.2558C74.4304 31.2558 56.0132 31.2558 37.596 31.2558C37.6008 29.4889 37.5721 27.7172 37.6344 25.9503Z" fill="white"/>
</svg>
