<svg width="97" height="77" viewBox="0 0 97 77" fill="none" xmlns="http://www.w3.org/2000/svg">
<path d="M24.565 9.83226C27.913 5.93606 32.0631 2.33743 37.1908 1.12334C41.4047 0.075894 45.9698 1.38917 49.2101 4.19825C55.0441 9.23315 57.9093 16.7478 59.5134 24.072C52.1909 27.9405 46.9794 34.8203 43.5237 42.1643C42.2547 44.9496 41.1733 47.9134 41.1015 51.0082C41.0536 52.738 41.6442 54.5116 43.0209 55.6384C37.8971 56.166 32.7853 56.9556 27.6257 57.0865C24.154 57.0548 20.3989 56.8445 17.462 54.7893C14.8921 53.0118 13.6351 49.9448 13.1523 46.9691C12.2624 41.2716 13.0086 35.4392 14.4332 29.8885C16.3766 22.6159 19.6288 15.5853 24.565 9.83226Z" fill="white"/>
<path d="M48.807 63.2244C49.4535 63.2482 50.1039 63.2721 50.7504 63.3157C50.6307 63.7402 50.7384 64.1251 51.0696 64.4623L51.1414 64.5853C51.2891 66.1208 51.6003 67.6325 51.9715 69.1322L51.9635 69.3703C51.8637 69.89 52.0194 70.3939 52.2588 70.8542L52.3186 71.3422C52.2987 71.8659 52.4104 72.3857 52.6618 72.8499C53.0489 73.6077 53.0768 74.4687 53.1526 75.3019C52.3984 75.3138 50.8501 75.5717 51.2332 74.2861C51.317 73.6355 51.2252 72.9689 50.906 72.3896C50.8182 72.2031 50.6506 71.8262 50.5668 71.6397C49.1941 71.6001 47.8254 71.604 46.4527 71.6001C46.317 71.8619 46.0416 72.3896 45.902 72.6555C45.894 72.6713 45.878 72.7031 45.8701 72.7189C45.6745 73.0959 45.471 73.4728 45.2635 73.8497C44.9921 74.3139 44.7208 74.7742 44.4455 75.2344C43.9586 75.2106 43.4718 75.1828 42.9849 75.1471L42.8972 74.7226C43.2842 73.8695 43.7352 73.0443 44.1621 72.2111C44.1701 72.1912 44.1941 72.1516 44.202 72.1317L44.5452 71.4612C44.5532 71.4414 44.5732 71.4057 44.5811 71.3898L44.9403 70.6796C44.9522 70.6598 44.9722 70.6201 44.9802 70.6002L45.3473 69.8821C45.3593 69.8623 45.3832 69.8146 45.3952 69.7948L45.7583 69.0806C45.7703 69.0568 45.7942 69.0132 45.8022 68.9894L46.1574 68.2911C46.1693 68.2752 46.1853 68.2395 46.1973 68.2197L46.5564 67.5134C46.5644 67.4936 46.5843 67.4579 46.5963 67.438L46.9634 66.7199C46.9754 66.6961 46.9993 66.6564 47.0073 66.6326L47.3745 65.9145C47.3824 65.8946 47.4024 65.855 47.4104 65.8391L47.7775 65.117C47.7855 65.1011 47.8014 65.0654 47.8094 65.0495L48.1725 64.3592C48.1845 64.3393 48.2045 64.2997 48.2124 64.2838C48.3601 64.018 48.6594 63.4903 48.807 63.2244ZM48.827 66.8389C48.6394 67.1762 48.4599 67.5174 48.2843 67.8626C48.2723 67.8864 48.2484 67.934 48.2364 67.9618C47.977 68.4776 47.7376 69.0052 47.5221 69.5448L47.2707 69.156C47.2468 69.3941 47.1949 69.8662 47.1709 70.1043C48.2723 70.1043 49.3737 70.1003 50.475 70.0844C50.3833 69.4576 50.3154 68.8108 49.9603 68.2633L49.9483 68.1998C50.0481 67.2278 49.8645 66.2716 49.5333 65.363C49.2061 65.8113 48.9706 66.3033 48.827 66.8389Z" fill="white"/>
<path d="M10.7021 68.6323C11.4683 66.5731 14.2696 64.871 16.1252 66.712L16.2209 66.7913C16.9592 66.7278 17.6934 66.5969 18.4157 66.4223C18.3439 67.1286 18.2281 67.8348 18.0565 68.5252C17.5418 70.4812 17.1467 72.5602 17.6176 74.5678C17.6575 74.7464 17.7373 75.1035 17.7732 75.282C17.1866 75.286 16.596 75.29 16.0094 75.2939C15.9456 74.7107 15.8857 74.1274 15.8299 73.5482C15.1834 74.2068 14.5569 74.9527 13.6551 75.2701C12.5058 75.77 11.0772 75.2662 10.4467 74.2108C10.2073 72.6912 10.2592 71.1478 10.4188 69.6242C10.4827 69.3901 10.6104 68.9259 10.6742 68.6958C10.6782 68.6799 10.6941 68.6482 10.7021 68.6323ZM14.2058 67.6959L13.7628 67.6523C13.1004 67.5491 12.833 67.8308 12.9607 68.5014C12.5058 69.0886 12.1586 69.7948 12.0948 70.5407C11.3406 70.6955 11.3406 72.5761 12.0988 72.7388L12.1467 73.207C11.8434 74.3814 14.1778 74.5202 14.122 73.3776C14.5848 72.8499 15.1675 72.2785 15.2433 71.5564L15.6024 71.5445L15.8259 71.1874L15.6862 70.8581L15.6982 70.4376L16.0493 70.3225L16.1691 69.9059L15.9376 69.6242C15.9935 69.4417 16.1012 69.0806 16.1571 68.8981C16.9711 68.8624 16.3566 67.3587 15.7062 67.6245L15.1994 67.684C15.4308 66.9818 13.9344 67.0056 14.2058 67.6959Z" fill="white"/>
<path d="M83.2966 66.1922C83.8792 65.9938 84.5895 65.7598 85.188 66.0335C85.6709 66.2914 86.1497 66.5652 86.6246 66.8469C87.4027 66.6802 88.1769 66.5057 88.9471 66.3073C88.8553 66.5374 88.6717 66.9976 88.5799 67.2317C88.2926 67.8229 88.2008 68.4855 88.2527 69.1402C88.133 71.1795 87.8257 73.2268 88.1171 75.2741C87.5424 75.2661 86.9718 75.2622 86.3972 75.2542C86.3453 74.7107 86.2934 74.1711 86.2455 73.6275C85.6948 74.1195 85.1561 74.6234 84.5376 75.036C84.5256 75.04 84.5057 75.0559 84.4937 75.0598C83.3165 75.8097 81.6445 75.4725 80.9023 74.2901C80.8943 74.2782 80.8783 74.2544 80.8704 74.2425L80.7147 73.9727C80.615 72.5523 80.607 71.1319 80.6868 69.7115L80.8065 69.6083C80.8863 69.4139 81.042 69.0291 81.1218 68.8346L81.2495 68.3228C81.2535 68.307 81.2654 68.2831 81.2734 68.2673C81.7483 67.442 82.3748 66.6644 83.2407 66.22C83.2567 66.2121 83.2846 66.2001 83.2966 66.1922ZM83.8712 67.9459C83.4043 68.3625 83.0452 68.8823 82.7379 69.4258C82.1034 70.3384 81.9318 71.5326 82.271 72.588C82.6182 73.2903 83.3325 74.2504 84.1944 73.5879C84.9087 73.7426 85.188 73.4649 85.0404 72.7547C85.4355 72.1794 85.9303 71.5366 85.9143 70.8185L86.2655 70.755L86.4331 70.3622L86.2375 70.0527C86.4291 69.3941 86.5408 68.7156 86.6685 68.0411C86.457 67.9419 86.03 67.7396 85.8185 67.6404C85.7667 66.7278 83.8273 67.1643 83.8712 67.9459Z" fill="white"/>
<path d="M61.0258 24.6513C64.298 23.1317 68.0809 22.5842 71.5925 23.584C77.0874 25.0481 81.2814 29.3767 84.1824 34.0625C87.1992 39.0498 89.2184 44.7552 89.39 50.6074C89.4937 52.6269 88.9032 55.0591 86.864 55.9518C84.2623 57.0508 81.3572 56.4676 78.6716 56.047C69.2102 54.4282 59.5653 54.214 50.0042 54.8925C54.7448 52.5079 58.3442 48.1793 60.0681 43.2078C62.1591 37.2762 62.195 30.7813 61.0258 24.6513Z" fill="white"/>
<path d="M46.6482 38.5697C49.9323 33.2094 54.1502 28.1785 59.7529 25.1115C60.9939 31.6581 60.95 38.7086 58.2405 44.898C56.0657 49.552 52.1909 53.8529 47.0073 55.071C45.7663 55.2813 44.1462 55.7217 43.2044 54.6147C42.0871 53.3213 42.1589 51.4724 42.2786 49.8774C42.7774 45.8225 44.5891 42.0612 46.6482 38.5697Z" fill="white"/>
<path d="M13.7868 62.9586C13.9623 62.9665 14.3095 62.9785 14.4811 62.9864C14.2896 63.0657 13.9105 63.2244 13.7189 63.2998L13.7868 62.9586Z" fill="white"/>
<path d="M14.4811 62.9864C14.5769 62.9745 14.7724 62.9546 14.8682 62.9427C15.6862 63.5815 16.6599 63.9029 17.5378 63.1729L18.272 63.3554L17.9608 63.5855C17.5418 63.7958 17.3063 64.1211 17.2585 64.5615L16.8953 64.5298C16.3925 64.4742 15.8937 64.4584 15.3909 64.4742C15.1395 64.4028 14.6367 64.2679 14.3853 64.1965C14.1898 64.3433 13.7947 64.6329 13.5992 64.7797C13.3957 64.6052 12.9887 64.256 12.7852 64.0854C12.9607 63.8751 13.3159 63.4585 13.4915 63.2482L13.7189 63.2998C13.9105 63.2244 14.2896 63.0657 14.4811 62.9864Z" fill="white"/>
<path d="M14.8682 62.9427C15.3909 63.1133 15.9177 63.284 16.4404 63.4585C16.8714 63.0776 17.3742 62.8991 17.9488 62.9229L17.5378 63.1729C16.6599 63.9029 15.6862 63.5815 14.8682 62.9427Z" fill="white"/>
<path d="M67.5422 63.6053C67.5941 62.8991 67.9453 62.7047 68.5877 63.0142C68.3124 63.3395 67.9652 63.5379 67.5422 63.6053Z" fill="white"/>
<path d="M68.5877 63.0142C68.7274 62.8832 69.0067 62.6214 69.1464 62.4944C69.2941 62.7087 69.5854 63.1411 69.733 63.3554C69.3938 63.7164 69.0626 64.0854 68.7314 64.4544C68.2964 64.6845 67.8495 64.875 67.3826 65.0297C67.2509 64.9662 66.9916 64.8393 66.8639 64.7758C66.6125 64.3592 66.7322 64.0021 67.227 63.6966L67.5422 63.6053C67.9652 63.5379 68.3124 63.3395 68.5877 63.0142Z" fill="white"/>
<path d="M2.46183 63.28C3.92234 63.3593 5.48261 63.0023 6.87927 63.4665C7.08678 63.5061 7.50577 63.5855 7.71727 63.6291L8.28391 63.8156C8.29988 63.8235 8.32382 63.8355 8.33579 63.8434C8.8346 64.1489 9.23763 64.5496 9.54091 65.0456C9.54889 65.0575 9.56086 65.0853 9.56884 65.0972C10.327 66.6049 9.61673 68.4736 8.31584 69.4417C6.87129 70.5645 4.95587 70.6756 3.19209 70.6637C2.9367 72.1873 2.6853 73.7108 2.40198 75.2344L1.99894 75.1828C1.75552 75.1908 1.2647 75.2106 1.02128 75.2225L0.510498 75.3257C0.586317 74.3496 0.650165 73.3577 1.02926 72.4452C1.3046 71.8461 1.45624 71.1993 1.3884 70.5447C1.36047 69.5845 1.46821 68.6085 1.84331 67.7197C2.08673 67.2397 2.19447 66.704 2.17851 66.1684L2.23039 65.7002C2.46183 65.0932 2.74915 64.4385 2.55361 63.7759L2.46183 63.28ZM4.56481 64.8829L4.15379 64.8551C4.15778 65.0932 4.16576 65.5693 4.16975 65.8113C3.39161 65.8272 3.37964 67.2 3.82258 67.6563L3.75075 67.8864C3.46344 68.2673 3.3118 68.6997 3.28786 69.1798C4.17773 69.1759 5.15539 69.3703 5.92156 68.7989L6.30464 68.6601C6.32061 68.6482 6.35652 68.6323 6.37248 68.6244L6.80744 68.3744C7.46587 68.549 7.78111 68.303 7.7452 67.6404L7.68534 67.1167C8.34377 67.3508 8.38767 65.8867 7.72126 66.0811L7.80107 65.6923C7.60154 65.5733 7.19452 65.3352 6.991 65.2122C6.87528 64.4901 4.74837 63.9267 4.56481 64.8829Z" fill="white"/>
<path d="M22.2785 66.3152C24.1061 65.5733 26.652 65.7994 27.486 67.8546C27.49 67.8665 27.502 67.8904 27.5099 67.9023C27.9409 69.0687 27.9728 70.386 27.5858 71.5683C27.502 71.7588 27.3264 72.1397 27.2386 72.3301C26.5123 74.7583 23.3599 76.3017 21.0454 74.9964C19.2537 73.933 19.0462 71.4453 19.7086 69.6678C19.8044 69.4853 19.9999 69.1163 20.0997 68.9299C20.1476 68.3189 20.6743 67.8824 20.9576 67.3666L21.3048 67.323C21.7836 67.2952 22.0789 67.0452 22.1947 66.581L22.2785 66.3152ZM22.8571 67.9697C22.5019 68.307 22.1907 68.6759 21.9193 69.0806C21.9113 69.0925 21.8954 69.1163 21.8914 69.1283C21.1611 70.4138 21.209 71.9413 21.648 73.3141C22.1468 73.6355 22.6176 74.1949 23.288 74.0362C24.2777 73.941 24.9002 73.0244 25.3671 72.2468C25.4868 72.0444 25.5826 71.8302 25.6584 71.612C26.3527 70.4336 26.233 68.8704 25.3312 67.8388C25.2035 67.7793 24.9561 67.6563 24.8323 67.5928C24.7246 66.7318 22.7852 67.1524 22.8571 67.9697Z" fill="white"/>
<path d="M55.2077 68.3784C55.9978 66.3866 58.5677 65.6129 60.5509 66.0533C61.3171 66.5176 62.5502 67.0175 62.0035 68.1522C61.8518 68.1879 61.5565 68.2593 61.4089 68.299C60.4352 67.7555 59.3378 67.327 58.2485 67.8308C58.2085 67.8467 58.1327 67.8824 58.0968 67.8983C57.4943 68.2831 56.9755 68.7831 56.5725 69.3663C56.5565 69.398 56.5206 69.4615 56.5006 69.4933C55.9619 70.5685 56.0258 71.7866 56.3171 72.9173C56.3929 73.3617 56.6722 73.6156 57.1471 73.6831L57.5182 73.81C58.037 74.0878 58.6954 74.183 59.1782 73.7704C59.5892 73.4807 60.0402 73.3141 60.531 73.2625C60.6906 73.2228 61.0019 73.1355 61.1615 73.0919C61.1894 73.441 61.2533 74.1394 61.2852 74.4885C61.0378 74.5559 60.547 74.6829 60.2995 74.7464C60.124 74.8615 59.7728 75.0876 59.5972 75.1987L59.1343 75.2582C58.9308 75.3019 58.5278 75.3931 58.3283 75.4407C57.6778 76.0438 56.9755 77.0992 55.934 76.6985C55.7385 76.6112 55.3434 76.4406 55.1479 76.3533C55.2875 76.2104 55.5748 75.9208 55.7185 75.774C55.7345 75.7661 55.7704 75.7423 55.7863 75.7304C56.0018 75.6153 56.4288 75.3852 56.6443 75.2701C55.7943 74.8734 54.9005 74.4052 54.5293 73.4847C54.5254 73.4728 54.5134 73.445 54.5054 73.4331C54.1263 72.3222 53.9427 70.9494 54.4934 69.8742C54.8566 69.4417 55.108 68.9299 55.2077 68.3784Z" fill="white"/>
<path d="M75.9422 66.1525C76.8719 65.728 77.9493 65.9859 78.8951 66.224C78.915 66.2279 78.9549 66.2398 78.9749 66.2478L79.5176 66.4541C79.7091 66.9421 79.8727 67.438 80.0044 67.9459C79.8249 68.0253 79.4737 68.1879 79.2981 68.2673C78.1249 67.4976 76.7841 67.5293 75.5072 67.9935C75.0563 68.057 74.7809 68.3109 74.6812 68.7593C73.8591 70.39 73.4122 72.8419 75.4433 73.7902C75.9022 74.2227 76.6245 74.1235 77.0994 73.7704C77.5463 73.5244 77.9932 73.2823 78.4442 73.0403C78.5479 73.5759 78.6836 74.1036 78.8073 74.6353L78.2526 74.7742C78.0651 74.8694 77.69 75.0598 77.4984 75.1551C75.7466 75.8494 73.2845 75.3376 72.4385 73.5125C71.9118 72.3063 71.9317 70.8621 72.3707 69.6321C72.4705 69.4536 72.678 69.0925 72.7817 68.914C72.8456 68.2554 73.3563 67.5769 73.9788 67.3309C74.4737 67.2317 74.7809 66.954 74.9046 66.5017L75.1919 66.5255C75.3795 66.4342 75.7546 66.2438 75.9422 66.1525Z" fill="white"/>
<path d="M6.87927 63.4665L7.13865 63.2125L7.56563 63.2959L7.71727 63.6291C7.50577 63.5855 7.08678 63.5061 6.87927 63.4665Z" fill="white"/>
<path d="M50.7504 63.3157C51.3609 63.526 51.4647 63.9069 51.0696 64.4623C50.7384 64.1251 50.6307 63.7402 50.7504 63.3157Z" fill="white"/>
<path d="M69.733 63.3554C70.6628 63.5498 69.322 65.0535 68.7314 64.4544C69.0626 64.0854 69.3938 63.7164 69.733 63.3554Z" fill="white"/>
<path d="M2.23039 65.7002C1.87124 65.2043 1.83533 63.8751 2.55361 63.7759C2.74915 64.4385 2.46183 65.0932 2.23039 65.7002Z" fill="white"/>
<path d="M17.9608 63.5855C17.5418 63.7958 17.3063 64.1211 17.2585 64.5615C17.9249 64.5536 18.1563 64.2283 17.9608 63.5855Z" fill="white"/>
<path d="M65.8223 64.6091C66.2932 64.3116 66.7641 64.0061 67.227 63.6966C66.7322 64.0021 66.6125 64.3592 66.8639 64.7758C66.9916 64.8393 67.2509 64.9662 67.3826 65.0297C67.0115 65.1725 66.6404 65.3154 66.2693 65.4582C66.1575 65.2439 65.9341 64.8194 65.8223 64.6091Z" fill="white"/>
<path d="M12.5617 64.137L12.7852 64.0854C12.9887 64.256 13.3957 64.6052 13.5992 64.7797L13.5793 65.0019C13.1004 65.3114 12.3223 64.6528 12.5617 64.137Z" fill="white"/>
<path d="M6.991 65.2122C6.87528 64.4901 4.74837 63.9267 4.56481 64.8829C5.37886 64.9543 6.1969 65.0257 6.991 65.2122Z" fill="white"/>
<path d="M16.8953 64.5298C16.3925 64.4742 15.8937 64.4584 15.3909 64.4742C15.2832 65.1606 16.9392 65.2043 16.8953 64.5298Z" fill="white"/>
<path d="M51.1414 64.5853C51.6802 66.0335 51.9515 67.5848 51.9715 69.1322C51.6003 67.6325 51.2891 66.1208 51.1414 64.5853Z" fill="white"/>
<path d="M4.16975 65.8113C3.39161 65.8272 3.37964 67.2 3.82258 67.6563C4.06201 67.0691 4.23759 66.4461 4.16975 65.8113Z" fill="white"/>
<path d="M48.827 66.8389C48.9706 66.3033 49.2061 65.8113 49.5333 65.363C49.8645 66.2716 50.0481 67.2278 49.9483 68.1998C49.7927 67.3706 49.633 66.5414 49.4894 65.7082C49.3218 65.9899 48.9906 66.5533 48.827 66.8389Z" fill="white"/>
<path d="M1.84331 67.7197C1.3884 67.3468 1.45624 66.1208 2.17851 66.1684C2.19447 66.704 2.08673 67.2397 1.84331 67.7197Z" fill="white"/>
<path d="M7.68534 67.1167C8.34377 67.3508 8.38767 65.8867 7.72126 66.0811C7.71328 66.339 7.69333 66.8588 7.68534 67.1167Z" fill="white"/>
<path d="M16.1252 66.712C16.4564 65.9581 18.0605 65.6804 18.4157 66.4223C17.6934 66.5969 16.9592 66.7278 16.2209 66.7913L16.1252 66.712Z" fill="white"/>
<path d="M34.4374 66.3112C34.7566 66.2398 35.3991 66.101 35.7183 66.0295C35.9538 67.1127 35.5348 68.2157 35.2075 69.2393C35.3193 68.3347 35.443 67.4341 35.5787 66.5334C35.435 66.5136 35.1437 66.466 35 66.4461L34.4374 66.3112Z" fill="white"/>
<path d="M60.5509 66.0533C61.2134 66.2795 61.8638 66.5612 62.4743 66.9104C62.3187 67.7277 62.0873 68.9775 60.938 68.418L61.4089 68.299C61.5565 68.2593 61.8518 68.1879 62.0035 68.1522C62.5502 67.0175 61.3171 66.5176 60.5509 66.0533Z" fill="white"/>
<path d="M75.2478 66.1644L75.6309 65.978L75.9422 66.1525C75.7546 66.2438 75.3795 66.4342 75.1919 66.5255L75.2478 66.1644Z" fill="white"/>
<path d="M85.188 66.0335C85.8984 66.1843 86.6685 66.7001 87.3628 66.1962C87.8736 65.9224 88.4363 66.1605 88.9471 66.3073C88.1769 66.5057 87.4027 66.6802 86.6246 66.8469C86.1497 66.5652 85.6709 66.2914 85.188 66.0335Z" fill="white"/>
<path d="M91.1139 66.1525C91.7523 66.1922 92.3948 66.2398 93.0333 66.2993C92.9016 66.7913 92.6422 67.7793 92.5145 68.2752C93.2368 67.5372 93.9311 66.7278 94.8928 66.2874C94.9048 66.2835 94.9328 66.2716 94.9447 66.2676C95.5593 66.0256 96.1937 65.9343 96.8561 65.9859L96.5409 66.5176C96.2257 66.827 96.1019 67.1921 96.1578 67.6047C95.9264 67.6126 95.4635 67.6285 95.232 67.6364C94.3142 67.6563 93.7157 68.5093 93.4363 69.2949C93.2049 69.8147 92.9934 70.3582 92.6342 70.8145C92.5425 71.0049 92.3629 71.3819 92.2711 71.5723L92.2432 71.9889C92.1554 72.1793 91.9838 72.5602 91.896 72.7507C91.9 73.6037 91.6725 74.4409 91.5129 75.2781C90.9144 75.29 90.3198 75.3019 89.7252 75.3138C90.0165 72.2389 90.6111 69.1957 91.1139 66.1525Z" fill="white"/>
<path d="M21.3048 67.323C21.2689 66.7001 21.5642 66.4541 22.1947 66.581C22.0789 67.0452 21.7836 67.2952 21.3048 67.323Z" fill="white"/>
<path d="M34.17 68.1125C33.767 67.6602 33.8628 66.581 34.5212 66.4303C34.617 67.0135 34.4055 67.5888 34.17 68.1125Z" fill="white"/>
<path d="M34.5212 66.4303L35 66.4461C35.1437 66.466 35.435 66.5136 35.5787 66.5334C35.443 67.4341 35.3193 68.3347 35.2075 69.2393C34.9242 71.247 34.4414 73.2466 34.6728 75.29C34.19 75.282 33.7031 75.2741 33.2203 75.2662L33.3201 74.79C33.3999 74.5678 33.5475 73.7347 33.0607 74.0124C32.6217 74.3139 32.2825 74.7305 31.9074 75.1035C31.0375 75.9089 29.6329 75.1233 29.2219 74.1711C29.1859 72.8657 29.2737 71.5525 29.6049 70.2868C30.1317 69.3861 30.9018 68.5014 32.0112 68.3784C32.6576 68.4101 33.2402 68.7275 33.8348 68.9497C33.9186 68.7394 34.0862 68.3228 34.17 68.1125C34.4055 67.5888 34.617 67.0135 34.5212 66.4303ZM31.6201 69.8742C31.4685 70.0646 31.1652 70.4415 31.0176 70.632C31.0096 70.6439 30.9976 70.6677 30.9896 70.6796L30.7941 71.2232L30.4549 71.3541L30.3512 71.7747L30.5946 72.0444C30.5946 72.3896 30.5946 73.08 30.5946 73.4212C30.6026 73.4371 30.6105 73.4688 30.6185 73.4807C30.9537 74.2703 31.4685 74.3774 32.1628 73.8061C32.1788 73.7902 32.2147 73.7585 32.2307 73.7466C32.4182 73.4649 32.7973 72.9015 32.9849 72.6198C32.9928 72.5999 33.0088 72.5682 33.0168 72.5483C33.364 71.7191 33.5315 70.8304 33.6912 69.9495C33.6912 68.8981 31.6401 68.8148 31.6201 69.8742Z" fill="white"/>
<path d="M38.7191 68.549C39.5891 68.1562 40.7463 68.4934 41.3888 69.1798C41.4686 69.6996 41.5364 70.2193 41.6202 70.7431L41.6721 71.1557C41.2331 71.2509 40.9259 71.5247 40.7503 71.973C40.3912 72.2706 39.9761 72.4055 39.5093 72.3817C38.9745 72.346 38.4478 72.4372 37.949 72.6317C37.7255 72.6991 37.2786 72.83 37.0511 72.8975L37.1669 73.0998C37.534 74.2703 38.8788 74.6631 39.8963 74.0322L40.1198 73.9608C40.2794 73.9251 40.6066 73.8576 40.7702 73.8219C40.8301 74.0362 40.9458 74.4687 41.0057 74.6829L40.6585 74.794C39.621 75.1194 38.5356 75.2304 37.4542 75.3376L37.3584 75.1114C37.1549 74.4845 36.6202 74.0402 36.0176 73.814L36.0296 73.5759C36.0775 72.8062 36.0455 72.0325 36.0016 71.2668C35.9498 70.8304 36.1094 70.4971 36.4765 70.259C37.0312 69.9099 37.5938 69.5012 37.8053 68.8545L37.961 68.8862C38.1525 68.7989 38.5316 68.6323 38.7191 68.549ZM37.5938 70.5725L37.4143 71.0129C37.4063 71.0327 37.3903 71.0763 37.3823 71.0962L37.1669 71.7747C37.4821 71.7112 38.1206 71.5921 38.4398 71.5287C39.0224 71.9333 39.3935 71.8104 39.5492 71.1676L39.9602 71.2232C40.1637 70.8621 40.3592 70.4971 40.5508 70.1321C39.9402 68.7394 37.933 69.2433 37.5938 70.5725Z" fill="white"/>
<path d="M63.879 66.5295C64.5334 66.3628 65.1958 66.2557 65.8742 66.2081C65.6108 67.6206 65.4552 69.0648 65.0482 70.4495C64.7689 71.3739 64.3219 72.5801 65.0203 73.4093C66.0019 74.4449 67.2709 73.2189 67.6779 72.2547C67.6899 72.2389 67.7098 72.2031 67.7218 72.1873L68.041 71.6953C68.1248 71.5009 68.2924 71.116 68.3762 70.9216L68.4121 70.4574C68.492 70.2709 68.6596 69.89 68.7394 69.6996C68.7793 69.5091 68.8551 69.1203 68.895 68.9299C68.9469 68.7235 69.0506 68.3149 69.1025 68.1125C69.1584 67.7594 69.2661 67.0532 69.318 66.7001C69.326 66.6842 69.3459 66.6604 69.3539 66.6485C69.9405 66.3668 70.563 66.216 71.2294 66.1962C70.7865 69.1997 70.0482 72.223 70.4593 75.2741C69.8966 75.2661 69.3339 75.2622 68.7753 75.2622C68.7035 74.7266 68.6316 74.1949 68.5638 73.6672C68.073 74.1552 67.63 74.7146 67.0155 75.0638C66.9995 75.0678 66.9716 75.0836 66.9596 75.0916C65.7505 75.7026 63.9349 75.6312 63.2844 74.2623C63.2764 74.2504 63.2645 74.2227 63.2565 74.2108C62.602 72.342 63.1647 70.2789 63.6954 68.4498C63.9029 67.9975 64.2022 67.4936 63.9907 66.9897L63.879 66.5295Z" fill="white"/>
<path d="M73.9788 67.3309C73.9509 66.704 74.2582 66.4263 74.9046 66.5017C74.7809 66.954 74.4737 67.2317 73.9788 67.3309Z" fill="white"/>
<path d="M79.5176 66.4541C79.7411 66.6009 80.192 66.8945 80.4155 67.0413C80.1521 67.8189 79.9565 68.8981 78.8432 68.4736L79.2981 68.2673C79.4737 68.1879 79.8249 68.0253 80.0044 67.9459C79.8727 67.438 79.7091 66.9421 79.5176 66.4541Z" fill="white"/>
<path d="M96.5409 66.5176C96.2257 66.827 96.1019 67.1921 96.1578 67.6047C96.8083 67.4896 96.936 67.1286 96.5409 66.5176Z" fill="white"/>
<path d="M63.6954 68.4498C63.2724 68.1046 63.2884 66.9024 63.9907 66.9897C64.2022 67.4936 63.9029 67.9975 63.6954 68.4498Z" fill="white"/>
<path d="M15.1994 67.684C15.4308 66.9818 13.9344 67.0056 14.2058 67.6959C14.4572 67.692 14.952 67.684 15.1994 67.684Z" fill="white"/>
<path d="M24.8323 67.5928C24.7246 66.7318 22.7852 67.1524 22.8571 67.9697C23.5035 67.7951 24.1659 67.688 24.8323 67.5928Z" fill="white"/>
<path d="M85.8185 67.6404C85.7667 66.7278 83.8273 67.1643 83.8712 67.9459C84.5137 67.811 85.1641 67.7197 85.8185 67.6404Z" fill="white"/>
<path d="M88.5799 67.2317C88.2926 67.8229 88.2008 68.4855 88.2527 69.1402C89.0149 69.0806 88.975 67.7118 88.5799 67.2317Z" fill="white"/>
<path d="M6.80744 68.3744C7.00298 67.9499 7.31423 67.7078 7.7452 67.6404C7.78111 68.303 7.46587 68.549 6.80744 68.3744Z" fill="white"/>
<path d="M13.7628 67.6523C13.1004 67.5491 12.833 67.8308 12.9607 68.5014C13.3997 68.3506 13.667 68.0689 13.7628 67.6523Z" fill="white"/>
<path d="M16.1571 68.8981C16.9711 68.8624 16.3566 67.3587 15.7062 67.6245C15.8179 68.061 15.9695 68.4855 16.1571 68.8981Z" fill="white"/>
<path d="M95.232 67.6364C94.3142 67.6563 93.7157 68.5093 93.4363 69.2949C94.1346 69.16 95.0684 68.307 95.232 67.6364Z" fill="white"/>
<path d="M3.28786 69.1798C3.3118 68.6997 3.46344 68.2673 3.75075 67.8864C3.72681 68.1641 3.68291 68.7196 3.66296 68.9973C4.41716 68.9378 5.16736 68.8783 5.92156 68.7989C5.15539 69.3703 4.17773 69.1759 3.28786 69.1798Z" fill="white"/>
<path d="M25.6584 71.612C26.3527 70.4336 26.233 68.8704 25.3312 67.8388C25.81 69.041 25.8739 70.3423 25.6584 71.612Z" fill="white"/>
<path d="M68.7633 68.2316L69.1025 68.1125C69.0506 68.3149 68.9469 68.7235 68.895 68.9299L68.6556 68.6521L68.7633 68.2316Z" fill="white"/>
<path d="M75.5072 67.9935C75.0563 68.057 74.7809 68.3109 74.6812 68.7593C75.3276 68.8902 75.603 68.6363 75.5072 67.9935Z" fill="white"/>
<path d="M38.0288 68.5371C38.2004 68.541 38.5476 68.545 38.7191 68.549C38.5316 68.6323 38.1525 68.7989 37.961 68.8862L38.0288 68.5371Z" fill="white"/>
<path d="M49.9603 68.2633C50.3154 68.8108 50.3833 69.4576 50.475 70.0844C49.3737 70.1003 48.2723 70.1043 47.1709 70.1043C47.1949 69.8662 47.2468 69.3941 47.2707 69.156L47.5221 69.5448L47.4263 69.9495C48.3441 69.9456 49.2619 69.9456 50.1797 69.9416C50.1239 69.521 50.0161 68.6839 49.9603 68.2633Z" fill="white"/>
<path d="M54.4934 69.8742C54.1542 69.3822 54.5373 68.2673 55.2077 68.3784C55.108 68.9299 54.8566 69.4417 54.4934 69.8742Z" fill="white"/>
<path d="M18.0565 68.5252C17.5418 70.4812 17.1467 72.5602 17.6176 74.5678C17.5697 72.5364 17.885 70.5368 18.0565 68.5252Z" fill="white"/>
<path d="M19.7365 68.9656L20.0997 68.9299C19.9999 69.1163 19.8044 69.4853 19.7086 69.6678L19.537 69.3465L19.7365 68.9656Z" fill="white"/>
<path d="M36.4765 70.259C36.277 69.6044 37.1549 68.7593 37.8053 68.8545C37.5938 69.5012 37.0312 69.9099 36.4765 70.259Z" fill="white"/>
<path d="M72.4226 68.9378L72.7817 68.914C72.678 69.0925 72.4705 69.4536 72.3707 69.6321L72.2111 69.3068L72.4226 68.9378Z" fill="white"/>
<path d="M80.7706 68.914L81.1218 68.8346C81.042 69.0291 80.8863 69.4139 80.8065 69.6083L80.607 69.3108L80.7706 68.914Z" fill="white"/>
<path d="M33.6912 69.9495C33.6912 68.8981 31.6401 68.8148 31.6201 69.8742C32.3025 69.648 33.0088 69.8107 33.6912 69.9495Z" fill="white"/>
<path d="M40.5508 70.1321C39.9402 68.7394 37.933 69.2433 37.5938 70.5725C38.3241 69.6321 39.5931 69.279 40.5508 70.1321Z" fill="white"/>
<path d="M41.3888 69.1798C42.143 69.0568 42.53 70.8224 41.6202 70.7431C41.5364 70.2193 41.4686 69.6996 41.3888 69.1798Z" fill="white"/>
<path d="M51.9635 69.3703C52.6698 69.2869 52.7217 70.5169 52.2588 70.8542C52.0194 70.3939 51.8637 69.89 51.9635 69.3703Z" fill="white"/>
<path d="M10.4587 69.1957L10.4188 69.6242C10.2592 71.1478 10.2073 72.6912 10.4467 74.2108C9.68057 72.6317 9.91202 70.8026 10.4587 69.1957Z" fill="white"/>
<path d="M15.6982 70.4376C15.758 70.2352 15.8778 69.8265 15.9376 69.6242L16.1691 69.9059L16.0493 70.3225L15.6982 70.4376Z" fill="white"/>
<path d="M68.3922 69.7631L68.7394 69.6996C68.6596 69.89 68.492 70.2709 68.4121 70.4574L68.2246 70.1479L68.3922 69.7631Z" fill="white"/>
<path d="M82.7379 69.4258C82.1034 70.3384 81.9318 71.5326 82.271 72.588C82.3069 71.5207 82.4586 70.4574 82.7379 69.4258Z" fill="white"/>
<path d="M80.7147 73.9727C80.0803 72.6475 80.18 71.0605 80.6868 69.7115C80.607 71.1319 80.615 72.5523 80.7147 73.9727Z" fill="white"/>
<path d="M85.9143 70.8185C85.9941 70.624 86.1577 70.2431 86.2375 70.0527L86.4331 70.3622L86.2655 70.755L85.9143 70.8185Z" fill="white"/>
<path d="M1.02926 72.4452C0.622231 71.9572 0.638192 70.6082 1.3884 70.5447C1.45624 71.1993 1.3046 71.8461 1.02926 72.4452Z" fill="white"/>
<path d="M12.0948 70.5407C11.3406 70.6955 11.3406 72.5761 12.0988 72.7388C12.1028 72.0048 12.0988 71.2708 12.0948 70.5407Z" fill="white"/>
<path d="M29.2219 74.1711C28.5355 72.9134 29.0343 71.481 29.6049 70.2868C29.2737 71.5525 29.1859 72.8657 29.2219 74.1711Z" fill="white"/>
<path d="M65.0482 70.4495C64.7689 71.3739 64.3219 72.5801 65.0203 73.4093C65.2757 72.4809 65.2956 71.3819 65.0482 70.4495Z" fill="white"/>
<path d="M15.2433 71.5564C15.355 71.3819 15.5785 71.0327 15.6862 70.8581L15.8259 71.1874L15.6024 71.5445L15.2433 71.5564Z" fill="white"/>
<path d="M68.0211 70.9732L68.3762 70.9216C68.2924 71.116 68.1248 71.5009 68.041 71.6953L67.8455 71.37L68.0211 70.9732Z" fill="white"/>
<path d="M92.2711 71.5723C92.3629 71.3819 92.5425 71.0049 92.6342 70.8145L92.8178 71.1319L92.6302 71.5207L92.2711 71.5723Z" fill="white"/>
<path d="M30.4549 71.3541L30.7941 71.2232C30.7462 71.4255 30.6464 71.8381 30.5946 72.0444L30.3512 71.7747L30.4549 71.3541Z" fill="white"/>
<path d="M36.0296 73.5759C35.3113 73.3617 35.3352 71.493 36.0016 71.2668C36.0455 72.0325 36.0775 72.8062 36.0296 73.5759Z" fill="white"/>
<path d="M38.4398 71.5287C38.7551 71.2152 39.1262 71.0962 39.5492 71.1676C39.3935 71.8104 39.0224 71.9333 38.4398 71.5287Z" fill="white"/>
<path d="M41.6721 71.1557C41.2331 71.2509 40.9259 71.5247 40.7503 71.973C41.4127 72.0841 41.72 71.8104 41.6721 71.1557Z" fill="white"/>
<path d="M52.3186 71.3422C53.0369 71.2708 53.1367 72.4888 52.6618 72.8499C52.4104 72.3857 52.2987 71.8659 52.3186 71.3422Z" fill="white"/>
<path d="M27.2386 72.3301C27.3264 72.1397 27.502 71.7588 27.5858 71.5683L27.7773 71.8818L27.5977 72.2706L27.2386 72.3301Z" fill="white"/>
<path d="M91.896 72.7507C91.9838 72.5602 92.1554 72.1793 92.2432 71.9889L92.4267 72.3023L92.2512 72.6912L91.896 72.7507Z" fill="white"/>
<path d="M23.2282 73.7902C24.142 73.6315 24.7486 72.8618 25.3671 72.2468C24.9002 73.0244 24.2777 73.941 23.288 74.0362C22.6176 74.1949 22.1468 73.6355 21.648 73.3141C22.1707 73.4807 22.6655 73.7783 23.2282 73.7902Z" fill="white"/>
<path d="M39.5093 72.3817C38.9745 72.346 38.4478 72.4372 37.949 72.6317C38.2802 73.1435 39.5252 73.0998 39.5093 72.3817Z" fill="white"/>
<path d="M51.2332 74.2861C51.317 73.6355 51.2252 72.9689 50.906 72.3896C50.5269 72.8776 50.495 74.2028 51.2332 74.2861Z" fill="white"/>
<path d="M56.3171 72.9173C56.9555 72.7904 57.2309 73.0483 57.1471 73.6831C56.6722 73.6156 56.3929 73.3617 56.3171 72.9173Z" fill="white"/>
<path d="M60.531 73.2625C60.5869 72.6158 60.7984 72.5563 61.1615 73.0919C61.0019 73.1355 60.6906 73.2228 60.531 73.2625Z" fill="white"/>
<path d="M78.4442 73.0403C79.1305 72.0921 79.6333 74.4766 78.8073 74.6353C78.6836 74.1036 78.5479 73.5759 78.4442 73.0403Z" fill="white"/>
<path d="M84.1944 73.5879C84.39 73.2228 84.6733 72.9451 85.0404 72.7547C85.188 73.4649 84.9087 73.7426 84.1944 73.5879Z" fill="white"/>
<path d="M12.1467 73.207C12.7452 73.5879 13.4675 73.6593 14.122 73.3776C14.1778 74.5202 11.8434 74.3814 12.1467 73.207Z" fill="white"/>
<path d="M37.1669 73.0998C37.4861 73.3895 37.8013 73.687 38.1166 73.9846C38.7072 73.9965 39.3018 74.0124 39.8963 74.0322C38.8788 74.6631 37.534 74.2703 37.1669 73.0998Z" fill="white"/>
<path d="M40.1198 73.9608C39.7766 73.4728 40.7224 72.8499 41.1294 73.2585C41.4726 73.7466 41.4726 74.2346 41.1334 74.7226L41.0057 74.6829C40.9458 74.4687 40.8301 74.0362 40.7702 73.8219C40.6066 73.8576 40.2794 73.9251 40.1198 73.9608Z" fill="white"/>
<path d="M57.5182 73.81C58.0649 73.3696 58.6156 73.3577 59.1782 73.7704C58.6954 74.183 58.037 74.0878 57.5182 73.81Z" fill="white"/>
<path d="M75.4433 73.7902C75.986 73.4014 76.5367 73.3974 77.0994 73.7704C76.6245 74.1235 75.9022 74.2227 75.4433 73.7902Z" fill="white"/>
<path d="M33.0607 74.0124C33.5475 73.7347 33.3999 74.5678 33.3201 74.79C32.8931 75.1352 32.4222 75.2384 31.9074 75.1035C32.2825 74.7305 32.6217 74.3139 33.0607 74.0124Z" fill="white"/>
<path d="M37.3584 75.1114C37.1549 74.4845 36.6202 74.0402 36.0176 73.814C35.9178 74.4369 36.7239 75.286 37.3584 75.1114Z" fill="white"/>
<path d="M44.4455 75.2344C44.7208 74.7742 44.9921 74.3139 45.2635 73.8497C45.1039 74.3179 44.9403 74.7821 44.7846 75.2542C43.8908 75.6113 42.3744 75.5875 42.7894 74.2068L42.8972 74.7226L42.9849 75.1471C43.4718 75.1828 43.9586 75.2106 44.4455 75.2344Z" fill="white"/>
<path d="M40.6585 74.794C39.621 75.1194 38.5356 75.2304 37.4542 75.3376C38.5436 75.8494 39.7247 75.4209 40.6585 74.794Z" fill="white"/>
<path d="M59.5972 75.1987C59.7728 75.0876 60.124 74.8615 60.2995 74.7464L60.2916 75.1074L59.9324 75.3376L59.5972 75.1987Z" fill="white"/>
<path d="M77.4984 75.1551C77.69 75.0598 78.0651 74.8694 78.2526 74.7742L78.2087 75.1352L77.8217 75.3296L77.4984 75.1551Z" fill="white"/>
<path d="M1.99894 75.1828C1.75552 75.1908 1.2647 75.2106 1.02128 75.2225C0.817764 75.9208 2.28625 75.8613 1.99894 75.1828Z" fill="white"/>
<path d="M58.3283 75.4407C58.5278 75.3931 58.9308 75.3019 59.1343 75.2582L58.9987 75.5875L58.5916 75.6788L58.3283 75.4407Z" fill="white"/>
<path d="M55.1479 76.3533C55.3434 76.4406 55.7385 76.6112 55.934 76.6985L55.6307 76.8651C55.511 76.7381 55.2676 76.4842 55.1479 76.3533Z" fill="white"/>
</svg>
