<svg width="215" height="39" viewBox="0 0 215 39" fill="none" xmlns="http://www.w3.org/2000/svg">
<path d="M20.5165 9.51754C18.9665 6.78515 19.1387 3.20478 20.9119 0.617647C21.0998 1.49704 21.3425 2.3725 21.8043 3.15374C23.8946 6.80478 26.0123 10.4401 28.0986 14.0951C28.7523 15.2179 29.0146 16.5055 29.1594 17.7854C32.9994 18.9003 37.0624 20.612 39.2936 24.1295C40.785 26.4144 40.4405 29.5472 38.7065 31.6043C35.9938 34.9138 31.7703 36.4959 27.715 37.4028C21.4129 38.6355 14.6881 38.3489 8.69131 35.9306C5.77121 34.6901 2.7924 32.841 1.46153 29.8181C0.43597 27.5411 1.11706 24.8087 2.74152 22.995C5.12926 20.1958 8.66 18.8257 12.0694 17.7383C12.1085 19.3282 12.3943 20.9378 13.1967 22.3276C15.24 25.9079 17.3146 29.4726 19.3657 33.053C19.8315 33.8735 20.1329 34.7725 20.4696 35.6519C21.9179 33.0333 22.231 29.6885 20.7396 27.019C19.0134 23.9175 17.1659 20.8829 15.4592 17.7697C13.9992 15.0569 14.3828 11.7199 15.8937 9.11318C16.2108 10.0475 16.4926 11.0015 16.9897 11.8613C19.4283 16.1012 21.8748 20.3372 24.3174 24.5771C24.7832 25.3701 25.0337 26.2652 25.2842 27.1446C26.8969 24.5849 27.1474 21.1891 25.6717 18.5117C23.9807 15.4966 22.2075 12.5287 20.5165 9.51754Z" fill="white"/>
<path d="M48.5667 14.3503C49.6549 12.2146 52.0426 11.1468 54.309 10.8405C57.4013 10.4833 60.5798 10.7424 63.5351 11.7435C63.3864 13.0076 63.1437 14.2639 62.7953 15.4887C59.93 14.5819 56.7046 13.8477 53.7923 14.9156C51.6081 15.7243 51.4868 18.9513 53.3422 20.1919C56.2897 22.3668 60.2627 22.8419 62.8697 25.5585C65.9229 28.5814 65.0304 34.537 61.0065 36.2761C56.8064 38.1212 51.7882 37.7522 47.5959 36.0445C47.6781 34.7529 47.9169 33.4809 48.3005 32.2443C50.8683 33.4299 53.761 33.9127 56.5754 33.6458C57.9024 33.5005 59.3703 33.0491 60.0827 31.8242C60.7755 30.4698 60.3332 28.6678 59.108 27.7688C56.3288 25.6371 52.5985 25.1581 49.9837 22.7594C47.6703 20.7101 47.2319 17.0591 48.5667 14.3503Z" fill="white"/>
<path d="M109.255 11.4962C110.582 11.1939 111.928 10.9858 113.29 10.9426C113.294 13.2824 113.286 15.6222 113.294 17.966C115.443 17.9542 117.596 17.9699 119.749 17.9463C119.667 19.128 119.534 20.3058 119.35 21.4757C117.326 21.4403 115.302 21.4364 113.282 21.4639C113.31 24.4122 113.279 27.3605 113.294 30.3088C113.282 31.518 113.592 32.9705 114.817 33.5084C116.379 34.0894 118.109 33.7086 119.655 33.2375C119.487 34.431 119.373 35.6323 119.084 36.8022C116.747 37.4342 114.085 37.6266 111.877 36.4763C109.94 35.4595 109.176 33.1472 109.227 31.0783C109.247 24.5496 109.196 18.0248 109.255 11.4962Z" fill="white"/>
<path d="M175.442 11.4844C176.753 11.135 178.104 10.9544 179.462 10.9505C179.454 19.5834 179.462 28.2163 179.458 36.8532C178.225 36.8336 176.988 36.8375 175.755 36.8846C175.689 36.1191 175.634 35.3496 175.603 34.5841C173.047 38.5295 166.682 38.0035 164.079 34.3917C162.169 31.7614 161.867 28.2831 162.317 25.1463C162.666 22.6456 163.938 20.1684 166.153 18.8493C168.913 17.2004 172.33 17.0395 175.426 17.6283C175.446 15.579 175.423 13.5337 175.442 11.4844ZM168.913 21.6366C166.913 22.8222 166.259 25.3348 166.31 27.5254C166.271 29.6296 166.807 32.0715 168.71 33.261C170.815 34.5095 173.571 33.9952 175.45 32.5544C175.407 28.7581 175.454 24.9618 175.426 21.1655C173.274 20.8043 170.886 20.4549 168.913 21.6366Z" fill="white"/>
<path d="M73.4697 17.8443C77.0709 16.9217 80.9539 17.2318 84.4768 18.3625C84.4651 24.53 84.4847 30.6975 84.4651 36.865C83.2164 36.8296 81.9638 36.8336 80.7151 36.8807C80.6447 36.1465 80.5899 35.4124 80.5351 34.6783C78.1473 38.3607 72.315 37.9917 69.571 34.9374C67.058 32.0715 66.8506 27.9062 67.5043 24.318C68.0875 21.2519 70.4322 18.6216 73.4697 17.8443ZM73.6654 21.8957C71.7748 23.2344 71.2699 25.7431 71.3325 27.9258C71.4108 29.8652 71.9196 32.0676 73.6498 33.1982C75.7205 34.4977 78.5035 34.0462 80.3942 32.6211C80.3511 28.7542 80.402 24.8872 80.3707 21.0203C78.1317 20.7415 75.6069 20.5138 73.6654 21.8957Z" fill="white"/>
<path d="M88.8687 18.335C92.1528 17.6244 95.5466 17.012 98.9129 17.4909C100.729 17.7186 102.647 18.3311 103.853 19.7954C105 21.1773 105.227 23.0539 105.231 24.793C105.223 28.817 105.231 32.841 105.223 36.861C103.853 36.8336 102.479 36.8336 101.109 36.865C101.097 32.8292 101.113 28.7934 101.105 24.7616C101.128 23.4818 100.71 22.0135 99.4688 21.4207C97.4098 20.4863 95.0729 20.824 92.9122 21.1223C92.9161 26.3673 92.9279 31.6161 92.9044 36.865C91.5618 36.8336 90.2192 36.8296 88.8805 36.8885C88.8335 30.7053 88.857 24.5182 88.8687 18.335Z" fill="white"/>
<path d="M127.417 17.7775C130.964 16.9609 134.757 17.2436 138.209 18.3664C138.166 24.5378 138.229 30.7092 138.178 36.8807C136.925 36.8375 135.676 36.8336 134.424 36.8532C134.357 36.123 134.295 35.3928 134.197 34.6665C132.181 38.027 127.202 37.9603 124.305 35.8482C120.923 33.2414 120.485 28.4244 121.197 24.5025C121.734 21.2754 124.227 18.5156 127.417 17.7775ZM127.347 21.9232C125.491 23.2658 125.014 25.7509 125.053 27.9062C125.147 29.8259 125.617 32.0244 127.319 33.1629C129.339 34.4506 132.228 34.1483 134.025 32.6094C134.181 28.7581 134.142 24.8676 134.048 21.0046C131.805 20.7533 129.28 20.5178 127.347 21.9232Z" fill="white"/>
<path d="M142.573 18.3625C146.684 17.4281 151.138 16.6744 155.217 18.1308C157.495 18.9082 158.892 21.2558 158.904 23.6113C158.931 28.0318 158.924 32.4563 158.904 36.8807C157.558 36.8336 156.211 36.8375 154.864 36.8532C154.857 32.9588 154.872 29.0643 154.861 25.1699C154.868 23.7566 154.571 22.0174 153.123 21.3854C151.095 20.4981 148.809 20.8397 146.684 21.0988C146.652 26.3476 146.684 31.6004 146.668 36.8532C145.306 36.8375 143.943 36.8375 142.585 36.8689C142.57 30.6975 142.589 24.53 142.573 18.3625Z" fill="white"/>
<path d="M184.801 20.2626C186.923 17.538 190.747 16.9217 193.965 17.5263C196.298 17.9188 198.4 19.5049 199.312 21.7073C200.337 23.9686 200.102 26.5086 199.938 28.9151C195.597 29.0211 191.248 28.923 186.903 28.9622C187.216 30.9212 188.375 32.892 190.387 33.4456C193.425 34.2425 196.677 33.5947 199.515 32.3777C199.284 33.6222 199.077 34.8706 198.854 36.1151C195.871 37.4578 192.43 37.5952 189.272 36.8846C186.242 36.2133 183.795 33.6929 183.161 30.6543C182.418 27.1838 182.594 23.1873 184.801 20.2626ZM189.048 21.3579C187.569 22.2019 187.079 23.9646 186.817 25.5311C189.89 25.5154 192.963 25.5271 196.036 25.5232C195.871 24.3769 195.758 23.1284 194.971 22.2137C193.573 20.4981 190.9 20.345 189.048 21.3579Z" fill="white"/>
<path d="M203.563 18.335C206.972 17.3378 210.581 17.1062 214.108 17.487C214.049 18.6648 213.928 19.8386 213.709 21.0006C211.677 20.7376 209.618 20.7337 207.598 21.0713C207.63 26.3359 207.626 31.6004 207.602 36.865C206.26 36.8336 204.917 36.8296 203.575 36.8807C203.535 30.7014 203.563 24.5182 203.563 18.335Z" fill="white"/>
</svg>
