<svg width="117" height="46" viewBox="0 0 117 46" fill="none" xmlns="http://www.w3.org/2000/svg">
<path d="M42.1255 1.11607C45.3542 0.233975 48.9933 2.80483 49.0324 6.21515C49.4006 9.4156 46.4717 12.3767 43.3212 12.2291C40.5031 12.1766 37.9358 9.71072 37.8967 6.84475C37.6914 4.23782 39.6136 1.70959 42.1255 1.11607Z" fill="white"/>
<path d="M57.8224 15.3049C59.0865 14.7737 60.2789 15.6722 60.8295 16.7773C63.5173 21.4402 66.0814 26.1786 68.6584 30.9039C68.7529 31.2023 68.9484 31.3466 69.2481 31.34C71.6753 26.5623 74.0471 21.7518 76.5069 16.9904C76.9793 15.9837 77.9892 15.141 79.1523 15.2853C80.4229 15.4689 81.4981 16.2559 82.6253 16.8232C83.7428 17.4626 85.1665 18.0562 85.4923 19.4531C85.9094 20.8467 85.0981 22.1518 84.4139 23.2962C81.1625 28.9003 78.0218 34.5667 74.7476 40.1576C73.705 41.9448 72.3204 43.8139 70.206 44.3254C68.5444 44.5943 66.7102 44.4304 65.3092 43.4171C64.1559 42.5776 63.462 41.2922 62.7778 40.0724C59.5394 34.1502 56.2684 28.2478 53.0267 22.3256C52.5934 21.4665 52.1079 20.509 52.349 19.5154C52.6814 18.4333 53.7043 17.8233 54.5742 17.2167C55.6265 16.5314 56.63 15.7312 57.8224 15.3049Z" fill="white"/>
<path d="M4.15394 16.6494C5.1574 16.0264 6.21298 15.2328 7.451 15.2984C8.72813 15.5476 9.28198 16.8626 9.89773 17.8594C12.478 22.5027 15.0714 27.1427 17.5865 31.822C20.0105 27.0214 22.4474 22.2305 24.8551 17.4233C25.2721 16.6133 25.8162 15.7214 26.7773 15.5312C28.1814 15.1771 29.4227 16.0854 30.6086 16.692C31.56 17.2397 32.6221 17.6659 33.4007 18.4759C34.352 19.499 34.2738 21.1484 33.5701 22.2928C30.1102 28.3232 26.7121 34.3863 23.2033 40.3905C22.1835 42.1022 20.8673 43.9615 18.8115 44.4238C17.1728 44.6206 15.3385 44.6468 13.9278 43.6467C12.6149 42.7449 11.8916 41.2627 11.1195 39.915C7.92015 34.0683 4.69802 28.2314 1.49218 22.3879C0.938324 21.355 0.589724 19.9843 1.2348 18.9153C1.99391 17.9184 3.15049 17.3577 4.15394 16.6494Z" fill="white"/>
<path d="M40.5226 16.2887C41.8877 16.1969 43.2593 16.2723 44.6277 16.2428C45.6018 16.2657 46.6639 16.1641 47.537 16.692C48.2766 17.1872 48.3417 18.1677 48.3352 18.9809C48.3189 26.641 48.332 34.2978 48.3287 41.9579C48.3939 43.0466 47.9149 44.4009 46.7421 44.6665C45.1685 44.8403 43.5818 44.696 42.0017 44.7484C40.9624 44.7058 39.6918 44.9419 38.9164 44.0631C38.3039 43.2859 38.2974 42.2366 38.2974 41.2955C38.3268 33.8551 38.2746 26.4147 38.3202 18.9776C38.242 17.6561 39.1021 16.2756 40.5226 16.2887Z" fill="white"/>
<path d="M99.1465 16.2559C103.649 15.3345 108.526 16.6789 111.996 19.6957C115.049 22.3551 117.016 26.3655 116.893 30.4645C117.026 33.7961 115.746 37.0818 113.648 39.6264C110.742 43.1515 106.164 45.2239 101.613 45.0468C96.905 44.9878 92.2591 42.5481 89.5941 38.6296C87.8869 36.1603 86.9193 33.1435 87.0953 30.1267C87.079 23.3684 92.6175 17.3511 99.1465 16.2559ZM100.127 25.0375C98.2342 25.6441 96.6281 27.2509 96.2143 29.2282C96.0612 30.53 96.0253 31.9434 96.6932 33.1206C97.8433 35.3438 100.476 36.6686 102.935 36.1964C105.737 35.7668 108.067 33.0386 107.744 30.1398C107.695 26.4639 103.493 23.7881 100.127 25.0375Z" fill="white"/>
</svg>
