<svg width="208" height="46" viewBox="0 0 208 46" fill="none" xmlns="http://www.w3.org/2000/svg">
<path d="M10.891 3.98636C15.8559 0.72535 22.1412 -0.541686 27.9898 0.640428C34.5604 1.84632 40.4468 6.14677 43.6204 11.9486C45.986 16.2355 46.99 21.3342 46.1579 26.1646C45.3155 32.1363 41.8462 37.6902 36.8744 41.1754C30.5066 45.7306 21.6702 46.7327 14.4978 43.4887C13.4251 43.0131 12.6549 41.9601 12.7339 40.7712C12.8543 38.4851 14.4737 36.6745 15.9006 35.0135C19.1567 31.8204 23.018 29.3033 27.0133 27.1123C30.1319 25.475 33.3501 23.9193 36.8057 23.1244C38.3323 22.7541 40.3849 22.9987 40.9763 24.6768C41.1173 24.6802 41.3993 24.687 41.5402 24.6903C41.7225 24.3031 41.9081 23.9193 42.1007 23.5388C42.4032 21.7724 42.5408 19.8124 41.5677 18.2125C40.3609 15.8619 37.6377 14.5303 35.0212 14.6492C34.0275 12.6348 31.906 11.2625 29.6402 11.1436C24.9916 10.9568 20.5183 12.5261 15.911 12.8454C14.2881 13.1172 12.617 12.9134 11.087 12.3393C10.7397 12.2238 10.0521 11.9894 9.70822 11.8739C9.88702 12.6552 10.1793 13.4059 10.64 14.0683C9.03431 14.3231 7.24294 14.6254 5.78853 13.698C4.67452 13.0085 4.81549 11.4833 5.15244 10.4065C6.1805 7.64819 8.50137 5.61346 10.891 3.98636ZM15.9832 38.5123C15.4605 39.443 15.1992 40.6149 15.6772 41.6136C16.4714 42.8195 17.974 43.2169 19.3355 43.3868C18.6926 42.1435 18.0909 40.8187 18.2421 39.3853C18.4931 37.2079 19.5728 35.2343 20.7349 33.4067C18.8438 34.7893 17.025 36.3858 15.9832 38.5123Z" fill="white"/>
<path d="M26.0781 16.6228C27.5566 15.6309 29.0797 14.3231 31.0224 14.6899C31.3903 15.0296 31.7616 15.3693 32.133 15.709C31.8854 15.7124 31.3869 15.7226 31.1393 15.726C30.8745 16.1947 30.6098 16.6601 30.345 17.1255C29.5817 17.1798 28.6568 16.9556 28.5984 16.0385C27.725 16.0793 26.8998 16.3612 26.0781 16.6228Z" fill="white"/>
<path d="M2.11984 30.6043C1.16055 27.9446 0.586349 25.1285 0.675745 22.2989C0.906113 22.941 1.42186 23.3927 2.08546 23.5626C4.24816 24.0619 6.43838 23.2976 8.58389 23.1006L6.9335 22.6726C7.48019 22.7541 8.03376 22.7949 8.58045 22.8866C8.21599 23.5558 7.31859 23.4946 6.74439 23.8989C4.44415 25.4411 2.34333 27.7475 2.11984 30.6043Z" fill="white"/>
<path d="M9.56725 31.8136C13.04 28.9365 17.4823 27.6219 21.8283 26.6707C20.8862 27.1157 19.8994 27.4622 18.9676 27.9344C15.5396 29.7449 12.1116 31.9665 10.0658 35.3328C9.09276 36.8716 8.88646 38.7942 9.33688 40.5402C8.30195 39.5755 6.98851 38.5972 6.98507 37.0448C6.65843 34.9387 8.01657 33.0874 9.56725 31.8136Z" fill="white"/>
<path d="M51.3945 1.02428C54.5474 0.973323 57.7038 0.993703 60.8567 1.00729C60.9668 1.41831 61.0871 1.82594 61.2074 2.23357C61.4928 4.377 61.7885 6.52722 62.2217 8.64688C62.6859 12.1287 63.2808 15.5935 63.8825 19.0515C64.1678 18.4842 64.4498 17.9136 64.6733 17.3191C66.7431 11.8705 68.9093 6.45589 70.9551 1.0005C72.8462 1.01408 74.7407 0.932559 76.6283 1.06164C77.2919 4.01693 77.4432 7.06733 78.0552 10.026C78.1206 10.8277 78.1206 11.6463 78.3991 12.414C78.5503 14.588 79.0317 16.7247 79.293 18.8885C80.3073 16.9421 80.9847 14.853 81.8408 12.842C82.7898 10.4167 83.835 8.02865 84.7256 5.58289C84.9766 5.0258 85.2035 4.45513 85.4132 3.88445C85.7124 3.21527 85.9703 2.53249 86.2212 1.84632C86.4241 1.55079 86.4826 0.918973 86.9846 1.01069C88.8688 0.959735 90.753 1.01409 92.6406 0.997101C92.314 3.12695 91.0521 4.97824 90.4023 7.01637C87.6413 13.3889 85.0488 19.8294 82.2947 26.2054C80.0907 26.1714 77.8833 26.2291 75.6793 26.1884C75.2564 26.2223 74.8129 25.8928 74.7372 25.4818C73.9739 20.3661 73.4754 15.2164 72.6777 10.1041C71.7218 12.3121 70.9173 14.5846 70.1127 16.8503C68.9437 19.9483 67.6887 23.0259 66.6916 26.1816C64.3226 26.2155 61.9536 26.1748 59.588 26.1884C59.3542 25.9166 59.1204 25.6449 58.8866 25.3731C58.1611 20.4307 57.1365 15.529 56.3009 10.6001C55.8849 8.38192 55.603 6.12639 54.9841 3.94899C54.5199 3.1745 54.0145 2.31849 53.1171 1.98559C52.5188 1.68327 51.6489 1.77499 51.3945 1.02428Z" fill="white"/>
<path d="M96.3506 1.00729C98.3585 0.983512 100.367 1.01748 102.371 0.980116C102.55 1.59155 102.509 2.22337 102.347 2.83481C102.117 3.75197 102.309 4.73367 101.979 5.63045C101.522 10.2774 100.827 14.8903 100.37 19.5339C99.9539 21.7385 99.9367 24.0008 99.4588 26.1952C97.5024 26.1952 95.546 26.202 93.5896 26.1918C93.0807 25.458 93.5071 24.636 93.5242 23.8411C93.5861 23.1889 93.5036 22.5062 93.7856 21.8947C94.2291 17.2546 94.9271 12.6416 95.3913 8.00487C95.8039 5.6848 95.8417 3.31377 96.3506 1.00729Z" fill="white"/>
<path d="M106.996 1.71044C106.93 1.20431 107.529 0.912178 107.969 0.9971C114.433 0.9971 120.897 0.98691 127.361 1.00389C127.357 1.9788 127.309 2.9571 127.234 3.93201C127.062 4.49929 126.972 5.08694 126.9 5.67121C122.32 10.7088 117.733 15.7464 113.092 20.7296C116.681 20.7194 120.271 20.733 123.861 20.716C124.369 20.6684 124.858 20.8009 125.281 21.0829C125.246 21.8064 125.226 22.5333 125.171 23.2603C124.841 24.2012 124.875 25.2067 124.861 26.1884C118.088 26.2156 111.314 26.1646 104.541 26.2122C103.726 24.7923 104.857 23.2229 104.582 21.7045C106.597 19.5237 108.57 17.3021 110.602 15.1383C113.209 12.1015 116.111 9.31606 118.603 6.18414C114.952 6.1162 111.297 6.17734 107.645 6.15017C107.037 6.26566 106.428 5.70518 106.635 5.09034C106.824 3.96937 107.009 2.8484 106.996 1.71044Z" fill="white"/>
<path d="M134.953 1.01408C138.611 0.980116 142.269 0.997101 145.924 1.00389C146.11 1.27904 146.296 1.55419 146.481 1.82594C146.935 3.89464 147.554 5.92937 148.17 7.95391C149.61 13.287 151.089 18.6167 152.636 23.9193C152.818 24.6768 153.021 25.4309 153.186 26.1952C151.171 26.2054 149.16 26.1782 147.145 26.2088C146.076 25.0131 146.086 23.2874 145.687 21.8098C142.314 21.7622 138.938 21.769 135.565 21.8064C134.959 23.2705 134.224 24.6836 133.711 26.1816C131.642 26.1952 129.572 26.2054 127.502 26.185C127.55 25.3324 127.863 24.5273 128.269 23.7834C129.689 21.0421 130.933 18.2193 132.326 15.4712C133.925 12.0811 135.589 8.72161 137.174 5.32813C137.614 4.54005 137.614 3.65686 137.208 2.8552C136.758 1.82934 135.321 2.00937 134.953 1.01408ZM141.956 7.46476C140.578 10.6205 139.027 13.7184 137.848 16.9489C140.062 16.9624 142.273 16.9862 144.484 16.9183C143.947 15.2164 143.634 13.4535 143.163 11.7312C142.744 10.3147 142.624 8.79634 141.956 7.46476Z" fill="white"/>
<path d="M155.297 1.05145C160.63 0.93256 165.966 1.01409 171.303 1.01069C173.651 1.2111 176.257 1.80556 177.777 3.74858C179.29 5.66102 179.376 8.21208 179.249 10.5321C179.152 13.7184 177.299 16.8673 174.311 18.2057C175.621 20.9266 177.179 23.5252 178.588 26.1952C176.708 26.1748 174.827 26.2088 172.946 26.1884C172.193 26.2733 171.653 25.6313 171.351 25.0368C170.347 23.1618 169.257 21.3274 168.332 19.4116C166.589 19.3505 164.842 19.3912 163.099 19.3912C162.968 21.6705 162.525 23.9193 162.318 26.1952C160.355 26.2054 158.392 26.1918 156.428 26.202C156.002 25.3901 156.081 24.4594 156.322 23.6067C156.948 18.4673 157.553 13.3176 158.189 8.1815C158.24 6.74123 158.787 5.32133 158.464 3.87766C158.161 2.9605 157.542 2.03655 156.532 1.81235C156.019 1.72743 155.61 1.45228 155.297 1.05145ZM164.825 6.16036C164.268 8.82691 164.251 11.5682 163.69 14.2314C165.884 14.2619 168.081 14.2959 170.275 14.2314C172.224 14.0377 172.977 11.8841 173.001 10.2128C173.101 8.82691 172.87 6.93145 171.272 6.47627C169.191 5.83426 166.967 6.31322 164.825 6.16036Z" fill="white"/>
<path d="M181.401 1.03447C186.276 0.952941 191.159 1.00389 196.034 1.00729C198.981 1.28244 202.093 2.00258 204.321 4.0543C206.195 5.7969 207.161 8.37173 207.116 10.8922C207.212 13.0221 206.999 15.1655 206.308 17.1934C205.184 20.1317 203.073 22.7066 200.253 24.2046C197.702 25.5328 194.804 26.3005 191.912 26.1986C188.811 26.1714 185.702 26.2529 182.601 26.1646C182.003 25.8011 182.326 24.9927 182.26 24.4288C183.055 18.277 183.76 12.1049 184.519 5.95315C184.901 4.65554 184.526 3.15412 183.478 2.26074C182.869 1.69006 181.82 1.82934 181.401 1.03447ZM190.88 6.13998C190.447 7.33229 190.626 8.6231 190.33 9.84598C190.213 11.4969 189.866 13.124 189.804 14.7816C189.412 15.8856 189.643 17.0813 189.337 18.2023C189.141 19.0345 189.175 19.8939 189.165 20.7398C191.272 20.6413 193.466 21.0251 195.501 20.305C198.61 19.2961 200.563 16.0827 200.521 12.9303C200.511 11.2251 200.81 9.19377 199.404 7.90296C197.238 5.5761 193.734 6.27246 190.88 6.13998Z" fill="white"/>
<path d="M56.1978 31.6879C56.7101 31.6811 57.2224 31.6777 57.7382 31.6777C57.7416 33.0025 57.7622 34.3273 57.7038 35.6521C58.4705 34.7213 59.7633 34.2763 60.9289 34.6942C62.0842 35.0271 62.6962 36.233 62.851 37.3369C63.0194 38.8655 62.9782 40.7236 61.6372 41.7563C60.4201 42.687 58.6562 42.293 57.6488 41.2434C57.5938 41.4641 57.4769 41.9023 57.4218 42.1231C57.0058 42.1265 56.5898 42.1299 56.1772 42.1367C56.2012 38.6515 56.1634 35.1697 56.1978 31.6879ZM58.5359 36.0155C57.611 37.1093 57.6178 38.6719 58.0132 39.9729C58.4018 41.2196 60.4751 41.3419 60.9805 40.1122C61.4688 38.9776 61.4894 37.5475 60.8602 36.4605C60.3375 35.6861 59.3164 35.8049 58.5359 36.0155Z" fill="white"/>
<path d="M74.9264 32.2756C76.5492 32.3231 78.2478 32.082 79.8053 32.639C81.9577 33.4577 81.9784 36.8682 80.0323 37.9144C78.9767 38.5089 77.7217 38.4919 76.5492 38.4953C76.5561 39.708 76.5492 40.9206 76.5492 42.1333C76.0025 42.1333 75.4559 42.1333 74.9126 42.1333C74.9401 38.8485 74.9126 35.5604 74.9264 32.2756ZM76.5424 33.6275C76.5492 34.7961 76.5458 35.9646 76.563 37.1331C77.426 37.0652 78.3991 37.2045 79.1555 36.7051C79.8878 36.2228 79.8363 35.2003 79.6162 34.4632C78.9664 33.4543 77.5739 33.6853 76.5424 33.6275Z" fill="white"/>
<path d="M63.3323 34.7281C63.9065 34.7281 64.4773 34.7315 65.0549 34.7315C65.746 36.661 66.5334 38.5632 66.9976 40.564C67.6165 38.6176 68.3007 36.6949 68.9609 34.7621C69.5351 34.7451 70.1058 34.7315 70.68 34.7247C69.7414 37.3267 68.7202 39.8982 67.7643 42.4934C67.393 43.4751 66.9769 44.5655 66.0073 45.1192C65.2612 45.554 64.3707 45.4249 63.5524 45.3332C63.5592 45.0309 63.5764 44.4228 63.5868 44.1205C64.2538 44.1409 65.0687 44.2428 65.5604 43.6755C65.8939 43.2135 66.0761 42.67 66.3133 42.1605C65.3334 39.6774 64.3088 37.2113 63.3323 34.7281Z" fill="white"/>
<path d="M82.862 35.9544C84.0001 34.0488 87.3181 34.0589 88.3805 36.0359C88.8653 36.8512 88.7622 37.8261 88.7897 38.7297C87.1221 38.7534 85.4545 38.7229 83.7869 38.7602C83.9485 39.5347 84.1479 40.4315 84.9388 40.8187C86.0734 41.2807 87.3284 40.8935 88.4286 40.5198C88.4286 40.8425 88.4321 41.4845 88.4321 41.8038C86.8023 42.3983 84.7084 42.6157 83.3159 41.3826C81.9199 39.9763 81.9165 37.6053 82.862 35.9544ZM83.8041 37.6155C84.98 37.6325 86.1594 37.6359 87.3353 37.5917C87.2046 36.7255 86.6923 35.6657 85.6402 35.754C84.5468 35.6691 84.0448 36.7459 83.8041 37.6155Z" fill="white"/>
<path d="M90.5054 35.1358C91.9082 34.6296 93.5689 34.2152 94.9718 34.9455C95.7282 35.326 96.0308 36.216 95.993 37.0108C95.9998 38.7195 95.9827 40.4247 95.9895 42.1333C95.7145 42.1333 95.1643 42.1367 94.8893 42.1367C94.7827 41.8038 94.6761 41.4675 94.5729 41.138C93.7546 42.096 92.4274 42.524 91.1965 42.1775C89.5839 41.7767 89.1335 39.3445 90.4401 38.3662C91.6022 37.4864 93.1495 37.6596 94.5248 37.5849C94.4182 36.9769 94.4045 36.2024 93.7753 35.8763C92.8091 35.5774 91.8532 36.0189 90.9455 36.2975C90.7942 35.9102 90.6464 35.523 90.5054 35.1358ZM91.3547 39.7521C91.0246 41.1211 93.0223 41.3962 93.8096 40.6591C94.4939 40.1733 94.4457 39.2664 94.4285 38.5292C93.3936 38.7602 91.6641 38.4036 91.3547 39.7521Z" fill="white"/>
<path d="M98.1282 34.7485C98.5476 34.7383 98.9671 34.7281 99.3866 34.7213C99.4451 35.1595 99.5035 35.6011 99.5585 36.0427C100.229 34.9727 101.415 34.3409 102.705 34.5583C102.653 35.044 102.605 35.5298 102.557 36.0155C101.487 35.9001 100.201 36.2465 99.868 37.3811C99.562 38.9471 99.7235 40.5538 99.6926 42.1401C99.17 42.1367 98.6508 42.1367 98.1316 42.1333C98.1282 39.674 98.1282 37.2113 98.1282 34.7485Z" fill="white"/>
<path d="M103.991 35.0542C105.359 34.2016 107.075 34.5821 108.526 35.0169C108.357 35.4313 108.185 35.8457 108.02 36.2635C106.999 35.951 105.541 35.2988 104.702 36.2873C104.802 37.5374 106.432 37.5272 107.295 38.1114C108.797 38.57 109.134 40.795 107.862 41.6714C106.48 42.5919 104.702 42.2964 103.193 41.899C103.193 41.4302 103.196 40.958 103.2 40.4892C104.242 40.8629 105.386 41.2468 106.497 40.9274C107.092 40.8018 107.284 39.9763 106.81 39.6196C105.916 38.9471 104.74 38.7704 103.87 38.0707C102.897 37.3505 102.952 35.6928 103.991 35.0542Z" fill="white"/>
<path d="M111.249 34.881C112.741 34.239 114.756 34.4836 115.719 35.8899C116.654 37.2996 116.668 39.2494 115.887 40.7304C114.615 42.9146 110.712 42.7821 109.774 40.3534C108.997 38.5326 109.265 35.8355 111.249 34.881ZM111.899 36.0971C110.778 36.9939 110.898 38.7161 111.283 39.9525C111.792 41.3656 114.171 41.2977 114.584 39.8574C114.921 38.7161 114.983 37.3301 114.209 36.345C113.597 35.7981 112.617 35.6521 111.899 36.0971Z" fill="white"/>
<path d="M118.07 34.7485C118.493 34.7417 118.92 34.7349 119.346 34.7281C119.391 34.9659 119.48 35.4381 119.525 35.6759C120.77 34.0318 124.118 34.1133 124.548 36.3858C124.717 38.2949 124.559 40.2175 124.61 42.1333C124.091 42.1333 123.579 42.1333 123.063 42.1367C123.001 40.3737 123.204 38.5904 122.953 36.841C122.637 35.3056 120.041 35.6351 119.831 37.0822C119.494 38.7432 119.676 40.4519 119.635 42.1333C119.112 42.1333 118.586 42.1333 118.067 42.1367C118.084 39.674 118.064 37.2113 118.07 34.7485Z" fill="white"/>
</svg>
