<svg width="44" height="64" viewBox="0 0 44 64" fill="none" xmlns="http://www.w3.org/2000/svg">
<path d="M29.7748 29.4237C37.5812 29.4237 43.9095 23.0111 43.9095 15.1007C43.9095 7.19038 37.5812 0.777771 29.7748 0.777771C21.9685 0.777771 15.6401 7.19038 15.6401 15.1007C15.6401 23.0111 21.9685 29.4237 29.7748 29.4237Z" fill="#00ADCC"/>
<path d="M8.64064 11.9672C11.0542 11.7837 13.4829 11.9366 15.8966 11.8907C20.3014 11.9519 24.7213 11.799 29.1412 11.9213C30.6497 11.799 32.113 13.0066 32.113 14.5963C32.3996 19.4726 32.2487 24.3488 32.1884 29.2403C32.3091 33.6732 31.9018 38.1215 32.4599 42.5391C32.0074 45.1836 32.3242 47.8739 32.1432 50.549C32.1733 52.047 30.6045 52.6278 29.639 53.4074C29.5334 57.6111 27.8439 63.3433 22.9413 63.7407C23.952 62.2274 25.4906 61.188 26.5315 59.7053C27.8137 57.7792 27.9646 55.3793 28.2361 53.1476C24.5554 53.0864 20.8746 53.1629 17.209 53.0864C18.0386 55.0277 18.7175 57.0914 18.642 59.2467C18.3554 59.3537 17.7822 59.5524 17.4956 59.6594C17.0128 56.8773 16.5301 53.8049 14.1618 51.9706C12.08 49.7999 8.82166 49.6624 6.40805 48.3631C6.13652 43.5938 6.39297 38.794 6.12144 34.0095C5.83482 32.5879 4.16038 32.0071 2.89324 32.1141C1.79203 32.4198 1.80711 33.7191 1.7166 34.6363C1.61101 42.8754 1.83728 51.1298 1.62609 59.369C1.24897 59.3537 0.47963 59.3384 0.102504 59.3231C-0.108687 51.3591 0.0874189 43.3798 0.0119936 35.4158C-0.0634316 33.7497 0.177929 31.6402 1.86745 30.8606C4.3414 30.0046 7.76571 31.7166 7.62994 34.6363C7.64503 38.6106 7.6752 42.585 7.75062 46.5593C15.4289 46.5593 23.0921 46.5593 30.7704 46.5593C30.7402 40.8271 30.7704 35.0948 30.7704 29.3626C30.7855 25.7704 30.6648 22.1629 30.7704 18.5707C28.4021 18.5707 26.0186 18.5707 23.6804 18.2344C25.7169 16.4459 28.568 17.2714 31.0118 17.0421C30.6196 15.7275 31.0721 13.2512 29.0507 13.3888C22.0814 13.3582 15.1121 13.1442 8.15792 13.4499C7.88639 14.6575 7.72045 15.8651 7.53943 17.0727C10.2698 17.1185 12.9851 17.1185 15.7004 17.088C18.0235 17.0574 20.3316 17.0727 22.6245 17.4701C20.6634 18.8917 18.2196 18.5401 15.972 18.5707C13.2265 18.5248 10.481 18.5554 7.73554 18.5401C7.66011 22.2852 7.85622 26.0303 7.64503 29.7753L7.10197 30.1728L6.37788 29.8976C6.21195 25.0367 6.33263 20.1452 6.31754 15.2689C6.12144 13.7709 7.05671 12.0894 8.64064 11.9672ZM9.86253 47.9351C12.0951 48.8522 14.2372 50.0292 16.0474 51.6648C20.5277 51.6495 25.023 51.7871 29.5184 51.6037C31.1777 51.4203 30.5592 49.1579 30.9213 48.0268C23.8916 47.9198 16.8771 48.1032 9.86253 47.9351Z" fill="#F0F0F0"/>
<path d="M8.64064 11.9672C11.0542 11.7837 13.4829 11.9366 15.8966 11.8907C20.3014 11.9519 24.7213 11.799 29.1412 11.9213C30.6497 11.799 32.113 13.0066 32.113 14.5963C32.3996 19.4726 32.2487 24.3488 32.1884 29.2403C32.3091 33.6732 31.9018 38.1215 32.4599 42.5391C32.0074 45.1836 32.3242 47.8739 32.1432 50.549C32.1733 52.047 30.6045 52.6278 29.639 53.4074C29.5334 57.6111 27.8439 63.3433 22.9413 63.7407C23.952 62.2274 25.4906 61.188 26.5315 59.7053C27.8137 57.7792 27.9646 55.3793 28.2361 53.1476C24.5554 53.0864 20.8746 53.1629 17.209 53.0864C18.0386 55.0277 18.7175 57.0914 18.642 59.2467C18.3554 59.3537 17.7822 59.5524 17.4956 59.6594C17.0128 56.8773 16.5301 53.8049 14.1618 51.9706C12.08 49.7999 8.82166 49.6624 6.40805 48.3631C6.13652 43.5938 6.39297 38.794 6.12144 34.0095C5.83482 32.5879 4.16038 32.0071 2.89324 32.1141C1.79203 32.4198 1.80711 33.7191 1.7166 34.6363C1.61101 42.8754 1.83728 51.1298 1.62609 59.369C1.24897 59.3537 0.47963 59.3384 0.102504 59.3231C-0.108687 51.3591 0.0874189 43.3798 0.0119936 35.4158C-0.0634316 33.7497 0.177929 31.6402 1.86745 30.8606C4.3414 30.0046 7.76571 31.7166 7.62994 34.6363C7.64503 38.6106 7.6752 42.585 7.75062 46.5593C15.4289 46.5593 23.0921 46.5593 30.7704 46.5593C30.7402 40.8271 30.7704 35.0948 30.7704 29.3626C30.7855 25.7704 30.6648 22.1629 30.7704 18.5707C28.4021 18.5707 26.0186 18.5707 23.6804 18.2344C25.7169 16.4459 28.568 17.2714 31.0118 17.0421C30.6196 15.7275 31.0721 13.2512 29.0507 13.3888C22.0814 13.3582 15.1121 13.1442 8.15792 13.4499C7.88639 14.6575 7.72045 15.8651 7.53943 17.0727C10.2698 17.1185 12.9851 17.1185 15.7004 17.088C18.0235 17.0574 20.3316 17.0727 22.6245 17.4701C20.6634 18.8917 18.2196 18.5401 15.972 18.5707C13.2265 18.5248 10.481 18.5554 7.73554 18.5401C7.66011 22.2852 7.85622 26.0303 7.64503 29.7753L7.10197 30.1728L6.37788 29.8976C6.21195 25.0367 6.33263 20.1452 6.31754 15.2689C6.12144 13.7709 7.05671 12.0894 8.64064 11.9672ZM9.86253 47.9351C12.0951 48.8522 14.2372 50.0292 16.0474 51.6648C20.5277 51.6495 25.023 51.7871 29.5184 51.6037C31.1777 51.4203 30.5592 49.1579 30.9213 48.0268C23.8916 47.9198 16.8771 48.1032 9.86253 47.9351Z" fill="#F0F0F0"/>
<path d="M33.0936 22.5602C32.7466 22.5602 32.46 22.2851 32.46 21.9182C32.46 21.5667 32.7466 21.2915 33.0936 21.2915H33.1539H33.2293H33.3048H33.3651H33.4405H33.516H33.5763L33.6517 21.3068H33.7271H33.7875L33.8629 21.3221H33.9232H33.9987L34.059 21.3374H34.1344H34.2099L34.2702 21.3526L34.3456 21.3679H34.406H34.4211C34.768 21.4138 35.0094 21.7195 34.9641 22.0711C34.9339 22.4227 34.6172 22.6825 34.2702 22.6367H34.2551L34.1948 22.6214H34.1344H34.0741L34.0138 22.6061H33.9534L33.8931 22.5908H33.8327H33.7724H33.7121L33.6517 22.5755H33.5914H33.531H33.4707L33.3953 22.5602H33.3349H33.2746H33.2143H33.1539H33.0936ZM29.971 21.7501C30.3028 21.6431 30.6498 21.8418 30.7554 22.1781C30.8459 22.5144 30.6649 22.866 30.333 22.973L30.2727 22.9882L30.2123 23.0035L30.1671 23.0188L30.1067 23.0341L30.0464 23.0647L29.986 23.08L29.9408 23.0952L29.8805 23.1105L29.8201 23.1411L29.7749 23.1564L29.7145 23.1717L29.6542 23.2023L29.5938 23.2175L29.5486 23.2481L29.4882 23.2634L29.443 23.294L29.3826 23.3093L29.3374 23.3245L29.2771 23.3551L29.2167 23.3857C28.8999 23.5233 28.5379 23.3704 28.387 23.0494C28.2513 22.7284 28.4021 22.3462 28.7189 22.2087L28.7792 22.1781L28.8396 22.1628L28.8999 22.1322L28.9603 22.1017L29.0206 22.0864L29.0809 22.0558L29.1564 22.0252L29.2167 22.0099L29.2771 21.9794L29.3374 21.9641L29.3977 21.9335L29.4581 21.9182L29.5335 21.8877L29.5938 21.8724L29.6542 21.8418L29.7145 21.8265L29.7749 21.8112L29.8503 21.7807L29.9106 21.7654L29.971 21.7501ZM25.4153 24.471C25.6717 24.2264 26.0639 24.2264 26.3053 24.4863C26.5617 24.7308 26.5467 25.1436 26.3053 25.3881L26.26 25.434L26.2148 25.4646L26.1846 25.5104L26.1394 25.5563L26.0941 25.6021L26.0639 25.6327L26.0187 25.6786L25.9734 25.7244L25.9433 25.7703L25.898 25.8162L25.8678 25.862L25.8226 25.9079L25.7924 25.9384L25.7471 25.9843L25.717 26.0302L25.6717 26.076L25.6416 26.1219L25.5963 26.1677L25.5661 26.2136L25.5209 26.2594V26.2747C25.2946 26.5499 24.9024 26.5957 24.6309 26.3817C24.3593 26.1677 24.3141 25.755 24.5253 25.4799L24.5403 25.4646L24.5856 25.4187L24.6309 25.3576L24.661 25.3117L24.7063 25.2659L24.7515 25.22L24.7968 25.1589L24.827 25.113L24.8722 25.0519L24.9175 25.006L24.9627 24.9601L25.008 24.9143L25.0532 24.8684L25.0985 24.8073L25.1437 24.7614L25.189 24.7156L25.2343 24.6697L25.2795 24.6238L25.3248 24.578L25.37 24.5321L25.4153 24.4863V24.471ZM22.6698 29.0568C22.7754 28.7205 23.1223 28.5218 23.4542 28.6288C23.7861 28.7358 23.9671 29.1026 23.8615 29.4389L23.8464 29.5001L23.8313 29.5612L23.8163 29.6071L23.8012 29.6682L23.7861 29.7294L23.771 29.7905L23.7559 29.8516L23.7408 29.8975L23.7258 29.9587L23.7107 30.0198L23.6956 30.0809L23.6805 30.1421L23.6654 30.2032L23.6503 30.2644L23.6352 30.3255L23.6202 30.3714V30.4325L23.6051 30.4937L23.59 30.5548V30.5854C23.5296 30.937 23.1978 31.1662 22.8508 31.1051C22.5189 31.044 22.2927 30.7077 22.353 30.3714V30.3255L22.3681 30.2644L22.3832 30.1879L22.3983 30.1268L22.4134 30.0504L22.4284 29.9892L22.4435 29.9128L22.4586 29.8516L22.4737 29.7905L22.4888 29.7141L22.5039 29.6529L22.5189 29.5918L22.534 29.5154L22.5491 29.4542L22.5642 29.3931L22.5793 29.3166L22.6095 29.2555L22.6245 29.1944L22.6396 29.1179L22.6698 29.0568ZM22.353 34.4069C22.2927 34.0553 22.5189 33.719 22.8659 33.6579C23.1978 33.5967 23.5296 33.826 23.6051 34.1623V34.2082L23.6202 34.2693V34.3304L23.6352 34.3763L23.6503 34.4374L23.6654 34.4986L23.6805 34.5597L23.6956 34.6209L23.7107 34.682L23.7258 34.7432L23.7408 34.8043L23.7559 34.8502L23.771 34.9113L23.7861 34.9724L23.8012 35.0336L23.8163 35.0947L23.8313 35.1406L23.8464 35.2017L23.8615 35.2629L23.8766 35.324H23.8917C23.9973 35.6603 23.8163 36.0119 23.4844 36.1342C23.1525 36.2412 22.7905 36.0578 22.6849 35.7215V35.7062L22.6698 35.645L22.6396 35.5839L22.6245 35.5075L22.6095 35.4463L22.5793 35.3852L22.5642 35.3087L22.5491 35.2476L22.534 35.1865L22.5189 35.11L22.5039 35.0489L22.4888 34.9877L22.4737 34.9113L22.4586 34.8502L22.4435 34.789L22.4284 34.7126L22.4134 34.6514L22.3983 34.575L22.3832 34.5139L22.3681 34.4374L22.353 34.4069ZM24.5705 39.2678C24.3593 38.9927 24.4046 38.5952 24.661 38.3812C24.9326 38.1519 25.3399 38.1978 25.551 38.4729L25.5661 38.4882L25.5963 38.5341L25.6416 38.5799L25.6717 38.6258L25.717 38.6717L25.7471 38.7175L25.7924 38.7634L25.8226 38.7939L25.8678 38.8398L25.898 38.8857L25.9433 38.9315L25.9734 38.9774L26.0187 39.0232L26.0639 39.0691L26.0941 39.0997L26.1394 39.1455L26.1846 39.1914L26.2148 39.2372L26.26 39.2678L26.3053 39.3137L26.3355 39.3595H26.3506C26.5919 39.6041 26.607 40.0015 26.3656 40.2614C26.1243 40.506 25.717 40.5213 25.4756 40.2767L25.4605 40.2614L25.4153 40.2155L25.37 40.1697L25.3248 40.1238L25.2795 40.078L25.2343 40.0321L25.189 39.9862L25.1437 39.9404L25.0985 39.8945L25.0532 39.8334L25.008 39.7875L24.9627 39.7417L24.9175 39.6958L24.8722 39.65L24.827 39.5888L24.7968 39.543L24.7515 39.4818L24.7063 39.436L24.661 39.3901L24.6309 39.3442L24.5856 39.2831L24.5705 39.2678ZM28.7792 42.5237C28.4625 42.3861 28.3116 42.004 28.4474 41.683C28.5831 41.362 28.9603 41.2091 29.2771 41.3467L29.3374 41.3773L29.3826 41.3926L29.443 41.4078L29.4882 41.4384L29.5486 41.4537L29.5938 41.4843L29.6542 41.4996L29.7145 41.5301L29.7749 41.5454L29.8201 41.5607L29.8805 41.5913L29.9408 41.6066L29.986 41.6218L30.0464 41.6371L30.1067 41.6677L30.1671 41.683L30.2123 41.6983L30.2727 41.7136L30.333 41.7288L30.3933 41.7441C30.7252 41.8511 30.9062 42.2027 30.8157 42.539C30.7252 42.8753 30.3632 43.074 30.0313 42.9823L29.971 42.9517L29.9106 42.9364L29.8503 42.9212L29.7749 42.8906L29.7145 42.8753L29.6542 42.86L29.5938 42.8294L29.5335 42.8142L29.4581 42.7836L29.3977 42.7683L29.3374 42.7377L29.2771 42.7224L29.2167 42.6919L29.1564 42.6766L29.0809 42.646L29.0206 42.6154L28.9603 42.6001L28.8999 42.5696L28.8396 42.539L28.7792 42.5237ZM33.9987 43.3797C33.6517 43.4103 33.35 43.1504 33.3198 42.7989C33.2897 42.4473 33.5461 42.1416 33.8931 42.111L33.9534 42.0957H34.0138L34.0741 42.0804H34.1344H34.1948L34.2551 42.0651H34.3155L34.3758 42.0499H34.4361L34.4965 42.0346L34.5568 42.0193H34.6172L34.6775 42.004L34.7378 41.9887H34.7982L34.8585 41.9734L34.9189 41.9581H34.9792L35.0395 41.9429L35.0697 41.9276C35.4016 41.8664 35.7335 42.0804 35.8089 42.432C35.8843 42.7683 35.658 43.1046 35.3262 43.181H35.296L35.2206 43.1963L35.1602 43.2116L35.0848 43.2269L35.0245 43.2422L34.949 43.2574H34.8887L34.8284 43.2727L34.7529 43.288L34.6775 43.3033H34.6172L34.5568 43.3186H34.4814L34.406 43.3339H34.3456L34.2702 43.3492L34.2099 43.3644H34.1344H34.059L33.9987 43.3797ZM39.0069 41.6524C38.7203 41.8359 38.3281 41.7594 38.1471 41.469C37.951 41.1633 38.0264 40.7658 38.3281 40.5824L38.3432 40.5671L38.3884 40.5365L38.4337 40.506L38.494 40.4601L38.5393 40.4295L38.5845 40.399L38.6298 40.3684L38.675 40.3378L38.7203 40.3073L38.7806 40.2614L38.8259 40.2308L38.8711 40.2003L38.9164 40.1544L38.9617 40.1238L39.0069 40.0933L39.0522 40.0474L39.0974 40.0168L39.1427 39.971L39.1879 39.9404L39.2332 39.9098L39.2784 39.864C39.55 39.6347 39.9422 39.6805 40.1685 39.9404C40.3797 40.2155 40.3495 40.613 40.078 40.8423L40.0327 40.8881L39.9874 40.934L39.9271 40.9646L39.8818 41.0104L39.8366 41.0563L39.7763 41.0868L39.731 41.1327L39.6707 41.1786L39.6254 41.2091L39.5651 41.255L39.5198 41.3008L39.4595 41.3314L39.4142 41.3773L39.3539 41.4078L39.3086 41.4537L39.2483 41.4843L39.1879 41.5301L39.1427 41.5607L39.0823 41.5913L39.0371 41.6371L39.0069 41.6524ZM42.6273 37.7392C42.4614 38.0449 42.0843 38.1519 41.7675 37.9838C41.4658 37.8156 41.3602 37.4335 41.5261 37.1278L41.5563 37.0666L41.5865 37.0208L41.6166 36.9596L41.6317 36.9138L41.6619 36.8526L41.6921 36.8068L41.7222 36.7609L41.7524 36.6998L41.7675 36.6539L41.7976 36.5928L41.8278 36.5469L41.8429 36.4858L41.8731 36.4246L41.8882 36.3788L41.9183 36.3176L41.9485 36.2718L41.9636 36.2106L41.9938 36.1648L42.0088 36.1036L42.039 36.0578V36.0425C42.1597 35.7215 42.5368 35.5533 42.8536 35.6909C43.1855 35.8132 43.3363 36.1953 43.2006 36.5163V36.5316L43.1704 36.5928L43.1553 36.6539L43.1251 36.715L43.095 36.7762L43.0648 36.8373L43.0497 36.8985L43.0195 36.9596L42.9894 37.0208L42.9592 37.0819L42.929 37.1431L42.8989 37.2042L42.8687 37.2653L42.8385 37.3265L42.8083 37.3876L42.7782 37.4488L42.748 37.5099L42.7178 37.5711L42.6877 37.6322L42.6575 37.6781L42.6273 37.7392ZM44.0001 32.5573C44.0001 32.9088 43.7134 33.1993 43.3665 33.184C43.0195 33.184 42.748 32.8936 42.748 32.542V32.4808V32.4197V32.3433V32.2821V32.221V32.1598V32.0987V32.0375V31.9764L42.7329 31.9153V31.8541V31.7777V31.7165L42.7178 31.6554V31.5942V31.5331L42.7028 31.472V31.4108V31.3497C42.6575 30.9981 42.9139 30.6771 43.2609 30.6465C43.5928 30.6007 43.9096 30.8605 43.9548 31.2121V31.2274V31.2885L43.9699 31.365V31.4261V31.5025L43.985 31.5637V31.6401V31.7165L44.0001 31.7777V31.8541V31.9305V31.9917V32.0681V32.1293V32.2057V32.2821V32.3433V32.4197V32.4961V32.5573ZM43.9548 31.2121L42.7028 31.3497L43.9548 31.2121ZM42.8234 27.3447C42.9894 27.6505 42.8536 28.0326 42.5519 28.2008C42.2351 28.3536 41.858 28.2313 41.7071 27.9256L41.6921 27.895L41.6619 27.8492L41.6317 27.788L41.6166 27.7422L41.5865 27.681L41.5563 27.6352L41.5261 27.574L41.4959 27.5282L41.4658 27.4823L41.4356 27.4212L41.4054 27.3753L41.3753 27.3295L41.3451 27.2836L41.3149 27.2225L41.2848 27.1766L41.2546 27.1307L41.2244 27.0696L41.1942 27.0237L41.1641 26.9779L41.1339 26.932L41.1037 26.8862C40.9076 26.5957 40.9831 26.1983 41.2697 25.9996C41.5563 25.8009 41.9485 25.8773 42.1446 26.1677L42.1748 26.2136L42.22 26.2747L42.2502 26.3359L42.2804 26.3817L42.3256 26.4429L42.3558 26.504L42.386 26.5652L42.4312 26.611L42.4614 26.6722L42.4916 26.7333L42.5217 26.7945L42.567 26.8403L42.5972 26.9015L42.6273 26.9626L42.6575 27.0237L42.6877 27.0696L42.7178 27.1307L42.748 27.1919L42.7782 27.253L42.8083 27.3142L42.8234 27.3447ZM39.3539 23.294C39.6405 23.4927 39.7159 23.8901 39.5198 24.1806C39.3086 24.471 38.9164 24.5321 38.6298 24.3334L38.5845 24.3028L38.5393 24.2723L38.494 24.2417L38.4337 24.1958L38.3884 24.1653L38.3432 24.1347L38.2979 24.1041L38.2527 24.0736L38.1923 24.043L38.1471 24.0124L38.1018 23.9818L38.0415 23.9513L37.9962 23.9207L37.951 23.8901L37.8906 23.8595L37.8454 23.829L37.8001 23.7984L37.7398 23.7678L37.6945 23.7373L37.6493 23.722L37.6342 23.7067C37.3325 23.5538 37.2118 23.1564 37.3626 22.8507C37.5286 22.545 37.9057 22.4227 38.2225 22.5755L38.2376 22.5908L38.2979 22.6214L38.3432 22.652L38.4035 22.6825L38.4639 22.7284L38.5242 22.759L38.5845 22.7895L38.6449 22.8201L38.6901 22.8507L38.7505 22.8965L38.8108 22.9271L38.8711 22.9577L38.9164 22.9882L38.9767 23.0341L39.0371 23.0647L39.0823 23.0952L39.1427 23.1411L39.1879 23.1717L39.2483 23.2175L39.3086 23.2481L39.3539 23.294Z" fill="#F0F0F0"/>
</svg>
