<svg width="76" height="64" viewBox="0 0 76 64" fill="none" xmlns="http://www.w3.org/2000/svg">
<path d="M25.6239 34.8389C25.0184 35.1497 23.9586 35.7712 23.353 36.082C25.1697 38.102 26.8351 39.8113 28.6518 41.6759C30.4685 39.8113 32.4366 37.9466 34.2533 35.9266C31.5282 34.3728 28.5004 35.1497 25.6239 34.8389Z" fill="black"/>
<path d="M26.5324 23.0296C23.3532 24.5835 22.4448 29.4004 25.3213 31.7312C28.3491 34.839 34.2535 32.042 33.7993 27.6912C33.7993 24.1173 29.7117 21.4758 26.5324 23.0296Z" fill="black"/>
<path d="M0.0385801 5.00485C-0.112813 2.67406 2.00669 0.654038 4.27758 0.809424C26.6837 0.809424 49.0899 0.809424 71.6475 0.809424C73.9183 0.498652 76.1892 2.51867 75.8865 5.00485C76.0378 20.8542 76.0378 36.5482 75.8865 52.3976C76.1892 54.8837 74.0697 57.0591 71.6475 56.7484C63.0181 56.593 54.2373 57.0591 45.6079 56.4376C45.9106 56.1268 46.6676 55.3499 46.9704 54.8837C54.8428 54.573 62.8667 54.8837 70.7391 54.7284C72.253 54.8837 74.3725 54.4176 73.9183 52.3976C74.0697 36.5482 74.0697 20.8542 73.9183 5.00485C74.2211 2.51867 71.3447 2.82944 69.6793 2.82944C47.8788 2.82944 26.0782 2.67406 4.27758 2.82944C1.7039 2.67406 2.15808 5.78177 1.8553 7.49102C14.1181 7.49102 26.5323 7.49102 38.7952 7.49102C38.9466 7.80179 39.4007 8.57872 39.5521 8.88949C26.9865 9.04488 14.5723 8.88949 2.00669 9.04488C2.00669 23.185 2.00669 37.1697 2.00669 51.3099C2.00669 52.7083 2.00669 54.7284 3.8234 54.7284C7.75962 54.8837 11.6958 54.7284 15.4807 54.7284C15.6321 51.9314 15.4807 48.9791 15.9348 46.1821C16.6918 41.0544 19.7197 36.7036 23.5045 33.4405C21.9906 30.4881 20.628 26.9143 22.7475 23.9619C25.1698 19.4557 32.4367 19.6111 34.7076 24.1173C36.6757 27.0697 35.3131 30.4881 33.9506 33.2851C37.7354 36.5482 40.7633 40.899 41.6716 46.0267C42.2772 51.776 41.9744 57.5253 41.9744 63.43C41.5203 63.43 40.7633 63.5854 40.3091 63.7407C39.8549 58.4576 40.3091 53.1745 40.0063 47.8914C39.5521 44.1621 37.7354 40.7436 35.7673 37.4805C33.345 39.8113 31.0741 42.1421 28.5005 44.4729C26.2296 42.1421 23.9587 39.9667 21.6878 37.6359C19.7197 40.899 18.0543 44.3175 17.6002 48.2021C17.2974 53.3299 17.6002 58.4576 17.4488 63.5854C16.9946 63.5854 16.0862 63.43 15.6321 63.43C15.6321 61.2546 15.6321 58.9238 15.6321 56.7484C11.5444 56.7484 7.30544 56.9038 3.36923 56.593C1.24972 56.593 -0.264206 54.4176 0.0385801 52.3976C0.0385801 36.5482 0.0385801 20.8542 0.0385801 5.00485Z" fill="#FBFBFB"/>
<path d="M17.5996 48.2022C18.0538 44.3176 19.7191 40.8991 21.6872 37.636C23.9581 39.9668 26.229 42.1422 28.4999 44.473C31.0736 42.1422 33.3445 39.8114 35.7668 37.4806C37.7349 40.7437 39.5516 44.1622 40.0058 47.8915C36.3723 49.9115 32.5875 51.6207 28.3485 51.4653C24.5637 51.4653 20.9303 49.9115 17.5996 48.2022Z" fill="#A51C92"/>
<path d="M26.5324 23.0296C29.7117 21.4758 33.7993 24.1173 33.7993 27.6912C34.2535 32.042 28.3491 34.839 25.3213 31.7312C22.4448 29.4004 23.3532 24.5835 26.5324 23.0296Z" fill="#A51C92"/>
<path d="M23.6551 14.0173C30.165 12.1527 37.5833 14.1727 42.2765 19.3004C49.0892 26.4482 48.9378 39.0345 41.6709 46.0268C40.7626 40.8991 37.7347 36.5483 33.9499 33.2852C35.3124 30.4882 36.6749 27.0697 34.7068 24.1174C32.4359 19.6112 25.1691 19.4558 22.7468 23.962C20.6273 26.9143 21.9898 30.4882 23.5037 33.4406C19.7189 36.7037 16.6911 41.0545 15.9341 46.1822C12.3007 42.6083 10.0298 37.7914 10.0298 32.6636C9.87838 24.2728 15.6313 16.1927 23.6551 14.0173Z" fill="#A51C92"/>
<path d="M25.6239 34.8389C28.5004 35.1497 31.5282 34.3728 34.2533 35.9266C32.4366 37.9466 30.4685 39.8113 28.6518 41.6759C26.8351 39.8113 25.1697 38.102 23.353 36.082C23.9586 35.7712 25.0184 35.1497 25.6239 34.8389Z" fill="#A51C92"/>
<path d="M48.0296 16.0372L53.6311 22.8742L66.3481 9.2002L67.7106 10.5987L54.2367 25.0496L53.4797 25.8265L52.8741 25.0496L46.5156 17.2803L48.0296 16.0372Z" fill="#FBFBFB"/>
</svg>
