<svg width="421" height="201" viewBox="0 0 421 201" fill="none" xmlns="http://www.w3.org/2000/svg">
<path d="M32.3237 155.623C32.6614 155.623 33.2914 155.537 34.212 155.367C34.7939 155.254 35.585 155.111 36.5835 154.941C37.5799 154.77 38.5477 154.6 39.4834 154.428C40.4196 154.259 41.3793 154.103 42.3619 153.959C43.3438 153.818 44.0958 153.704 44.6177 153.618C45.9685 153.505 46.6439 153.362 46.6439 153.192C46.6439 152.68 46.5516 151.585 46.3674 149.908C45.9685 145.984 45.4919 140.198 44.9405 132.548C44.4796 126.263 44.2029 123.121 44.1104 123.121C43.9274 123.121 42.3301 127.231 39.3221 135.448C34.5636 148.444 32.1863 155.154 32.1863 155.58L32.3231 155.623L32.3237 155.623ZM11.9722 200.75C10.9886 200.722 10.1605 200.337 9.48508 199.599C9.11688 199.172 8.93342 198.618 8.93342 197.935C8.93342 196.058 10.13 193.726 12.5246 190.94C14.796 186.361 16.8374 181.656 18.6488 176.821C22.0241 167.865 23.7131 163.045 23.7131 162.362C23.4984 162.362 23.268 162.391 23.0228 162.448C18.8167 163.216 15.38 163.599 12.7088 163.599C11.3578 163.599 10.2835 163.5 9.48508 163.3C6.56851 162.476 4.25905 161.154 2.55543 159.334C0.852062 157.515 0 155.709 0 153.918C0 152.354 0.568041 151.06 1.70337 150.035C2.56324 149.24 3.57634 148.842 4.74292 148.842C5.63303 148.842 6.53071 149.091 7.43746 149.588C8.34143 150.086 9.00952 150.704 9.43971 151.443L9.90065 152.253C8.73306 154.415 8.15091 156.065 8.15091 157.202C8.15091 157.657 8.25751 157.956 8.47298 158.097C8.68745 158.24 9.05589 158.31 9.57782 158.31C12.1259 158.31 15.2108 158.083 18.8326 157.628L23.8983 157.031C25.0031 156.889 25.5566 156.705 25.5566 156.476C25.6165 156.051 26.5384 153.235 28.3184 148.031C30.2828 142.175 33.3675 133.686 37.5731 122.568C40.0602 116.34 42.5466 112.957 45.0328 112.416C45.4622 112.303 45.9534 112.245 46.5058 112.245C47.6116 112.245 48.7774 112.373 50.0053 112.63C53.0448 113.34 55.6237 114.761 57.7416 116.894C58.9687 118.033 59.9281 119.354 60.6191 120.861C61.3094 122.369 61.8628 124.55 62.2774 127.408C62.6909 130.266 63.113 134.339 63.5425 139.628C64.3724 149.837 65.2007 157.486 66.0306 162.575C66.6125 166.984 67.3807 171.533 68.332 176.225C69.1294 180.121 69.8196 182.992 70.4036 184.84C70.8025 186.12 71.0031 187.072 71.0031 187.699C71.0031 188.211 70.8801 188.636 70.6342 188.977C69.5903 190.257 67.5188 190.897 64.419 190.897C63.1902 190.897 62.0697 190.812 61.0574 190.64C56.5448 189.817 53.6902 188.253 52.4929 185.949C51.8787 184.67 51.1726 182.153 50.375 178.4C49.4228 173.935 48.5635 168.69 47.7961 162.66C47.3964 159.874 47.1058 158.481 46.9208 158.481C45.816 158.481 42.8692 158.922 38.0807 159.803C36.3607 160.144 33.9985 160.57 30.9902 161.083C30.5895 161.14 30.3761 161.189 30.3446 161.232C30.3138 161.275 30.0835 161.95 29.6543 163.258C24.6198 178.869 20.6909 189.362 17.8673 194.736C15.6872 198.746 13.723 200.75 11.9732 200.75L11.9722 200.75Z" fill="#640055"/>
<path d="M95.13 185.267C89.1434 184.271 84.4625 181.762 81.086 177.739C77.7087 173.715 76.021 168.22 76.021 161.253C76.021 159.178 76.1588 156.945 76.4353 154.556C77.1717 148.529 78.5227 143.638 80.487 139.883C82.2054 136.245 84.5084 133.856 87.3942 132.718C88.2528 132.264 89.0514 131.979 89.7888 131.865C90.5245 131.751 91.7523 131.694 93.4723 131.694C95.3137 131.694 96.7699 131.794 97.8462 131.994C98.9206 132.192 100.286 132.604 101.945 133.229C107.838 135.448 110.784 138.377 110.784 142.016C110.784 144.234 110.293 146.311 109.311 148.244C108.789 149.296 108.221 149.822 107.607 149.822C106.563 149.822 105.628 149.438 104.799 148.671C104.645 142.87 104.4 139.968 104.062 139.968C103.878 139.968 103.309 140.31 102.358 140.993C98.5209 143.722 96.0189 149.353 94.8531 157.884C94.6068 159.93 94.4856 162.263 94.4856 164.879C94.4856 168.605 94.7762 171.361 95.3591 173.153C96.7407 177.476 97.5393 179.637 97.7537 179.637C98 179.637 99.2427 178.954 101.484 177.589C107.193 173.267 111.689 167.296 114.975 159.675C115.557 158.338 115.934 157.613 116.103 157.5C116.271 157.387 116.54 157.329 116.909 157.329C117.583 157.329 118.182 157.429 118.705 157.627C119.073 157.968 119.256 158.253 119.256 158.481C119.073 159.42 118.121 161.794 116.402 165.604C114.959 168.76 113.471 171.462 111.936 173.708C107.761 179.764 103.786 183.475 100.01 184.84C99.4571 185.068 98.7817 185.195 97.9841 185.224L95.1298 185.267L95.13 185.267Z" fill="#640055"/>
<path d="M131.183 175.115C131.459 175.115 132.088 174.69 133.07 173.836C135.342 171.788 137.061 168.859 138.227 165.049C138.964 162.604 139.333 159.988 139.333 157.202C139.333 155.324 139.224 153.888 139.011 152.893C138.796 151.898 138.38 150.776 137.767 149.524C137.705 149.524 137.676 149.495 137.676 149.438C137.183 148.528 136.692 148.03 136.203 147.946C135.711 147.86 135.25 147.817 134.821 147.817C134.083 147.817 133.715 147.846 133.715 147.903L133.946 149.181C133.946 150.121 133.746 151.543 133.347 153.447C131.535 160.841 130.631 166.514 130.631 170.466C130.631 171.547 130.738 172.811 130.953 174.262C131.013 174.831 131.09 175.115 131.183 175.115V175.115ZM130.585 181.13C129.786 181.13 128.957 181.059 128.098 180.916C122.633 179.95 118.613 177.077 116.034 172.3C114.5 169.172 113.732 165.832 113.732 162.277C113.732 159.263 114.284 156.092 115.39 152.765C117.416 147.534 120.3 144.604 124.045 143.979C124.629 143.892 124.967 143.666 125.058 143.296C125.458 142.101 127.177 141.505 130.216 141.505C133.469 141.505 136.232 142.33 138.505 143.979L139.24 144.491C145.135 144.462 151.028 144.405 156.922 144.319C158.488 144.319 159.317 144.959 159.409 146.239C159.285 147.377 158.672 147.96 157.567 147.989C147.498 147.989 142.464 148.073 142.464 148.243C144.366 151.314 145.319 154.983 145.319 159.248C145.319 161.836 144.981 164.481 144.306 167.182C143.017 172.13 141.021 175.77 138.32 178.101C136.14 180.121 133.561 181.13 130.585 181.13H130.585Z" fill="#640055"/>
<path d="M203.887 197.082C202.291 197.082 200.603 196.64 198.822 195.76C197.779 195.305 196.704 194.593 195.6 193.627C191.67 190.612 189.03 186.433 187.68 181.087C187.128 179.153 186.851 177.077 186.851 174.859C186.851 172.812 187.588 165.789 189.061 153.789C189.491 149.41 189.706 145.542 189.706 142.187C189.706 139.913 189.643 137.979 189.522 136.387C186.053 139.941 183.167 144.718 180.865 150.718C179.392 154.813 177.765 160.159 175.985 166.755C174.633 171.59 173.528 174.774 172.669 176.309C171.932 177.447 170.551 178.016 168.525 178.016C164.473 178.016 160.667 176.65 157.105 173.921C154.957 172.272 153.422 170.452 152.501 168.461C151.365 165.731 150.721 162.092 150.567 157.542C150.567 153.334 150.598 150.519 150.66 149.097C150.844 147.22 151.121 145.855 151.488 145.002C151.978 143.892 152.778 143.211 153.883 142.955C154.373 142.842 155.294 142.784 156.645 142.784C158.488 142.784 159.961 142.955 161.066 143.296C165.609 144.689 168.157 146.396 168.709 148.415C168.77 148.699 168.802 149.922 168.802 152.083C168.802 154.869 168.831 157.03 168.893 158.565C169.138 163.116 169.414 165.533 169.722 165.816C169.905 165.59 171.288 161.409 173.867 153.278C175.647 147.931 177.519 143.637 179.483 140.395C180.957 138.065 182.476 136.017 184.043 134.253C185.608 132.491 186.973 131.368 188.14 130.884C189.306 130.401 190.627 130.159 192.1 130.159C195.539 130.159 198.822 131.097 201.954 132.973C204.072 134.281 205.515 135.704 206.282 137.239C207.51 139.173 208.124 141.22 208.124 143.381C208.124 149.922 207.403 159.078 205.96 170.85C205.499 174.944 205.208 177.631 205.085 178.911C204.962 180.191 204.809 181.343 204.625 182.365C204.256 186.29 204.072 189.048 204.072 190.64C204.072 191.55 204.271 192.005 204.671 192.005C204.855 192.005 205.085 191.92 205.361 191.75C207.847 189.218 210.335 184.896 212.82 178.782C214.171 175.285 215.244 172.201 216.045 169.527C218.899 160.001 220.379 155.154 220.486 154.983C220.594 154.812 220.832 154.727 221.201 154.727C222.183 154.727 223.302 154.955 224.562 155.41C224.839 155.75 224.976 156.149 224.976 156.603C224.976 157.029 224.899 157.541 224.746 158.139C221.737 172.13 218.407 182.138 214.754 188.167C211.929 193.058 209.29 195.929 206.834 196.782C206.405 196.896 205.421 196.995 203.887 197.081V197.082Z" fill="#640055"/>
<path d="M237.501 192.049C236.734 192.049 236.042 192.006 235.429 191.921C230.824 191.01 227.049 188.708 224.102 185.011C221.155 181.457 219.681 173.964 219.681 162.532C219.681 156.078 219.834 151.428 220.141 148.585C220.511 144.946 221.062 140.425 221.8 135.021C222.813 129.364 223.703 125.126 224.47 122.311L224.563 121.714C224.563 121.601 224.132 121.487 223.273 121.373L211.808 119.965C205.73 119.254 201.724 118.898 199.789 118.898C193.283 119.298 188.785 120.876 186.299 123.634C185.716 124.175 184.979 124.444 184.088 124.444C182.554 124.444 181.786 123.805 181.786 122.525C182.002 120.165 183.858 118.216 187.358 116.68C190.581 115.317 194.834 114.62 200.112 114.591C203.796 114.648 209.69 115.175 217.793 116.17L226.22 117.279C227.816 114.521 229.596 112.842 231.561 112.246C231.93 112.188 232.604 112.16 233.588 112.16C238.008 112.16 240.985 113.853 242.52 117.236L242.796 118.857C244.945 118.971 246.725 119.027 248.137 119.027C252.006 119.027 255.995 118.772 260.11 118.259C269.963 116.894 275.15 114.862 275.673 112.16C276.286 111.506 276.946 111.179 277.653 111.179C278.85 111.179 279.449 111.791 279.449 113.013C279.449 115.176 278.189 117.008 275.673 118.516C274.016 119.539 272.142 120.335 270.055 120.903C263.915 122.498 256.149 123.292 246.756 123.292L243.257 123.208C243.103 124.63 242.336 128.14 240.954 133.743C239.419 143.241 238.56 150.434 238.376 155.324L238.284 159.675C238.284 167.297 238.912 174.775 240.172 182.111C240.416 184.329 240.586 185.437 240.678 185.437L241.046 185.268L241.691 184.585C244.761 180.775 247.522 175.657 249.979 169.23C250.47 167.893 251.775 164.695 253.893 159.633C254.383 158.609 254.754 157.998 254.999 157.799C255.244 157.601 255.705 157.5 256.379 157.5C257.301 157.5 258.007 157.728 258.497 158.183C258.62 158.297 258.682 158.383 258.682 158.439C258.682 158.923 257.838 161.639 256.149 166.586C254.768 170.709 252.926 175.316 250.624 180.406C248.137 185.75 246.049 189.078 244.361 190.387C243.102 191.466 241.231 192.007 238.744 192.007L237.501 192.05V192.049Z" fill="#640055"/>
<path d="M272.173 155.495L273.417 154.556C277.039 151.544 279.678 147.96 281.336 143.808C281.674 142.927 281.843 141.988 281.843 140.993C281.843 139.202 281.489 137.979 280.784 137.325C280.63 137.183 280.477 137.111 280.325 137.111C280.138 137.14 279.864 137.381 279.495 137.836C278.819 138.463 278.267 139.174 277.836 139.969C277.1 141.277 276.195 143.268 275.121 145.942C274.045 148.614 273.263 150.861 272.771 152.68C272.618 153.477 272.488 154.031 272.381 154.344C272.271 154.656 272.22 154.884 272.22 155.025C272.22 155.168 272.189 155.297 272.127 155.41C272.127 155.468 272.142 155.495 272.173 155.495V155.495ZM272.404 182.409C268.72 182.409 265.066 181.172 261.445 178.698C259.48 177.391 257.615 175.116 255.85 171.873C254.084 168.632 253.203 164.992 253.203 160.955C253.203 150.092 255.828 142.016 261.077 136.728C262.734 135.192 264.575 133.827 266.602 132.633C268.657 131.723 270.715 131.268 272.771 131.268C275.288 131.268 277.806 131.95 280.324 133.315C283.331 135.135 285.234 137.126 286.033 139.287C286.308 140.112 286.447 141.008 286.447 141.975C286.447 143.168 286.278 144.263 285.94 145.259C283.669 150.889 279.095 155.937 272.219 160.401C271.911 160.6 271.697 160.784 271.575 160.955C271.452 161.126 271.39 162.447 271.39 164.921C271.39 166.401 271.62 168.162 272.08 170.211C272.725 173.054 273.262 175.144 273.693 176.481C273.813 177.277 274.06 177.675 274.429 177.675C277.528 177.675 282.21 172.145 288.473 161.083C289.853 158.637 290.76 157.173 291.189 156.69C291.434 156.405 291.665 156.249 291.88 156.221C293.751 156.305 294.688 156.732 294.688 157.499C294.688 157.613 294.258 158.595 293.399 160.442C291.742 163.941 290.483 166.499 289.623 168.12C285.879 174.945 282.41 179.239 279.218 181.002C277.345 181.94 275.074 182.409 272.403 182.409H272.404Z" fill="#640055"/>
<path d="M309.517 185.267C303.53 184.271 298.849 181.762 295.472 177.739C292.095 173.715 290.407 168.22 290.407 161.253C290.407 159.178 290.545 156.945 290.822 154.556C291.558 148.529 292.909 143.638 294.874 139.883C296.592 136.245 298.895 133.856 301.782 132.718C302.639 132.264 303.439 131.979 304.175 131.865C304.912 131.751 306.14 131.694 307.857 131.694C309.7 131.694 311.157 131.794 312.233 131.994C313.306 132.192 314.674 132.604 316.331 133.229C322.225 135.448 325.171 138.377 325.171 142.016C325.171 144.234 324.681 146.311 323.697 148.244C323.176 149.296 322.609 149.822 321.993 149.822C320.949 149.822 320.014 149.438 319.186 148.671C319.032 142.87 318.787 139.968 318.448 139.968C318.265 139.968 317.695 140.31 316.745 140.993C312.908 143.722 310.407 149.353 309.24 157.884C308.994 159.93 308.87 162.263 308.87 164.879C308.87 168.605 309.162 171.361 309.746 173.153C311.128 177.476 311.927 179.637 312.141 179.637C312.385 179.637 313.629 178.954 315.87 177.589C321.579 173.267 326.077 167.296 329.36 159.675C329.944 158.338 330.32 157.613 330.49 157.5C330.658 157.387 330.928 157.329 331.295 157.329C331.971 157.329 332.569 157.429 333.092 157.627C333.461 157.968 333.644 158.253 333.644 158.481C333.461 159.42 332.509 161.794 330.788 165.604C329.346 168.76 327.857 171.462 326.324 173.708C322.148 179.764 318.173 183.475 314.396 184.84C313.845 185.068 313.168 185.195 312.371 185.224L309.517 185.267L309.517 185.267Z" fill="#640055"/>
<path d="M348.147 155.495L349.391 154.556C353.013 151.544 355.653 147.96 357.31 143.808C357.648 142.927 357.816 141.988 357.816 140.993C357.816 139.202 357.463 137.979 356.758 137.325C356.603 137.183 356.451 137.111 356.297 137.111C356.112 137.14 355.837 137.381 355.469 137.836C354.794 138.463 354.241 139.174 353.81 139.969C353.074 141.277 352.169 143.268 351.095 145.942C350.019 148.614 349.236 150.861 348.746 152.68C348.591 153.477 348.462 154.031 348.354 154.344C348.247 154.656 348.193 154.884 348.193 155.025C348.193 155.168 348.163 155.297 348.101 155.41C348.101 155.468 348.117 155.495 348.147 155.495L348.147 155.495ZM348.378 182.409C344.695 182.409 341.04 181.172 337.419 178.698C335.453 177.391 333.59 175.116 331.824 171.873C330.058 168.632 329.177 164.992 329.177 160.955C329.177 150.092 331.802 142.016 337.05 136.728C338.708 135.192 340.551 133.827 342.576 132.633C344.631 131.723 346.689 131.268 348.746 131.268C351.262 131.268 353.78 131.95 356.297 133.315C359.305 135.135 361.208 137.126 362.007 139.287C362.284 140.112 362.421 141.008 362.421 141.975C362.421 143.168 362.252 144.263 361.914 145.259C359.643 150.889 355.069 155.937 348.193 160.401C347.886 160.6 347.671 160.784 347.549 160.955C347.426 161.126 347.364 162.447 347.364 164.921C347.364 166.401 347.594 168.162 348.054 170.211C348.699 173.054 349.236 175.144 349.666 176.481C349.789 177.277 350.035 177.675 350.403 177.675C353.503 177.675 358.186 172.145 364.446 161.083C365.827 158.637 366.734 157.173 367.164 156.69C367.408 156.405 367.639 156.249 367.854 156.221C369.726 156.305 370.662 156.732 370.662 157.499C370.662 157.613 370.233 158.595 369.373 160.442C367.716 163.941 366.457 166.499 365.598 168.12C361.853 174.945 358.384 179.239 355.192 181.002C353.319 181.94 351.048 182.409 348.377 182.409H348.378Z" fill="#640055"/>
<path d="M399.535 194.267C397.57 194.267 395.328 193.726 392.81 192.645C389.895 191.394 387.931 190.058 386.917 188.637C385.168 186.22 384.047 183.774 383.556 181.299C383.218 179.594 383.05 177.334 383.05 174.518L383.095 168.42C383.157 166.144 383.571 162.605 384.338 157.798C385.597 149.325 386.227 143.496 386.227 140.311L386.089 135.107L378.26 132.121C378.046 133.43 377.647 135.534 377.064 138.434C374.24 150.405 372.467 156.889 371.745 157.884C371.025 158.879 370.388 159.376 369.835 159.376C369.282 159.376 368.707 159.235 368.108 158.951C367.51 158.666 367.149 158.431 367.026 158.247C366.904 158.062 366.842 157.856 366.842 157.628L366.888 157.202C370.786 140.738 372.736 131.412 372.736 129.221C372.736 128.88 372.612 128.596 372.367 128.368V128.283C371.324 127.146 370.801 125.894 370.801 124.53C370.801 123.165 371.324 122.113 372.367 121.373C372.92 120.976 373.656 120.777 374.577 120.777C376.327 120.777 377.924 121.174 379.366 121.97C380.439 122.625 381.423 123.876 382.313 125.724C382.927 126.975 383.419 127.772 383.786 128.112C384.432 128.596 386.518 129.449 390.049 130.672C394.714 132.15 398.275 134.056 400.731 136.387C402.082 137.581 403.017 138.918 403.539 140.396C404.062 141.875 404.323 143.837 404.323 146.283C404.323 148.444 403.8 153.392 402.756 161.126C401.896 166.841 401.405 170.765 401.284 172.897C401.221 174.036 401.191 175.344 401.191 176.821C401.191 178.13 401.237 179.508 401.329 180.959C401.421 182.41 401.544 183.676 401.697 184.755C401.851 185.835 401.989 186.376 402.112 186.376L403.723 184.414C405.565 182.054 408.466 176.112 412.426 166.585C413.868 162.86 414.751 160.557 415.074 159.676C415.397 158.794 415.679 158.07 415.926 157.5C416.17 156.931 416.432 156.626 416.709 156.583C416.984 156.54 417.322 156.547 417.721 156.605C418.366 156.718 419.241 156.931 420.345 157.244C420.835 157.387 421.051 157.613 420.99 157.927C420.774 160.06 419.179 165.078 416.202 172.983C411.35 186.006 407.023 193.001 403.216 193.969C402.726 194.081 401.497 194.181 399.534 194.267L399.535 194.267Z" fill="#640055"/>
<path d="M147.304 92.6845H145.553C139.569 92.6845 135.868 90.2244 134.457 85.3054C133.352 81.4381 132.57 72.0406 132.109 57.1126L129.162 59.7989C129.284 60.4254 129.347 60.9937 129.347 61.5063C129.284 61.8756 129.039 62.0598 128.609 62.0598C127.78 62.0598 126.813 61.4197 125.708 60.1409C124.818 59.1457 124.373 58.1652 124.373 57.1973C124.373 54.7522 126.552 52.6196 130.912 50.7992C131.248 50.6575 131.479 50.5721 131.602 50.5436C131.848 50.5436 132.001 49.762 132.063 48.1979C132.492 34.6915 133.366 25.066 134.687 19.3218L132.661 19.8335C126.245 21.3696 122.025 23.7865 119.999 27.0846C119.538 27.8242 119.093 28.8332 118.664 30.1129C118.081 31.677 117.69 32.523 117.49 32.6507C117.29 32.7784 117.114 32.8436 116.961 32.8436C116.562 32.8436 115.979 32.4878 115.21 31.7765C114.045 30.6956 113.461 29.3176 113.461 27.6391C113.461 24.9376 114.596 22.4787 116.868 20.2603C118.219 19.1794 119.093 18.5262 119.492 18.2984C125.479 15.1697 135.071 13.3794 148.271 12.9234C151.524 12.8102 155.991 12.6828 161.67 12.5404C170.756 12.3417 177.932 11.7723 183.196 10.8339C188.46 9.89633 192.259 8.51712 194.591 6.69669C195.574 5.98701 196.158 5.33125 196.342 4.73479C196.434 4.42197 196.48 3.99593 196.48 3.45503C196.417 2.68769 196.388 2.13325 196.388 1.79125C196.388 0.597393 196.694 0 197.309 0C198.229 0.113923 198.92 0.782518 199.38 2.00485C199.627 2.71617 199.75 3.64015 199.75 4.77658C199.657 8.55914 196.54 11.4889 190.402 13.5638C184.754 15.4694 175.682 16.5783 163.189 16.8911C155.699 17.09 151.815 17.2322 151.54 17.3169L152.093 18.3413C152.46 18.9954 152.645 19.7058 152.645 20.4732C152.645 22.1794 152.491 24.1142 152.184 26.2748C151.172 35.4306 150.664 43.1368 150.664 49.392C150.664 50.0468 150.679 50.3879 150.712 50.4164C150.925 50.4164 151.402 50.4738 152.138 50.5858C154.441 51.0418 156.85 51.2691 159.368 51.2691C164.83 51.2691 168.899 49.6766 171.57 46.4916C171.723 46.3502 171.892 46.278 172.075 46.278C172.474 46.278 172.935 46.592 173.458 47.2177C173.979 47.8426 174.239 48.4115 174.239 48.9232C174.239 49.322 174.102 49.7625 173.826 50.2459C171.861 53.6298 167.777 55.3216 161.578 55.3216C159.06 55.3216 156.958 55.2221 155.269 55.0225C152.843 54.6815 151.34 54.5108 150.757 54.5108C150.696 54.5108 150.664 54.6674 150.664 54.9805C150.664 55.6619 150.712 57.3547 150.802 60.0564C151.11 69.3541 151.708 76.9893 152.599 82.9599C152.783 84.0973 152.875 85.0351 152.875 85.7746C152.843 88.3913 152.215 90.3241 150.987 91.5765C150.312 92.3151 149.084 92.6847 147.304 92.6847V92.6845Z" fill="#640055"/>
<path d="M192.612 69.2255C194.822 67.7753 197.615 64.8327 200.993 60.3963C202.037 59.0885 202.588 58.1213 202.651 57.4959C203.019 55.0797 203.939 51.0548 205.413 45.4252C204.829 44.2314 204.399 43.4633 204.123 43.1216C203.233 42.0708 202.098 41.1604 200.717 40.3923C200.01 39.9945 199.473 39.7949 199.106 39.7949C198.399 39.7949 197.678 41.0609 196.942 43.5913C196.112 46.4916 195.344 49.5199 194.639 52.6766C194.117 54.9525 193.648 57.6813 193.234 60.8655C192.821 64.0504 192.612 66.8371 192.612 69.2258L192.612 69.2255ZM221.667 94.903C220.255 94.903 218.72 94.6466 217.062 94.1349C209.143 91.8593 204.2 85.0351 202.235 73.661C202.021 72.5811 201.867 70.3062 201.775 66.8366L200.947 68.0305C198.552 71.6142 196.342 73.7182 194.316 74.3441C193.58 74.571 192.735 74.6852 191.784 74.6852C189.881 74.6852 187.93 74.2591 185.936 73.4045C179.642 70.5905 176.496 65.4866 176.496 58.0931C176.496 53.7705 177.31 49.8332 178.937 46.2778C181.546 40.5058 184.984 36.9798 189.251 35.7C190.264 35.359 191.354 35.1883 192.519 35.1883C195.744 35.1883 199.243 36.2974 203.019 38.5147C203.785 38.9699 204.568 39.5244 205.367 40.1785C206.164 40.8333 206.626 41.1599 206.748 41.1599L207.485 39.3687C207.607 38.8562 208.098 37.6054 208.959 35.6155C211.045 30.7806 213.869 28.3644 217.431 28.3644C218.444 28.3644 219.518 28.563 220.654 28.9608C224.86 30.2698 226.962 32.7999 226.962 36.553C226.962 37.947 226.701 39.5111 226.179 41.2449C223.662 49.4347 221.997 55.8683 221.184 60.5462C220.37 65.2235 219.963 70.5051 219.963 76.3907C219.963 79.4335 219.986 81.5952 220.032 82.8738C220.079 84.1536 220.378 85.8454 220.93 87.9497C221.114 88.6601 221.267 89.0159 221.391 89.0159C221.636 89.0159 222.403 88.5177 223.693 87.5237C228.726 83.1157 233.577 73.0788 238.243 57.4098C238.98 54.7382 239.464 53.3585 239.694 53.2726C239.924 53.1876 240.483 53.1449 241.374 53.1449C243.461 53.1449 244.505 53.3728 244.505 53.8282C244.505 54.7384 243.631 58.0795 241.881 63.8513C238.718 75.2541 234.836 83.9549 230.231 89.9546C227.745 93.2527 224.89 94.9027 221.666 94.9027L221.667 94.903Z" fill="#640055"/>
<path d="M257.444 97.6327C255.693 97.6327 254.166 96.9856 252.861 95.6925C251.557 94.3983 250.905 93.2959 250.905 92.3866C250.905 91.9032 251.18 91.6468 251.734 91.6186C252.255 91.6186 252.991 92.0171 253.944 92.8125C254.221 93.0405 254.465 93.1535 254.68 93.1535C255.355 93.1535 256.292 92.9264 257.489 92.4714C260.22 91.4188 261.588 90.1964 261.588 88.8039C261.588 88.4052 261.541 88.1061 261.449 87.9082C261.356 87.7086 260.72 87.6091 259.538 87.6091C258.355 87.6091 257.158 87.5087 255.946 87.3108C254.733 87.1121 253.805 86.8696 253.16 86.5857C251.257 85.6752 250.305 84.6093 250.305 83.387C250.305 82.505 250.674 81.3667 251.41 79.9749C242.847 76.3065 238.564 68.8991 238.564 57.7524C238.564 55.6775 238.702 53.4448 238.978 51.056C239.716 45.0278 241.066 40.1364 243.031 36.383C244.749 32.7438 247.052 30.3558 249.937 29.2175C250.796 28.7632 251.595 28.4787 252.332 28.3647C253.068 28.2515 254.297 28.1941 256.016 28.1941C257.857 28.1941 259.314 28.2942 260.391 28.4922C261.464 28.6918 262.83 29.1043 264.488 29.729C270.381 31.9472 273.328 34.8768 273.328 38.5153C273.328 40.7336 272.838 42.8103 271.855 44.7433C271.332 45.7959 270.765 46.3214 270.151 46.3214C269.107 46.3214 268.172 45.9383 267.342 45.1702C267.188 39.3693 266.944 36.4689 266.606 36.4689C266.421 36.4689 265.854 36.81 264.903 37.4924C261.064 40.2223 258.563 45.8526 257.397 54.3835C257.151 56.4302 257.029 58.7623 257.029 61.3784C257.029 65.1035 257.32 67.8615 257.904 69.6529C259.284 73.9755 260.083 76.1361 260.298 76.1361C260.544 76.1361 261.786 75.4539 264.027 74.0885C269.736 69.7669 274.233 63.7955 277.519 56.175C278.102 54.8381 278.477 54.1137 278.646 53.9995C278.816 53.8856 279.084 53.8289 279.451 53.8289C280.128 53.8289 280.726 53.9292 281.248 54.1272C281.616 54.4683 281.8 54.7528 281.8 54.9809C281.617 55.9194 280.665 58.2938 278.946 62.1034C277.504 65.2594 276.013 67.9609 274.48 70.2076C269.23 77.829 264.365 81.6664 259.884 81.7236C259.79 82.0647 259.667 82.4196 259.515 82.7907C259.238 83.3018 259.101 83.5999 259.101 83.6855C259.101 83.7712 259.193 83.8132 259.378 83.8132C259.838 83.8132 260.413 83.9767 261.102 84.3042C261.794 84.6308 262.446 85.0645 263.06 85.6045C264.932 87.2825 265.968 88.661 266.168 89.7417C266.368 90.8225 266.467 91.5341 266.467 91.8752C266.467 94.4053 264.687 96.1256 261.126 97.036C259.684 97.4338 258.456 97.6332 257.443 97.6332L257.444 97.6327Z" fill="#640055"/>
<path d="M293.451 69.2255C295.662 67.7753 298.454 64.8327 301.832 60.3963C302.875 59.0885 303.427 58.1213 303.491 57.4959C303.858 55.0797 304.779 51.0548 306.252 45.4252C305.669 44.2314 305.239 43.4633 304.962 43.1216C304.073 42.0708 302.937 41.1604 301.556 40.3923C300.849 39.9945 300.313 39.7949 299.945 39.7949C299.238 39.7949 298.517 41.0609 297.78 43.5913C296.951 46.4916 296.183 49.5199 295.477 52.6766C294.955 54.9525 294.487 57.6813 294.075 60.8655C293.659 64.0504 293.452 66.8371 293.452 69.2258L293.451 69.2255ZM322.506 94.903C321.094 94.903 319.56 94.6466 317.902 94.1349C309.981 91.8593 305.04 85.0351 303.074 73.661C302.86 72.5811 302.707 70.3062 302.615 66.8366L301.786 68.0305C299.392 71.6142 297.181 73.7182 295.156 74.3441C294.418 74.571 293.575 74.6852 292.622 74.6852C290.72 74.6852 288.769 74.2591 286.774 73.4045C280.482 70.5905 277.336 65.4866 277.336 58.0931C277.336 53.7705 278.148 49.8332 279.776 46.2778C282.385 40.5058 285.823 36.9798 290.09 35.7C291.103 35.359 292.192 35.1883 293.359 35.1883C296.583 35.1883 300.082 36.2974 303.858 38.5147C304.625 38.9699 305.408 39.5244 306.205 40.1785C307.004 40.8333 307.466 41.1599 307.588 41.1599L308.324 39.3687C308.446 38.8562 308.937 37.6054 309.797 35.6155C311.885 30.7806 314.709 28.3644 318.269 28.3644C319.282 28.3644 320.356 28.563 321.493 28.9608C325.698 30.2698 327.801 32.7999 327.801 36.553C327.801 37.947 327.539 39.5111 327.018 41.2449C324.501 49.4347 322.835 55.8683 322.022 60.5462C321.208 65.2235 320.803 70.5051 320.803 76.3907C320.803 79.4335 320.825 81.5952 320.872 82.8738C320.918 84.1536 321.217 85.8454 321.769 87.9497C321.954 88.6601 322.107 89.0159 322.23 89.0159C322.475 89.0159 323.242 88.5177 324.532 87.5237C329.566 83.1157 334.417 73.0788 339.082 57.4098C339.819 54.7382 340.303 53.3585 340.533 53.2726C340.764 53.1876 341.322 53.1449 342.213 53.1449C344.301 53.1449 345.344 53.3728 345.344 53.8282C345.344 54.7384 344.47 58.0795 342.719 63.8513C339.557 75.2541 335.675 83.9549 331.07 89.9546C328.584 93.2527 325.729 94.9027 322.506 94.9027L322.506 94.903Z" fill="#640055"/>
<path d="M75.5791 72.4833C79.9503 72.3678 82.1867 72.287 82.2857 72.2398C82.3366 72.1714 82.3986 71.7657 82.4735 71.0252C82.8482 67.5076 83.036 64.6845 83.036 62.5552C78.9886 62.5552 76.6774 62.6024 76.1028 62.6948C75.8531 68.0174 75.6782 71.2797 75.5791 72.4831V72.4833ZM90.7917 89.2837C89.5435 89.2837 87.9067 88.7164 85.884 87.5823C84.7088 86.9352 83.7976 86.3217 83.1489 85.7432C82.1229 84.6556 81.6121 83.1863 81.6121 81.335C81.6121 79.8762 81.7109 78.408 81.912 76.927C79.7134 77.0659 77.5771 77.1346 75.5045 77.1346C75.3785 78.1991 75.2908 79.9467 75.2424 82.3766C75.1666 84.7139 75.0917 86.0441 75.0176 86.3682C74.6671 87.7103 73.343 88.3814 71.0454 88.3814C69.7954 88.3814 68.6711 88.2428 67.6729 87.965C64.6001 87.0624 62.5633 85.6739 61.5651 83.7993L61.1145 82.8615L61.0013 77.4471L59.4285 77.3426C58.5782 77.3202 57.9416 77.245 57.517 77.117C57.0921 76.9903 56.7619 76.7872 56.524 76.5094C56.2864 76.2327 56.0558 75.8272 55.831 75.2947C55.6062 74.7634 55.4933 74.3579 55.4933 74.0794C55.4933 73.4554 55.7813 73.0499 56.3567 72.8648C56.7806 72.7499 58.4293 72.6453 61.3022 72.5529C61.4023 71.303 61.489 70.0132 61.5651 68.6821C61.6399 67.3519 61.7148 66.0782 61.7889 64.8638C61.865 63.6491 61.902 62.9147 61.902 62.66C61.902 62.5445 61.8826 62.4518 61.8456 62.3822C61.8075 62.3129 61.5457 62.2494 61.059 62.1913C60.5714 62.1336 60.0154 62.0353 59.3907 61.8964C57.9169 61.6186 57.049 61.3702 56.7861 61.1498C56.524 60.9304 56.2927 60.5945 56.0928 60.1437C55.894 59.692 55.7942 59.3163 55.7942 59.015C55.7942 58.6223 55.8942 58.3788 56.0928 58.2864C56.2927 58.1937 57.3171 58.09 59.1656 57.9735C60.9396 57.928 61.926 57.8701 62.1266 57.8006C62.2256 57.731 62.3136 57.0369 62.3884 55.7177C62.4635 53.8674 62.6135 52.4789 62.8383 51.5532C63.1389 50.3258 63.7006 49.4937 64.525 49.0539C64.9738 48.8223 65.6364 48.7068 66.5109 48.7068C67.659 48.7068 69.034 49.0247 70.6318 49.6616C72.2318 50.2977 73.5799 51.2525 74.6792 52.5244C75.3788 53.312 75.8034 54.585 75.9534 56.3427L76.0663 58.0088H83.4112L83.598 56.4816C83.9478 53.7052 84.5723 51.8992 85.4717 51.0672C86.0463 50.7191 86.7328 50.5461 87.5322 50.5461C88.2068 50.5461 89.2005 50.7432 90.5117 51.1365C91.8237 51.5301 93.0405 52.3852 94.1657 53.7054C94.7393 54.4459 95.3509 55.904 96.0014 58.0784L98.2499 58.1479C99.7977 58.1942 100.723 58.3338 101.023 58.5644C101.223 58.7264 101.397 58.9587 101.546 59.2587C101.922 59.9527 102.109 60.636 102.109 61.306C102.084 61.7458 101.996 62.0414 101.847 62.1917C101.697 62.3423 101.409 62.4404 100.985 62.4863L96.7126 62.6252C96.7635 63.8978 96.7884 65.206 96.7884 66.5474L96.7506 72.1364C98.8731 72.368 100.047 72.5592 100.272 72.7091C100.498 72.8599 100.709 73.1547 100.91 73.5936C101.159 74.1961 101.284 74.8442 101.284 75.5375C101.284 75.8391 101.191 76.0756 101.004 76.2496C100.815 76.4228 100.622 76.5094 100.423 76.5094C100.122 76.4639 98.773 76.3714 96.3756 76.2327C95.8003 82.1332 95.4762 85.2915 95.4013 85.708C95.2007 86.7272 94.8756 87.4437 94.427 87.8601C94.2773 88.0221 93.5397 88.4045 92.2156 89.0061C91.8167 89.1913 91.3411 89.2839 90.7917 89.2839V89.2837Z" fill="#640055"/>
</svg>
