<svg width="134" height="48" viewBox="0 0 134 48" fill="none" xmlns="http://www.w3.org/2000/svg">
<path d="M22.0316 21.4419C22.0316 23.0527 21.7641 24.5815 21.2235 26.0339C20.6775 27.4918 19.9131 28.764 18.9357 29.8614C17.9584 30.9589 16.7899 31.8271 15.4412 32.4769C14.0871 33.1211 12.6074 33.4488 10.9912 33.4488C9.98658 33.4488 9.04197 33.3068 8.16835 33.0338C7.30019 32.7553 6.47025 32.313 5.70583 31.7015V32.8918H0V0H5.74406L5.78774 11.095C6.44841 10.5654 7.23467 10.1449 8.14651 9.82823C9.05289 9.51155 10.0139 9.3532 11.0185 9.3532C12.4163 9.3532 13.7759 9.66443 15.0973 10.2814C16.4186 10.9039 17.598 11.7557 18.6245 12.8422C19.6565 13.9233 20.4809 15.1955 21.1034 16.6643C21.7259 18.1331 22.0316 19.722 22.0316 21.4419ZM16.2493 21.4419C16.2493 20.3827 16.091 19.4162 15.7743 18.5481C15.4576 17.6744 15.0044 16.9264 14.4366 16.3094C13.8687 15.687 13.1917 15.2119 12.4109 14.8789C11.6246 14.5512 10.7619 14.3874 9.80093 14.3874C9.19486 14.3874 8.49596 14.513 7.69332 14.7642C6.9016 15.0154 6.23547 15.3375 5.70583 15.7306V26.7492C6.9562 27.8849 8.35946 28.4527 9.92105 28.4527C10.8274 28.4527 11.6628 28.2835 12.4491 27.9395C13.2299 27.5955 13.9015 27.115 14.4584 26.4925C15.0154 25.8701 15.4576 25.133 15.7743 24.2757C16.091 23.413 16.2493 22.4684 16.2493 21.4419Z" fill="#1C2429"/>
<path d="M29.8778 33.4487H24.0901V10.4998H29.8778V33.4487Z" fill="#1C2429"/>
<path d="M29.9598 8.34305H24.0137V2.39697H29.9598V8.34305Z" fill="#640055"/>
<path d="M46.0726 32.3402C45.4938 32.7061 44.8167 32.9845 44.0523 33.1702C43.2879 33.3558 42.518 33.4486 41.7536 33.4486C40.4049 33.4486 39.2692 33.2794 38.3465 32.9518C37.4237 32.6242 36.6811 32.1109 36.1242 31.4284C35.5727 30.7404 35.1687 29.8668 34.9175 28.813C34.6663 27.7537 34.5408 26.5143 34.5408 25.0837V15.0589H31.5322V12.4817C33.3778 11.7173 34.8793 10.5816 36.0259 9.07463C37.178 7.56763 37.9643 5.61291 38.3847 3.21045H40.2466V9.90457H46.0343V15.0589H40.2466V25.4823C40.2466 26.0611 40.323 26.5361 40.465 26.9074C40.6124 27.2787 40.8035 27.5681 41.0383 27.781C41.2786 27.994 41.5516 28.1359 41.8519 28.2178C42.1576 28.2943 42.4798 28.3325 42.8238 28.3325C43.2715 28.3325 43.8121 28.2561 44.4509 28.0977C45.0843 27.9394 45.6248 27.6718 46.0726 27.306V32.3402Z" fill="#1C2429"/>
<path d="M81.7437 10.4617L74.0558 33.4488H69.1035L64.5443 19.7767L59.9905 33.4488H55.0327L47.3066 10.4617H53.3292L57.6481 24.8054L61.9725 10.4617H67.045L71.4022 24.8054L75.7212 10.4617H81.7437Z" fill="#640055"/>
<path d="M88.9237 33.4487H83.136V10.4998H88.9237V33.4487Z" fill="#640055"/>
<path d="M89.0001 8.34305H83.0594V2.39697H89.0001V8.34305Z" fill="#1C2429"/>
<path d="M108.542 26.3942C108.542 27.5299 108.28 28.5401 107.75 29.4246C107.22 30.3091 106.527 31.0517 105.681 31.6414C104.834 32.2366 103.879 32.6898 102.82 32.9901C101.766 33.2958 100.717 33.4487 99.6855 33.4487C97.9328 33.4487 96.3275 33.1211 94.8588 32.4768C93.39 31.8271 92.0959 30.7896 90.9875 29.3645L94.4329 25.8755C95.1208 26.7491 95.9126 27.4317 96.8135 27.9176C97.7089 28.409 98.6754 28.6547 99.7019 28.6547C100.603 28.6547 101.351 28.4855 101.946 28.1578C102.536 27.8248 102.836 27.3334 102.836 26.6727C102.836 25.9847 102.41 25.4114 101.569 24.9473C100.723 24.4832 99.5326 24.03 97.9983 23.5768C97.1029 23.3147 96.2293 22.9762 95.3829 22.5667C94.5366 22.1572 93.7886 21.6548 93.1279 21.0651C92.4672 20.47 91.9376 19.7875 91.539 19.0231C91.1459 18.2586 90.9438 17.3686 90.9438 16.3694C90.9438 15.2556 91.2059 14.2618 91.7192 13.3773C92.2324 12.4873 92.915 11.7502 93.7449 11.155C94.5803 10.5599 95.5304 10.1067 96.5842 9.78997C97.6434 9.47329 98.7191 9.31494 99.8056 9.31494C103.295 9.31494 106.156 10.6363 108.384 13.2735L104.976 16.7243C104.316 15.9053 103.562 15.2556 102.716 14.7805C101.87 14.3055 100.947 14.0707 99.9421 14.0707C99.5982 14.0707 99.2378 14.1144 98.8501 14.2072C98.4679 14.3 98.113 14.4311 97.7799 14.6058C97.4523 14.7751 97.1793 14.9989 96.9718 15.2774C96.7589 15.5559 96.6551 15.8671 96.6551 16.2111C96.6551 16.8172 97.0537 17.3468 97.8618 17.7945C98.6699 18.2423 99.822 18.69 101.329 19.1432C102.306 19.4326 103.229 19.8038 104.103 20.2516C104.976 20.6993 105.741 21.2235 106.401 21.8186C107.062 22.4083 107.586 23.0854 107.969 23.8389C108.351 24.5924 108.542 25.4442 108.542 26.3942Z" fill="#640055"/>
<path d="M133.314 21.3601C133.314 21.7314 133.293 22.1136 133.254 22.5122C133.216 22.9053 133.167 23.3148 133.118 23.7407H114.805C115.018 24.3959 115.318 25.0238 115.7 25.619C116.082 26.2141 116.552 26.7329 117.103 27.1642C117.66 27.601 118.288 27.945 118.987 28.1962C119.686 28.4473 120.461 28.5729 121.308 28.5729C122.334 28.5729 123.366 28.3927 124.398 28.0378C125.43 27.6829 126.287 27.197 126.975 26.5909L130.579 30.2C128.996 31.3849 127.439 32.2258 125.921 32.7117C124.404 33.2031 122.798 33.4488 121.106 33.4488C119.391 33.4488 117.786 33.1321 116.295 32.4988C114.799 31.8599 113.505 31.0027 112.408 29.9216C111.31 28.835 110.447 27.5628 109.814 26.094C109.181 24.6307 108.864 23.0637 108.864 21.3983C108.864 19.733 109.181 18.1714 109.814 16.7026C110.447 15.2393 111.321 13.9616 112.429 12.8805C113.538 11.7939 114.832 10.9367 116.312 10.3033C117.791 9.66996 119.375 9.35327 121.067 9.35327C122.678 9.35327 124.223 9.64812 125.703 10.2433C127.183 10.8384 128.493 11.6629 129.629 12.7222C130.765 13.776 131.66 15.0373 132.321 16.506C132.981 17.9694 133.314 19.591 133.314 21.3601ZM127.33 19.1433C126.882 17.6854 126.08 16.517 124.933 15.6324C123.781 14.7479 122.482 14.3056 121.029 14.3056C119.604 14.3056 118.321 14.7479 117.185 15.6324C116.05 16.517 115.258 17.6854 114.805 19.1433H127.33Z" fill="#640055"/>
<path d="M20.9559 43.6045H19.8857V47.9999H19.0394V43.6045H18.062V42.7309H20.9559V43.6045ZM31.2482 47.9999H28.2998V42.7527H31.2482V43.6318H29.157V44.9313H30.189V45.8049H29.157V47.1208H31.2482V47.9999ZM41.6552 47.9999H40.0773C39.0999 47.9999 38.6085 47.4703 38.6085 46.4056V44.2215C38.6085 43.2496 39.089 42.7637 40.05 42.7637H41.6552V43.6209H39.9953C39.635 43.6209 39.4603 43.7902 39.4603 44.1287L39.4657 46.4219V46.4547C39.4657 46.9024 39.6186 47.1208 39.9244 47.1208H41.6552V47.9999ZM49.0428 47.9999V42.7527H49.9055V44.9313H51.347V42.7527H52.1987V47.9999H51.347V45.8049H49.9055V47.9999H49.0428ZM62.8078 47.9999H61.8086L60.5582 44.8986V47.9999H59.7064V42.7527H60.5746L61.9505 46.2035V42.7527H62.8078V47.9999ZM72.7288 43.8557C72.7288 43.6973 72.636 43.6209 72.4504 43.6209H71.4293C71.2546 43.6209 71.1672 43.6973 71.1672 43.8557V46.8151C71.1672 46.9188 71.1945 47.0007 71.2437 47.0499C71.2928 47.099 71.3474 47.1208 71.4129 47.1208H72.5268C72.5869 47.1208 72.636 47.0935 72.6742 47.0335C72.7124 46.968 72.7288 46.897 72.7288 46.8151V43.8557ZM73.5806 46.9898C73.5751 47.6614 73.253 47.9999 72.6142 47.9999H71.2873C70.6431 47.9999 70.3209 47.6723 70.3209 47.0226V43.7028C70.3209 43.064 70.6158 42.7473 71.2164 42.7473H72.6196C73.2585 42.7473 73.5806 43.064 73.5806 43.7028V46.9898ZM83.3815 47.9999H81.0719V42.72H81.9237V47.1154H83.3815V47.9999ZM93.0842 43.8557C93.0842 43.6973 92.9914 43.6209 92.8112 43.6209H91.7847C91.6099 43.6209 91.5226 43.6973 91.5226 43.8557V46.8151C91.5226 46.9188 91.5499 47.0007 91.599 47.0499C91.6482 47.099 91.7028 47.1208 91.7683 47.1208H92.8822C92.9477 47.1208 92.9914 47.0935 93.0296 47.0335C93.0678 46.968 93.0842 46.897 93.0842 46.8151V43.8557ZM93.936 46.9898C93.9305 47.6614 93.6084 47.9999 92.9695 47.9999H91.6427C90.9984 47.9999 90.6763 47.6723 90.6763 47.0226V43.7028C90.6763 43.064 90.9766 42.7473 91.5772 42.7473H92.975C93.6138 42.7473 93.936 43.064 93.936 43.7028V46.9898ZM104.572 47.9999H102.76C101.864 47.9999 101.416 47.514 101.416 46.5475V44.1232C101.416 43.2114 101.902 42.7527 102.869 42.7527H104.572V43.6318H102.727C102.416 43.6318 102.263 43.7902 102.263 44.1123V46.613C102.263 46.9516 102.394 47.1208 102.661 47.1208H103.71V45.8049H102.645V44.9204H104.572V47.9999ZM115.241 42.7527L113.925 45.6575V47.9999H113.074V45.6466L111.807 42.7527H112.708L113.489 44.6474L113.5 44.6802L113.505 44.6692L114.34 42.7527H115.241Z" fill="#1C2429"/>
<path d="M22.0316 21.4419C22.0316 23.0527 21.7641 24.5815 21.2235 26.0339C20.6775 27.4918 19.9131 28.764 18.9357 29.8614C17.9584 30.9589 16.7899 31.8271 15.4412 32.4769C14.0871 33.1211 12.6074 33.4488 10.9912 33.4488C9.98658 33.4488 9.04197 33.3068 8.16835 33.0338C7.30019 32.7553 6.47025 32.313 5.70583 31.7015V32.8918H0V0H5.74406L5.78774 11.095C6.44841 10.5654 7.23467 10.1449 8.14651 9.82823C9.05289 9.51155 10.0139 9.3532 11.0185 9.3532C12.4163 9.3532 13.7759 9.66443 15.0973 10.2814C16.4186 10.9039 17.598 11.7557 18.6245 12.8422C19.6565 13.9233 20.4809 15.1955 21.1034 16.6643C21.7259 18.1331 22.0316 19.722 22.0316 21.4419ZM16.2493 21.4419C16.2493 20.3827 16.091 19.4162 15.7743 18.5481C15.4576 17.6744 15.0044 16.9264 14.4366 16.3094C13.8687 15.687 13.1917 15.2119 12.4109 14.8789C11.6246 14.5512 10.7619 14.3874 9.80093 14.3874C9.19486 14.3874 8.49596 14.513 7.69332 14.7642C6.9016 15.0154 6.23547 15.3375 5.70583 15.7306V26.7492C6.9562 27.8849 8.35946 28.4527 9.92105 28.4527C10.8274 28.4527 11.6628 28.2835 12.4491 27.9395C13.2299 27.5955 13.9015 27.115 14.4584 26.4925C15.0154 25.8701 15.4576 25.133 15.7743 24.2757C16.091 23.413 16.2493 22.4684 16.2493 21.4419Z" fill="#1C2429"/>
<path d="M29.8778 33.4487H24.0901V10.4998H29.8778V33.4487Z" fill="#1C2429"/>
<path d="M29.9598 8.34305H24.0137V2.39697H29.9598V8.34305Z" fill="#640055"/>
<path d="M46.0726 32.3402C45.4938 32.7061 44.8167 32.9845 44.0523 33.1702C43.2879 33.3558 42.518 33.4486 41.7536 33.4486C40.4049 33.4486 39.2692 33.2794 38.3465 32.9518C37.4237 32.6242 36.6811 32.1109 36.1242 31.4284C35.5727 30.7404 35.1687 29.8668 34.9175 28.813C34.6663 27.7537 34.5408 26.5143 34.5408 25.0837V15.0589H31.5322V12.4817C33.3778 11.7173 34.8793 10.5816 36.0259 9.07463C37.178 7.56763 37.9643 5.61291 38.3847 3.21045H40.2466V9.90457H46.0343V15.0589H40.2466V25.4823C40.2466 26.0611 40.323 26.5361 40.465 26.9074C40.6124 27.2787 40.8035 27.5681 41.0383 27.781C41.2786 27.994 41.5516 28.1359 41.8519 28.2178C42.1576 28.2943 42.4798 28.3325 42.8238 28.3325C43.2715 28.3325 43.8121 28.2561 44.4509 28.0977C45.0843 27.9394 45.6248 27.6718 46.0726 27.306V32.3402Z" fill="#1C2429"/>
<path d="M81.7437 10.4617L74.0558 33.4488H69.1035L64.5443 19.7767L59.9905 33.4488H55.0327L47.3066 10.4617H53.3292L57.6481 24.8054L61.9725 10.4617H67.045L71.4022 24.8054L75.7212 10.4617H81.7437Z" fill="#640055"/>
<path d="M88.9237 33.4487H83.136V10.4998H88.9237V33.4487Z" fill="#640055"/>
<path d="M89.0001 8.34305H83.0594V2.39697H89.0001V8.34305Z" fill="#1C2429"/>
<path d="M108.542 26.3942C108.542 27.5299 108.28 28.5401 107.75 29.4246C107.22 30.3091 106.527 31.0517 105.681 31.6414C104.834 32.2366 103.879 32.6898 102.82 32.9901C101.766 33.2958 100.717 33.4487 99.6855 33.4487C97.9328 33.4487 96.3275 33.1211 94.8588 32.4768C93.39 31.8271 92.0959 30.7896 90.9875 29.3645L94.4329 25.8755C95.1208 26.7491 95.9126 27.4317 96.8135 27.9176C97.7089 28.409 98.6754 28.6547 99.7019 28.6547C100.603 28.6547 101.351 28.4855 101.946 28.1578C102.536 27.8248 102.836 27.3334 102.836 26.6727C102.836 25.9847 102.41 25.4114 101.569 24.9473C100.723 24.4832 99.5326 24.03 97.9983 23.5768C97.1029 23.3147 96.2293 22.9762 95.3829 22.5667C94.5366 22.1572 93.7886 21.6548 93.1279 21.0651C92.4672 20.47 91.9376 19.7875 91.539 19.0231C91.1459 18.2586 90.9438 17.3686 90.9438 16.3694C90.9438 15.2556 91.2059 14.2618 91.7192 13.3773C92.2324 12.4873 92.915 11.7502 93.7449 11.155C94.5803 10.5599 95.5304 10.1067 96.5842 9.78997C97.6434 9.47329 98.7191 9.31494 99.8056 9.31494C103.295 9.31494 106.156 10.6363 108.384 13.2735L104.976 16.7243C104.316 15.9053 103.562 15.2556 102.716 14.7805C101.87 14.3055 100.947 14.0707 99.9421 14.0707C99.5982 14.0707 99.2378 14.1144 98.8501 14.2072C98.4679 14.3 98.113 14.4311 97.7799 14.6058C97.4523 14.7751 97.1793 14.9989 96.9718 15.2774C96.7589 15.5559 96.6551 15.8671 96.6551 16.2111C96.6551 16.8172 97.0537 17.3468 97.8618 17.7945C98.6699 18.2423 99.822 18.69 101.329 19.1432C102.306 19.4326 103.229 19.8038 104.103 20.2516C104.976 20.6993 105.741 21.2235 106.401 21.8186C107.062 22.4083 107.586 23.0854 107.969 23.8389C108.351 24.5924 108.542 25.4442 108.542 26.3942Z" fill="#640055"/>
<path d="M133.314 21.3601C133.314 21.7314 133.293 22.1136 133.254 22.5122C133.216 22.9053 133.167 23.3148 133.118 23.7407H114.805C115.018 24.3959 115.318 25.0238 115.7 25.619C116.082 26.2141 116.552 26.7329 117.103 27.1642C117.66 27.601 118.288 27.945 118.987 28.1962C119.686 28.4473 120.461 28.5729 121.308 28.5729C122.334 28.5729 123.366 28.3927 124.398 28.0378C125.43 27.6829 126.287 27.197 126.975 26.5909L130.579 30.2C128.996 31.3849 127.439 32.2258 125.921 32.7117C124.404 33.2031 122.798 33.4488 121.106 33.4488C119.391 33.4488 117.786 33.1321 116.295 32.4988C114.799 31.8599 113.505 31.0027 112.408 29.9216C111.31 28.835 110.447 27.5628 109.814 26.094C109.181 24.6307 108.864 23.0637 108.864 21.3983C108.864 19.733 109.181 18.1714 109.814 16.7026C110.447 15.2393 111.321 13.9616 112.429 12.8805C113.538 11.7939 114.832 10.9367 116.312 10.3033C117.791 9.66996 119.375 9.35327 121.067 9.35327C122.678 9.35327 124.223 9.64812 125.703 10.2433C127.183 10.8384 128.493 11.6629 129.629 12.7222C130.765 13.776 131.66 15.0373 132.321 16.506C132.981 17.9694 133.314 19.591 133.314 21.3601ZM127.33 19.1433C126.882 17.6854 126.08 16.517 124.933 15.6324C123.781 14.7479 122.482 14.3056 121.029 14.3056C119.604 14.3056 118.321 14.7479 117.185 15.6324C116.05 16.517 115.258 17.6854 114.805 19.1433H127.33Z" fill="#640055"/>
<path d="M20.9559 43.6045H19.8857V47.9999H19.0394V43.6045H18.062V42.7309H20.9559V43.6045ZM31.2482 47.9999H28.2998V42.7527H31.2482V43.6318H29.157V44.9313H30.189V45.8049H29.157V47.1208H31.2482V47.9999ZM41.6552 47.9999H40.0773C39.0999 47.9999 38.6085 47.4703 38.6085 46.4056V44.2215C38.6085 43.2496 39.089 42.7637 40.05 42.7637H41.6552V43.6209H39.9953C39.635 43.6209 39.4603 43.7902 39.4603 44.1287L39.4657 46.4219V46.4547C39.4657 46.9024 39.6186 47.1208 39.9244 47.1208H41.6552V47.9999ZM49.0428 47.9999V42.7527H49.9055V44.9313H51.347V42.7527H52.1987V47.9999H51.347V45.8049H49.9055V47.9999H49.0428ZM62.8078 47.9999H61.8086L60.5582 44.8986V47.9999H59.7064V42.7527H60.5746L61.9505 46.2035V42.7527H62.8078V47.9999ZM72.7288 43.8557C72.7288 43.6973 72.636 43.6209 72.4504 43.6209H71.4293C71.2546 43.6209 71.1672 43.6973 71.1672 43.8557V46.8151C71.1672 46.9188 71.1945 47.0007 71.2437 47.0499C71.2928 47.099 71.3474 47.1208 71.4129 47.1208H72.5268C72.5869 47.1208 72.636 47.0935 72.6742 47.0335C72.7124 46.968 72.7288 46.897 72.7288 46.8151V43.8557ZM73.5806 46.9898C73.5751 47.6614 73.253 47.9999 72.6142 47.9999H71.2873C70.6431 47.9999 70.3209 47.6723 70.3209 47.0226V43.7028C70.3209 43.064 70.6158 42.7473 71.2164 42.7473H72.6196C73.2585 42.7473 73.5806 43.064 73.5806 43.7028V46.9898ZM83.3815 47.9999H81.0719V42.72H81.9237V47.1154H83.3815V47.9999ZM93.0842 43.8557C93.0842 43.6973 92.9914 43.6209 92.8112 43.6209H91.7847C91.6099 43.6209 91.5226 43.6973 91.5226 43.8557V46.8151C91.5226 46.9188 91.5499 47.0007 91.599 47.0499C91.6482 47.099 91.7028 47.1208 91.7683 47.1208H92.8822C92.9477 47.1208 92.9914 47.0935 93.0296 47.0335C93.0678 46.968 93.0842 46.897 93.0842 46.8151V43.8557ZM93.936 46.9898C93.9305 47.6614 93.6084 47.9999 92.9695 47.9999H91.6427C90.9984 47.9999 90.6763 47.6723 90.6763 47.0226V43.7028C90.6763 43.064 90.9766 42.7473 91.5772 42.7473H92.975C93.6138 42.7473 93.936 43.064 93.936 43.7028V46.9898ZM104.572 47.9999H102.76C101.864 47.9999 101.416 47.514 101.416 46.5475V44.1232C101.416 43.2114 101.902 42.7527 102.869 42.7527H104.572V43.6318H102.727C102.416 43.6318 102.263 43.7902 102.263 44.1123V46.613C102.263 46.9516 102.394 47.1208 102.661 47.1208H103.71V45.8049H102.645V44.9204H104.572V47.9999ZM115.241 42.7527L113.925 45.6575V47.9999H113.074V45.6466L111.807 42.7527H112.708L113.489 44.6474L113.5 44.6802L113.505 44.6692L114.34 42.7527H115.241Z" fill="#1C2429"/>
</svg>
