<svg width="132" height="48" viewBox="0 0 132 48" fill="none" xmlns="http://www.w3.org/2000/svg">
<path d="M22.046 21.4419C22.046 23.0527 21.7837 24.5815 21.2538 26.0339C20.7186 27.4918 19.9692 28.764 19.0111 29.8614C18.0531 30.9589 16.9076 31.8271 15.5856 32.4769C14.2582 33.1211 12.8077 33.4488 11.2234 33.4488C10.2385 33.4488 9.31257 33.3068 8.45618 33.0338C7.60515 32.7553 6.79158 32.313 6.04225 31.7015V32.8918H0.448975V0H6.07971L6.12253 11.095C6.77017 10.5654 7.54092 10.1449 8.43477 9.82823C9.32327 9.51155 10.2653 9.3532 11.2501 9.3532C12.6204 9.3532 13.9531 9.66443 15.2484 10.2814C16.5437 10.9039 17.6998 11.7557 18.7061 12.8422C19.7177 13.9233 20.5259 15.1955 21.136 16.6643C21.7462 18.1331 22.046 19.722 22.046 21.4419ZM16.3778 21.4419C16.3778 20.3827 16.2225 19.4162 15.9121 18.5481C15.6017 17.6744 15.1574 16.9264 14.6008 16.3094C14.0441 15.687 13.3804 15.2119 12.615 14.8789C11.8443 14.5512 10.9986 14.3874 10.0566 14.3874C9.46244 14.3874 8.77733 14.513 7.99052 14.7642C7.21442 15.0154 6.56143 15.3375 6.04225 15.7306V26.7492C7.26795 27.8849 8.64352 28.4527 10.1743 28.4527C11.0628 28.4527 11.8817 28.2835 12.6525 27.9395C13.4179 27.5955 14.0762 27.115 14.6222 26.4925C15.1681 25.8701 15.6017 25.133 15.9121 24.2757C16.2225 23.413 16.3778 22.4684 16.3778 21.4419Z" fill="#373435"/>
<path d="M29.7373 33.4488H24.0637V10.4999H29.7373V33.4488Z" fill="#373435"/>
<path d="M29.8178 8.34305H23.989V2.39697H29.8178V8.34305Z" fill="#A53692"/>
<path d="M45.6126 32.3404C45.0453 32.7062 44.3816 32.9847 43.6322 33.1703C42.8829 33.3559 42.1282 33.4488 41.3788 33.4488C40.0568 33.4488 38.9435 33.2795 38.0389 32.9519C37.1344 32.6243 36.4065 32.111 35.8605 31.4285C35.3199 30.7405 34.9238 29.8669 34.6776 28.8131C34.4314 27.7539 34.3083 26.5144 34.3083 25.0838V15.0591H31.3591V12.4819C33.1682 11.7175 34.6402 10.5817 35.7642 9.07475C36.8935 7.56775 37.6643 5.61303 38.0764 3.21057H39.9016V9.90469H45.5751V15.0591H39.9016V25.4824C39.9016 26.0612 39.9765 26.5362 40.1157 26.9075C40.2602 27.2788 40.4475 27.5682 40.6777 27.7812C40.9132 27.9941 41.1808 28.1361 41.4752 28.218C41.7749 28.2944 42.0907 28.3326 42.4279 28.3326C42.8668 28.3326 43.3967 28.2562 44.0229 28.0978C44.6438 27.9395 45.1737 27.6719 45.6126 27.3061V32.3404Z" fill="#373435"/>
<path d="M80.5799 10.4615L73.0437 33.4487H68.1891L63.7198 19.7765L59.2559 33.4487H54.3959L46.8223 10.4615H52.726L56.9597 24.8053L61.1988 10.4615H66.1712L70.4425 24.8053L74.6762 10.4615H80.5799Z" fill="#A53692"/>
<path d="M87.6184 33.4488H81.9448V10.4999H87.6184V33.4488Z" fill="#A53692"/>
<path d="M87.6933 8.34305H81.8699V2.39697H87.6933V8.34305Z" fill="#373435"/>
<path d="M106.849 26.3942C106.849 27.5299 106.593 28.5401 106.073 29.4246C105.554 30.3091 104.874 31.0517 104.045 31.6414C103.215 32.2366 102.278 32.6898 101.24 32.9901C100.207 33.2958 99.1795 33.4487 98.1678 33.4487C96.4497 33.4487 94.8761 33.1211 93.4363 32.4768C91.9965 31.8271 90.728 30.7896 89.6415 29.3645L93.0188 25.8755C93.6932 26.7491 94.4693 27.4317 95.3525 27.9176C96.2303 28.409 97.1776 28.6547 98.1839 28.6547C99.0671 28.6547 99.8003 28.4855 100.384 28.1578C100.962 27.8248 101.256 27.3334 101.256 26.6727C101.256 25.9847 100.839 25.4114 100.014 24.9473C99.1848 24.4832 98.018 24.03 96.514 23.5768C95.6362 23.3147 94.7798 22.9762 93.9501 22.5667C93.1205 22.1572 92.3872 21.6548 91.7396 21.0651C91.092 20.47 90.5728 19.7875 90.182 19.0231C89.7967 18.2586 89.5986 17.3686 89.5986 16.3694C89.5986 15.2556 89.8555 14.2618 90.3587 13.3773C90.8618 12.4873 91.5309 11.7502 92.3444 11.155C93.1633 10.5599 94.0947 10.1067 95.1277 9.78997C96.166 9.47329 97.2205 9.31494 98.2856 9.31494C101.706 9.31494 104.51 10.6363 106.694 13.2735L103.354 16.7243C102.707 15.9053 101.968 15.2556 101.138 14.7805C100.309 14.3055 99.4043 14.0707 98.4194 14.0707C98.0822 14.0707 97.7289 14.1144 97.3489 14.2072C96.9743 14.3 96.6264 14.4311 96.2999 14.6058C95.9787 14.7751 95.7111 14.9989 95.5077 15.2774C95.299 15.5559 95.1973 15.8671 95.1973 16.2111C95.1973 16.8172 95.588 17.3468 96.3801 17.7945C97.1723 18.2423 98.3017 18.69 99.7789 19.1432C100.737 19.4326 101.642 19.8038 102.498 20.2516C103.354 20.6993 104.104 21.2235 104.751 21.8186C105.399 22.4083 105.913 23.0854 106.287 23.8389C106.662 24.5924 106.849 25.4442 106.849 26.3942Z" fill="#A53692"/>
<path d="M131.134 21.36C131.134 21.7313 131.112 22.1135 131.075 22.5121C131.037 22.9052 130.989 23.3147 130.941 23.7406H112.989C113.198 24.3958 113.492 25.0237 113.867 25.6189C114.241 26.214 114.702 26.7327 115.242 27.1641C115.788 27.6009 116.404 27.9449 117.089 28.1961C117.774 28.4472 118.534 28.5728 119.364 28.5728C120.37 28.5728 121.382 28.3926 122.393 28.0377C123.405 27.6828 124.245 27.1969 124.919 26.5908L128.452 30.1999C126.9 31.3848 125.374 32.2256 123.886 32.7116C122.398 33.203 120.825 33.4487 119.166 33.4487C117.485 33.4487 115.911 33.132 114.45 32.4986C112.984 31.8598 111.715 31.0026 110.639 29.9215C109.563 28.8349 108.718 27.5627 108.097 26.0939C107.476 24.6306 107.166 23.0635 107.166 21.3982C107.166 19.7329 107.476 18.1713 108.097 16.7025C108.718 15.2392 109.574 13.9615 110.661 12.8804C111.747 11.7938 113.016 10.9366 114.466 10.3032C115.917 9.66984 117.469 9.35315 119.128 9.35315C120.707 9.35315 122.222 9.648 123.672 10.2432C125.123 10.8383 126.407 11.6628 127.521 12.722C128.634 13.7759 129.512 15.0371 130.159 16.5059C130.807 17.9692 131.134 19.5909 131.134 21.36ZM125.267 19.1432C124.828 17.6853 124.042 16.5168 122.918 15.6323C121.788 14.7478 120.514 14.3055 119.091 14.3055C117.694 14.3055 116.436 14.7478 115.323 15.6323C114.209 16.5168 113.433 17.6853 112.989 19.1432H125.267Z" fill="#A53692"/>
<path d="M20.9916 43.6046H19.9425V48H19.1129V43.6046H18.1548V42.731H20.9916V43.6046ZM31.0809 48H28.1906V42.7529H31.0809V43.6319H29.0309V44.9314H30.0425V45.8051H29.0309V47.121H31.0809V48ZM41.2826 48H39.7357C38.7776 48 38.2959 47.4704 38.2959 46.4057V44.2216C38.2959 43.2497 38.7669 42.7638 39.7089 42.7638H41.2826V43.621H39.6554C39.3022 43.621 39.1309 43.7903 39.1309 44.1288L39.1362 46.4221V46.4548C39.1362 46.9026 39.2861 47.121 39.5858 47.121H41.2826V48ZM48.5244 48V42.7529H49.3701V44.9314H50.7831V42.7529H51.6181V48H50.7831V45.8051H49.3701V48H48.5244ZM62.0178 48H61.0383L59.8126 44.8987V48H58.9776V42.7529H59.8287L61.1775 46.2037V42.7529H62.0178V48ZM71.7431 43.8558C71.7431 43.6975 71.6521 43.621 71.4702 43.621H70.4693C70.298 43.621 70.2123 43.6975 70.2123 43.8558V46.8152C70.2123 46.9189 70.2391 47.0008 70.2873 47.05C70.3354 47.0991 70.389 47.121 70.4532 47.121H71.5451C71.604 47.121 71.6521 47.0937 71.6896 47.0336C71.7271 46.9681 71.7431 46.8971 71.7431 46.8152V43.8558ZM72.5781 46.9899C72.5728 47.6615 72.257 48 71.6307 48H70.3301C69.6985 48 69.3827 47.6724 69.3827 47.0227V43.7029C69.3827 43.0641 69.6717 42.7474 70.2605 42.7474H71.6361C72.2623 42.7474 72.5781 43.0641 72.5781 43.7029V46.9899ZM82.1857 48H79.9216V42.7201H80.7566V47.1155H82.1857V48ZM91.6969 43.8558C91.6969 43.6975 91.6059 43.621 91.4293 43.621H90.423C90.2518 43.621 90.1661 43.6975 90.1661 43.8558V46.8152C90.1661 46.9189 90.1929 47.0008 90.2411 47.05C90.2892 47.0991 90.3428 47.121 90.407 47.121H91.4989C91.5631 47.121 91.6059 47.0937 91.6434 47.0336C91.6809 46.9681 91.6969 46.8971 91.6969 46.8152V43.8558ZM92.5319 46.9899C92.5266 47.6615 92.2108 48 91.5845 48H90.2839C89.6523 48 89.3365 47.6724 89.3365 47.0227V43.7029C89.3365 43.0641 89.6309 42.7474 90.2197 42.7474H91.5899C92.2161 42.7474 92.5319 43.0641 92.5319 43.7029V46.9899ZM102.958 48H101.181C100.304 48 99.8647 47.5141 99.8647 46.5476V44.1233C99.8647 43.2115 100.341 42.7529 101.288 42.7529H102.958V43.6319H101.149C100.844 43.6319 100.694 43.7903 100.694 44.1124V46.6132C100.694 46.9517 100.823 47.121 101.085 47.121H102.113V45.8051H101.069V44.9205H102.958V48ZM113.417 42.7529L112.127 45.6576V48H111.292V45.6467L110.05 42.7529H110.933L111.699 44.6475L111.71 44.6803L111.715 44.6694L112.534 42.7529H113.417Z" fill="#373435"/>
<path d="M22.046 21.4419C22.046 23.0527 21.7837 24.5815 21.2538 26.0339C20.7186 27.4918 19.9692 28.764 19.0111 29.8614C18.0531 30.9589 16.9076 31.8271 15.5856 32.4769C14.2582 33.1211 12.8077 33.4488 11.2234 33.4488C10.2385 33.4488 9.31257 33.3068 8.45618 33.0338C7.60515 32.7553 6.79158 32.313 6.04225 31.7015V32.8918H0.448975V0H6.07971L6.12253 11.095C6.77017 10.5654 7.54092 10.1449 8.43477 9.82823C9.32327 9.51155 10.2653 9.3532 11.2501 9.3532C12.6204 9.3532 13.9531 9.66443 15.2484 10.2814C16.5437 10.9039 17.6998 11.7557 18.7061 12.8422C19.7177 13.9233 20.5259 15.1955 21.136 16.6643C21.7462 18.1331 22.046 19.722 22.046 21.4419ZM16.3778 21.4419C16.3778 20.3827 16.2225 19.4162 15.9121 18.5481C15.6017 17.6744 15.1574 16.9264 14.6008 16.3094C14.0441 15.687 13.3804 15.2119 12.615 14.8789C11.8443 14.5512 10.9986 14.3874 10.0566 14.3874C9.46244 14.3874 8.77733 14.513 7.99052 14.7642C7.21442 15.0154 6.56143 15.3375 6.04225 15.7306V26.7492C7.26795 27.8849 8.64352 28.4527 10.1743 28.4527C11.0628 28.4527 11.8817 28.2835 12.6525 27.9395C13.4179 27.5955 14.0762 27.115 14.6222 26.4925C15.1681 25.8701 15.6017 25.133 15.9121 24.2757C16.2225 23.413 16.3778 22.4684 16.3778 21.4419Z" fill="#373435"/>
<path d="M29.7373 33.4488H24.0637V10.4999H29.7373V33.4488Z" fill="#373435"/>
<path d="M29.8178 8.34305H23.989V2.39697H29.8178V8.34305Z" fill="#A53692"/>
<path d="M45.6126 32.3404C45.0453 32.7062 44.3816 32.9847 43.6322 33.1703C42.8829 33.3559 42.1282 33.4488 41.3788 33.4488C40.0568 33.4488 38.9435 33.2795 38.0389 32.9519C37.1344 32.6243 36.4065 32.111 35.8605 31.4285C35.3199 30.7405 34.9238 29.8669 34.6776 28.8131C34.4314 27.7539 34.3083 26.5144 34.3083 25.0838V15.0591H31.3591V12.4819C33.1682 11.7175 34.6402 10.5817 35.7642 9.07475C36.8935 7.56775 37.6643 5.61303 38.0764 3.21057H39.9016V9.90469H45.5751V15.0591H39.9016V25.4824C39.9016 26.0612 39.9765 26.5362 40.1157 26.9075C40.2602 27.2788 40.4475 27.5682 40.6777 27.7812C40.9132 27.9941 41.1808 28.1361 41.4752 28.218C41.7749 28.2944 42.0907 28.3326 42.4279 28.3326C42.8668 28.3326 43.3967 28.2562 44.0229 28.0978C44.6438 27.9395 45.1737 27.6719 45.6126 27.3061V32.3404Z" fill="#373435"/>
<path d="M80.5799 10.4615L73.0437 33.4487H68.1891L63.7198 19.7765L59.2559 33.4487H54.3959L46.8223 10.4615H52.726L56.9597 24.8053L61.1988 10.4615H66.1712L70.4425 24.8053L74.6762 10.4615H80.5799Z" fill="#A53692"/>
<path d="M87.6184 33.4488H81.9448V10.4999H87.6184V33.4488Z" fill="#A53692"/>
<path d="M87.6933 8.34305H81.8699V2.39697H87.6933V8.34305Z" fill="#373435"/>
<path d="M106.849 26.3942C106.849 27.5299 106.593 28.5401 106.073 29.4246C105.554 30.3091 104.874 31.0517 104.045 31.6414C103.215 32.2366 102.278 32.6898 101.24 32.9901C100.207 33.2958 99.1795 33.4487 98.1678 33.4487C96.4497 33.4487 94.8761 33.1211 93.4363 32.4768C91.9965 31.8271 90.728 30.7896 89.6415 29.3645L93.0188 25.8755C93.6932 26.7491 94.4693 27.4317 95.3525 27.9176C96.2303 28.409 97.1776 28.6547 98.1839 28.6547C99.0671 28.6547 99.8003 28.4855 100.384 28.1578C100.962 27.8248 101.256 27.3334 101.256 26.6727C101.256 25.9847 100.839 25.4114 100.014 24.9473C99.1848 24.4832 98.018 24.03 96.514 23.5768C95.6362 23.3147 94.7798 22.9762 93.9501 22.5667C93.1205 22.1572 92.3872 21.6548 91.7396 21.0651C91.092 20.47 90.5728 19.7875 90.182 19.0231C89.7967 18.2586 89.5986 17.3686 89.5986 16.3694C89.5986 15.2556 89.8555 14.2618 90.3587 13.3773C90.8618 12.4873 91.5309 11.7502 92.3444 11.155C93.1633 10.5599 94.0947 10.1067 95.1277 9.78997C96.166 9.47329 97.2205 9.31494 98.2856 9.31494C101.706 9.31494 104.51 10.6363 106.694 13.2735L103.354 16.7243C102.707 15.9053 101.968 15.2556 101.138 14.7805C100.309 14.3055 99.4043 14.0707 98.4194 14.0707C98.0822 14.0707 97.7289 14.1144 97.3489 14.2072C96.9743 14.3 96.6264 14.4311 96.2999 14.6058C95.9787 14.7751 95.7111 14.9989 95.5077 15.2774C95.299 15.5559 95.1973 15.8671 95.1973 16.2111C95.1973 16.8172 95.588 17.3468 96.3801 17.7945C97.1723 18.2423 98.3017 18.69 99.7789 19.1432C100.737 19.4326 101.642 19.8038 102.498 20.2516C103.354 20.6993 104.104 21.2235 104.751 21.8186C105.399 22.4083 105.913 23.0854 106.287 23.8389C106.662 24.5924 106.849 25.4442 106.849 26.3942Z" fill="#A53692"/>
<path d="M131.134 21.36C131.134 21.7313 131.112 22.1135 131.075 22.5121C131.037 22.9052 130.989 23.3147 130.941 23.7406H112.989C113.198 24.3958 113.492 25.0237 113.867 25.6189C114.241 26.214 114.702 26.7327 115.242 27.1641C115.788 27.6009 116.404 27.9449 117.089 28.1961C117.774 28.4472 118.534 28.5728 119.364 28.5728C120.37 28.5728 121.382 28.3926 122.393 28.0377C123.405 27.6828 124.245 27.1969 124.919 26.5908L128.452 30.1999C126.9 31.3848 125.374 32.2256 123.886 32.7116C122.398 33.203 120.825 33.4487 119.166 33.4487C117.485 33.4487 115.911 33.132 114.45 32.4986C112.984 31.8598 111.715 31.0026 110.639 29.9215C109.563 28.8349 108.718 27.5627 108.097 26.0939C107.476 24.6306 107.166 23.0635 107.166 21.3982C107.166 19.7329 107.476 18.1713 108.097 16.7025C108.718 15.2392 109.574 13.9615 110.661 12.8804C111.747 11.7938 113.016 10.9366 114.466 10.3032C115.917 9.66984 117.469 9.35315 119.128 9.35315C120.707 9.35315 122.222 9.648 123.672 10.2432C125.123 10.8383 126.407 11.6628 127.521 12.722C128.634 13.7759 129.512 15.0371 130.159 16.5059C130.807 17.9692 131.134 19.5909 131.134 21.36ZM125.267 19.1432C124.828 17.6853 124.042 16.5168 122.918 15.6323C121.788 14.7478 120.514 14.3055 119.091 14.3055C117.694 14.3055 116.436 14.7478 115.323 15.6323C114.209 16.5168 113.433 17.6853 112.989 19.1432H125.267Z" fill="#A53692"/>
<path d="M20.9916 43.6046H19.9425V48H19.1129V43.6046H18.1548V42.731H20.9916V43.6046ZM31.0809 48H28.1906V42.7529H31.0809V43.6319H29.0309V44.9314H30.0425V45.8051H29.0309V47.121H31.0809V48ZM41.2826 48H39.7357C38.7776 48 38.2959 47.4704 38.2959 46.4057V44.2216C38.2959 43.2497 38.7669 42.7638 39.7089 42.7638H41.2826V43.621H39.6554C39.3022 43.621 39.1309 43.7903 39.1309 44.1288L39.1362 46.4221V46.4548C39.1362 46.9026 39.2861 47.121 39.5858 47.121H41.2826V48ZM48.5244 48V42.7529H49.3701V44.9314H50.7831V42.7529H51.6181V48H50.7831V45.8051H49.3701V48H48.5244ZM62.0178 48H61.0383L59.8126 44.8987V48H58.9776V42.7529H59.8287L61.1775 46.2037V42.7529H62.0178V48ZM71.7431 43.8558C71.7431 43.6975 71.6521 43.621 71.4702 43.621H70.4693C70.298 43.621 70.2123 43.6975 70.2123 43.8558V46.8152C70.2123 46.9189 70.2391 47.0008 70.2873 47.05C70.3354 47.0991 70.389 47.121 70.4532 47.121H71.5451C71.604 47.121 71.6521 47.0937 71.6896 47.0336C71.7271 46.9681 71.7431 46.8971 71.7431 46.8152V43.8558ZM72.5781 46.9899C72.5728 47.6615 72.257 48 71.6307 48H70.3301C69.6985 48 69.3827 47.6724 69.3827 47.0227V43.7029C69.3827 43.0641 69.6717 42.7474 70.2605 42.7474H71.6361C72.2623 42.7474 72.5781 43.0641 72.5781 43.7029V46.9899ZM82.1857 48H79.9216V42.7201H80.7566V47.1155H82.1857V48ZM91.6969 43.8558C91.6969 43.6975 91.6059 43.621 91.4293 43.621H90.423C90.2518 43.621 90.1661 43.6975 90.1661 43.8558V46.8152C90.1661 46.9189 90.1929 47.0008 90.2411 47.05C90.2892 47.0991 90.3428 47.121 90.407 47.121H91.4989C91.5631 47.121 91.6059 47.0937 91.6434 47.0336C91.6809 46.9681 91.6969 46.8971 91.6969 46.8152V43.8558ZM92.5319 46.9899C92.5266 47.6615 92.2108 48 91.5845 48H90.2839C89.6523 48 89.3365 47.6724 89.3365 47.0227V43.7029C89.3365 43.0641 89.6309 42.7474 90.2197 42.7474H91.5899C92.2161 42.7474 92.5319 43.0641 92.5319 43.7029V46.9899ZM102.958 48H101.181C100.304 48 99.8647 47.5141 99.8647 46.5476V44.1233C99.8647 43.2115 100.341 42.7529 101.288 42.7529H102.958V43.6319H101.149C100.844 43.6319 100.694 43.7903 100.694 44.1124V46.6132C100.694 46.9517 100.823 47.121 101.085 47.121H102.113V45.8051H101.069V44.9205H102.958V48ZM113.417 42.7529L112.127 45.6576V48H111.292V45.6467L110.05 42.7529H110.933L111.699 44.6475L111.71 44.6803L111.715 44.6694L112.534 42.7529H113.417Z" fill="#373435"/>
</svg>
