<svg width="80" height="64" viewBox="0 0 80 64" fill="none" xmlns="http://www.w3.org/2000/svg">
<path d="M37.4682 6.17004C42.248 3.59887 48.2613 8.41981 47.3362 13.8835C46.8736 19.3473 39.9352 22.2399 35.9263 18.7045C31.7633 15.6512 32.6884 8.09842 37.4682 6.17004Z" fill="#F2C604"/>
<path d="M42.5552 49.88C44.7138 48.1124 48.1059 50.2014 47.7975 52.9333C47.7975 55.6652 44.4054 56.9508 42.5552 55.5045C40.7049 54.2189 40.7049 51.1656 42.5552 49.88Z" fill="#F2C604"/>
<path d="M75.2427 48.112C73.855 49.3976 71.6964 46.6657 74.0092 46.1836C74.3176 46.3443 74.9343 46.3443 75.2427 46.505C75.2427 46.8264 75.2427 47.6299 75.2427 48.112Z" fill="#F0F0F0"/>
<path d="M67.3792 46.3445C68.6127 45.3804 70.463 47.3087 68.9211 48.1122C67.8418 49.0764 65.9915 47.148 67.3792 46.3445Z" fill="#F0F0F0"/>
<path d="M61.2114 46.5057C62.5991 45.0594 64.6035 47.952 62.2907 48.2734C62.1365 48.2734 61.5198 48.1127 61.2114 48.1127C61.2114 47.6306 61.2114 46.8271 61.2114 46.5057Z" fill="#F0F0F0"/>
<path d="M28.471 14.6872C27.3995 7.77716 32.91 0.706438 39.492 0.706438C45.9209 0.224344 51.8906 6.17017 51.5845 12.9195C51.7376 19.3474 46.5332 24.4898 40.7165 25.1326C40.7165 27.7037 40.7165 30.1142 40.7165 32.5247C49.5946 32.5247 58.4726 32.5247 67.1976 32.5247C67.3507 35.7386 67.3507 38.7919 67.3507 41.8452C71.3305 42.1666 75.6164 41.5238 79.5963 42.1666C80.3616 46.8268 79.7493 51.6478 79.9024 56.4687C79.7493 58.7185 80.5147 61.2896 79.2901 63.3787C75.6164 63.7001 71.9428 63.7001 68.2691 63.3787C68.116 63.0573 67.6568 62.4145 67.3507 62.0931C71.0244 61.611 74.698 61.7717 78.2186 61.7717C78.2186 55.8259 78.2186 49.7194 78.2186 43.6128C71.1774 43.6128 64.1362 43.6128 57.095 43.6128C57.095 49.7194 57.095 55.8259 57.095 61.7717C58.9318 61.7717 60.7687 61.7717 62.6055 61.7717V63.5394C60.4625 63.5394 58.1665 63.7001 56.0235 63.3787C55.1051 62.2538 55.4112 60.4861 55.4112 59.0399C55.4112 53.5761 55.1051 48.1124 55.5643 42.6487C58.6257 41.0417 62.6055 42.3273 66.1261 41.8452C66.1261 39.4347 65.9731 36.8635 66.1261 34.2924C57.5542 34.2924 49.1354 34.2924 40.7165 34.2924C40.7165 36.8635 40.7165 39.4347 40.7165 41.8452C44.5433 42.1666 48.5231 41.2024 52.1968 42.488C52.5029 47.4696 52.1968 52.4512 52.3498 57.4329C52.1968 59.3613 52.5029 61.2896 51.8906 63.218C44.0841 63.7001 35.9714 63.8608 28.0118 63.218C27.2464 59.6827 27.7056 56.1473 27.8587 52.6119C28.1648 52.9333 28.9302 53.4154 29.2363 53.7368C29.5425 56.308 29.3894 59.0399 29.3894 61.7717C36.4306 61.7717 43.4718 61.7717 50.6661 61.7717C50.6661 55.8259 50.6661 49.7194 50.6661 43.6128C43.4718 43.6128 36.4306 43.6128 29.3894 43.6128C29.2363 45.3805 30.0017 47.6303 27.8587 48.2731C27.8587 46.3447 27.2464 43.9342 28.3179 42.0059C31.9916 41.6845 35.8183 42.0059 39.492 41.8452C39.492 39.4347 39.492 36.8635 39.492 34.2924C30.9201 34.2924 22.3482 34.2924 13.7763 34.2924C13.7763 36.8635 13.7763 39.4347 13.7763 41.8452C17.2969 42.3273 21.2767 41.0417 24.4912 42.488C24.7973 48.9159 24.4912 55.3438 24.4912 61.7717C24.7973 63.218 23.2666 63.7001 22.1951 63.5394C15.7662 63.5394 9.33725 63.5394 3.06139 63.5394C1.98991 63.3787 0.15307 63.8608 0.15307 62.2538C-0.15307 56.6294 0.15307 50.8443 0 45.0591C0.15307 44.0949 -0.306139 41.8452 1.37763 42.0059C5.0513 41.8452 8.5719 42.0059 12.0925 41.8452C12.0925 38.7919 12.0925 35.7386 12.2456 32.5247C21.2767 32.5247 30.4609 32.5247 39.492 32.5247C39.492 30.1142 39.492 27.7037 39.492 25.2933C34.1345 24.6505 29.0832 20.4723 28.471 14.6872ZM36.5837 3.11691C31.9916 4.88459 28.9302 10.6697 30.4609 15.6514C31.6854 20.4723 36.5837 24.0077 41.3288 23.2042C46.5332 22.5614 50.8191 16.7763 49.7477 11.3125C48.9823 5.04529 42.0942 0.706438 36.5837 3.11691ZM1.68377 43.6128C1.68377 45.0591 1.68377 46.3447 1.68377 47.791C7.04121 47.9517 12.3986 47.4696 17.7561 47.9517C17.7561 48.2731 17.7561 49.0766 17.7561 49.398C12.3986 49.7194 7.04121 49.398 1.68377 49.5587C1.68377 53.5761 1.68377 57.7543 1.68377 61.7717C8.72497 61.7717 15.7662 61.7717 22.9605 61.7717C22.9605 55.8259 22.9605 49.7194 22.9605 43.6128C15.9193 43.6128 8.72497 43.6128 1.68377 43.6128Z" fill="#F0F0F0"/>
<path d="M34.2293 49.7195C36.0796 48.5946 38.7007 49.8802 39.0091 52.13C39.4717 54.5405 37.0047 56.7902 34.6919 55.9867C32.0707 55.3439 31.6081 50.8444 34.2293 49.7195Z" fill="#F2C604"/>
</svg>
