<svg width="1140" height="44" viewBox="0 0 1140 44" fill="none" xmlns="http://www.w3.org/2000/svg">
<path d="M659.177 13.1034C658.335 11.617 658.428 9.6693 659.392 8.2619C659.494 8.74029 659.626 9.21654 659.877 9.64154C661.013 11.6277 662.163 13.6053 663.297 15.5936C663.652 16.2044 663.795 16.9049 663.874 17.6011C665.96 18.2077 668.168 19.1388 669.38 21.0524C670.191 22.2953 670.004 23.9996 669.061 25.1187C667.587 26.919 665.292 27.7797 663.089 28.273C659.664 28.9436 656.01 28.7877 652.751 27.4722C651.164 26.7973 649.546 25.7914 648.823 24.1469C648.265 22.9083 648.635 21.4218 649.518 20.4352C650.816 18.9124 652.734 18.1671 654.587 17.5755C654.608 18.4405 654.763 19.3161 655.199 20.0721C656.31 22.0198 657.437 23.959 658.552 25.9067C658.805 26.3531 658.969 26.8421 659.152 27.3205C659.939 25.896 660.109 24.0765 659.298 22.6242C658.36 20.937 657.356 19.2862 656.429 17.5926C655.635 16.1169 655.844 14.3015 656.665 12.8835C656.837 13.3918 656.99 13.9107 657.261 14.3784C658.586 16.6849 659.915 18.9893 661.242 21.2958C661.496 21.7272 661.632 22.2142 661.768 22.6926C662.644 21.3001 662.78 19.4528 661.978 17.9962C661.059 16.3561 660.096 14.7415 659.177 13.1034Z" fill="#372E38"/>
<path d="M674.419 15.7324C675.011 14.5706 676.308 13.9897 677.54 13.8232C679.22 13.6288 680.947 13.7698 682.553 14.3144C682.472 15.002 682.341 15.6855 682.151 16.3518C680.594 15.8584 678.842 15.4591 677.259 16.04C676.072 16.4799 676.006 18.2354 677.014 18.9103C678.616 20.0935 680.775 20.3519 682.192 21.8298C683.851 23.4742 683.366 26.714 681.179 27.6601C678.897 28.6639 676.17 28.4631 673.892 27.5341C673.937 26.8315 674.066 26.1395 674.275 25.4668C675.67 26.1117 677.242 26.3744 678.771 26.2292C679.492 26.1502 680.29 25.9046 680.677 25.2383C681.054 24.5015 680.813 23.5212 680.148 23.0321C678.637 21.8725 676.61 21.6119 675.189 20.307C673.932 19.1922 673.694 17.206 674.419 15.7324Z" fill="#372E38"/>
<path d="M707.397 14.1798C708.118 14.0154 708.85 13.9022 709.59 13.8787C709.592 15.1515 709.588 16.4244 709.592 17.6994C710.76 17.693 711.93 17.7015 713.1 17.6887C713.055 18.3315 712.983 18.9722 712.883 19.6087C711.783 19.5894 710.683 19.5873 709.586 19.6023C709.601 21.2061 709.584 22.81 709.592 24.4139C709.586 25.0717 709.754 25.8619 710.42 26.1545C711.268 26.4705 712.209 26.2634 713.049 26.0071C712.957 26.6563 712.896 27.3099 712.738 27.9463C711.468 28.2901 710.022 28.3948 708.822 27.769C707.769 27.2159 707.355 25.958 707.382 24.8325C707.393 21.2809 707.365 17.7314 707.397 14.1798Z" fill="#372E38"/>
<path d="M743.363 14.1734C744.076 13.9833 744.81 13.8851 745.548 13.883C745.544 18.5793 745.548 23.2756 745.546 27.974C744.876 27.9634 744.204 27.9655 743.534 27.9911C743.497 27.5747 743.468 27.1561 743.451 26.7396C742.062 28.886 738.603 28.5998 737.189 26.635C736.151 25.2041 735.987 23.3119 736.231 21.6055C736.421 20.2451 737.112 18.8975 738.316 18.1799C739.815 17.2829 741.672 17.1954 743.355 17.5157C743.365 16.4009 743.353 15.2882 743.363 14.1734ZM739.815 19.6962C738.729 20.3412 738.373 21.708 738.401 22.8997C738.38 24.0444 738.671 25.3728 739.705 26.0199C740.849 26.6991 742.347 26.4193 743.368 25.6355C743.344 23.5703 743.37 21.5051 743.355 19.4399C742.185 19.2435 740.887 19.0534 739.815 19.6962Z" fill="#372E38"/>
<path d="M687.952 17.6332C689.909 17.1313 692.019 17.3 693.933 17.9151C693.927 21.2702 693.937 24.6253 693.927 27.9805C693.248 27.9612 692.567 27.9634 691.889 27.989C691.851 27.5896 691.821 27.1903 691.791 26.7909C690.494 28.7941 687.324 28.5934 685.833 26.9318C684.468 25.3728 684.355 23.1069 684.71 21.1549C685.027 19.4869 686.301 18.056 687.952 17.6332ZM688.058 19.8372C687.031 20.5654 686.756 21.9301 686.79 23.1176C686.833 24.1726 687.109 25.3707 688.05 25.9857C689.175 26.6926 690.687 26.447 691.714 25.6718C691.691 23.5682 691.719 21.4646 691.702 19.3609C690.485 19.2093 689.113 19.0854 688.058 19.8372Z" fill="#372E38"/>
<path d="M696.319 17.9001C698.104 17.5136 699.948 17.1804 701.778 17.441C702.764 17.5648 703.807 17.898 704.462 18.6946C705.085 19.4464 705.208 20.4672 705.211 21.4133C705.206 23.6023 705.211 25.7914 705.206 27.9783C704.462 27.9634 703.715 27.9634 702.971 27.9805C702.964 25.785 702.973 23.5895 702.969 21.3962C702.981 20.7 702.754 19.9012 702.08 19.5788C700.961 19.0705 699.691 19.2541 698.517 19.4165C698.519 22.2697 698.525 25.1251 698.512 27.9805C697.783 27.9634 697.053 27.9612 696.326 27.9933C696.3 24.6296 696.313 21.2638 696.319 17.9001Z" fill="#372E38"/>
<path d="M717.267 17.5969C719.194 17.1527 721.255 17.3064 723.131 17.9172C723.108 21.2745 723.142 24.6317 723.114 27.989C722.433 27.9655 721.755 27.9634 721.074 27.974C721.038 27.5768 721.004 27.1796 720.951 26.7845C719.855 28.6126 717.15 28.5763 715.576 27.4273C713.738 26.0092 713.5 23.3888 713.887 21.2553C714.178 19.4997 715.533 17.9984 717.267 17.5969ZM717.228 19.8521C716.22 20.5825 715.961 21.9344 715.982 23.1069C716.033 24.1512 716.288 25.3472 717.213 25.9665C718.311 26.667 719.881 26.5026 720.857 25.6654C720.942 23.5703 720.921 21.4539 720.87 19.3524C719.651 19.2157 718.279 19.0876 717.228 19.8521Z" fill="#372E38"/>
<path d="M725.503 17.9151C727.736 17.4068 730.157 16.9968 732.373 17.7891C733.611 18.2119 734.37 19.4891 734.377 20.7705C734.391 23.1752 734.387 25.5821 734.377 27.989C733.645 27.9634 732.913 27.9655 732.181 27.974C732.177 25.8555 732.186 23.7369 732.179 21.6183C732.184 20.8495 732.022 19.9034 731.235 19.5595C730.133 19.0769 728.891 19.2627 727.736 19.4036C727.719 22.259 727.736 25.1165 727.727 27.974C726.987 27.9655 726.247 27.9655 725.509 27.9826C725.5 24.6253 725.511 21.2702 725.503 17.9151Z" fill="#372E38"/>
<path d="M748.449 18.9487C749.602 17.4666 751.68 17.1313 753.429 17.4602C754.696 17.6738 755.838 18.5366 756.334 19.7347C756.891 20.9648 756.764 22.3466 756.674 23.6557C754.316 23.7134 751.952 23.66 749.591 23.6814C749.762 24.7471 750.391 25.8192 751.484 26.1203C753.135 26.5538 754.903 26.2014 756.445 25.5394C756.319 26.2164 756.206 26.8955 756.085 27.5725C754.464 28.3029 752.595 28.3777 750.878 27.9911C749.232 27.6259 747.902 26.2548 747.558 24.6018C747.154 22.7139 747.249 20.5398 748.449 18.9487ZM750.757 19.5446C749.953 20.0038 749.687 20.9627 749.545 21.8148C751.214 21.8063 752.884 21.8127 754.554 21.8105C754.464 21.1869 754.403 20.5078 753.975 20.0102C753.216 19.0769 751.763 18.9936 750.757 19.5446Z" fill="#372E38"/>
<path d="M758.644 17.9001C760.497 17.3577 762.458 17.2317 764.374 17.4388C764.342 18.0795 764.276 18.7181 764.157 19.3502C763.053 19.2072 761.935 19.205 760.837 19.3887C760.854 22.2526 760.852 25.1165 760.839 27.9805C760.11 27.9634 759.38 27.9612 758.65 27.989C758.629 24.6275 758.644 21.2638 758.644 17.9001Z" fill="#372E38"/>
<path d="M1099.49 5.25884C1101.24 4.77898 1103.21 6.17752 1103.23 8.03273C1103.43 9.77378 1101.84 11.3846 1100.14 11.3043C1098.61 11.2758 1097.22 9.93433 1097.2 8.37524C1097.09 6.95707 1098.13 5.58171 1099.49 5.25884Z" fill="#372E38"/>
<path d="M1107.99 12.9776C1108.68 12.6886 1109.32 13.1774 1109.62 13.7785C1111.08 16.3152 1112.47 18.8929 1113.86 21.4634C1113.91 21.6257 1114.02 21.7042 1114.18 21.7007C1115.5 19.1016 1116.78 16.4847 1118.12 13.8945C1118.37 13.3468 1118.92 12.8884 1119.55 12.9669C1120.24 13.0668 1120.82 13.4949 1121.43 13.8035C1122.04 14.1514 1122.81 14.4742 1122.98 15.2342C1123.21 15.9923 1122.77 16.7023 1122.4 17.3249C1120.64 20.3735 1118.94 23.456 1117.16 26.4975C1116.6 27.4697 1115.85 28.4865 1114.7 28.7647C1113.8 28.911 1112.81 28.8218 1112.05 28.2706C1111.42 27.8139 1111.05 27.1147 1110.68 26.4511C1108.92 23.2294 1107.15 20.0185 1105.39 16.7968C1105.16 16.3295 1104.9 15.8086 1105.03 15.2681C1105.21 14.6794 1105.76 14.3476 1106.23 14.0176C1106.8 13.6448 1107.35 13.2095 1107.99 12.9776Z" fill="#372E38"/>
<path d="M1078.92 13.709C1079.46 13.37 1080.03 12.9383 1080.7 12.974C1081.39 13.1096 1081.69 13.8249 1082.03 14.3672C1083.43 16.8932 1084.83 19.4173 1086.19 21.9629C1087.51 19.3513 1088.83 16.7451 1090.13 14.13C1090.36 13.6894 1090.65 13.2041 1091.17 13.1007C1091.93 12.908 1092.61 13.4022 1093.25 13.7322C1093.76 14.0301 1094.34 14.262 1094.76 14.7026C1095.28 15.2591 1095.23 16.1564 1094.85 16.779C1092.98 20.0595 1091.14 23.3579 1089.24 26.6241C1088.68 27.5553 1087.97 28.5667 1086.86 28.8183C1085.97 28.9253 1084.98 28.9396 1084.21 28.3955C1083.5 27.9049 1083.11 27.0986 1082.69 26.3654C1080.96 23.1848 1079.21 20.0096 1077.47 16.8307C1077.17 16.2688 1076.98 15.5232 1077.33 14.9416C1077.75 14.3993 1078.37 14.0943 1078.92 13.709Z" fill="#372E38"/>
<path d="M1098.62 13.5127C1099.36 13.4628 1100.1 13.5038 1100.84 13.4878C1101.37 13.5003 1101.95 13.445 1102.42 13.7322C1102.82 14.0015 1102.86 14.5349 1102.85 14.9773C1102.84 19.1444 1102.85 23.3097 1102.85 27.4768C1102.88 28.069 1102.62 28.8058 1101.99 28.9503C1101.14 29.0448 1100.28 28.9663 1099.42 28.9949C1098.86 28.9717 1098.17 29.1001 1097.75 28.622C1097.42 28.1993 1097.41 27.6284 1097.41 27.1164C1097.43 23.0689 1097.4 19.0213 1097.43 14.9755C1097.38 14.2566 1097.85 13.5056 1098.62 13.5127Z" fill="#372E38"/>
<path d="M1130.38 13.4949C1132.82 12.9936 1135.46 13.725 1137.34 15.3662C1139 16.8129 1140.06 18.9945 1140 21.2244C1140.07 23.0368 1139.37 24.8242 1138.24 26.2085C1136.66 28.1261 1134.18 29.2535 1131.72 29.1572C1129.17 29.1251 1126.65 27.7979 1125.21 25.6662C1124.28 24.3229 1123.76 22.6818 1123.85 21.0406C1123.84 17.3641 1126.84 14.0907 1130.38 13.4949ZM1130.91 18.2721C1129.89 18.6021 1129.02 19.4762 1128.79 20.5519C1128.71 21.26 1128.69 22.0289 1129.05 22.6693C1129.67 23.8787 1131.1 24.5994 1132.43 24.3425C1133.95 24.1089 1135.21 22.6247 1135.04 21.0478C1135.01 19.0481 1132.74 17.5924 1130.91 18.2721Z" fill="#372E38"/>
<path d="M281.017 13.4519C282.695 13.3746 284.659 13.3772 285.836 14.7791C288.797 18.6393 291.792 22.4764 294.741 26.3469C294.632 22.0486 294.72 17.7477 294.697 13.4494C295.673 13.4545 296.653 13.4545 297.629 13.4545C297.627 18.9949 297.629 24.5379 297.629 30.0809C296.458 30.0757 295.286 30.0886 294.115 30.068C290.735 25.5945 287.293 21.1673 283.874 16.7221C283.872 21.175 283.877 25.628 283.872 30.0809C282.884 30.0783 281.895 30.0783 280.905 30.0861C280.897 24.5405 280.993 18.9949 281.017 13.4519Z" fill="#372E38"/>
<path d="M301.105 13.4519C311.086 13.4545 321.064 13.4545 331.045 13.4519C331.047 14.4389 331.047 15.4259 331.04 16.4128C330.995 16.4103 330.904 16.3999 330.86 16.3974C330.528 16.3613 330.195 16.3355 329.863 16.3252C321.716 16.3458 313.569 16.3278 305.425 16.3355C304.012 16.3536 302.599 16.2685 301.188 16.3793L301.098 16.3845C301.113 15.4078 301.105 14.4312 301.105 13.4519Z" fill="#372E38"/>
<path d="M334.513 13.4468C340.062 13.4597 345.608 13.4545 351.157 13.4494C351.157 14.3693 351.157 15.2893 351.157 16.2093C348.881 16.2015 346.608 16.2067 344.335 16.2067C344.338 20.0798 344.338 23.9529 344.335 27.8287C344.34 28.6069 344.117 29.4882 343.408 29.9263C342.779 30.2871 342.005 30.2767 341.316 30.1273C341.34 25.4862 341.316 20.8452 341.327 16.2067C339.051 16.2196 336.775 16.1758 334.502 16.2659C334.505 15.3254 334.5 14.3874 334.513 13.4468Z" fill="#372E38"/>
<path d="M301.108 20.3452C311.086 20.3478 321.067 20.3452 331.047 20.3452C331.045 21.3219 331.047 22.2986 331.042 23.2778C321.064 23.2752 311.089 23.2726 301.111 23.2778C301.105 22.3011 301.108 21.3219 301.108 20.3452Z" fill="#372E38"/>
<path d="M301.173 27.2385C301.903 27.2746 302.635 27.2952 303.368 27.2901C312.567 27.2592 321.768 27.3158 330.967 27.2643L331.089 27.2617C331.081 28.2152 331.081 29.1687 331.089 30.1247C321.108 30.1247 311.13 30.1247 301.152 30.1247C301.155 29.1635 301.139 28.1997 301.173 27.2385Z" fill="#372E38"/>
<path d="M816.502 4.93275C818.316 2.81322 820.564 0.855562 823.343 0.195097C825.626 -0.374716 828.099 0.339709 829.854 1.86784C833.015 4.60683 834.567 8.69481 835.437 12.6792C831.469 14.7836 828.646 18.5262 826.774 22.5214C826.086 24.0366 825.5 25.6489 825.461 27.3324C825.435 28.2735 825.755 29.2383 826.501 29.8513C823.725 30.1383 820.956 30.5679 818.16 30.6391C816.279 30.6218 814.245 30.5074 812.654 29.3894C811.262 28.4224 810.581 26.754 810.319 25.1352C809.837 22.0358 810.241 18.8629 811.013 15.8434C812.066 11.8871 813.828 8.0624 816.502 4.93275Z" fill="#372E38"/>
<path d="M829.636 33.9781C829.986 33.991 830.339 34.004 830.689 34.0277C830.624 34.2587 830.682 34.468 830.862 34.6515L830.901 34.7184C830.981 35.5537 831.149 36.3761 831.35 37.1919L831.346 37.3214C831.292 37.6042 831.376 37.8783 831.506 38.1287L831.539 38.3941C831.528 38.6791 831.588 38.9618 831.724 39.2143C831.934 39.6266 831.949 40.095 831.99 40.5482C831.582 40.5547 830.743 40.695 830.95 39.9957C830.996 39.6417 830.946 39.2791 830.773 38.964C830.726 38.8625 830.635 38.6575 830.589 38.556C829.846 38.5344 829.104 38.5366 828.36 38.5344C828.287 38.6769 828.138 38.964 828.062 39.1086C828.058 39.1172 828.049 39.1345 828.045 39.1431C827.939 39.3481 827.829 39.5532 827.716 39.7582C827.569 40.0108 827.422 40.2611 827.273 40.5115C827.009 40.4986 826.745 40.4835 826.482 40.464L826.434 40.2331C826.644 39.769 826.888 39.3201 827.119 38.8668C827.124 38.856 827.137 38.8345 827.141 38.8237L827.327 38.4589C827.331 38.4481 827.342 38.4287 827.346 38.42L827.541 38.0337C827.548 38.0229 827.558 38.0013 827.563 37.9905L827.762 37.5999C827.768 37.5891 827.781 37.5632 827.788 37.5524L827.984 37.1639C827.991 37.1509 828.004 37.1272 828.008 37.1142L828.2 36.7344C828.207 36.7257 828.216 36.7063 828.222 36.6955L828.417 36.3113C828.421 36.3005 828.432 36.2811 828.438 36.2703L828.637 35.8796C828.644 35.8667 828.657 35.8451 828.661 35.8321L828.86 35.4415C828.864 35.4307 828.875 35.4091 828.879 35.4005L829.078 35.0076C829.083 34.999 829.091 34.9796 829.096 34.9709L829.292 34.5954C829.299 34.5846 829.31 34.563 829.314 34.5544C829.394 34.4098 829.556 34.1227 829.636 33.9781ZM829.647 35.9444C829.545 36.1278 829.448 36.3135 829.353 36.5012C829.346 36.5142 829.333 36.5401 829.327 36.5552C829.186 36.8358 829.057 37.1229 828.94 37.4164L828.804 37.2049C828.791 37.3344 828.763 37.5912 828.75 37.7207C829.346 37.7207 829.943 37.7186 830.54 37.7099C830.49 37.3689 830.453 37.0171 830.261 36.7192L830.254 36.6847C830.308 36.1559 830.209 35.6357 830.029 35.1415C829.852 35.3854 829.725 35.653 829.647 35.9444Z" fill="#372E38"/>
<path d="M808.991 36.92C809.407 35.7998 810.924 34.8738 811.93 35.8753L811.981 35.9185C812.381 35.8839 812.779 35.8127 813.171 35.7178C813.132 36.1019 813.069 36.4861 812.976 36.8617C812.697 37.9258 812.483 39.0568 812.738 40.1489C812.76 40.246 812.803 40.4403 812.822 40.5374C812.505 40.5396 812.185 40.5417 811.867 40.5439C811.832 40.2266 811.8 39.9093 811.77 39.5942C811.419 39.9525 811.08 40.3583 810.591 40.5309C809.969 40.8029 809.195 40.5288 808.853 39.9547C808.723 39.128 808.752 38.2884 808.838 37.4596C808.873 37.3322 808.942 37.0797 808.976 36.9545C808.979 36.9459 808.987 36.9286 808.991 36.92ZM810.89 36.4106L810.65 36.3869C810.291 36.3307 810.146 36.484 810.215 36.8487C809.969 37.1682 809.781 37.5524 809.746 37.9582C809.337 38.0423 809.337 39.0654 809.748 39.1539L809.774 39.4086C809.61 40.0475 810.875 40.123 810.844 39.5014C811.095 39.2143 811.411 38.9035 811.452 38.5107L811.646 38.5042L811.767 38.31L811.692 38.1308L811.698 37.902L811.889 37.8394L811.953 37.6128L811.828 37.4596C811.858 37.3603 811.917 37.1639 811.947 37.0646C812.388 37.0452 812.055 36.2271 811.703 36.3717L811.428 36.4041C811.553 36.0221 810.743 36.035 810.89 36.4106Z" fill="#372E38"/>
<path d="M848.322 35.5926C848.637 35.4846 849.022 35.3573 849.347 35.5062C849.608 35.6465 849.868 35.7955 850.125 35.9487C850.546 35.858 850.966 35.7631 851.383 35.6552C851.333 35.7803 851.234 36.0307 851.184 36.1581C851.029 36.4797 850.979 36.8401 851.007 37.1962C850.942 38.3057 850.776 39.4194 850.933 40.5331C850.622 40.5288 850.313 40.5266 850.002 40.5223C849.974 40.2266 849.945 39.9331 849.919 39.6374C849.621 39.905 849.329 40.1791 848.994 40.4036C848.988 40.4058 848.977 40.4144 848.97 40.4165C848.333 40.8245 847.427 40.641 847.025 39.9978C847.02 39.9913 847.012 39.9784 847.007 39.9719L846.923 39.8252C846.869 39.0525 846.865 38.2798 846.908 37.507L846.973 37.4509C847.016 37.3452 847.1 37.1358 847.144 37.03L847.213 36.7516C847.215 36.743 847.221 36.73 847.226 36.7214C847.483 36.2725 847.822 35.8494 848.292 35.6077C848.3 35.6034 848.315 35.5969 848.322 35.5926ZM848.633 36.5466C848.38 36.7732 848.186 37.0559 848.019 37.3516C847.675 37.8481 847.582 38.4977 847.766 39.0719C847.954 39.4539 848.341 39.9762 848.808 39.6158C849.195 39.7 849.347 39.5489 849.267 39.1625C849.481 38.8496 849.749 38.4999 849.74 38.1092L849.93 38.0747L850.021 37.861L849.915 37.6927C850.019 37.3344 850.079 36.9653 850.149 36.5984C850.034 36.5444 849.803 36.4343 849.688 36.3804C849.66 35.8839 848.609 36.1214 848.633 36.5466Z" fill="#372E38"/>
<path d="M836.256 12.9943C838.029 12.1676 840.078 11.8698 841.981 12.4137C844.958 13.2101 847.23 15.5649 848.802 18.114C850.436 20.8271 851.53 23.9308 851.623 27.1144C851.679 28.2131 851.359 29.5361 850.255 30.0218C848.845 30.6197 847.271 30.3024 845.816 30.0736C840.69 29.193 835.465 29.0764 830.285 29.4455C832.853 28.1483 834.803 25.7935 835.737 23.0891C836.87 19.8623 836.889 16.329 836.256 12.9943Z" fill="#372E38"/>
<path d="M828.466 20.5659C830.246 17.6499 832.531 14.9131 835.566 13.2447C836.239 16.806 836.215 20.6415 834.747 24.0085C833.569 26.5403 831.469 28.88 828.661 29.5426C827.989 29.657 827.111 29.8966 826.601 29.2944C825.995 28.5908 826.034 27.585 826.099 26.7173C826.369 24.5114 827.351 22.4653 828.466 20.5659Z" fill="#372E38"/>
<path d="M810.663 33.8335C810.758 33.8378 810.946 33.8443 811.039 33.8486C810.935 33.8918 810.73 33.9781 810.626 34.0191L810.663 33.8335Z" fill="#372E38"/>
<path d="M811.039 33.8486C811.091 33.8421 811.197 33.8313 811.249 33.8249C811.692 34.1723 812.219 34.3472 812.695 33.95L813.093 34.0493L812.924 34.1745C812.697 34.2889 812.57 34.4659 812.544 34.7055L812.347 34.6882C812.074 34.658 811.804 34.6494 811.532 34.658C811.396 34.6191 811.123 34.5457 810.987 34.5069C810.881 34.5868 810.667 34.7443 810.561 34.8242C810.451 34.7292 810.23 34.5393 810.12 34.4465C810.215 34.3321 810.408 34.1054 810.503 33.991L810.626 34.0191C810.73 33.9781 810.935 33.8918 811.039 33.8486Z" fill="#372E38"/>
<path d="M811.249 33.8249C811.532 33.9177 811.817 34.0105 812.1 34.1054C812.334 33.8982 812.606 33.8011 812.918 33.8141L812.695 33.95C812.219 34.3472 811.692 34.1723 811.249 33.8249Z" fill="#372E38"/>
<path d="M839.786 34.1853C839.814 33.8011 840.005 33.6954 840.353 33.8637C840.204 34.0407 840.016 34.1486 839.786 34.1853Z" fill="#372E38"/>
<path d="M840.353 33.8637C840.428 33.7925 840.58 33.65 840.655 33.581C840.735 33.6975 840.893 33.9328 840.973 34.0493C840.79 34.2457 840.61 34.4465 840.431 34.6472C840.195 34.7724 839.953 34.876 839.7 34.9602C839.629 34.9256 839.488 34.8566 839.419 34.822C839.283 34.5954 839.348 34.4011 839.616 34.2349L839.786 34.1853C840.016 34.1486 840.204 34.0407 840.353 33.8637Z" fill="#372E38"/>
<path d="M804.527 34.0083C805.318 34.0515 806.164 33.8572 806.92 34.1098C807.033 34.1313 807.26 34.1745 807.374 34.1983L807.681 34.2997C807.69 34.304 807.703 34.3105 807.709 34.3148C807.98 34.481 808.198 34.699 808.362 34.9688C808.367 34.9753 808.373 34.9904 808.377 34.9969C808.788 35.817 808.403 36.8336 807.699 37.3603C806.916 37.9711 805.878 38.0315 804.923 38.0251C804.784 38.8539 804.648 39.6827 804.495 40.5115L804.276 40.4835C804.144 40.4878 803.878 40.4986 803.747 40.505L803.47 40.5612C803.511 40.0302 803.546 39.4906 803.751 38.9942C803.9 38.6683 803.982 38.3164 803.945 37.9603C803.93 37.438 803.989 36.907 804.192 36.4235C804.324 36.1624 804.382 35.871 804.374 35.5796L804.402 35.3249C804.527 34.9947 804.683 34.6386 804.577 34.2781L804.527 34.0083ZM805.666 34.8803L805.444 34.8652C805.446 34.9947 805.45 35.2537 805.452 35.3854C805.031 35.394 805.024 36.1408 805.264 36.389L805.225 36.5142C805.07 36.7214 804.988 36.9567 804.975 37.2178C805.457 37.2157 805.986 37.3214 806.401 37.0106L806.609 36.9351C806.618 36.9286 806.637 36.92 806.646 36.9157L806.881 36.7797C807.238 36.8746 807.409 36.7408 807.389 36.3804L807.357 36.0955C807.714 36.2228 807.738 35.4264 807.377 35.5321L807.42 35.3206C807.312 35.2559 807.091 35.1264 806.981 35.0594C806.918 34.6666 805.766 34.3601 805.666 34.8803Z" fill="#372E38"/>
<path d="M815.263 35.6595C816.253 35.2559 817.633 35.3789 818.085 36.4969C818.087 36.5034 818.093 36.5164 818.098 36.5228C818.331 37.1574 818.348 37.874 818.139 38.5172C818.093 38.6208 817.998 38.828 817.951 38.9316C817.557 40.2525 815.849 41.0921 814.595 40.382C813.625 39.8036 813.512 38.4503 813.871 37.4833C813.923 37.384 814.029 37.1833 814.083 37.0818C814.109 36.7495 814.394 36.512 814.548 36.2314L814.736 36.2077C814.995 36.1926 815.155 36.0566 815.218 35.8041L815.263 35.6595ZM815.577 36.5595C815.384 36.743 815.216 36.9437 815.069 37.1639C815.064 37.1703 815.056 37.1833 815.054 37.1898C814.658 37.8891 814.684 38.7201 814.922 39.4669C815.192 39.6417 815.447 39.946 815.81 39.8597C816.346 39.8079 816.684 39.3093 816.937 38.8863C817.002 38.7762 817.053 38.6596 817.094 38.5409C817.471 37.8999 817.406 37.0495 816.917 36.4883C816.848 36.4559 816.714 36.389 816.647 36.3545C816.589 35.8861 815.538 36.1149 815.577 36.5595Z" fill="#372E38"/>
<path d="M833.104 36.7818C833.532 35.6983 834.924 35.2774 835.999 35.517C836.414 35.7696 837.082 36.0415 836.786 36.6588C836.703 36.6782 836.543 36.7171 836.463 36.7387C835.936 36.443 835.341 36.2099 834.751 36.484C834.73 36.4926 834.688 36.512 834.669 36.5207C834.343 36.73 834.062 37.002 833.843 37.3193C833.835 37.3365 833.815 37.3711 833.804 37.3883C833.512 37.9733 833.547 38.6359 833.705 39.251C833.746 39.4928 833.897 39.6309 834.154 39.6676L834.356 39.7367C834.637 39.8877 834.993 39.9395 835.255 39.7151C835.478 39.5575 835.722 39.4669 835.988 39.4388C836.074 39.4172 836.243 39.3697 836.329 39.346C836.345 39.5359 836.379 39.9158 836.396 40.1057C836.262 40.1424 835.996 40.2115 835.862 40.246C835.767 40.3086 835.577 40.4317 835.482 40.4921L835.231 40.5245C835.121 40.5482 834.903 40.5979 834.794 40.6238C834.442 40.9518 834.062 41.526 833.497 41.308C833.391 41.2605 833.177 41.1677 833.071 41.1202C833.147 41.0425 833.303 40.8849 833.381 40.8051C833.389 40.8007 833.409 40.7878 833.417 40.7813C833.534 40.7187 833.765 40.5935 833.882 40.5309C833.422 40.3151 832.937 40.0604 832.736 39.5597C832.734 39.5532 832.728 39.5381 832.723 39.5316C832.518 38.9273 832.418 38.1805 832.717 37.5955C832.914 37.3603 833.05 37.0818 833.104 36.7818Z" fill="#372E38"/>
<path d="M844.337 35.571C844.841 35.34 845.425 35.4803 845.937 35.6098C845.948 35.612 845.97 35.6185 845.98 35.6228L846.274 35.735C846.378 36.0005 846.467 36.2703 846.538 36.5466C846.441 36.5897 846.251 36.6782 846.156 36.7214C845.52 36.3027 844.793 36.3199 844.102 36.5725C843.857 36.607 843.708 36.7451 843.654 36.989C843.209 37.8761 842.967 39.21 844.067 39.7259C844.316 39.9611 844.707 39.9072 844.964 39.7151C845.206 39.5813 845.449 39.4496 845.693 39.3179C845.749 39.6093 845.823 39.8964 845.89 40.1856L845.589 40.2611C845.487 40.313 845.284 40.4165 845.18 40.4683C844.231 40.8461 842.897 40.5676 842.439 39.5748C842.154 38.9186 842.165 38.133 842.402 37.4639C842.456 37.3668 842.569 37.1703 842.625 37.0732C842.66 36.7149 842.936 36.3458 843.274 36.212C843.542 36.1581 843.708 36.007 843.775 35.7609L843.931 35.7739C844.032 35.7242 844.236 35.6206 844.337 35.571Z" fill="#372E38"/>
<path d="M806.92 34.1098L807.061 33.9716L807.292 34.0169L807.374 34.1983C807.26 34.1745 807.033 34.1313 806.92 34.1098Z" fill="#372E38"/>
<path d="M830.689 34.0277C831.02 34.1421 831.076 34.3493 830.862 34.6515C830.682 34.468 830.624 34.2587 830.689 34.0277Z" fill="#372E38"/>
<path d="M840.973 34.0493C841.477 34.1551 840.751 34.9731 840.431 34.6472C840.61 34.4465 840.79 34.2457 840.973 34.0493Z" fill="#372E38"/>
<path d="M804.402 35.3249C804.207 35.0551 804.188 34.3321 804.577 34.2781C804.683 34.6386 804.527 34.9947 804.402 35.3249Z" fill="#372E38"/>
<path d="M812.924 34.1745C812.697 34.2889 812.57 34.4659 812.544 34.7055C812.905 34.7012 813.03 34.5242 812.924 34.1745Z" fill="#372E38"/>
<path d="M838.855 34.7314C839.11 34.5695 839.365 34.4033 839.616 34.2349C839.348 34.4011 839.283 34.5954 839.419 34.822C839.488 34.8566 839.629 34.9256 839.7 34.9602C839.499 35.0379 839.298 35.1156 839.097 35.1933C839.036 35.0767 838.915 34.8458 838.855 34.7314Z" fill="#372E38"/>
<path d="M809.999 34.4745L810.12 34.4465C810.23 34.5393 810.451 34.7292 810.561 34.8242L810.55 34.945C810.291 35.1134 809.869 34.7551 809.999 34.4745Z" fill="#372E38"/>
<path d="M806.981 35.0594C806.918 34.6666 805.766 34.3601 805.666 34.8803C806.107 34.9191 806.551 34.958 806.981 35.0594Z" fill="#372E38"/>
<path d="M812.347 34.6882C812.074 34.658 811.804 34.6494 811.532 34.658C811.473 35.0314 812.371 35.0551 812.347 34.6882Z" fill="#372E38"/>
<path d="M830.901 34.7184C831.193 35.5062 831.34 36.3502 831.35 37.1919C831.149 36.3761 830.981 35.5537 830.901 34.7184Z" fill="#372E38"/>
<path d="M805.452 35.3854C805.031 35.394 805.024 36.1408 805.264 36.389C805.394 36.0696 805.489 35.7307 805.452 35.3854Z" fill="#372E38"/>
<path d="M829.647 35.9444C829.725 35.653 829.852 35.3854 830.029 35.1415C830.209 35.6357 830.308 36.1559 830.254 36.6847C830.17 36.2336 830.084 35.7825 830.006 35.3292C829.915 35.4825 829.735 35.789 829.647 35.9444Z" fill="#372E38"/>
<path d="M804.192 36.4235C803.945 36.2207 803.982 35.5537 804.374 35.5796C804.382 35.871 804.324 36.1624 804.192 36.4235Z" fill="#372E38"/>
<path d="M807.357 36.0955C807.714 36.2228 807.738 35.4264 807.377 35.5321C807.372 35.6724 807.361 35.9552 807.357 36.0955Z" fill="#372E38"/>
<path d="M811.93 35.8753C812.109 35.4652 812.978 35.3141 813.171 35.7178C812.779 35.8127 812.381 35.8839 811.981 35.9185L811.93 35.8753Z" fill="#372E38"/>
<path d="M821.851 35.6573C822.024 35.6185 822.372 35.5429 822.545 35.5041C822.672 36.0933 822.445 36.6933 822.268 37.2502C822.329 36.7581 822.396 36.2681 822.469 35.7782C822.391 35.7674 822.233 35.7415 822.156 35.7307L821.851 35.6573Z" fill="#372E38"/>
<path d="M835.999 35.517C836.358 35.64 836.71 35.7933 837.041 35.9832C836.956 36.4279 836.831 37.1077 836.208 36.8034L836.463 36.7387C836.543 36.7171 836.703 36.6782 836.786 36.6588C837.082 36.0415 836.414 35.7696 835.999 35.517Z" fill="#372E38"/>
<path d="M843.961 35.5775L844.169 35.476L844.337 35.571C844.236 35.6206 844.032 35.7242 843.931 35.7739L843.961 35.5775Z" fill="#372E38"/>
<path d="M849.347 35.5062C849.731 35.5883 850.149 35.8688 850.525 35.5947C850.802 35.4458 851.106 35.5753 851.383 35.6552C850.966 35.7631 850.546 35.858 850.125 35.9487C849.868 35.7955 849.608 35.6465 849.347 35.5062Z" fill="#372E38"/>
<path d="M852.557 35.571C852.903 35.5926 853.251 35.6185 853.597 35.6508C853.526 35.9185 853.385 36.4559 853.316 36.7257C853.707 36.3243 854.083 35.8839 854.604 35.6444C854.611 35.6422 854.626 35.6357 854.633 35.6336C854.965 35.5019 855.309 35.4523 855.668 35.4803L855.497 35.7696C855.327 35.9379 855.259 36.1365 855.29 36.361C855.164 36.3653 854.914 36.3739 854.788 36.3782C854.291 36.389 853.967 36.8531 853.815 37.2804C853.69 37.5632 853.575 37.8589 853.381 38.1071C853.331 38.2107 853.234 38.4157 853.184 38.5193L853.169 38.746C853.121 38.8496 853.028 39.0568 852.981 39.1604C852.983 39.6244 852.86 40.0798 852.773 40.5353C852.449 40.5417 852.127 40.5482 851.805 40.5547C851.963 38.8819 852.285 37.2265 852.557 35.571Z" fill="#372E38"/>
<path d="M814.736 36.2077C814.716 35.8688 814.876 35.735 815.218 35.8041C815.155 36.0566 814.995 36.1926 814.736 36.2077Z" fill="#372E38"/>
<path d="M821.706 36.6372C821.488 36.3912 821.539 35.8041 821.896 35.7221C821.948 36.0394 821.834 36.3523 821.706 36.6372Z" fill="#372E38"/>
<path d="M821.896 35.7221L822.156 35.7307C822.233 35.7415 822.391 35.7674 822.469 35.7782C822.396 36.2681 822.329 36.7581 822.268 37.2502C822.115 38.3423 821.853 39.4302 821.978 40.5417C821.717 40.5374 821.453 40.5331 821.191 40.5288L821.245 40.2698C821.289 40.1489 821.369 39.6957 821.105 39.8467C820.867 40.0108 820.683 40.2374 820.48 40.4403C820.009 40.8784 819.248 40.4511 819.025 39.9331C819.006 39.223 819.053 38.5085 819.233 37.82C819.518 37.3301 819.935 36.8487 820.536 36.7818C820.887 36.7991 821.202 36.9718 821.524 37.0926C821.57 36.9782 821.661 36.7516 821.706 36.6372C821.834 36.3523 821.948 36.0394 821.896 35.7221ZM820.324 37.5955C820.242 37.6991 820.078 37.9042 819.998 38.0078C819.994 38.0143 819.987 38.0272 819.983 38.0337L819.877 38.3294L819.693 38.4006L819.637 38.6294L819.769 38.7762C819.769 38.964 819.769 39.3395 819.769 39.5251C819.773 39.5338 819.777 39.551 819.782 39.5575C819.963 39.987 820.242 40.0453 820.618 39.7345C820.627 39.7259 820.647 39.7086 820.655 39.7021C820.757 39.5489 820.962 39.2424 821.064 39.0891C821.068 39.0784 821.077 39.0611 821.081 39.0503C821.269 38.5992 821.36 38.1157 821.447 37.6366C821.447 37.0646 820.335 37.0193 820.324 37.5955Z" fill="#372E38"/>
<path d="M824.171 36.8746C824.642 36.661 825.269 36.8444 825.617 37.2178C825.66 37.5006 825.697 37.7833 825.742 38.0682L825.77 38.2927C825.533 38.3445 825.366 38.4934 825.271 38.7373C825.076 38.8992 824.852 38.9726 824.599 38.9596C824.309 38.9402 824.024 38.9899 823.753 39.0956C823.632 39.1323 823.39 39.2035 823.267 39.2402L823.33 39.3503C823.528 39.987 824.257 40.2007 824.808 39.8575L824.929 39.8187C825.016 39.7993 825.193 39.7626 825.282 39.7431C825.314 39.8597 825.377 40.0949 825.409 40.2115L825.221 40.2719C824.659 40.4489 824.071 40.5094 823.485 40.5676L823.433 40.4446C823.323 40.1036 823.033 39.8618 822.707 39.7388L822.713 39.6093C822.739 39.1906 822.722 38.7697 822.698 38.3531C822.67 38.1157 822.757 37.9344 822.956 37.8049C823.256 37.615 823.561 37.3927 823.675 37.0408L823.76 37.0581C823.864 37.0106 824.069 36.92 824.171 36.8746ZM823.561 37.9754L823.464 38.215C823.459 38.2258 823.451 38.2495 823.446 38.2603L823.33 38.6294C823.5 38.5949 823.846 38.5301 824.019 38.4956C824.335 38.7157 824.536 38.6488 824.62 38.2992L824.843 38.3294C824.953 38.133 825.059 37.9344 825.163 37.7358C824.832 36.9782 823.745 37.2524 823.561 37.9754Z" fill="#372E38"/>
<path d="M837.802 35.776C838.156 35.6854 838.515 35.6271 838.883 35.6012C838.74 36.3696 838.656 37.1552 838.435 37.9085C838.284 38.4114 838.042 39.0676 838.42 39.5187C838.952 40.082 839.639 39.4151 839.86 38.8906C839.866 38.8819 839.877 38.8625 839.884 38.8539L840.057 38.5862C840.102 38.4805 840.193 38.2711 840.238 38.1654L840.258 37.9128C840.301 37.8114 840.392 37.6042 840.435 37.5006C840.457 37.397 840.498 37.1854 840.519 37.0818C840.547 36.9696 840.604 36.7473 840.632 36.6372C840.662 36.4451 840.72 36.0609 840.748 35.8688C840.753 35.8602 840.764 35.8473 840.768 35.8408C841.086 35.6875 841.423 35.6055 841.784 35.5947C841.544 37.2286 841.144 38.8733 841.367 40.5331C841.062 40.5288 840.757 40.5266 840.454 40.5266C840.416 40.2352 840.377 39.946 840.34 39.659C840.074 39.9244 839.834 40.2288 839.501 40.4187C839.492 40.4209 839.477 40.4295 839.471 40.4338C838.816 40.7662 837.832 40.7274 837.48 39.9827C837.475 39.9762 837.469 39.9611 837.464 39.9547C837.11 38.9381 837.415 37.8157 837.702 36.8207C837.815 36.5746 837.977 36.3005 837.862 36.0264L837.802 35.776Z" fill="#372E38"/>
<path d="M843.274 36.212C843.258 35.871 843.425 35.7199 843.775 35.7609C843.708 36.007 843.542 36.1581 843.274 36.212Z" fill="#372E38"/>
<path d="M846.274 35.735C846.395 35.8149 846.64 35.9746 846.761 36.0545C846.618 36.4775 846.512 37.0646 845.909 36.8336L846.156 36.7214C846.251 36.6782 846.441 36.5897 846.538 36.5466C846.467 36.2703 846.378 36.0005 846.274 35.735Z" fill="#372E38"/>
<path d="M855.497 35.7696C855.327 35.9379 855.259 36.1365 855.29 36.361C855.642 36.2984 855.711 36.1019 855.497 35.7696Z" fill="#372E38"/>
<path d="M837.702 36.8207C837.473 36.6329 837.482 35.9789 837.862 36.0264C837.977 36.3005 837.815 36.5746 837.702 36.8207Z" fill="#372E38"/>
<path d="M811.428 36.4041C811.553 36.0221 810.743 36.035 810.89 36.4106C811.026 36.4084 811.294 36.4041 811.428 36.4041Z" fill="#372E38"/>
<path d="M816.647 36.3545C816.589 35.8861 815.538 36.1149 815.577 36.5595C815.927 36.4646 816.286 36.4063 816.647 36.3545Z" fill="#372E38"/>
<path d="M849.688 36.3804C849.66 35.8839 848.609 36.1214 848.633 36.5466C848.981 36.4732 849.334 36.4235 849.688 36.3804Z" fill="#372E38"/>
<path d="M851.184 36.1581C851.029 36.4797 850.979 36.8401 851.007 37.1962C851.42 37.1639 851.398 36.4192 851.184 36.1581Z" fill="#372E38"/>
<path d="M806.881 36.7797C806.987 36.5487 807.156 36.4171 807.389 36.3804C807.409 36.7408 807.238 36.8746 806.881 36.7797Z" fill="#372E38"/>
<path d="M810.65 36.3869C810.291 36.3307 810.146 36.484 810.215 36.8487C810.453 36.7667 810.598 36.6135 810.65 36.3869Z" fill="#372E38"/>
<path d="M811.947 37.0646C812.388 37.0452 812.055 36.2271 811.703 36.3717C811.763 36.6092 811.845 36.8401 811.947 37.0646Z" fill="#372E38"/>
<path d="M854.788 36.3782C854.291 36.389 853.967 36.8531 853.815 37.2804C854.194 37.207 854.7 36.743 854.788 36.3782Z" fill="#372E38"/>
<path d="M804.975 37.2178C804.988 36.9567 805.07 36.7214 805.225 36.5142C805.212 36.6653 805.189 36.9675 805.178 37.1185C805.586 37.0862 805.993 37.0538 806.401 37.0106C805.986 37.3214 805.457 37.2157 804.975 37.2178Z" fill="#372E38"/>
<path d="M817.094 38.5409C817.471 37.8999 817.406 37.0495 816.917 36.4883C817.177 37.1423 817.211 37.8502 817.094 38.5409Z" fill="#372E38"/>
<path d="M840.448 36.702L840.632 36.6372C840.604 36.7473 840.547 36.9696 840.519 37.0818L840.39 36.9308L840.448 36.702Z" fill="#372E38"/>
<path d="M844.102 36.5725C843.857 36.607 843.708 36.7451 843.654 36.989C844.004 37.0603 844.154 36.9221 844.102 36.5725Z" fill="#372E38"/>
<path d="M823.797 36.8682C823.89 36.8703 824.078 36.8725 824.171 36.8746C824.069 36.92 823.864 37.0106 823.76 37.0581L823.797 36.8682Z" fill="#372E38"/>
<path d="M830.261 36.7192C830.453 37.0171 830.49 37.3689 830.54 37.7099C829.943 37.7186 829.346 37.7207 828.75 37.7207C828.763 37.5912 828.791 37.3344 828.804 37.2049L828.94 37.4164L828.888 37.6366C829.385 37.6344 829.882 37.6344 830.38 37.6322C830.349 37.4034 830.291 36.948 830.261 36.7192Z" fill="#372E38"/>
<path d="M832.717 37.5955C832.533 37.3279 832.741 36.7214 833.104 36.7818C833.05 37.0818 832.914 37.3603 832.717 37.5955Z" fill="#372E38"/>
<path d="M812.976 36.8617C812.697 37.9258 812.483 39.0568 812.738 40.1489C812.712 39.0438 812.883 37.956 812.976 36.8617Z" fill="#372E38"/>
<path d="M813.886 37.1013L814.083 37.0818C814.029 37.1833 813.923 37.384 813.871 37.4833L813.778 37.3085L813.886 37.1013Z" fill="#372E38"/>
<path d="M822.956 37.8049C822.847 37.4488 823.323 36.989 823.675 37.0408C823.561 37.3927 823.256 37.615 822.956 37.8049Z" fill="#372E38"/>
<path d="M842.43 37.0862L842.625 37.0732C842.569 37.1703 842.456 37.3668 842.402 37.4639L842.316 37.2869L842.43 37.0862Z" fill="#372E38"/>
<path d="M846.953 37.0732L847.144 37.03C847.1 37.1358 847.016 37.3452 846.973 37.4509L846.865 37.2891L846.953 37.0732Z" fill="#372E38"/>
<path d="M821.447 37.6366C821.447 37.0646 820.335 37.0193 820.324 37.5955C820.694 37.4725 821.077 37.561 821.447 37.6366Z" fill="#372E38"/>
<path d="M825.163 37.7358C824.832 36.9782 823.745 37.2524 823.561 37.9754C823.957 37.4639 824.644 37.2718 825.163 37.7358Z" fill="#372E38"/>
<path d="M825.617 37.2178C826.026 37.1509 826.235 38.1114 825.742 38.0682C825.697 37.7833 825.66 37.5006 825.617 37.2178Z" fill="#372E38"/>
<path d="M831.346 37.3214C831.729 37.2761 831.757 37.9452 831.506 38.1287C831.376 37.8783 831.292 37.6042 831.346 37.3214Z" fill="#372E38"/>
<path d="M808.86 37.2265L808.838 37.4596C808.752 38.2884 808.723 39.128 808.853 39.9547C808.438 39.0956 808.563 38.1006 808.86 37.2265Z" fill="#372E38"/>
<path d="M811.698 37.902C811.731 37.792 811.796 37.5696 811.828 37.4596L811.953 37.6128L811.889 37.8394L811.698 37.902Z" fill="#372E38"/>
<path d="M840.247 37.5351L840.435 37.5006C840.392 37.6042 840.301 37.8114 840.258 37.9128L840.156 37.7445L840.247 37.5351Z" fill="#372E38"/>
<path d="M848.019 37.3516C847.675 37.8481 847.582 38.4977 847.766 39.0719C847.786 38.4913 847.868 37.9128 848.019 37.3516Z" fill="#372E38"/>
<path d="M846.923 39.8252C846.579 39.1043 846.633 38.2409 846.908 37.507C846.865 38.2798 846.869 39.0525 846.923 39.8252Z" fill="#372E38"/>
<path d="M849.74 38.1092C849.783 38.0035 849.872 37.7963 849.915 37.6927L850.021 37.861L849.93 38.0747L849.74 38.1092Z" fill="#372E38"/>
<path d="M803.751 38.9942C803.53 38.7287 803.539 37.9948 803.945 37.9603C803.982 38.3164 803.9 38.6683 803.751 38.9942Z" fill="#372E38"/>
<path d="M809.746 37.9582C809.337 38.0423 809.337 39.0654 809.748 39.1539C809.75 38.7546 809.748 38.3553 809.746 37.9582Z" fill="#372E38"/>
<path d="M819.025 39.9331C818.653 39.2489 818.924 38.4697 819.233 37.82C819.053 38.5085 819.006 39.223 819.025 39.9331Z" fill="#372E38"/>
<path d="M838.435 37.9085C838.284 38.4114 838.042 39.0676 838.42 39.5187C838.558 39.0136 838.569 38.4157 838.435 37.9085Z" fill="#372E38"/>
<path d="M811.452 38.5107C811.512 38.4157 811.633 38.2258 811.692 38.1308L811.767 38.31L811.646 38.5042L811.452 38.5107Z" fill="#372E38"/>
<path d="M840.046 38.1934L840.238 38.1654C840.193 38.2711 840.102 38.4805 840.057 38.5862L839.951 38.4093L840.046 38.1934Z" fill="#372E38"/>
<path d="M853.184 38.5193C853.234 38.4157 853.331 38.2107 853.381 38.1071L853.48 38.2798L853.379 38.4913L853.184 38.5193Z" fill="#372E38"/>
<path d="M819.693 38.4006L819.877 38.3294C819.851 38.4395 819.797 38.6639 819.769 38.7762L819.637 38.6294L819.693 38.4006Z" fill="#372E38"/>
<path d="M822.713 39.6093C822.324 39.4928 822.337 38.4762 822.698 38.3531C822.722 38.7697 822.739 39.1906 822.713 39.6093Z" fill="#372E38"/>
<path d="M824.019 38.4956C824.19 38.3251 824.391 38.2603 824.62 38.2992C824.536 38.6488 824.335 38.7157 824.019 38.4956Z" fill="#372E38"/>
<path d="M825.77 38.2927C825.533 38.3445 825.366 38.4934 825.271 38.7373C825.63 38.7978 825.796 38.6488 825.77 38.2927Z" fill="#372E38"/>
<path d="M831.539 38.3941C831.928 38.3553 831.982 39.0179 831.724 39.2143C831.588 38.9618 831.528 38.6791 831.539 38.3941Z" fill="#372E38"/>
<path d="M817.951 38.9316C817.998 38.828 818.093 38.6208 818.139 38.5172L818.242 38.6877L818.145 38.8992L817.951 38.9316Z" fill="#372E38"/>
<path d="M852.981 39.1604C853.028 39.0568 853.121 38.8496 853.169 38.746L853.268 38.9165L853.173 39.128L852.981 39.1604Z" fill="#372E38"/>
<path d="M815.778 39.7259C816.273 39.6395 816.602 39.2208 816.937 38.8863C816.684 39.3093 816.346 39.8079 815.81 39.8597C815.447 39.946 815.192 39.6417 814.922 39.4669C815.205 39.5575 815.473 39.7194 815.778 39.7259Z" fill="#372E38"/>
<path d="M824.599 38.9596C824.309 38.9402 824.024 38.9899 823.753 39.0956C823.933 39.3741 824.607 39.3503 824.599 38.9596Z" fill="#372E38"/>
<path d="M830.95 39.9957C830.996 39.6417 830.946 39.2791 830.773 38.964C830.568 39.2294 830.551 39.9503 830.95 39.9957Z" fill="#372E38"/>
<path d="M833.705 39.251C834.051 39.182 834.2 39.3223 834.154 39.6676C833.897 39.6309 833.746 39.4928 833.705 39.251Z" fill="#372E38"/>
<path d="M835.988 39.4388C836.018 39.087 836.133 39.0546 836.329 39.346C836.243 39.3697 836.074 39.4172 835.988 39.4388Z" fill="#372E38"/>
<path d="M845.693 39.3179C846.065 38.8021 846.337 40.0993 845.89 40.1856C845.823 39.8964 845.749 39.6093 845.693 39.3179Z" fill="#372E38"/>
<path d="M848.808 39.6158C848.914 39.4172 849.068 39.2661 849.267 39.1625C849.347 39.5489 849.195 39.7 848.808 39.6158Z" fill="#372E38"/>
<path d="M809.774 39.4086C810.098 39.6158 810.49 39.6546 810.844 39.5014C810.875 40.123 809.61 40.0475 809.774 39.4086Z" fill="#372E38"/>
<path d="M823.33 39.3503C823.503 39.5079 823.673 39.6698 823.844 39.8316C824.164 39.8381 824.486 39.8467 824.808 39.8575C824.257 40.2007 823.528 39.987 823.33 39.3503Z" fill="#372E38"/>
<path d="M824.929 39.8187C824.743 39.5532 825.256 39.2143 825.476 39.4366C825.662 39.7021 825.662 39.9676 825.479 40.2331L825.409 40.2115C825.377 40.0949 825.314 39.8597 825.282 39.7431C825.193 39.7626 825.016 39.7993 824.929 39.8187Z" fill="#372E38"/>
<path d="M834.356 39.7367C834.652 39.4971 834.95 39.4906 835.255 39.7151C834.993 39.9395 834.637 39.8877 834.356 39.7367Z" fill="#372E38"/>
<path d="M844.067 39.7259C844.361 39.5143 844.659 39.5122 844.964 39.7151C844.707 39.9072 844.316 39.9611 844.067 39.7259Z" fill="#372E38"/>
<path d="M821.105 39.8467C821.369 39.6957 821.289 40.1489 821.245 40.2698C821.014 40.4576 820.759 40.5137 820.48 40.4403C820.683 40.2374 820.867 40.0108 821.105 39.8467Z" fill="#372E38"/>
<path d="M823.433 40.4446C823.323 40.1036 823.033 39.8618 822.707 39.7388C822.653 40.0777 823.09 40.5396 823.433 40.4446Z" fill="#372E38"/>
<path d="M827.273 40.5115C827.422 40.2611 827.569 40.0108 827.716 39.7582C827.63 40.0129 827.541 40.2655 827.457 40.5223C826.972 40.7166 826.151 40.7036 826.376 39.9525L826.434 40.2331L826.482 40.464C826.745 40.4835 827.009 40.4986 827.273 40.5115Z" fill="#372E38"/>
<path d="M825.221 40.2719C824.659 40.4489 824.071 40.5094 823.485 40.5676C824.075 40.8461 824.715 40.613 825.221 40.2719Z" fill="#372E38"/>
<path d="M835.482 40.4921C835.577 40.4317 835.767 40.3086 835.862 40.246L835.858 40.4425L835.664 40.5676L835.482 40.4921Z" fill="#372E38"/>
<path d="M845.18 40.4683C845.284 40.4165 845.487 40.313 845.589 40.2611L845.565 40.4576L845.356 40.5633L845.18 40.4683Z" fill="#372E38"/>
<path d="M804.276 40.4835C804.144 40.4878 803.878 40.4986 803.747 40.505C803.636 40.8849 804.432 40.8525 804.276 40.4835Z" fill="#372E38"/>
<path d="M834.794 40.6238C834.903 40.5979 835.121 40.5482 835.231 40.5245L835.158 40.7036L834.937 40.7533L834.794 40.6238Z" fill="#372E38"/>
<path d="M833.071 41.1202C833.177 41.1677 833.391 41.2605 833.497 41.308L833.333 41.3986C833.268 41.3295 833.136 41.1914 833.071 41.1202Z" fill="#372E38"/>
<path d="M572.486 2.87917C575.027 0.802858 578.368 -0.232439 581.626 0.0440213C584.642 0.272816 587.551 1.62843 589.695 3.7791C591.687 5.73911 592.982 8.36453 593.429 11.1291C593.98 11.1921 594.596 11.1444 595.06 11.5066C595.441 11.7679 595.554 12.2426 595.719 12.6487C596.143 12.7212 596.57 12.7917 596.997 12.8603C597.601 12.3513 598.352 11.9395 599.167 12.0672C600.549 12.153 601.623 13.5849 601.383 14.9481C601.206 16.176 600.043 17.1846 598.803 17.0835C597.955 17.1045 597.261 16.5382 596.744 15.9205C596.308 15.9052 595.873 15.8976 595.439 15.8919C595.185 16.2122 594.967 16.5935 594.599 16.7956C594.101 17.032 593.537 16.9176 593.01 16.8986C592.225 19.4611 590.652 21.7433 588.582 23.4154C593.82 23.4173 599.058 23.4192 604.296 23.4154C605.289 23.4231 606.342 23.3125 607.259 23.7777C608.443 24.3325 609.251 25.5451 609.385 26.8493V34.7141C609.153 36.4872 607.605 38.0011 605.808 38.0183C596.534 38.0469 587.26 38.0049 577.989 38.0392C577.919 39.3205 577.49 40.6017 576.598 41.5398C575.742 42.4912 574.527 43.0575 573.272 43.1986H546.808C544.429 42.964 542.423 40.9373 542.187 38.5369V22.9235C542.355 21.7891 542.817 20.6832 543.627 19.8634C544.611 18.8128 546.043 18.2504 547.468 18.2809C554.537 18.2828 561.605 18.279 568.673 18.2828C568.198 17.114 567.875 15.8881 567.7 14.6373C567.169 14.5725 566.576 14.6011 566.127 14.2579C565.748 13.9948 565.629 13.5239 565.461 13.1177C565.036 13.0415 564.613 12.9671 564.187 12.8985C563.581 13.4037 562.835 13.8175 562.022 13.6916C560.634 13.6154 559.555 12.1702 559.798 10.8031C559.989 9.49516 561.289 8.48083 562.595 8.69247C563.383 8.71916 563.915 9.34644 564.479 9.80975C564.895 9.88983 565.319 9.86695 565.74 9.86886C565.999 9.54092 566.222 9.15197 566.605 8.95368C567.137 8.70772 567.733 8.85263 568.29 8.88695C569.121 6.55133 570.555 4.42544 572.486 2.87917ZM575.356 1.98497C573.202 3.04123 571.288 4.71334 570.14 6.85258C569.683 7.63811 569.287 8.47511 569.025 9.34835C567.996 12.2293 568.281 15.5239 569.546 18.2866C570.58 18.2809 571.616 18.3019 572.653 18.2694C574.668 18.1932 576.601 19.4096 577.488 21.2266C577.76 21.9302 577.934 22.668 577.983 23.423C580.835 23.4269 583.685 23.4173 586.538 23.4288C586.919 23.4345 587.328 23.4097 587.63 23.1447C589.476 21.7814 591.055 19.9358 591.832 17.7432C592.079 17.1655 592.261 16.5573 592.391 15.9415C593.067 13.4781 592.816 10.8012 591.872 8.44461C590.739 5.62662 588.533 3.27194 585.809 1.97925C582.557 0.402467 578.606 0.408187 575.356 1.98497ZM560.736 9.97181C560.525 10.4084 560.285 10.8679 560.362 11.3751C560.427 12.4504 561.521 13.3141 562.573 13.1139C563.054 13.0625 563.426 12.7288 563.792 12.4428C564.002 11.9871 564.226 11.5047 564.153 10.988C564.098 9.99279 563.137 9.2206 562.178 9.26064C561.622 9.29687 561.165 9.64578 560.736 9.97181ZM566.348 10.3989C566.337 11.356 566.05 12.2979 566.123 13.2531C566.284 13.9452 567.056 14.0081 567.63 14.0482C567.516 12.4886 567.76 10.9423 568.064 9.41889C567.684 9.42461 567.303 9.40364 566.927 9.46847C566.576 9.63434 566.325 10.0004 566.348 10.3989ZM564.687 10.4103C564.87 11.0777 564.787 11.7717 564.521 12.4047C564.866 12.4409 565.206 12.5038 565.55 12.5477C565.57 11.8403 565.633 11.1349 565.712 10.4332C565.37 10.4275 565.029 10.4218 564.687 10.4103ZM593.546 11.7011C593.629 13.2607 593.548 14.8318 593.178 16.3514C593.756 16.4048 594.58 16.4353 594.782 15.7394C594.849 14.6564 595.094 13.5791 595.03 12.4943C594.873 11.8346 594.095 11.7659 593.546 11.7011ZM597.448 13.2493C597.206 13.6649 596.938 14.1035 596.983 14.6068C596.963 15.7432 598.101 16.706 599.207 16.4906C599.675 16.4372 600.039 16.115 600.404 15.8423C600.606 15.3943 600.845 14.9271 600.785 14.4162C600.745 13.4228 599.802 12.5744 598.818 12.6602C598.291 12.6411 597.871 12.9881 597.448 13.2493ZM595.63 13.1978C595.553 13.9052 595.507 14.6164 595.443 15.3256C595.794 15.3313 596.143 15.3409 596.494 15.3561C596.321 14.6888 596.385 13.991 596.666 13.3637C596.319 13.3141 595.974 13.255 595.63 13.1978ZM546.438 19.6842C545.166 19.974 544.078 20.9711 543.673 22.2238C543.395 23.015 543.469 23.8673 543.461 24.691C543.463 28.7006 543.463 32.7102 543.461 36.7199C543.467 37.4787 543.41 38.2509 543.591 38.9945C543.922 40.331 545.015 41.4387 546.336 41.7781C547.076 41.965 547.842 41.904 548.595 41.9116C556.272 41.9097 563.951 41.9097 571.628 41.9116C572.583 41.9135 573.598 41.9802 574.478 41.5303C575.79 40.9163 576.69 39.5073 576.671 38.0411C576.675 33.1545 576.681 28.2659 576.669 23.3773C576.684 21.3868 574.942 19.6022 572.972 19.5945C564.536 19.5736 556.098 19.5984 547.661 19.5831C547.251 19.5869 546.84 19.5965 546.438 19.6842ZM578.832 27.4117C578.798 27.5661 578.732 27.875 578.698 28.0295C580.671 28.0237 582.647 28.0714 584.62 28.0047C584.631 27.8407 584.656 27.5128 584.669 27.3488C582.725 27.3907 580.767 27.2611 578.832 27.4117ZM588.117 27.4708C586.974 27.835 586.051 28.8379 585.807 30.0276C585.499 31.3927 586.171 32.8913 587.347 33.614C588.51 34.3499 590.12 34.2794 591.204 33.4214C592.276 32.6168 592.804 31.1373 592.425 29.8312C591.964 28.0104 589.888 26.8435 588.117 27.4708ZM593.924 27.3545C594.748 28.6224 595.583 29.8846 596.413 31.1487C596.549 30.9237 596.681 30.6968 596.813 30.468C596.106 29.4327 595.445 28.3631 594.726 27.3354C594.526 27.3412 594.124 27.3507 593.924 27.3545ZM599.25 27.6386C597.823 29.7816 596.404 31.9285 594.975 34.0715C595.258 34.0715 595.543 34.0715 595.828 34.0735C597.321 31.8275 598.818 29.5853 600.294 27.3278C599.945 27.385 599.435 27.2268 599.25 27.6386ZM602.45 27.6043C601.393 28.0028 600.957 29.6158 601.874 30.3765C602.907 31.1201 604.298 30.9523 605.372 31.6044C605.998 31.959 605.878 33.0229 605.194 33.2384C603.949 33.7093 602.489 33.3852 601.47 32.5462C601.361 32.7464 601.249 32.9466 601.14 33.1468C601.94 33.8752 603.05 34.1478 604.105 34.1268C604.785 34.1078 605.513 33.9934 606.051 33.5377C606.787 32.918 606.803 31.5605 605.966 31.019C604.938 30.3613 603.633 30.4585 602.567 29.8979C601.88 29.5223 602.129 28.3917 602.825 28.1744C603.864 27.7873 605.06 28.0142 605.938 28.6796C606.027 28.487 606.117 28.2964 606.208 28.1057C605.217 27.1791 603.656 27.1238 602.45 27.6043ZM581.332 34.0563C581.585 34.0639 581.837 34.0735 582.092 34.0811C582.094 32.2107 582.092 30.3422 582.094 28.4718C581.905 28.4699 581.528 28.468 581.339 28.4661C581.332 30.3288 581.345 32.1935 581.332 34.0563Z" fill="#372E38"/>
<path d="M575.599 5.87448C576.345 5.36732 577.46 5.8802 577.538 6.78966C577.698 7.72009 576.643 8.53994 575.797 8.13383C575.052 7.85737 574.774 6.84304 575.265 6.21195C575.305 6.25008 575.384 6.32635 575.423 6.36448C575.461 6.64475 575.388 7.12713 575.801 7.13666C576.112 7.22818 576.484 6.92312 576.407 6.58946C576.458 6.21767 575.977 6.20242 575.759 6.06895C575.72 6.01938 575.641 5.92405 575.599 5.87448Z" fill="#372E38"/>
<path d="M587.002 7.07947C587.772 6.49604 589.01 7.14238 588.971 8.11476C589.052 9.05663 587.917 9.74874 587.119 9.27399C586.283 8.87551 586.217 7.56756 587.002 7.07947ZM587.14 7.39215C586.549 7.68005 587.096 8.65815 587.646 8.28827C588.27 8.00609 587.7 6.98604 587.14 7.39215Z" fill="#372E38"/>
<path d="M574.825 10.9747C574.848 10.4694 575.037 9.82501 575.595 9.70298C576.25 9.60956 576.9 9.81166 577.528 9.97182L577.422 9.95275C577.258 9.92415 576.932 9.86886 576.767 9.84026C576.822 10.4103 577.034 10.9995 577.573 11.2721C578.989 12.0882 580.675 12.174 582.262 12.3456C581.881 12.5057 581.469 12.5591 581.062 12.582C579.284 12.3684 577.228 12.704 575.992 14.1283C575.259 13.255 574.706 12.1492 574.825 10.9747Z" fill="#372E38"/>
<path d="M586.621 10.8012C587.196 10.8031 588 10.8584 588.159 11.5562C588.433 13.1959 587.3 14.6983 585.962 15.4877C586.135 15.3409 586.303 15.1864 586.475 15.0339C585.46 13.6344 583.804 12.9519 582.168 12.6392L582.181 12.6201C582.226 12.5572 582.315 12.4314 582.36 12.3703C583.389 12.3818 584.448 12.4619 585.443 12.1339C585.82 11.9986 586.226 11.7926 586.388 11.398C586.488 11.2092 586.564 11.009 586.621 10.8012Z" fill="#372E38"/>
<path d="M547.217 24.1018C550.007 24.0999 552.795 24.1056 555.585 24.098C556.402 24.0961 557.261 24.138 557.982 24.5689C559.343 25.3011 560.14 27.0571 559.579 28.55C559.266 29.4918 558.475 30.1553 557.603 30.5519C558.598 30.8398 559.613 31.3737 560.106 32.3384C560.655 33.4538 560.614 34.9791 559.672 35.8714C558.505 37.0383 556.769 37.2823 555.2 37.3281C552.88 37.3319 550.56 37.3357 548.24 37.3281C547.765 37.3776 547.253 37.0497 547.24 36.5349C547.168 35.0153 547.255 33.49 547.199 31.9666C548.116 33.1163 549.681 32.7598 550.955 32.8094C551.01 33.3547 550.755 34.2355 551.453 34.4395C552.327 34.5272 553.207 34.4472 554.084 34.4777C554.841 34.47 555.713 34.5654 556.325 34.0201C556.808 33.614 556.755 32.7865 556.289 32.388C555.957 32.0658 555.481 31.9876 555.038 31.9933C553.02 31.9743 551.002 32.0238 548.984 31.9743C547.991 31.9628 547.17 31.0267 547.219 30.0333C547.206 28.0561 547.219 26.079 547.217 24.1018ZM550.964 27.0075C550.962 27.5681 550.934 28.1286 550.979 28.6872C550.968 29.0209 551.279 29.3126 551.606 29.3012C552.55 29.3374 553.497 29.3126 554.443 29.3145C554.987 29.2993 555.659 29.2211 555.964 28.6987C556.149 28.2449 556.127 27.5967 555.685 27.2992C555.275 27.0075 554.751 27.0209 554.273 27.0056C553.169 27.0056 552.067 27.0113 550.964 27.0075Z" fill="#372E38"/>
<path d="M562.116 26.1324C563.205 24.6223 565.146 24.0618 566.916 24.0008C568.913 23.8902 570.829 24.5518 572.694 25.181C573.096 25.2839 573.4 25.732 573.226 26.14C572.885 26.9045 572.413 27.6024 572.022 28.3421C570.27 27.6462 568.432 26.8817 566.51 27.0495C566.055 27.1047 565.404 27.2134 565.308 27.7606C565.242 28.3631 565.923 28.5862 566.371 28.7483C568 29.2478 569.71 29.5071 571.276 30.2087C572.19 30.6225 573.036 31.3546 573.304 32.3632C573.581 33.4805 573.43 34.7751 572.671 35.675C571.826 36.7198 570.484 37.1832 569.202 37.37C566.646 37.7151 564.017 37.2823 561.638 36.3004C561.212 36.1746 560.931 35.6807 561.152 35.2613C561.508 34.5024 561.959 33.7951 562.361 33.061C564.147 33.8561 566.071 34.5406 568.051 34.4338C568.553 34.3823 569.315 34.2984 569.393 33.6616C569.311 33.0896 568.672 32.9142 568.217 32.7369C566.325 32.1478 564.232 31.9781 562.588 30.7674C561.178 29.7187 561.15 27.4937 562.116 26.1324Z" fill="#372E38"/>
<path d="M588.114 28.2258C589.418 27.6214 591.096 28.3402 591.583 29.6997C592.178 31.0839 591.375 32.8666 589.937 33.2975C588.669 33.7303 587.172 33.0077 586.707 31.7417C586.134 30.4356 586.824 28.7749 588.114 28.2258Z" fill="#372E38"/>
<path d="M575.265 6.21195C575.32 6.04226 575.431 5.92977 575.599 5.87448C575.641 5.92405 575.72 6.01938 575.759 6.06895C575.977 6.20242 576.458 6.21767 576.407 6.58946C576.484 6.92312 576.112 7.22818 575.801 7.13666C575.388 7.12713 575.461 6.64475 575.423 6.36448C575.384 6.32635 575.305 6.25008 575.265 6.21195Z" fill="#372E38"/>
<path d="M587.646 8.28827C588.27 8.00609 587.7 6.98604 587.14 7.39215C586.549 7.68005 587.096 8.65815 587.646 8.28827Z" fill="#372E38"/>
<path d="M576.767 9.84026C576.932 9.86886 577.258 9.92415 577.422 9.95275L577.653 10.1053C577.743 10.1434 577.928 10.2216 578.021 10.2597L578.223 10.2654C578.311 10.3112 578.487 10.4046 578.576 10.4504L578.791 10.4485C578.878 10.4961 579.053 10.5915 579.14 10.6391L579.363 10.6677C579.508 10.8069 579.678 10.8698 579.878 10.8565L580.127 10.8756C580.273 11.03 580.443 11.0757 580.635 11.0147L580.803 10.9709L580.975 11.0147C582.204 11.3217 583.514 11.274 584.748 11.0147C585.307 10.8832 585.879 10.845 586.449 10.7879C586.434 10.9404 586.404 11.2454 586.388 11.398C586.226 11.7926 585.82 11.9986 585.443 12.1339C584.448 12.4619 583.389 12.3818 582.36 12.3703C582.315 12.4314 582.226 12.5572 582.181 12.6201C581.807 12.6335 581.434 12.6201 581.062 12.582C581.469 12.5591 581.881 12.5057 582.262 12.3456C580.675 12.174 578.989 12.0882 577.573 11.2721C577.034 10.9995 576.822 10.4103 576.767 9.84026Z" fill="#372E38"/>
<path d="M575.992 14.1283C577.228 12.704 579.284 12.3684 581.062 12.582C581.434 12.6201 581.807 12.6335 582.181 12.6201L582.168 12.6392C583.804 12.9519 585.46 13.6344 586.475 15.0339C586.303 15.1864 586.135 15.3409 585.962 15.4877C584.346 16.4868 582.366 16.6317 580.524 16.4048C578.832 16.1378 577.181 15.3962 575.992 14.1283Z" fill="#372E38"/>
<path d="M395.931 12.384C398.629 10.61 402.044 9.92071 405.222 10.5638C408.793 11.2198 411.992 13.5592 413.716 16.7155C415.001 19.0475 415.547 21.8212 415.095 24.4489C414.637 27.6975 412.752 30.7189 410.05 32.6148C406.59 35.0929 401.788 35.638 397.891 33.8732C397.308 33.6145 396.889 33.0417 396.932 32.3949C396.998 31.1513 397.878 30.1663 398.653 29.2627C400.423 27.5257 402.521 26.1564 404.692 24.9645C406.386 24.0738 408.135 23.2275 410.013 22.7951C410.842 22.5936 411.958 22.7267 412.279 23.6395C412.356 23.6414 412.509 23.6451 412.586 23.6469C412.685 23.4363 412.786 23.2275 412.89 23.0205C413.055 22.0596 413.129 20.9934 412.601 20.123C411.945 18.8442 410.465 18.1199 409.043 18.1845C408.503 17.0887 407.35 16.3422 406.119 16.2775C403.593 16.1759 401.162 17.0296 398.659 17.2033C397.777 17.3511 396.869 17.2403 396.037 16.928C395.849 16.8651 395.475 16.7376 395.288 16.6748C395.385 17.0998 395.544 17.5082 395.795 17.8685C394.922 18.0071 393.949 18.1716 393.158 17.6671C392.553 17.292 392.629 16.4623 392.813 15.8765C393.371 14.376 394.632 13.2691 395.931 12.384ZM398.698 31.1661C398.414 31.6724 398.272 32.3099 398.532 32.8532C398.963 33.5092 399.78 33.7254 400.52 33.8178C400.17 33.1415 399.843 32.4208 399.926 31.641C400.062 30.4565 400.649 29.3828 401.28 28.3887C400.252 29.1408 399.264 30.0093 398.698 31.1661Z" fill="#372E38"/>
<path d="M404.184 19.2582C404.987 18.7186 405.815 18.0071 406.87 18.2067C407.07 18.3915 407.272 18.5763 407.474 18.7611C407.339 18.7629 407.068 18.7685 406.934 18.7703C406.79 19.0253 406.646 19.2785 406.502 19.5317C406.087 19.5612 405.585 19.4393 405.553 18.9403C405.079 18.9625 404.63 19.1159 404.184 19.2582Z" fill="#372E38"/>
<path d="M391.165 26.8641C390.643 25.4172 390.331 23.8853 390.38 22.346C390.505 22.6953 390.785 22.941 391.146 23.0334C392.321 23.3051 393.511 22.8893 394.677 22.7821L393.78 22.5493C394.077 22.5936 394.378 22.6158 394.675 22.6657C394.477 23.0297 393.99 22.9965 393.678 23.2164C392.428 24.0553 391.286 25.3101 391.165 26.8641Z" fill="#372E38"/>
<path d="M395.212 27.522C397.099 25.9568 399.513 25.2417 401.874 24.7243C401.362 24.9663 400.826 25.1548 400.32 25.4117C398.457 26.3966 396.594 27.6052 395.483 29.4364C394.954 30.2735 394.842 31.3194 395.086 32.2693C394.524 31.7445 393.81 31.2123 393.808 30.3678C393.631 29.2221 394.369 28.215 395.212 27.522Z" fill="#372E38"/>
<path d="M417.94 10.7726C419.654 10.7449 421.369 10.756 423.082 10.7634C423.142 10.987 423.207 11.2087 423.273 11.4305C423.428 12.5965 423.589 13.7662 423.824 14.9193C424.076 16.8134 424.399 18.6983 424.726 20.5794C424.881 20.2708 425.035 19.9604 425.156 19.637C426.281 16.673 427.458 13.7274 428.57 10.7597C429.597 10.7671 430.627 10.7227 431.652 10.7929C432.013 12.4006 432.095 14.06 432.428 15.6695C432.463 16.1056 432.463 16.551 432.615 16.9686C432.697 18.1513 432.958 19.3136 433.1 20.4907C433.652 19.4319 434.02 18.2954 434.485 17.2015C435.001 15.8821 435.569 14.583 436.053 13.2525C436.189 12.9494 436.312 12.639 436.426 12.3285C436.589 11.9645 436.729 11.5931 436.865 11.2198C436.975 11.059 437.007 10.7153 437.28 10.7652C438.304 10.7375 439.328 10.7671 440.354 10.7578C440.176 11.9165 439.49 12.9236 439.137 14.0323C437.637 17.499 436.228 21.0026 434.732 24.4711C433.534 24.4526 432.334 24.484 431.137 24.4619C430.907 24.4803 430.666 24.3011 430.625 24.0775C430.21 21.2946 429.939 18.4931 429.506 15.712C428.986 16.9132 428.549 18.1494 428.112 19.382C427.477 21.0673 426.795 22.7415 426.253 24.4582C424.966 24.4766 423.678 24.4545 422.393 24.4619C422.266 24.314 422.139 24.1662 422.012 24.0184C421.617 21.3297 421.061 18.6631 420.607 15.9818C420.381 14.7752 420.227 13.5481 419.891 12.3636C419.639 11.9423 419.364 11.4766 418.876 11.2956C418.551 11.1311 418.079 11.181 417.94 10.7726Z" fill="#372E38"/>
<path d="M442.37 10.7634C443.461 10.7504 444.552 10.7689 445.641 10.7486C445.738 11.0812 445.716 11.4249 445.628 11.7575C445.503 12.2565 445.607 12.7905 445.428 13.2784C445.18 15.8063 444.802 18.3157 444.554 20.8418C444.328 22.0411 444.318 23.2718 444.059 24.4656C442.995 24.4656 441.932 24.4693 440.869 24.4637C440.593 24.0646 440.824 23.6174 440.834 23.185C440.867 22.8302 440.822 22.4587 440.976 22.1261C441.217 19.6019 441.596 17.0924 441.848 14.57C442.072 13.3079 442.093 12.0181 442.37 10.7634Z" fill="#372E38"/>
<path d="M448.154 11.1459C448.119 10.8705 448.444 10.7116 448.683 10.7578C452.195 10.7578 455.708 10.7523 459.22 10.7615C459.219 11.2919 459.192 11.8241 459.151 12.3544C459.058 12.663 459.009 12.9827 458.97 13.3005C456.481 16.041 453.989 18.7814 451.467 21.4923C453.417 21.4867 455.368 21.4941 457.318 21.4849C457.595 21.459 457.86 21.5311 458.09 21.6845C458.071 22.0781 458.06 22.4735 458.03 22.869C457.851 23.3808 457.87 23.9278 457.862 24.4619C454.181 24.4766 450.501 24.4489 446.82 24.4748C446.377 23.7024 446.992 22.8486 446.842 22.0226C447.937 20.8363 449.01 19.6278 450.114 18.4506C451.53 16.7986 453.107 15.2833 454.462 13.5796C452.477 13.5426 450.491 13.5759 448.507 13.5611C448.176 13.6239 447.846 13.319 447.958 12.9845C448.061 12.3747 448.161 11.7649 448.154 11.1459Z" fill="#372E38"/>
<path d="M463.346 10.7671C465.334 10.7486 467.322 10.7578 469.308 10.7615C469.409 10.9112 469.51 11.0609 469.61 11.2087C469.857 12.3341 470.193 13.441 470.528 14.5423C471.311 17.4435 472.114 20.3429 472.955 23.2275C473.054 23.6395 473.164 24.0498 473.254 24.4656C472.159 24.4711 471.066 24.4563 469.971 24.473C469.39 23.8225 469.396 22.8838 469.179 22.0799C467.346 22.054 465.511 22.0577 463.678 22.0781C463.35 22.8745 462.95 23.6432 462.671 24.4582C461.547 24.4656 460.422 24.4711 459.297 24.46C459.323 23.9962 459.493 23.5582 459.714 23.1536C460.485 21.6623 461.162 20.1267 461.918 18.6317C462.787 16.7875 463.691 14.9599 464.553 13.1139C464.792 12.6852 464.792 12.2047 464.571 11.7686C464.327 11.2106 463.546 11.3085 463.346 10.7671ZM467.152 14.2762C466.402 15.9929 465.56 17.6782 464.919 19.4356C466.122 19.443 467.324 19.4559 468.525 19.4189C468.233 18.4931 468.063 17.5341 467.808 16.5972C467.58 15.8266 467.514 15.0006 467.152 14.2762Z" fill="#372E38"/>
<path d="M474.401 10.7874C477.299 10.7227 480.199 10.7671 483.098 10.7652C484.374 10.8742 485.791 11.1976 486.616 12.2546C487.439 13.295 487.485 14.6828 487.416 15.9449C487.364 17.6782 486.357 19.3912 484.733 20.1193C485.445 21.5995 486.291 23.0131 487.057 24.4656C486.035 24.4545 485.013 24.473 483.991 24.4619C483.582 24.5081 483.289 24.1588 483.124 23.8354C482.579 22.8154 481.987 21.8175 481.484 20.7753C480.537 20.742 479.588 20.7642 478.64 20.7642C478.569 22.0042 478.328 23.2275 478.216 24.4656C477.149 24.4711 476.083 24.4637 475.016 24.4693C474.784 24.0276 474.827 23.5213 474.958 23.0575C475.298 20.2616 475.627 17.4602 475.972 14.6661C476 13.8826 476.297 13.1102 476.122 12.3248C475.957 11.8259 475.621 11.3233 475.072 11.2013C474.793 11.1551 474.571 11.0054 474.401 10.7874ZM479.578 13.5666C479.276 15.0172 479.266 16.5085 478.962 17.9572C480.154 17.9739 481.348 17.9924 482.54 17.9572C483.599 17.8519 484.008 16.6803 484.021 15.7712C484.075 15.0172 483.95 13.9861 483.082 13.7385C481.951 13.3892 480.742 13.6498 479.578 13.5666Z" fill="#372E38"/>
<path d="M488.586 10.7781C491.235 10.7338 493.888 10.7615 496.538 10.7634C498.139 10.913 499.83 11.3048 501.04 12.4209C502.059 13.3689 502.584 14.7696 502.559 16.1408C502.612 17.2994 502.496 18.4654 502.12 19.5686C501.509 21.1671 500.362 22.5678 498.83 23.3827C497.444 24.1052 495.869 24.5228 494.297 24.4674C492.612 24.4526 490.923 24.497 489.238 24.4489C488.913 24.2512 489.088 23.8114 489.053 23.5047C489.484 20.1581 489.867 16.8005 490.28 13.4539C490.488 12.748 490.284 11.9312 489.714 11.4452C489.384 11.1348 488.814 11.2106 488.586 10.7781ZM493.737 13.5555C493.501 14.2042 493.599 14.9064 493.438 15.5716C493.374 16.4697 493.186 17.3548 493.152 18.2566C492.939 18.8572 493.064 19.5076 492.898 20.1174C492.791 20.5702 492.81 21.0377 492.805 21.4978C493.95 21.4442 495.142 21.6531 496.248 21.2613C497.937 20.7125 498.998 18.9644 498.976 17.2495C498.97 16.3219 499.133 15.2168 498.369 14.5146C497.192 13.2488 495.288 13.6276 493.737 13.5555Z" fill="#372E38"/>
<path d="M420.551 27.4536C420.829 27.4499 421.107 27.4481 421.388 27.4481C421.389 28.1688 421.401 28.8894 421.369 29.6101C421.786 29.1038 422.488 28.8617 423.121 29.089C423.749 29.2701 424.082 29.9261 424.166 30.5267C424.257 31.3582 424.235 32.369 423.506 32.9308C422.845 33.4371 421.886 33.2228 421.339 32.6518C421.309 32.7719 421.246 33.0103 421.216 33.1304C420.99 33.1322 420.764 33.1341 420.539 33.1378C420.552 31.2418 420.532 29.3477 420.551 27.4536ZM421.821 29.8078C421.318 30.4029 421.322 31.2529 421.537 31.9607C421.748 32.6388 422.875 32.7054 423.149 32.0364C423.415 31.4192 423.426 30.6413 423.084 30.0499C422.8 29.6286 422.245 29.6933 421.821 29.8078Z" fill="#372E38"/>
<path d="M430.728 27.7733C431.61 27.7992 432.532 27.668 433.379 27.971C434.548 28.4164 434.56 30.2717 433.502 30.8408C432.929 31.1642 432.247 31.155 431.61 31.1568C431.613 31.8165 431.61 32.4762 431.61 33.1359C431.312 33.1359 431.015 33.1359 430.72 33.1359C430.735 31.349 430.72 29.5602 430.728 27.7733ZM431.606 28.5088C431.61 29.1445 431.608 29.7801 431.617 30.4158C432.086 30.3788 432.615 30.4546 433.026 30.183C433.424 29.9206 433.396 29.3643 433.276 28.9634C432.923 28.4145 432.166 28.5402 431.606 28.5088Z" fill="#372E38"/>
<path d="M424.427 29.1075C424.739 29.1075 425.05 29.1093 425.364 29.1093C425.739 30.159 426.167 31.1938 426.419 32.2822C426.755 31.2233 427.127 30.1774 427.486 29.126C427.798 29.1167 428.108 29.1093 428.42 29.1056C427.91 30.5211 427.355 31.92 426.836 33.3318C426.634 33.8658 426.408 34.459 425.881 34.7602C425.476 34.9968 424.992 34.9265 424.547 34.8766C424.551 34.7122 424.56 34.3814 424.566 34.2169C424.928 34.228 425.371 34.2835 425.638 33.9749C425.819 33.7236 425.918 33.4279 426.047 33.1507C425.515 31.7999 424.958 30.4583 424.427 29.1075Z" fill="#372E38"/>
<path d="M435.04 29.7746C435.658 28.7379 437.461 28.7435 438.039 29.8189C438.302 30.2624 438.246 30.7928 438.261 31.2843C437.355 31.2973 436.449 31.2806 435.542 31.301C435.63 31.7223 435.739 32.2101 436.168 32.4208C436.785 32.6721 437.467 32.4614 438.065 32.2582C438.065 32.4337 438.067 32.783 438.067 32.9567C437.181 33.2801 436.043 33.3983 435.286 32.7275C434.528 31.9625 434.526 30.6727 435.04 29.7746ZM435.552 30.6782C436.191 30.6875 436.832 30.6893 437.471 30.6653C437.4 30.1941 437.121 29.6175 436.55 29.6656C435.955 29.6194 435.683 30.2051 435.552 30.6782Z" fill="#372E38"/>
<path d="M439.193 29.3292C439.956 29.0539 440.858 28.8285 441.62 29.2258C442.031 29.4327 442.196 29.9169 442.175 30.3493C442.179 31.2788 442.17 32.2064 442.173 33.1359C442.024 33.1359 441.725 33.1378 441.575 33.1378C441.518 32.9567 441.46 32.7737 441.404 32.5945C440.959 33.1156 440.238 33.3484 439.569 33.1599C438.693 32.9419 438.448 31.6188 439.158 31.0866C439.789 30.608 440.63 30.7022 441.377 30.6616C441.319 30.3308 441.312 29.9095 440.97 29.7321C440.445 29.5695 439.926 29.8097 439.432 29.9612C439.35 29.7506 439.27 29.5399 439.193 29.3292ZM439.655 31.8405C439.475 32.5852 440.561 32.7349 440.989 32.3339C441.361 32.0697 441.334 31.5763 441.325 31.1753C440.763 31.301 439.823 31.1069 439.655 31.8405Z" fill="#372E38"/>
<path d="M443.335 29.1186C443.563 29.113 443.791 29.1075 444.019 29.1038C444.051 29.3422 444.083 29.5824 444.113 29.8226C444.477 29.2405 445.122 28.8968 445.822 29.0151C445.794 29.2793 445.768 29.5436 445.742 29.8078C445.161 29.745 444.462 29.9335 444.281 30.5507C444.115 31.4026 444.202 32.2766 444.186 33.1396C443.902 33.1378 443.619 33.1378 443.337 33.1359C443.335 31.798 443.335 30.4583 443.335 29.1186Z" fill="#372E38"/>
<path d="M446.521 29.2849C447.265 28.8211 448.197 29.028 448.985 29.2646C448.894 29.49 448.8 29.7155 448.711 29.9427C448.156 29.7727 447.364 29.4179 446.908 29.9557C446.962 30.6357 447.848 30.6302 448.317 30.948C449.133 31.1975 449.316 32.4078 448.625 32.8846C447.874 33.3854 446.908 33.2246 446.088 33.0084C446.088 32.7534 446.089 32.4965 446.091 32.2415C446.657 32.4448 447.28 32.6536 447.883 32.4799C448.206 32.4115 448.311 31.9625 448.053 31.7685C447.567 31.4026 446.928 31.3065 446.456 30.9258C445.927 30.5341 445.957 29.6323 446.521 29.2849Z" fill="#372E38"/>
<path d="M450.465 29.1906C451.276 28.8414 452.371 28.9744 452.894 29.7395C453.402 30.5064 453.41 31.5671 452.986 32.3727C452.294 33.5609 450.174 33.4889 449.664 32.1676C449.241 31.1771 449.387 29.7099 450.465 29.1906ZM450.818 29.8522C450.209 30.34 450.275 31.2769 450.484 31.9496C450.76 32.7183 452.053 32.6813 452.278 31.8978C452.461 31.2769 452.494 30.523 452.074 29.9871C451.741 29.6896 451.209 29.6101 450.818 29.8522Z" fill="#372E38"/>
<path d="M454.172 29.1186C454.402 29.1149 454.634 29.1112 454.865 29.1075C454.89 29.2368 454.938 29.4937 454.962 29.6231C455.639 28.7287 457.459 28.773 457.692 30.0093C457.784 31.0478 457.698 32.0937 457.726 33.1359C457.444 33.1359 457.165 33.1359 456.885 33.1378C456.851 32.1787 456.962 31.2086 456.825 30.2569C456.653 29.4216 455.243 29.6009 455.129 30.3881C454.946 31.2917 455.045 32.2212 455.022 33.1359C454.738 33.1359 454.452 33.1359 454.17 33.1378C454.18 31.798 454.168 30.4583 454.172 29.1186Z" fill="#372E38"/>
<path fill-rule="evenodd" clip-rule="evenodd" d="M63.1924 20.4224C63.1924 19.1922 63.2083 18.8358 63.903 18.1965C64.9626 17.2212 67.2024 17.248 68.2042 18.205C68.8047 18.7787 68.8092 19.3101 68.8014 20.366L63.1924 20.4224ZM71.3618 27.6943L71.3563 25.3216C69.5435 25.2859 67.7559 25.2673 65.9661 25.2396C63.2183 25.1972 63.2123 25.1688 63.1997 22.4438C65.2498 22.4348 67.3036 22.4159 69.3534 22.4196C69.8755 22.4205 70.2109 22.4767 70.577 22.2192C71.7611 21.386 71.6013 19.8544 71.3104 18.5809C71.1583 17.9147 70.7204 17.0213 70.3637 16.5041C69.9031 15.8363 69.4459 15.4941 68.3792 15.3827C66.8399 15.2219 63.8534 15.0927 62.5968 15.7005C60.4671 16.7305 60.6756 18.3496 60.6745 19.8941C60.6726 22.5045 60.0268 25.6177 62.3955 27.3094C63.2167 27.8959 64.04 27.7034 65.1427 27.7029C67.2124 27.702 69.2935 27.7195 71.3618 27.6943Z" fill="#372E38"/>
<path fill-rule="evenodd" clip-rule="evenodd" d="M42.107 22.1106C42.5794 21.9515 46.6914 21.8875 47.0167 22.0945C47.2111 22.2801 47.2434 25.102 47.0622 25.4186C46.2621 25.5808 43.7961 25.4326 42.8127 25.4334C41.7904 25.4343 42.0079 25.1847 42.0173 24.1945C42.0231 23.5804 41.9265 22.6503 42.107 22.1106ZM40.8213 19.7255C40.2782 19.9835 39.5338 20.7273 39.3251 21.4295C39.1805 21.9164 39.2701 23.8335 39.2745 24.4687C39.2822 25.6192 39.2162 26.3185 39.8729 27.0474C40.5726 27.824 41.0764 27.7042 42.3611 27.7044C44.255 27.7048 46.9027 27.8608 48.7052 27.6791C49.5503 27.2321 49.2488 23.5293 49.243 22.5473C49.2343 21.0538 49.3788 18.3355 49.1914 16.9884C49.0834 16.2123 48.5296 15.7134 47.8967 15.4542C46.935 15.0604 40.8759 15.1812 39.8216 15.2673L39.8658 17.6317C41.3483 17.6841 42.885 17.6576 44.3739 17.6679C45.8071 17.6778 46.8939 17.3879 46.9844 18.5297L46.9657 19.3192C46.9051 19.6076 47.0234 19.3311 46.8878 19.5002C46.322 19.8139 41.6831 19.3161 40.8213 19.7255Z" fill="#372E38"/>
<path fill-rule="evenodd" clip-rule="evenodd" d="M22.1427 8.18298H22.0499C21.3561 8.68132 7.28753 13.3589 7.14684 13.7147L6.96342 19.4099L16.6266 15.9351C17.3296 15.6836 21.0957 14.4166 21.4365 14.1577C22.0329 13.7046 22.178 12.55 22.1682 11.5682C22.1581 10.5447 22.2574 9.1536 22.1427 8.18298Z" fill="#372E38"/>
<path fill-rule="evenodd" clip-rule="evenodd" d="M28.2698 27.7028L31.2409 27.7072L31.2284 21.0215L37.4603 21.007L37.4059 18.6195L31.2003 18.6313L31.2562 14.3767L39.8093 14.3025L39.7976 11.9159C38.2445 11.9063 30.96 11.8454 29.6426 11.9412C28.6164 12.0157 28.2909 12.9515 28.2946 14.037C28.3098 18.5902 28.2751 23.1489 28.2698 27.7028Z" fill="#372E38"/>
<path fill-rule="evenodd" clip-rule="evenodd" d="M93.5969 25.0069V23.4127C93.1945 22.6703 93.8463 22.8744 92.2056 22.2011L86.5935 19.8547C85.9298 19.5742 85.4134 19.3885 85.597 18.3851C85.7779 17.3957 86.5582 17.5998 87.4669 17.6077C89.2397 17.6232 91.0134 17.6431 92.7862 17.652L92.7849 15.2342C90.4285 15.2376 88.0775 15.2447 85.7265 15.2461C84.4434 15.2468 83.9495 15.6963 83.4839 16.5546C83.0499 17.3546 82.8275 18.4611 82.9513 19.4915C83.0962 20.6965 83.7628 20.7803 84.7687 21.221C86.381 21.9274 88.255 22.5446 89.9296 23.194C90.4162 23.3827 90.7913 23.4576 90.9905 23.8749C91.2198 24.3552 91.1214 25.006 90.7916 25.2389C90.1695 25.44 84.4952 25.2764 83.2718 25.3056L83.2369 27.6974C85.4103 27.6974 87.5823 27.7029 89.7542 27.7028C91.5463 27.7028 92.481 27.8879 93.2116 26.2781C93.388 25.8895 93.4251 25.3635 93.5969 25.0069Z" fill="#372E38"/>
<path fill-rule="evenodd" clip-rule="evenodd" d="M74.6834 17.6323C80.1155 17.5343 80.1951 17.338 80.1869 19.894C80.1786 22.4879 80.171 25.0817 80.1627 27.69L82.2763 27.6808C82.2763 24.7803 82.2757 21.8797 82.2763 18.9791C82.2767 17.1341 82.1226 16.6516 81.0504 15.7877C80.1231 15.0406 78.6024 15.2791 77.2197 15.279C71.6188 15.2786 72.2864 14.6236 72.2795 19.0706C72.2751 21.9458 72.2657 24.8212 72.264 27.697L74.6807 27.6764L74.6834 17.6323Z" fill="#372E38"/>
<path fill-rule="evenodd" clip-rule="evenodd" d="M60.3554 27.6446L60.3588 25.7416C60.358 25.6984 60.3511 25.5172 60.3447 25.482C60.3012 25.2411 60.3532 25.3527 60.2399 25.2227C59.9253 25.0725 55.5677 25.1145 54.8011 25.1008C52.2965 25.0557 52.7446 23.7751 52.7375 21.6324C52.7308 19.592 52.3709 18.1691 54.3579 17.7062C55.2612 17.4957 58.6802 17.6322 59.8578 17.6258L59.8617 15.2628C58.4856 15.2546 57.1479 15.2504 55.8104 15.2444C54.3532 15.2378 53.4709 15.0851 52.2514 15.6932C49.7741 16.9285 50.3028 19.1999 50.2803 21.731C50.2585 24.1888 49.7184 26.4199 52.5527 27.4532C53.6318 27.8466 55.1457 27.692 56.3594 27.6884C57.4656 27.6851 59.3413 27.7889 60.3554 27.6446Z" fill="#372E38"/>
<path fill-rule="evenodd" clip-rule="evenodd" d="M0 18.5001V20.3776C0.0969257 20.6428 0.215279 21.813 0.306175 22.2442C0.667361 23.9572 1.3639 25.4632 2.2901 26.8445C3.46686 28.5993 4.9105 29.7942 6.93184 30.9256C6.83621 30.4716 6.64161 30.294 6.63497 29.6849C6.62732 28.9889 6.85015 28.8213 6.97849 28.2845C6.33868 27.9885 4.78586 26.3901 4.32979 25.8106C-2.45861 17.1851 5.64623 6.78355 15.7622 9.71927C16.2711 9.86699 17.355 9.56594 17.7577 9.29461C15.7795 8.79562 14.5498 8.45395 12.3511 8.25524C7.21043 8.1045 3.33612 9.94923 1.20668 14.15C0.0702467 16.3918 0.304619 17.6891 0 18.5001Z" fill="#372E38"/>
<path fill-rule="evenodd" clip-rule="evenodd" d="M7.004 26.4309C7.35912 26.4057 13.1371 24.2027 13.9686 23.8898C15.4732 23.3236 16.8587 23.1083 17.0143 22.084C17.1785 21.0035 17.0001 18.5648 16.9843 17.344C16.6807 17.3697 7.3069 20.9448 6.9438 21.1751L7.004 26.4309Z" fill="#372E38"/>
<path fill-rule="evenodd" clip-rule="evenodd" d="M17.7657 27.6879C16.5252 28.4926 15.0695 29.1119 13.2958 29.2749C13.1851 30.2846 13.7516 30.1536 12.6731 31.7104C17.0198 31.1405 20.5732 28.7076 22.1545 25.947C23.1491 24.2104 23.6653 22.1966 23.6244 19.8025C23.5992 18.3229 23.0949 15.2542 22.5066 13.8557L22.3669 13.6044C22.3609 13.5702 22.3399 13.5643 22.3242 13.5459C21.988 14.1199 22.0616 14.4343 21.5009 14.6606C22.7767 18.2656 22.6003 21.5321 20.7976 24.5907C20.1005 25.7735 18.8795 26.9653 17.7657 27.6879Z" fill="#372E38"/>
<path fill-rule="evenodd" clip-rule="evenodd" d="M9.47276 32.6115H10.3893C10.6849 32.429 11.0152 32.3829 11.3422 32.1493C13.6615 30.4924 12.5816 26.6153 9.79067 26.6654C7.41249 26.7081 6.28377 29.8069 7.78719 31.5963C8.42071 32.3505 8.59686 32.1993 9.47276 32.6115Z" fill="#372E38"/>
<path d="M161.536 13.7229C161.52 13.8969 161.321 14.3174 160.805 14.4344C160.478 14.5102 160.162 14.6261 159.878 14.7489C160.416 13.6527 160.763 13.1866 160.961 12.9899L161.103 12.9106C161.505 13.1208 161.563 13.4487 161.536 13.7229ZM158.263 16.0023C158.23 16.0831 158.029 16.5908 157.732 17.3353C157.397 18.1775 154.628 25.166 154.482 25.4485C152.881 28.5436 149.323 28.415 147.734 27.1828C148.241 26.9667 148.739 26.7222 149.205 25.6109C149.27 25.4576 153.124 15.6767 153.26 15.3508C153.939 13.7173 155.078 12.7965 156.923 12.6155C157.266 12.581 157.639 12.5639 158.035 12.5639C158.752 12.5639 159.442 12.619 159.983 12.6806C159.537 13.2733 158.984 14.2868 158.263 16.0023ZM146.897 26.4609C146.385 26.0597 145.492 24.4554 145.415 22.1321C145.534 21.8093 147.583 16.4528 147.624 16.3582C148.165 15.0647 148.842 14.5407 149.261 14.5917C149.773 14.993 150.666 16.5969 150.743 18.9201C150.625 19.2421 148.575 24.5998 148.534 24.6949C147.993 25.9868 147.317 26.5103 146.897 26.4609ZM142.899 25.7018C142.22 27.3358 141.081 28.256 139.235 28.4378C138.891 28.4717 138.519 28.488 138.123 28.488C137.407 28.488 136.717 28.432 136.175 28.3714C136.621 27.7784 137.174 26.7656 137.895 25.0499C137.929 24.9691 138.131 24.4619 138.426 23.7178C138.761 22.8749 141.46 15.8866 141.606 15.6045C143.206 12.5092 146.836 12.638 148.425 13.8703C147.917 14.0842 147.489 14.3306 147.023 15.4418C146.959 15.5955 143.034 25.3761 142.899 25.7018ZM135.122 28.1046C134.721 27.8943 134.63 27.6045 134.657 27.3301C134.673 27.154 134.838 26.7357 135.354 26.6183C135.68 26.5424 135.998 26.4271 136.28 26.302C135.743 27.4002 135.394 27.8658 135.197 28.0608L135.122 28.1046ZM161.234 11.407C160.806 11.3331 159.486 11.128 158.035 11.128C157.595 11.128 157.173 11.148 156.783 11.1858C153.777 11.4826 152.551 13.3159 151.933 14.799C151.908 14.8606 151.656 15.5911 151.52 15.9476C151.053 13.8213 148.764 11.644 146.056 11.6421C144.69 11.6874 142.078 11.7365 140.374 14.9285C140.184 15.2846 137.457 22.2693 137.112 23.1364C136.811 23.894 136.79 24.0906 136.64 24.3571C136.491 24.6246 136.205 25.0564 135.186 25.198C133.871 25.3838 133.224 26.3721 133.223 27.4549C133.223 28.5359 134.144 29.3634 134.925 29.5759C135.692 29.7837 136.672 29.8548 138.123 29.8548C138.564 29.8548 138.986 29.835 139.376 29.7961C142.382 29.4998 143.698 27.5518 144.273 26.3181C144.3 26.2586 144.538 25.6359 144.673 25.2795C145.164 27.1272 147.394 29.4089 150.102 29.4112C151.468 29.3654 154.011 29.3144 155.715 26.1241C155.904 25.7682 159.371 16.9243 159.401 16.85C159.41 16.8357 159.786 15.8772 161.126 15.7732C162.113 15.6767 162.991 14.6731 163.009 13.5901C163.029 12.3482 161.89 11.5381 161.234 11.407Z" fill="#372E38"/>
<path d="M226.465 24.5788C226.01 25.2476 225.395 25.5559 224.534 25.5559C223.682 25.5559 223.052 25.2379 222.604 24.581C222.222 24.0167 222.029 23.2651 222.029 22.3472C222.029 21.4338 222.223 20.6732 222.602 20.092C223.052 19.433 223.682 19.1131 224.534 19.1131C225.401 19.1131 226.012 19.4294 226.462 20.1083C226.845 20.6958 227.038 21.4495 227.038 22.3472C227.038 23.2673 226.845 24.0167 226.465 24.5788ZM224.534 16.3813C222.82 16.3813 221.412 16.9541 220.349 18.0889C219.297 19.2089 218.764 20.6486 218.764 22.3696C218.764 24.0888 219.289 25.5222 220.327 26.6294C221.407 27.775 222.821 28.358 224.534 28.358C226.261 28.358 227.67 27.7906 228.719 26.6713C229.773 25.5514 230.304 24.104 230.304 22.3696C230.304 20.6486 229.773 19.2089 228.719 18.0889C227.655 16.9541 226.248 16.3813 224.534 16.3813Z" fill="#372E38"/>
<path d="M181.397 12.6101H180.164C179.644 12.6884 178.56 13.026 178.373 14.5179V22.4283C178.366 22.795 178.053 22.839 177.877 22.5492C177.873 22.5421 177.865 22.5398 177.858 22.5363L173.76 15.1125C172.029 11.8351 168.125 12.6101 168.125 12.6101C167.959 12.6101 167.825 12.7439 167.825 12.9106V27.8188C167.825 27.9833 167.959 28.1175 168.125 28.1175H169.165C169.746 28.0876 171.149 27.8166 171.149 25.8836V17.8974C171.207 17.6475 171.448 17.6316 171.606 17.8482L176.24 26.1882C177.014 27.5478 178.136 28.2349 179.574 28.2349C180.14 28.2349 180.931 28.154 181.509 27.9218C181.623 27.8768 181.698 27.7673 181.698 27.6444V12.9106C181.698 12.7439 181.565 12.6101 181.397 12.6101Z" fill="#372E38"/>
<path d="M189.328 20.9798H186.424C185.975 20.9798 186.021 20.6467 186.049 20.5369C186.327 19.679 187 19.1389 187.879 19.1389C188.481 19.1389 188.948 19.335 189.303 19.7251C189.497 19.9651 189.632 20.2437 189.71 20.5749C189.735 20.7091 189.729 20.9798 189.328 20.9798ZM187.858 16.3813C186.178 16.3813 184.831 16.9809 183.856 18.1673C182.957 19.2513 182.501 20.6732 182.501 22.3923C182.501 24.172 183.043 25.628 184.114 26.7245C185.201 27.8074 186.636 28.358 188.38 28.358C189.685 28.358 190.951 28.0853 192.249 27.5261C192.399 27.4627 192.469 27.288 192.407 27.1391L191.966 26.0565C191.464 25.1621 190.431 25.2512 190.06 25.3156C189.571 25.4293 189.066 25.4918 188.534 25.4918C187.223 25.4918 186.413 25.0124 186.072 24.0338C186.068 23.9886 186.041 23.6289 186.454 23.6289H192.652C192.801 23.6289 192.928 23.5189 192.951 23.373C193.049 22.6971 193.106 22.1576 193.106 21.8895C193.106 20.2668 192.647 18.9366 191.742 17.9396C190.799 16.9053 189.492 16.3813 187.858 16.3813Z" fill="#372E38"/>
<path d="M241.176 23.8625H241.171V20.739C241.171 17.9678 239.465 16.3961 236.119 16.5597C235.325 16.5995 234.986 16.7896 234.609 16.9903C234.244 17.1743 234.237 16.8257 234.237 16.8257H234.236C234.207 16.6894 234.093 16.5854 233.948 16.5854H231.331C231.165 16.5854 231.033 16.7198 231.033 16.8861L231.023 27.8188C231.023 27.9833 231.157 28.1175 231.323 28.1175H232.262C232.833 28.0893 234.185 27.8227 234.24 25.9933L234.247 20.8829V20.5314C234.247 20.5314 234.247 19.4653 235.24 19.1866C235.546 19.1262 235.833 19.094 236.096 19.094C237.364 19.094 237.955 19.6374 237.955 20.7991V24.7306C237.955 24.742 237.959 24.7517 237.959 24.7628L237.961 25.9706C238.017 27.7995 239.37 28.0657 239.939 28.0952H240.879C241.044 28.0952 241.179 27.9605 241.179 27.794L241.176 23.8625Z" fill="#372E38"/>
<path d="M218.947 27.7069L218.552 26.5484C218.248 25.8261 217.835 25.5827 217.296 25.6179C216.954 25.6226 216.614 25.6179 216.357 25.5485C216.058 25.4595 215.925 25.2342 215.925 24.899V19.7909C215.932 19.7055 215.98 19.56 216.158 19.5046H216.973V19.4864H217.525C218.496 19.3697 218.707 18.498 218.746 17.9943V16.9205C218.746 16.756 218.612 16.6213 218.446 16.6213H216.374C216.355 16.6165 216.333 16.6138 216.306 16.6138C215.989 16.6138 215.932 16.4053 215.925 16.2976V13.9345C215.925 13.7678 215.79 13.636 215.625 13.636H214.677C213.181 13.636 212.801 14.8322 212.71 15.6009V25.1791C212.71 27.391 213.939 28.5096 216.366 28.5096C217.175 28.5096 218.027 28.47 218.762 28.0876C218.907 28.0118 219 27.8639 218.947 27.7069Z" fill="#372E38"/>
<path d="M211.723 16.5994H210.244C208.945 16.5994 208.388 17.8181 208.253 18.1288C208.245 18.1514 206.456 22.6894 206.456 22.6894C206.443 22.7142 206.43 22.7426 206.419 22.7732C206.293 23.1476 206.029 23.055 205.962 22.8316C205.96 22.818 205.951 22.813 205.943 22.8081L204.16 17.8413C203.705 16.9715 202.899 16.6971 202.299 16.6213H201.345C201.216 16.6213 201.101 16.7027 201.061 16.8257L198.713 22.788C198.587 23.1625 198.257 23.0701 198.191 22.8467C198.187 22.8368 198.181 22.8316 198.176 22.8279L196.557 18.2059C196.162 17.0678 195.322 16.719 194.651 16.6213H193.125C193.027 16.6213 192.934 16.6699 192.878 16.7499C192.821 16.8318 192.809 16.9339 192.844 17.0268L196.082 25.9617C197.032 28.072 197.872 28.2921 199.545 28.2921C199.673 28.2921 199.786 28.2104 199.829 28.0893L202.112 22.2883C202.114 22.2823 202.119 22.2748 202.121 22.2676C202.236 21.9245 202.462 21.9738 202.549 22.1566L203.905 25.9348C204.615 27.8312 205.444 28.2921 207.403 28.2921C207.53 28.2921 207.642 28.2144 207.685 28.0952L211.997 16.9943C212.031 16.9053 212.018 16.8053 211.962 16.7269C211.91 16.648 211.819 16.5994 211.723 16.5994Z" fill="#372E38"/>
<path d="M911.54 1.59114C916.209 0.49025 921.262 1.02478 925.572 3.12746C925.82 3.228 926.052 3.36326 926.287 3.49056C927.788 4.27825 929.199 5.2475 930.448 6.39034C934.302 9.77401 936.794 14.6513 937.269 19.7427C937.415 20.6556 937.379 21.5829 937.375 22.5044C937.375 22.9839 937.293 23.457 937.25 23.9336C936.912 27.0728 935.832 30.1317 934.119 32.7914C932.531 35.2485 930.435 37.3895 927.965 38.9793C925.443 40.6596 922.53 41.7467 919.531 42.1973C915.429 42.8165 911.147 42.1995 907.396 40.4354C904.947 39.2896 902.733 37.6585 900.896 35.6839C898.6 33.2065 896.915 30.1672 896.072 26.9028C895.704 25.5611 895.532 24.1759 895.41 22.7937C895.376 21.8997 895.354 20.9977 895.471 20.1087C895.689 17.345 896.474 14.6209 897.783 12.1725C898.939 9.96641 900.516 7.97874 902.384 6.32451C904.979 4.02654 908.154 2.3781 911.54 1.59114ZM913.931 3.42691C911.037 3.66416 908.162 4.3976 905.589 5.75092C904.93 6.09233 904.314 6.50751 903.674 6.88291C902.372 7.68796 901.158 8.67384 900.256 9.9165C899.671 10.7252 899.236 11.638 898.978 12.6007C898.16 16.1435 898.059 19.8368 898.583 23.4309C898.939 25.8244 899.554 28.1867 900.5 30.4189C901.151 31.9791 901.969 33.4734 902.971 34.8398C904.075 36.6213 905.886 37.8466 907.79 38.6632C909.355 39.3272 911.013 39.7562 912.693 40.0115C916.028 40.4976 919.47 40.3616 922.733 39.5023C924.322 39.064 925.882 38.4607 927.264 37.5544C928.352 36.8521 929.331 35.9588 930.032 34.868C930.364 34.3617 930.594 33.8011 930.896 33.2781C932.371 30.5173 933.419 27.5278 933.939 24.4428C934.496 21.1981 934.476 17.8672 933.994 14.6144C933.863 13.826 933.783 13.0202 933.494 12.2694C933.073 11.0224 932.428 9.8391 931.535 8.86263C930.886 8.11834 930.084 7.52305 929.242 7.01022C928.158 6.40625 927.084 5.77335 925.928 5.30753C922.164 3.71696 918.003 3.09563 913.931 3.42691Z" fill="#372E38"/>
<path d="M914.416 6.43735C917.464 6.26376 920.54 6.41493 923.54 6.9943C924.945 7.28146 926.343 7.66699 927.636 8.29483C927.916 8.43877 928.221 8.53207 928.49 8.69844C929.375 9.20186 930.058 10.0301 930.399 10.9834C931.051 12.6723 930.883 14.5117 930.904 16.2817C930.88 22.1622 929.778 28.0283 927.75 33.5501C927.564 34.0608 927.39 34.5794 927.159 35.072C926.384 35.8705 925.363 36.3783 924.338 36.7884C922.783 37.3793 921.132 37.681 919.48 37.8524C917.382 38.0556 915.264 38.0253 913.17 37.7844C911.789 37.6108 910.412 37.3663 909.088 36.9345C908.218 36.656 907.364 36.2965 906.61 35.7779C906.256 35.5081 905.869 35.2195 905.716 34.7841C904.241 31.5082 903.155 28.058 902.514 24.526C901.839 20.8588 901.641 17.112 901.844 13.3928C901.787 12.0958 901.983 10.7064 902.814 9.659C903.346 8.961 904.135 8.51327 904.95 8.21743C907.974 7.08978 911.206 6.6189 914.416 6.43735ZM911.613 13.7645C911.602 19.3724 911.608 24.981 911.611 30.5896C912.197 30.6026 912.784 30.5961 913.37 30.5997C913.36 24.9861 913.374 19.3731 913.364 13.7595C912.78 13.7588 912.196 13.7624 911.613 13.7645ZM915.414 13.766C915.393 15.183 915.415 16.6007 915.406 18.0176C915.414 22.1941 915.396 26.3705 915.414 30.5462C915.944 30.544 916.474 30.5368 917.003 30.5512C917.027 27.8894 917.049 25.2276 917.055 22.5666C917.84 22.5564 918.627 22.5716 919.412 22.5658C919.409 25.0056 919.419 27.4453 919.422 29.8843C919.425 30.1071 919.402 30.3321 919.444 30.5527C920.027 30.531 920.613 30.5491 921.197 30.5411C921.205 26.0609 921.208 21.5792 921.195 17.1005C920.652 15.9815 920.088 14.8719 919.534 13.758C918.161 13.7689 916.788 13.7479 915.414 13.766ZM905.762 13.8065C905.769 19.4028 905.765 24.9984 905.763 30.5946C906.355 30.5975 906.946 30.6019 907.537 30.6004C907.563 27.9285 907.544 25.2559 907.55 22.5832C908.416 22.5666 909.284 22.568 910.15 22.5825C910.152 21.9438 910.153 21.3051 910.143 20.6664C909.278 20.6765 908.413 20.6585 907.548 20.6729C907.552 19.0194 907.55 17.3666 907.547 15.7132C908.651 15.6777 909.756 15.7175 910.86 15.6929C910.864 15.0694 910.851 14.4459 910.863 13.8231C910.749 13.7949 910.631 13.8 910.515 13.8007C908.93 13.8065 907.346 13.7935 905.762 13.8065ZM921.553 13.8087C921.548 14.4459 921.545 15.0839 921.55 15.7211C922.125 15.7146 922.701 15.7283 923.276 15.7334C923.309 20.6693 923.334 25.6045 923.35 30.5404C923.944 30.5621 924.539 30.5382 925.134 30.5491C925.15 25.6059 925.129 20.6621 925.158 15.7189C925.735 15.7132 926.312 15.7182 926.889 15.7233C926.902 15.0875 926.886 14.4517 926.916 13.8166C925.129 13.8043 923.342 13.8188 921.553 13.8087Z" fill="#372E38"/>
<path d="M917.067 15.6459C917.552 15.6415 918.037 15.6336 918.523 15.6444C918.78 16.2737 919.039 16.903 919.307 17.5294C919.358 17.6625 919.434 17.7956 919.425 17.9431C919.418 18.7279 919.426 19.5127 919.424 20.2968C918.635 20.3033 917.845 20.304 917.056 20.2946C917.075 18.7453 917.048 17.1959 917.067 15.6459Z" fill="#372E38"/>
<path d="M1034.54 10.3274C1035.75 10.3346 1036.95 10.3303 1038.16 10.3303C1038.17 16.4279 1038.16 22.5269 1038.17 28.6246C1036.96 28.6447 1035.74 28.639 1034.53 28.6289C1034.54 22.5284 1034.52 16.4279 1034.54 10.3274Z" fill="#372E38"/>
<path d="M976.974 10.3864C979.211 10.372 981.449 10.3821 983.686 10.3792C986.06 10.4382 988.259 11.7752 989.641 13.6345C990.797 15.2521 991.535 17.218 991.435 19.2155C991.482 21.662 991.009 24.3086 989.302 26.1881C987.832 27.6834 985.784 28.5987 983.692 28.8088C981.453 28.8448 979.215 28.8102 976.975 28.826C976.966 22.6795 976.969 16.5329 976.974 10.3864ZM980.916 13.7281C980.905 17.69 980.913 21.6519 980.911 25.6139C982.586 25.7089 984.444 25.5707 985.739 24.3949C986.76 23.53 986.959 22.1456 987.121 20.905C987.435 18.8269 986.948 16.5603 985.538 14.947C984.362 13.718 982.513 13.6633 980.916 13.7281Z" fill="#372E38"/>
<path d="M1006.36 11.0757C1007.56 11.0858 1008.77 11.0858 1009.97 11.0743C1010.01 12.381 1009.96 13.6892 1010 14.9945C1010.64 14.9772 1011.29 14.9844 1011.94 14.9931C1011.95 15.9112 1011.95 16.8308 1011.93 17.749C1011.28 17.7433 1010.64 17.7505 1009.99 17.7505C1009.98 19.9207 1009.99 22.0894 1009.99 24.2582C1009.97 24.8756 1010.29 25.5981 1010.96 25.7377C1011.57 25.8326 1012.2 25.7722 1012.82 25.7938C1012.83 26.7465 1012.83 27.6992 1012.82 28.6519C1011.73 28.6649 1010.64 28.6404 1009.55 28.6231C1008.56 28.4763 1007.39 28.2547 1006.83 27.3452C1006.5 26.8098 1006.35 26.1766 1006.35 25.5549C1006.35 22.9616 1006.36 20.3697 1006.35 17.7778C1005.72 17.7778 1005.1 17.7735 1004.47 17.7692C1004.48 16.838 1004.47 15.9084 1004.48 14.9772C1005.11 14.9916 1005.73 14.9844 1006.35 14.9744C1006.36 13.6748 1006.34 12.3753 1006.36 11.0757Z" fill="#372E38"/>
<path d="M1014.56 11.1232C1015.79 11.0973 1017.03 11.07 1018.26 11.1376C1018.24 12.4213 1018.25 13.7036 1018.25 14.9873C1018.89 14.9888 1019.52 14.9988 1020.16 14.9844C1020.18 15.9012 1020.17 16.8179 1020.17 17.7346C1019.58 17.7346 1018.99 17.7418 1018.4 17.7404C1018.39 19.9106 1018.39 22.0808 1018.39 24.251C1018.38 24.8267 1018.55 25.5722 1019.2 25.7405C1019.76 25.8398 1020.33 25.788 1020.9 25.7851C1020.91 26.7422 1020.91 27.6978 1020.9 28.6548C1020.04 28.6663 1019.18 28.5972 1018.32 28.6174C1017.44 28.6433 1016.56 28.4245 1015.78 28.0273C1014.87 27.5035 1014.6 26.3809 1014.57 25.411C1014.55 22.8666 1014.57 20.3207 1014.56 17.7764C1013.95 17.7778 1013.34 17.772 1012.73 17.7735C1012.73 16.8424 1012.67 15.9084 1012.76 14.9801C1013.36 15.0003 1013.96 14.9902 1014.56 14.9859C1014.56 13.6978 1014.56 12.4113 1014.56 11.1232Z" fill="#372E38"/>
<path d="M1025.98 14.5714C1027.59 14.3167 1029.28 14.6952 1030.63 15.5759C1032.33 16.6754 1033.48 18.5261 1033.78 20.4978C1034.13 22.5687 1033.53 24.7792 1032.18 26.4054C1030.93 27.9338 1028.95 28.9239 1026.93 28.8505C1025.35 28.8807 1023.8 28.2288 1022.62 27.2085C1021.07 25.8557 1020.18 23.8322 1020.15 21.8016C1020.13 20.089 1020.69 18.3592 1021.79 17.0237C1022.81 15.7242 1024.34 14.8448 1025.98 14.5714ZM1026.25 17.6627C1025.13 18.0124 1024.36 19.0486 1024.06 20.1351C1023.62 21.6822 1023.79 23.4638 1024.79 24.7763C1025.31 25.4959 1026.18 26.001 1027.09 25.9895C1027.94 25.9219 1028.7 25.4182 1029.19 24.7475C1030.04 23.5861 1030.23 22.0693 1029.99 20.682C1029.8 19.6256 1029.28 18.5794 1028.37 17.9433C1027.76 17.5173 1026.96 17.4367 1026.25 17.6627Z" fill="#372E38"/>
<path d="M993.757 16.7589C995.97 14.2131 1000.41 13.9367 1002.84 16.3243C1004.49 17.9778 1005.24 20.361 1005.13 22.6507C1002.02 22.6622 998.898 22.6435 995.782 22.6593C995.785 23.6121 996.134 24.5892 996.887 25.2138C997.746 25.978 999.075 26.0888 1000.11 25.6225C1000.66 25.3707 1000.93 24.8051 1001.13 24.2741C1002.47 24.2625 1003.81 24.2597 1005.14 24.2769C1004.21 27.4992 1000.43 29.6651 997.135 28.6922C995.252 28.2662 993.564 26.9955 992.762 25.2498C992.294 24.2107 991.907 23.094 991.913 21.9455C992.02 20.1006 992.506 18.1851 993.757 16.7589ZM997.711 17.7764C996.755 18.1289 996.138 19.0946 996.046 20.0718C997.768 20.089 999.489 20.1452 1001.21 20.1624C1001.03 19.4861 1000.82 18.7607 1000.27 18.2829C999.598 17.6454 998.576 17.5706 997.711 17.7764Z" fill="#372E38"/>
</svg>
