<svg width="68" height="64" viewBox="0 0 68 64" fill="none" xmlns="http://www.w3.org/2000/svg">
<path d="M33.6876 39.3077C43.9787 39.3077 52.3214 30.6604 52.3214 19.9934C52.3214 9.32634 43.9787 0.679016 33.6876 0.679016C23.3964 0.679016 15.0537 9.32634 15.0537 19.9934C15.0537 30.6604 23.3964 39.3077 33.6876 39.3077Z" fill="#45B20E"/>
<path d="M33.6876 39.3077C43.9787 39.3077 52.3214 30.6604 52.3214 19.9934C52.3214 9.32634 43.9787 0.679016 33.6876 0.679016C23.3964 0.679016 15.0537 9.32634 15.0537 19.9934C15.0537 30.6604 23.3964 39.3077 33.6876 39.3077Z" fill="#45B20E"/>
<path d="M19.979 7.14537C23.6729 6.80503 28.8444 8.50673 29.4191 12.9312C29.7474 16.4197 26.2997 18.1214 24.3296 20.3336C24.2475 24.2475 29.1728 22.801 31.3071 24.5878C36.4786 27.736 33.4413 35.9893 28.9265 38.1164C29.5832 34.713 32.7846 32.0753 32.21 28.4167C31.1429 25.4387 27.6131 25.4387 25.1505 24.5878C22.8521 24.2475 22.3595 21.4397 22.6879 19.4827C24.2475 17.1003 28.1877 15.739 27.531 12.3356C26.0535 9.18741 21.7849 9.86809 19.979 7.14537Z" fill="#F0F0F0"/>
<path d="M38.0384 12.8463C37.5459 9.18759 39.1056 4.93333 42.3891 3.23163C41.9786 6.2947 39.516 8.84725 39.6802 12.0805C40.6652 15.0585 44.2771 14.4629 46.6576 15.0585C47.8068 17.7812 49.5307 19.9083 52.0754 21.2697C49.1202 23.4819 46.4934 19.3127 45.5084 16.7602C42.6353 16.7602 39.1877 15.9093 38.0384 12.8463Z" fill="#F0F0F0"/>
<path d="M0.277512 16.3346C5.36693 16.0794 10.4564 16.2495 15.5458 16.2495C15.4637 16.675 15.2995 17.5258 15.2174 17.9512C10.7847 18.2065 6.26989 17.9512 1.83717 18.0363C1.83717 22.0353 2.00135 26.0343 1.673 30.0333C-0.625449 29.6079 0.277512 27.2255 0.03125 25.694C0.03125 22.5458 0.03125 19.4828 0.277512 16.3346Z" fill="#F0F0F0"/>
<path d="M24.7397 57.1756C24.7397 58.7923 24.7397 60.494 24.7397 62.1957C30.8963 62.1957 37.0529 62.1957 43.2094 62.1957C43.2094 60.494 43.2094 58.7923 43.2094 57.1756C37.0529 57.1756 30.8963 57.0905 24.7397 57.1756Z" fill="#010101"/>
<path d="M51.9109 16.1644C56.9182 16.3346 61.9255 15.9943 66.9329 16.3346C68.4925 16.8451 67.7537 18.8872 68 20.1634C67.8358 32.2455 68.1642 44.3276 67.7537 56.4097C67.5896 56.5799 67.1791 56.8352 67.0149 57.0053C59.7913 57.3457 52.5676 57.0904 45.3439 57.1755C45.3439 58.7921 45.426 60.4087 45.426 62.1104C47.3961 62.1104 49.3662 62.1955 51.2542 62.3657C49.7766 64.1525 47.3961 63.3867 45.426 63.642C38.1202 63.4718 30.7323 63.3867 23.4265 63.642C21.3743 63.4718 19.158 63.9823 17.4342 62.5359C19.2401 62.1955 21.1281 62.1104 23.0161 62.0254C22.934 60.4087 22.934 58.7921 22.934 57.1755C15.382 57.0053 7.82992 57.3457 0.195794 57.0053C0.0316194 50.1985 -0.214643 43.3917 0.359969 36.67C0.688319 37.0103 1.42711 37.691 1.75546 38.0313C2.00172 43.8171 1.75546 49.6029 1.83754 55.3036C23.2624 55.3036 44.7693 55.3036 66.1941 55.3036C66.1941 42.8812 66.1941 30.4587 66.1941 18.0363C61.5151 18.0363 56.8361 18.0363 52.1571 18.0363C52.075 17.4407 51.993 16.8451 51.9109 16.1644Z" fill="#F0F0F0"/>
</svg>
