<?xml version="1.0" standalone="no"?>
<!DOCTYPE svg PUBLIC "-//W3C//DTD SVG 20010904//EN"
 "http://www.w3.org/TR/2001/REC-SVG-20010904/DTD/svg10.dtd">
<svg version="1.0" xmlns="http://www.w3.org/2000/svg"
 width="2400.000000pt" height="2284.000000pt" viewBox="0 0 2400.000000 2284.000000"
 preserveAspectRatio="xMidYMid meet">

<g transform="translate(0.000000,2284.000000) scale(0.100000,-0.100000)"
fill="#000000" stroke="none">
<path d="M10875 15630 c-3 -5 -1 -10 4 -10 6 0 11 5 11 10 0 6 -2 10 -4 10 -3
0 -8 -4 -11 -10z"/>
<path d="M10922 15622 c-13 -8 -46 -16 -73 -16 -27 -1 -49 -5 -49 -10 0 -6 -7
-1 -15 10 -8 11 -14 14 -15 6 0 -8 -8 -10 -25 -6 -17 4 -27 1 -31 -10 -8 -21
-74 -19 -74 3 0 10 -5 6 -13 -9 -15 -30 -38 -33 -54 -5 -9 15 -12 16 -13 5 0
-19 -40 -24 -40 -5 0 17 -20 13 -93 -20 -16 -7 -41 -11 -57 -9 -21 3 -32 -2
-40 -16 -6 -11 -16 -20 -23 -19 -9 0 -9 2 1 6 21 8 13 28 -12 28 -13 0 -22 -4
-19 -9 3 -4 -12 -5 -33 -2 -36 6 -52 6 -126 5 -16 -1 -28 -5 -28 -9 0 -4 -20
-6 -45 -4 -24 1 -47 -1 -50 -7 -4 -5 -10 -7 -15 -4 -5 3 -19 1 -31 -6 -13 -6
-19 -7 -15 -1 3 6 2 13 -4 17 -5 3 -10 -1 -10 -9 0 -16 -3 -18 -37 -20 -10 0
-25 -7 -33 -15 -13 -13 -15 -12 -18 2 -4 20 -21 22 -28 4 -3 -8 -18 -12 -36
-11 -18 1 -45 -4 -60 -12 -14 -8 -34 -11 -42 -8 -10 4 -16 1 -16 -7 0 -7 -3
-10 -6 -7 -3 3 -31 0 -62 -7 -31 -7 -61 -11 -66 -8 -5 4 -6 1 -1 -7 5 -9 2
-10 -11 -6 -11 3 -31 -1 -46 -8 -24 -13 -30 -13 -43 0 -9 9 -15 11 -15 4 0 -7
-8 -9 -20 -5 -14 4 -20 2 -20 -8 0 -8 -7 -17 -15 -21 -8 -3 -15 -1 -15 4 0 6
-17 10 -37 10 -31 -1 -35 -3 -20 -11 23 -13 11 -32 -15 -23 -15 4 -19 3 -14
-7 5 -9 3 -9 -6 1 -16 18 -38 24 -38 10 0 -5 5 -10 10 -10 6 0 10 -7 10 -16 0
-8 -4 -12 -10 -9 -5 3 -10 2 -10 -3 0 -12 -34 -11 -42 2 -6 8 -8 8 -8 0 0 -6
-14 -11 -31 -12 -17 0 -41 -8 -55 -17 -22 -14 -24 -14 -24 1 0 9 -7 14 -16 12
-8 -2 -14 -7 -12 -13 2 -5 7 -9 11 -7 5 1 6 -2 3 -7 -4 -5 -15 -8 -26 -6 -11
2 -20 -1 -20 -7 0 -7 -5 -7 -14 1 -10 9 -15 8 -20 -4 -3 -8 -17 -15 -31 -15
-14 0 -25 -6 -25 -12 0 -9 -4 -8 -10 2 -5 8 -10 10 -10 4 0 -6 -11 -16 -25
-22 -19 -9 -25 -9 -25 0 0 7 -6 6 -17 -3 -35 -28 -60 -37 -74 -28 -8 5 -20 9
-26 9 -19 0 -15 -18 5 -23 18 -5 -38 -11 -73 -9 -12 1 -15 -1 -9 -5 17 -11 -5
-29 -33 -27 -12 1 -20 -2 -18 -6 3 -4 -8 -10 -23 -13 -15 -3 -30 0 -34 6 -6 9
-8 9 -8 0 0 -7 -5 -13 -11 -13 -14 0 -39 -25 -39 -39 0 -7 -10 -9 -26 -5 -17
4 -25 3 -21 -3 4 -6 -4 -8 -20 -5 -18 3 -24 1 -19 -7 5 -7 -2 -11 -18 -11 -14
0 -26 -5 -26 -10 0 -6 -3 -10 -7 -9 -5 1 -19 -2 -31 -6 -18 -6 -20 -10 -10
-16 9 -6 4 -9 -14 -9 -16 0 -28 -4 -28 -10 0 -5 -10 -10 -23 -10 -13 0 -28 -5
-35 -12 -7 -7 -12 -9 -12 -5 0 4 -10 2 -22 -5 -13 -7 -26 -13 -30 -14 -5 -1
-11 -3 -15 -4 -5 -1 -11 -2 -16 -1 -4 1 -12 -11 -17 -25 -6 -14 -16 -24 -23
-21 -6 2 -22 0 -34 -4 -18 -7 -23 -5 -23 7 0 8 -5 12 -10 9 -6 -4 -9 -14 -8
-23 2 -12 -4 -17 -19 -16 -13 1 -23 -3 -23 -7 0 -5 -12 -9 -27 -9 -14 0 -24
-3 -20 -6 3 -4 0 -11 -6 -18 -18 -16 -117 -68 -117 -61 0 5 -12 -3 -45 -32 -7
-7 -20 -13 -27 -13 -7 0 -22 -7 -32 -15 -10 -8 -23 -12 -29 -8 -6 3 -7 1 -3
-5 6 -10 -7 -17 -17 -9 -8 5 -37 -26 -32 -33 3 -5 -5 -6 -17 -2 -14 3 -19 2
-14 -6 4 -7 2 -12 -3 -12 -6 0 -11 -7 -11 -15 0 -11 -11 -15 -40 -15 -27 0
-43 -5 -46 -15 -4 -8 -12 -15 -20 -15 -8 0 -14 -5 -14 -11 0 -6 -7 -8 -16 -5
-13 5 -15 1 -12 -18 5 -25 -10 -31 -24 -11 -4 6 -15 2 -27 -10 -40 -40 -51
-47 -51 -33 0 10 -3 9 -9 -1 -5 -8 -7 -20 -4 -28 3 -7 1 -13 -4 -13 -10 0 -29
-33 -49 -88 -19 -51 -18 -373 1 -445 8 -32 15 -67 15 -77 0 -10 12 -25 26 -32
32 -16 64 -94 64 -156 0 -23 7 -59 15 -79 14 -32 17 -34 28 -20 6 9 26 17 42
18 40 3 112 -18 118 -34 9 -25 -19 -82 -47 -92 -23 -8 -30 -5 -56 24 -17 18
-30 36 -30 42 0 5 -7 9 -16 9 -15 0 -16 -11 -11 -92 4 -51 13 -115 20 -143 8
-27 24 -95 37 -150 12 -55 37 -165 55 -245 19 -80 42 -179 51 -220 9 -41 23
-85 30 -97 8 -12 14 -48 14 -81 0 -41 5 -63 15 -72 17 -14 15 -74 -6 -148 -13
-48 -5 -97 57 -339 19 -72 36 -149 39 -172 3 -23 12 -68 19 -101 16 -68 3 -83
-14 -17 -6 23 -18 62 -25 87 -13 39 -27 98 -40 164 -3 10 -13 48 -24 85 -39
129 -51 177 -66 249 -17 83 -19 142 -6 142 19 0 23 58 6 83 -9 14 -20 56 -25
94 -5 37 -20 113 -34 168 -15 55 -33 129 -40 165 -8 36 -35 148 -60 250 -25
102 -53 217 -62 255 -9 39 -26 86 -39 105 -38 61 -69 223 -54 287 4 18 3 33
-1 33 -4 0 -7 17 -7 38 0 21 -2 42 -5 48 -3 5 -6 33 -7 63 -1 30 -6 62 -10 70
-8 15 -22 87 -26 136 -5 51 -27 108 -45 112 -10 3 -21 16 -24 29 -7 28 -26 32
-33 6 -3 -13 -11 -18 -26 -15 -13 3 -38 -6 -60 -21 -21 -14 -42 -26 -47 -26
-6 0 -10 -5 -10 -10 0 -6 -11 -15 -25 -22 -13 -6 -22 -15 -19 -19 3 -5 -1 -9
-9 -9 -7 0 -23 -9 -35 -20 -12 -11 -26 -20 -32 -20 -5 0 -10 -4 -10 -10 0 -5
-8 -10 -19 -10 -11 0 -21 -9 -25 -22 -5 -18 -8 -20 -15 -10 -6 10 -10 7 -15
-12 -6 -23 -9 -25 -26 -16 -11 6 -20 7 -21 3 -4 -39 -19 -71 -19 -40 0 9 -5
17 -11 17 -5 0 -8 -4 -4 -9 3 -5 -4 -13 -16 -16 -14 -5 -19 -13 -16 -26 3 -10
2 -18 -2 -17 -17 2 -31 -3 -31 -12 0 -13 -32 -50 -39 -46 -3 2 -12 -2 -19 -10
-11 -12 -9 -14 10 -15 20 -1 19 -3 -9 -15 -18 -8 -38 -23 -45 -33 -11 -18 -13
-18 -26 -3 -7 9 -11 11 -7 5 3 -7 1 -13 -4 -13 -6 0 -11 -7 -11 -16 0 -8 -4
-13 -8 -10 -5 3 -8 -3 -8 -12 1 -9 -3 -17 -9 -17 -5 0 -9 4 -7 9 2 5 -4 4 -12
-3 -9 -7 -13 -18 -10 -23 3 -5 -3 -16 -15 -24 -12 -8 -21 -21 -21 -29 0 -7
-14 -16 -30 -20 -17 -4 -30 -11 -30 -16 0 -6 5 -7 12 -3 6 4 8 3 4 -4 -3 -6
-21 -14 -39 -17 -48 -11 -52 -16 -26 -32 l24 -14 -30 4 c-22 4 -35 -1 -52 -19
l-22 -24 27 0 c20 0 23 -3 13 -9 -8 -5 -19 -7 -26 -5 -6 3 -18 -2 -25 -10 -7
-9 -17 -13 -23 -9 -6 3 -7 1 -3 -5 5 -9 -2 -31 -22 -62 -2 -2 -7 2 -12 10 -7
11 -10 8 -15 -13 -4 -15 -11 -28 -16 -28 -5 -1 -13 -3 -19 -4 -5 -1 -14 -3
-20 -4 -14 -2 -12 -28 3 -34 7 -3 1 -9 -14 -15 -14 -6 -32 -24 -39 -41 -11
-28 -21 -36 -42 -32 -5 0 -8 -3 -8 -8 0 -5 -12 -12 -26 -15 -21 -6 -25 -11
-20 -30 8 -31 -13 -56 -49 -59 -22 -2 -29 -7 -27 -20 2 -12 -2 -15 -14 -10
-15 6 -15 4 0 -19 15 -24 15 -25 -5 -23 -11 1 -25 8 -30 16 -12 20 -11 2 2
-23 8 -15 8 -23 -1 -32 -9 -8 -14 -8 -17 2 -5 13 -24 17 -22 5 4 -27 -3 -63
-11 -58 -14 9 -59 -24 -76 -57 -8 -16 -18 -26 -23 -24 -4 3 -8 -2 -8 -10 0 -9
6 -13 16 -9 13 5 14 4 3 -7 -7 -7 -20 -13 -29 -13 -9 0 -21 -9 -27 -20 -6 -11
-18 -25 -26 -32 -13 -11 -13 -12 3 -13 10 0 15 -5 12 -10 -4 -6 -11 -7 -17 -4
-7 4 -8 2 -4 -4 4 -6 -2 -19 -13 -29 -16 -13 -18 -20 -9 -31 10 -11 8 -13 -8
-10 -14 2 -19 -2 -18 -20 1 -15 -3 -21 -12 -18 -7 3 -24 -1 -39 -7 -19 -9 -25
-18 -22 -34 3 -15 -2 -23 -15 -26 -11 -3 -22 -15 -25 -26 -3 -12 -9 -21 -13
-21 -4 0 -12 -11 -18 -25 -6 -14 -20 -25 -29 -26 -11 0 -13 -3 -5 -6 17 -7 15
-26 -6 -49 -10 -10 -18 -23 -19 -29 0 -5 -11 -16 -24 -22 -14 -8 -23 -20 -21
-31 2 -12 -7 -22 -25 -29 -28 -11 -28 -11 -4 -12 24 -1 24 -1 5 -16 -10 -8
-27 -15 -37 -15 -10 0 -15 -4 -12 -10 9 -14 -23 -57 -48 -65 -22 -7 -22 -7 3
-14 22 -6 23 -8 6 -14 -11 -4 -16 -13 -12 -22 3 -8 1 -15 -3 -15 -5 0 -12 6
-14 13 -4 9 -6 9 -6 -1 -1 -7 -5 -11 -9 -8 -4 2 -8 -8 -7 -24 0 -15 3 -26 7
-23 5 2 8 0 8 -5 0 -5 -11 -15 -25 -22 -16 -8 -25 -22 -25 -37 0 -13 -4 -23
-10 -23 -5 0 -10 -7 -10 -15 0 -8 -4 -15 -10 -15 -5 0 -10 -18 -10 -40 0 -38
-2 -40 -29 -40 -31 0 -49 -14 -31 -25 17 -11 11 -25 -11 -25 -15 0 -19 -5 -15
-15 3 -8 -4 -21 -17 -31 -15 -11 -18 -18 -9 -21 20 -8 14 -22 -8 -18 -11 2
-18 0 -15 -5 3 -5 -2 -18 -12 -29 -9 -11 -18 -27 -19 -36 -1 -8 -11 -31 -23
-50 -11 -20 -16 -37 -10 -40 14 -9 11 -25 -6 -25 -8 0 -15 -5 -15 -11 0 -8 -4
-9 -13 0 -8 6 -17 8 -20 4 -12 -12 -7 -23 11 -24 15 0 14 -2 -4 -15 -18 -13
-20 -20 -14 -50 4 -19 4 -37 -1 -40 -5 -3 -9 3 -10 13 0 12 -4 9 -10 -9 -7
-19 -15 -25 -27 -21 -13 4 -14 3 -3 -5 10 -7 11 -14 3 -28 -6 -11 -14 -19 -19
-19 -4 0 -7 -7 -6 -15 1 -8 -4 -18 -10 -22 -8 -5 -6 -8 6 -8 26 0 20 -14 -13
-28 -17 -8 -28 -18 -24 -23 3 -5 10 -7 15 -4 5 4 9 4 9 0 0 -3 -12 -10 -27
-16 -26 -10 -27 -12 -8 -19 11 -5 14 -9 8 -9 -7 -1 -13 -6 -13 -12 0 -6 7 -8
16 -5 12 4 9 -4 -10 -28 -14 -19 -26 -40 -26 -46 0 -6 -4 -9 -9 -6 -5 3 -11
-1 -15 -9 -3 -10 1 -15 12 -15 14 0 15 -2 2 -9 -8 -6 -18 -7 -22 -5 -4 3 -9
-3 -9 -13 -3 -43 -5 -48 -17 -45 -9 2 -11 -4 -7 -18 5 -15 3 -18 -8 -14 -8 3
-18 1 -22 -5 -3 -6 1 -11 9 -11 19 0 20 -5 6 -31 -9 -16 -7 -19 12 -19 20 0
19 -2 -9 -16 -18 -9 -30 -20 -27 -25 3 -5 -1 -9 -8 -9 -10 0 -10 -2 1 -9 11
-7 10 -10 -5 -14 -16 -4 -17 -5 -1 -6 23 -1 22 -17 -4 -34 -17 -13 -19 -19
-10 -36 10 -17 9 -20 -4 -15 -10 4 -15 0 -15 -15 0 -12 -11 -38 -24 -59 -21
-33 -22 -40 -9 -48 13 -8 12 -13 -11 -34 -14 -14 -26 -34 -26 -45 0 -12 -6
-27 -13 -34 -10 -10 -8 -11 8 -5 20 7 20 7 0 -15 -11 -13 -20 -30 -20 -39 0
-10 -5 -16 -11 -15 -6 1 -11 -4 -11 -12 0 -8 5 -11 11 -8 6 3 5 0 -1 -8 -7 -7
-13 -22 -13 -34 -1 -11 -7 -31 -14 -44 -12 -21 -12 -27 1 -40 14 -13 14 -16
-2 -21 -10 -4 -20 -17 -22 -30 -2 -13 -9 -28 -16 -32 -9 -6 -9 -8 0 -8 9 0 7
-7 -4 -20 -22 -25 -26 -110 -6 -110 7 0 13 -4 13 -10 0 -5 -7 -10 -16 -10 -8
0 -12 -4 -9 -10 3 -5 2 -10 -3 -10 -9 0 -24 -39 -26 -68 -1 -7 -12 -22 -26
-32 -19 -15 -21 -18 -7 -17 15 2 19 -7 21 -53 2 -30 0 -46 -4 -36 -4 14 -9 16
-14 8 -4 -7 -4 -12 -1 -12 3 0 -3 -10 -15 -22 -27 -30 -27 -62 1 -55 12 3 18
3 15 0 -3 -3 -1 -14 5 -24 13 -25 -6 -26 -20 -1 -9 15 -12 15 -21 2 -15 -22
-12 -38 10 -60 24 -24 26 -34 5 -26 -10 4 -17 -3 -21 -22 -4 -15 -11 -33 -17
-39 -6 -9 -6 -13 1 -13 6 0 9 -7 5 -16 -3 -9 0 -20 8 -25 9 -6 10 -9 2 -9 -13
0 -32 -58 -35 -106 -1 -16 -4 -33 -7 -39 -3 -5 -7 -23 -8 -40 0 -16 -2 -30 -3
-30 -1 0 -2 -17 -3 -38 -1 -25 2 -37 12 -37 8 0 4 -8 -10 -20 l-24 -19 25 -2
25 -1 -26 -10 c-20 -8 -25 -18 -26 -46 -1 -19 -7 -38 -15 -43 -10 -7 -9 -9 4
-9 14 0 15 -5 8 -30 -5 -19 -5 -28 1 -25 5 4 6 -3 0 -17 -4 -13 -6 -29 -3 -37
3 -10 0 -11 -9 -5 -11 6 -10 3 1 -11 8 -10 10 -16 3 -12 -8 5 -11 -9 -10 -48
1 -30 5 -55 9 -55 10 0 7 -203 -3 -216 -11 -13 -8 -104 4 -104 4 0 7 5 7 10 0
6 4 10 10 10 17 0 4 -40 -18 -56 -12 -8 -20 -19 -17 -24 3 -4 -1 -10 -7 -13
-10 -3 -10 -9 -1 -24 6 -11 9 -33 7 -49 -9 -58 -9 -92 0 -87 5 4 7 -10 3 -33
-4 -27 -3 -34 3 -24 8 12 10 11 10 -7 0 -21 -10 -28 -33 -24 -5 1 -6 -3 -2 -9
3 -6 11 -8 16 -5 5 4 9 -6 9 -20 0 -14 4 -24 8 -21 4 2 8 -4 8 -15 0 -10 -4
-19 -9 -19 -5 0 -3 -8 4 -17 10 -11 10 -14 2 -9 -9 5 -13 0 -13 -13 0 -12 5
-21 10 -21 6 0 10 -7 10 -16 0 -8 -4 -13 -9 -10 -13 9 -7 -19 8 -38 7 -8 10
-19 7 -25 -3 -5 -2 -11 3 -13 5 -1 11 -14 13 -28 1 -14 10 -28 18 -32 12 -5
12 -7 -2 -7 -22 -1 -24 -21 -3 -21 8 0 15 -6 15 -14 0 -18 38 -30 175 -55 406
-73 2076 -381 2335 -430 765 -146 2189 -413 2332 -437 87 -15 163 -31 169 -35
17 -10 58 -196 59 -261 0 -55 -1 -58 -25 -58 -18 0 -28 -9 -40 -34 -15 -31
-15 -39 -2 -78 22 -62 12 -238 -15 -292 -18 -35 -19 -44 -7 -78 16 -49 0 -179
-25 -207 -15 -17 -15 -20 1 -49 16 -28 16 -35 3 -74 -11 -30 -21 -44 -36 -46
-12 -2 -62 19 -110 46 -121 67 -273 136 -281 129 -3 -4 -1 -18 5 -32 15 -32
15 -62 2 -70 -6 -4 -58 25 -117 64 -93 63 -133 82 -133 66 0 -2 15 -28 34 -57
63 -100 147 -273 153 -315 5 -39 4 -43 -17 -43 -74 0 -130 63 -240 275 -51 99
-81 145 -102 157 -16 10 -31 25 -35 34 -10 28 16 65 57 81 29 12 42 24 50 48
6 17 23 43 38 57 26 23 90 58 109 58 4 0 31 12 58 27 28 14 75 32 105 39 37 9
60 21 70 36 8 13 33 43 55 67 36 40 38 43 15 36 -72 -22 -228 -93 -325 -149
-60 -35 -155 -88 -210 -119 l-101 -56 -129 -6 c-124 -6 -139 -9 -335 -72
l-205 -65 -56 -64 c-44 -50 -67 -90 -103 -175 -25 -61 -46 -124 -46 -139 0
-59 -50 -264 -82 -337 -22 -51 -55 -64 -93 -39 -29 19 -32 55 -12 113 44 122
49 146 35 154 -7 4 -17 4 -22 -1 -5 -5 -18 -2 -32 7 -41 26 -51 6 -57 -120 -3
-67 1 -185 10 -295 l15 -182 -47 -120 -47 -120 -82 -69 -82 -68 -53 -169 c-30
-93 -56 -175 -59 -181 -2 -7 1 -13 7 -13 6 0 11 7 11 15 0 8 17 30 37 50 31
30 43 35 77 34 23 -1 49 1 59 5 12 6 17 4 17 -8 0 -9 -4 -16 -9 -16 -5 0 -12
-11 -15 -25 -6 -24 -86 -74 -86 -53 0 5 -9 6 -20 3 -14 -5 -20 -2 -20 9 0 9
-4 16 -9 16 -10 0 -8 -58 4 -85 9 -18 10 -17 15 10 6 35 33 41 38 9 3 -18 12
-23 57 -29 30 -3 57 -10 60 -15 3 -4 23 -6 46 -3 51 7 65 -10 40 -46 -10 -15
-21 -36 -25 -48 -6 -18 -3 -20 12 -16 23 5 27 0 36 -44 6 -27 4 -32 -16 -38
-13 -4 -30 -14 -39 -21 -8 -8 -32 -15 -53 -16 -29 -2 -38 -8 -42 -25 -4 -13
-10 -23 -15 -23 -5 0 -9 -7 -9 -15 0 -8 8 -15 19 -15 20 0 111 58 150 96 28
29 58 18 63 -22 4 -32 32 -54 48 -38 14 14 51 115 45 124 -9 14 51 57 75 53
35 -5 96 -43 109 -67 7 -11 31 -30 54 -41 23 -12 41 -27 39 -34 -1 -7 2 -10 7
-7 13 8 20 -5 23 -43 1 -17 5 -31 9 -31 3 0 5 -10 4 -22 -7 -60 -17 -112 -26
-135 -11 -30 -11 -36 0 -29 15 10 19 -18 5 -34 -10 -12 -10 -18 1 -34 13 -17
41 -14 30 4 -2 4 9 13 25 20 17 7 30 16 30 20 0 4 18 20 40 35 22 15 37 31 34
36 -3 5 -9 7 -14 4 -5 -3 -11 -1 -14 4 -9 13 4 41 19 41 6 0 20 9 30 20 18 20
45 27 45 12 0 -13 130 -6 143 7 6 6 21 11 33 11 13 0 26 5 29 10 9 15 106 62
113 56 3 -3 -7 -15 -22 -27 -57 -45 -117 -109 -112 -118 4 -6 39 -8 89 -4 103
7 163 -12 151 -49 -9 -29 -28 -48 -49 -48 -8 0 -18 -6 -21 -14 -9 -23 -191
-106 -233 -106 -24 0 -87 -36 -94 -54 -3 -7 -1 -19 3 -27 7 -11 32 -6 137 30
113 38 221 82 275 112 26 13 38 11 32 -6 -7 -18 36 -21 53 -4 7 7 15 6 27 -6
20 -21 42 -10 24 12 -11 14 -10 15 8 9 16 -5 25 0 38 19 9 14 33 36 54 49 34
21 48 45 141 252 121 266 302 606 346 648 26 26 43 32 120 43 53 7 125 10 176
6 84 -6 86 -7 102 -37 17 -31 59 -204 59 -241 0 -11 -19 -68 -42 -127 l-42
-107 -114 -60 c-90 -47 -126 -73 -170 -120 -61 -66 -112 -86 -167 -68 -46 15
-76 -8 -114 -89 -32 -67 -38 -73 -85 -93 -28 -12 -57 -21 -64 -21 -22 0 -33
-56 -37 -183 -2 -55 -4 -59 -46 -93 -54 -42 -97 -88 -133 -143 -15 -22 -34
-41 -41 -41 -8 0 -28 14 -45 30 -18 17 -40 30 -51 30 -11 0 -21 9 -24 23 -9
41 7 113 29 121 8 3 14 11 14 18 0 7 18 31 41 54 32 33 40 47 34 63 -5 16 -10
19 -19 12 -7 -6 -16 -8 -20 -4 -4 4 -11 1 -17 -7 -8 -13 -10 -13 -18 -1 -7 11
-10 9 -13 -10 -2 -17 -9 -24 -26 -24 -14 0 -32 -12 -44 -28 -11 -15 -26 -27
-34 -27 -8 0 -17 -7 -20 -15 -4 -8 -11 -15 -18 -15 -6 0 -21 -8 -34 -18 l-23
-18 22 -1 c12 -1 32 5 45 14 22 14 26 14 43 -1 9 -9 21 -13 24 -9 4 3 7 -5 7
-20 0 -14 -4 -29 -10 -32 -5 -3 -10 -14 -10 -23 0 -18 -63 -188 -73 -198 -3
-4 0 -13 8 -21 8 -8 15 -30 15 -49 0 -29 -5 -36 -32 -48 -39 -16 -123 -101
-132 -133 -6 -20 -4 -21 28 -16 39 6 49 -6 61 -69 6 -30 14 -41 46 -56 34 -17
40 -18 47 -5 6 9 21 13 43 11 48 -4 50 -31 6 -77 -39 -40 -65 -107 -62 -161 3
-45 -3 -60 -24 -61 -10 0 -11 -2 -3 -6 6 -2 12 -10 12 -17 0 -7 13 -13 31 -13
17 0 34 -4 37 -9 4 -5 18 -11 32 -13 14 -2 32 -4 40 -6 8 -1 16 -7 16 -13 1
-7 2 -18 3 -24 1 -13 45 -38 66 -38 6 0 32 13 58 30 53 34 67 37 67 15 0 -9 6
-12 15 -9 12 5 13 10 4 20 -12 14 -3 19 28 15 7 -1 29 5 49 14 45 18 45 18 38
0 -4 -8 -12 -15 -20 -15 -8 0 -14 -4 -14 -10 0 -5 -8 -17 -18 -27 -11 -10 -22
-26 -26 -37 -5 -15 -3 -17 16 -11 13 3 30 6 38 7 22 0 73 20 88 35 17 16 24
16 46 0 16 -12 16 -15 -10 -40 -38 -38 -25 -43 16 -7 19 17 36 30 39 31 3 0
19 2 34 4 33 4 49 -21 25 -39 -33 -25 -51 -86 -24 -86 15 0 28 -58 14 -66 -4
-3 -8 -11 -8 -17 0 -9 13 -11 40 -9 42 4 48 10 28 30 -8 8 -5 14 14 21 13 5
32 24 40 41 l16 33 17 -27 c10 -14 26 -26 36 -26 11 0 28 -5 38 -12 19 -11 20
-11 143 50 3 2 4 -6 1 -17 -7 -26 12 -28 26 -3 6 10 11 12 11 4 0 -7 5 -10 10
-7 16 10 12 -4 -10 -35 -17 -23 -17 -30 -6 -46 13 -18 16 -17 48 19 38 41 55
48 38 16 -17 -31 -21 -61 -7 -56 7 2 12 10 13 18 3 41 3 42 19 29 9 -7 14 -19
11 -26 -3 -8 5 -14 22 -16 23 -3 27 -8 28 -36 1 -18 4 -36 8 -40 10 -10 38 29
32 45 -5 13 19 69 35 78 5 4 9 1 9 -6 0 -8 16 -9 58 -5 33 4 52 3 44 -2 -8 -6
-2 -9 20 -10 71 -3 127 -15 142 -30 30 -32 65 -74 68 -81 2 -4 32 -25 68 -46
54 -31 76 -38 128 -41 57 -2 62 0 67 19 2 12 11 56 20 97 8 41 21 104 30 140
31 134 8 410 -33 408 -24 -2 -92 29 -92 41 0 6 -6 8 -14 5 -7 -3 -23 7 -34 21
-18 22 -19 30 -9 53 6 15 19 35 29 45 20 19 24 62 8 72 -20 12 -50 85 -50 121
0 21 -6 45 -13 53 -7 9 -22 36 -32 61 -11 25 -27 56 -37 68 -21 28 -68 178
-68 216 0 28 40 76 63 76 36 0 111 -142 124 -235 6 -44 5 -46 -26 -58 -35 -13
-38 -19 -17 -37 8 -6 20 -27 26 -46 11 -33 14 -35 43 -28 18 3 34 8 36 10 11
10 40 306 46 469 4 99 11 191 17 204 9 24 9 24 28 -12 13 -23 20 -57 20 -89 1
-47 16 -88 34 -88 3 0 6 14 6 30 0 17 -5 30 -11 30 -7 0 -9 13 -5 38 16 92 16
92 45 92 15 0 35 -6 45 -13 17 -13 20 -53 12 -172 -1 -16 0 -34 3 -39 5 -12 8
-54 15 -231 7 -166 -13 -388 -40 -462 -9 -23 -13 -46 -9 -52 3 -6 24 -14 46
-17 22 -4 42 -10 44 -14 7 -11 258 -12 320 -2 71 12 77 7 54 -33 -11 -18 -19
-40 -18 -47 7 -40 -50 -88 -104 -88 -21 0 -117 59 -117 72 0 5 -9 6 -20 3 -16
-5 -20 -2 -20 19 0 33 -16 42 -30 16 -8 -14 -21 -20 -45 -20 -19 0 -35 -4 -35
-9 0 -20 38 -36 163 -71 l131 -37 91 44 c117 57 122 59 175 104 25 21 184 149
354 285 269 215 330 259 475 341 91 52 182 107 201 122 237 185 553 439 621
498 l86 76 139 42 c194 58 311 108 354 150 32 31 54 40 171 71 74 19 146 41
160 48 15 7 86 57 159 111 127 95 134 101 210 215 43 64 115 189 159 276 78
154 125 231 224 367 50 70 135 274 197 476 17 57 43 120 56 140 28 43 94 202
94 228 1 45 7 46 191 24 365 -45 484 -70 984 -211 851 -239 1953 -533 1972
-526 8 3 11 10 8 16 -4 6 5 10 19 10 21 0 26 5 26 26 0 18 5 24 18 22 24 -4
42 10 35 27 -3 8 0 15 6 15 6 0 24 20 39 45 16 25 31 43 35 39 3 -4 4 5 1 20
-3 19 0 26 11 26 11 0 14 6 9 25 -5 19 -2 25 10 25 9 0 16 7 16 16 0 8 -5 12
-11 9 -6 -4 -1 11 10 33 11 22 17 42 14 46 -4 3 -2 6 3 6 5 0 10 9 11 20 1 12
16 34 33 50 17 16 29 34 25 40 -3 5 -2 10 2 10 5 0 10 17 11 37 3 40 31 95 44
87 4 -3 8 1 9 8 2 42 34 118 49 118 6 0 9 4 5 9 -3 5 5 17 17 25 18 13 19 16
5 16 -25 0 -22 45 5 64 21 15 21 16 3 17 -11 0 -14 3 -7 6 6 2 10 9 6 14 -3 5
3 9 13 9 19 0 43 18 43 32 0 4 -10 8 -22 9 -13 0 -17 3 -10 6 6 2 12 15 12 28
0 13 5 27 10 30 6 4 8 16 5 28 -2 12 -2 16 1 10 10 -23 26 -14 22 12 -3 14 -2
25 2 25 4 0 12 12 18 26 10 20 10 24 0 18 -10 -6 -10 -4 0 8 10 13 10 17 0 21
-10 5 -9 9 3 19 9 7 14 19 12 26 -3 6 0 12 6 12 6 0 5 13 -4 33 -12 30 -12 36
4 60 10 15 20 25 23 22 3 -3 11 1 18 10 11 13 8 15 -16 16 l-29 1 31 11 c29
11 31 13 16 27 -15 14 -15 15 2 18 13 3 16 10 12 28 -5 17 -2 24 9 24 16 0 16
33 0 47 -4 5 -5 3 -1 -4 9 -16 -13 -28 -27 -14 -8 8 -8 11 0 11 6 0 13 13 15
29 3 22 1 28 -11 23 -9 -3 -12 -1 -7 6 4 7 -1 10 -13 9 -11 0 -18 -4 -15 -8 2
-4 -2 -10 -8 -12 -10 -4 -9 -8 2 -16 8 -6 13 -11 10 -12 -3 0 -13 -2 -22 -4
-12 -2 -15 2 -11 13 5 14 2 13 -17 -3 -14 -12 -20 -14 -15 -5 7 12 6 13 -7 3
-12 -11 -17 -9 -26 12 -8 17 -8 25 -1 25 6 0 8 9 4 21 -5 15 -2 22 13 26 16 4
19 13 18 55 -1 39 3 53 18 63 10 8 15 18 12 23 -3 6 1 12 9 15 7 3 19 24 25
46 6 23 16 41 21 41 11 0 69 57 69 67 0 3 8 12 18 19 14 10 15 15 5 25 -20 21
-15 29 17 29 28 0 30 2 19 21 -9 18 -13 19 -20 8 -6 -9 -7 -4 -3 16 4 16 14
36 21 44 8 7 12 20 9 27 -3 7 0 16 6 20 6 4 8 3 4 -4 -3 -6 -1 -14 5 -17 7 -5
10 3 8 23 -2 19 3 38 15 51 23 25 14 41 -9 17 -20 -20 -25 -20 -25 -1 0 17 54
48 65 37 4 -4 0 8 -10 27 -9 18 -12 30 -7 27 6 -3 14 3 17 15 5 13 2 25 -6 29
-9 6 -10 12 -2 22 15 19 13 50 -6 72 -15 18 -15 19 2 13 15 -5 17 -1 13 28 -2
19 -8 40 -12 47 -14 22 -16 61 -3 53 8 -6 9 -3 2 10 -12 22 -5 55 11 55 8 0
12 15 11 45 -2 47 2 53 25 33 12 -11 12 -10 1 5 -11 14 -11 20 -1 32 10 12 10
15 0 15 -7 0 -10 7 -6 15 3 8 1 15 -4 15 -5 0 -7 7 -4 15 3 8 -1 24 -9 35 -13
19 -13 25 1 50 16 28 16 30 -3 45 -19 14 -19 16 -2 26 9 5 17 15 17 20 0 6 -4
7 -10 4 -20 -13 -9 14 12 29 21 15 21 16 3 16 -18 0 -18 0 0 14 17 12 17 16 5
31 -12 15 -12 18 4 27 14 8 15 12 4 26 -10 12 -10 14 0 8 7 -4 12 -1 12 8 0 9
-5 16 -11 16 -6 0 -17 7 -25 15 -14 13 -7 20 13 13 12 -5 23 55 13 71 -8 13
-10 11 -11 -9 -1 -14 0 -29 1 -35 1 -5 -2 -6 -6 -2 -5 4 -7 24 -5 44 2 22 -2
39 -11 44 -10 7 -10 9 0 9 6 0 12 7 12 15 0 8 6 15 13 15 8 0 7 4 -3 10 -8 5
-11 10 -7 10 5 0 -1 14 -13 31 -12 16 -20 33 -17 36 10 9 27 -8 27 -28 0 -10
4 -19 10 -19 5 0 9 11 8 25 -1 14 -6 25 -10 25 -4 0 -8 14 -8 30 0 19 -5 30
-14 30 -9 0 -12 -7 -9 -20 3 -11 1 -20 -5 -20 -5 0 -8 14 -6 31 5 37 12 51 25
44 5 -4 9 -1 9 4 0 6 -4 11 -9 11 -5 0 -11 6 -14 14 -3 8 1 13 10 12 9 -1 17
9 19 24 3 21 2 22 -7 8 -5 -10 -15 -18 -20 -18 -6 0 -7 6 -2 13 12 19 13 39 2
58 -7 13 -5 19 9 22 12 3 10 5 -7 6 -22 1 -22 16 0 16 5 0 9 5 9 10 0 6 -4 10
-9 10 -6 0 -16 6 -22 13 -10 10 -8 12 14 12 19 0 25 4 21 15 -4 8 -10 12 -15
9 -5 -3 -8 4 -6 16 2 12 10 25 17 30 10 6 7 10 -13 15 -32 8 -32 9 -12 39 15
22 14 24 -7 30 -14 5 -18 9 -10 13 14 5 17 59 3 67 -5 4 -11 1 -13 -6 -3 -8
-7 -6 -11 5 -5 14 0 17 26 17 32 1 32 1 8 14 -15 8 -20 16 -12 20 17 11 13 24
-10 31 -16 5 -18 9 -9 15 11 7 10 15 -3 41 -19 39 -16 45 13 29 20 -11 21 -10
10 9 -6 12 -7 21 -3 21 4 0 0 5 -10 11 -9 6 -15 14 -12 20 4 5 1 9 -6 9 -10 0
-10 3 -1 12 7 7 11 23 11 38 -1 16 -3 19 -6 8 -5 -20 -28 -24 -38 -8 -3 6 0
10 7 10 9 0 9 3 -2 10 -12 8 -12 10 5 10 17 0 17 2 5 10 -13 9 -13 10 0 11 8
1 18 1 23 0 4 0 7 3 7 8 0 5 -15 13 -32 17 -32 7 -32 7 -10 17 28 13 29 27 1
27 -11 0 -17 5 -14 10 4 6 12 8 18 4 7 -3 1 4 -13 17 -17 14 -21 23 -12 26 13
5 17 33 4 33 -4 0 -7 18 -7 40 0 22 3 40 7 40 5 0 8 5 8 10 0 6 -6 10 -14 10
-11 0 -14 10 -11 40 2 22 7 45 11 51 4 8 3 9 -4 5 -7 -4 -12 -13 -12 -21 0 -8
-4 -17 -10 -20 -6 -4 -7 1 -3 12 6 16 5 16 -10 4 -15 -11 -17 -11 -17 2 0 8 6
17 13 20 9 3 9 8 -2 21 -12 14 -12 19 -2 26 9 5 11 21 8 51 -3 24 -6 47 -6 50
-1 4 -14 12 -29 18 -16 7 -29 18 -29 26 0 11 4 12 13 4 7 -6 14 -6 18 -1 3 6
-1 12 -9 16 -8 3 -12 12 -9 21 3 8 2 15 -2 15 -14 0 -14 54 -1 63 9 6 9 10 0
14 -7 2 -13 13 -13 24 0 10 -7 19 -15 19 -9 0 -12 6 -9 15 4 8 10 12 15 9 5
-3 6 2 3 10 -3 9 -11 16 -16 16 -6 0 -8 7 -4 15 3 8 1 15 -4 15 -6 0 -10 6
-10 14 0 8 -6 16 -13 19 -16 6 -15 59 2 65 8 3 6 9 -6 19 -10 8 -12 12 -6 8 9
-4 11 -1 7 9 -3 9 -16 17 -28 17 -17 1 -17 2 -3 6 9 2 15 9 12 14 -7 10 -16
47 -17 66 -1 7 -5 10 -10 7 -4 -3 -8 1 -8 9 0 8 -7 17 -15 21 -20 7 -19 26 2
26 13 0 14 3 5 12 -7 7 -12 23 -12 36 0 15 -4 21 -12 16 -8 -5 -9 0 -6 14 4
12 2 22 -2 22 -5 0 -7 9 -5 19 2 11 -3 25 -11 32 -8 6 -14 18 -14 25 0 8 -7
14 -16 14 -9 0 -14 6 -11 13 2 6 10 11 16 9 7 -1 10 2 6 8 -3 5 -13 10 -21 10
-11 0 -13 6 -9 19 3 11 1 22 -5 26 -6 3 -8 11 -5 16 4 5 2 9 -3 9 -14 0 -21
35 -11 51 5 9 -1 22 -19 39 -17 16 -26 33 -24 48 2 12 -1 22 -7 22 -6 0 -11
11 -11 24 0 14 -5 28 -10 31 -6 4 -8 11 -5 16 4 5 -1 9 -11 9 -12 0 -15 6 -12
25 3 13 2 22 -3 20 -15 -10 -16 21 0 39 9 11 11 16 4 13 -12 -8 -58 41 -68 73
-3 11 -11 20 -16 20 -6 0 -7 5 -3 12 4 6 3 8 -4 5 -18 -12 -43 3 -33 20 4 9 5
32 0 52 -4 20 -8 37 -9 39 0 1 0 7 0 12 0 6 -6 9 -12 8 -7 -2 -13 4 -13 12 0
8 -11 20 -25 27 l-25 11 25 10 c18 7 21 11 10 15 -57 19 -57 19 -30 27 21 7
22 8 4 9 -30 1 -45 20 -33 43 8 15 6 18 -18 19 -15 0 -22 3 -15 6 6 2 12 9 12
14 0 6 -5 7 -10 4 -6 -3 -13 1 -17 10 -3 10 0 21 7 25 8 5 2 10 -19 15 -38 8
-46 19 -26 35 12 10 15 9 15 -4 0 -9 4 -16 9 -16 16 0 -2 45 -27 64 -15 12
-20 22 -13 29 10 10 -4 45 -24 59 -5 4 -10 13 -10 20 0 8 -10 12 -29 10 -22
-3 -28 0 -23 11 3 8 0 20 -6 26 -9 9 -8 14 3 21 15 9 13 11 -12 14 -7 0 -14
14 -15 30 -3 35 -10 43 -25 28 -15 -15 -28 -16 -28 -2 0 6 7 10 15 10 8 0 15
7 15 15 0 8 -4 15 -9 15 -5 0 -16 17 -24 39 -14 35 -39 57 -59 53 -5 -1 -8 12
-8 29 0 17 -7 37 -15 46 -8 8 -13 19 -10 24 4 5 -1 9 -10 9 -9 0 -14 4 -11 8
3 5 -3 14 -14 22 -10 7 -16 19 -14 25 3 7 -4 15 -15 18 -12 3 -21 12 -21 21 0
9 -9 25 -20 36 -11 11 -20 29 -20 39 0 11 -9 22 -19 26 -11 3 -23 15 -27 27
-4 15 -8 17 -14 8 -10 -15 -17 -2 -14 28 1 12 -1 20 -4 18 -2 -3 -19 2 -36 11
-17 9 -25 18 -18 20 20 7 14 27 -18 58 -16 15 -27 32 -24 37 3 4 1 8 -5 8 -5
0 -11 -6 -14 -12 -2 -7 -2 0 1 16 3 19 1 26 -7 22 -6 -4 -11 0 -11 8 0 9 -5
16 -11 16 -6 0 -9 6 -6 13 4 10 -23 46 -30 40 -9 -9 -23 -1 -23 13 0 8 -4 12
-10 9 -5 -3 -10 3 -10 14 0 12 -3 20 -7 20 -5 -1 -16 -1 -27 0 -14 1 -16 4 -7
15 8 10 6 19 -10 40 -13 16 -16 26 -8 26 19 0 5 10 -21 15 -25 5 -40 15 -22
15 7 0 12 7 12 16 0 12 -7 15 -25 12 -19 -4 -25 -1 -23 11 2 10 -3 15 -13 13
-10 -1 -19 6 -22 18 -3 12 -13 20 -26 20 -28 0 -27 18 2 30 l22 9 -23 0 c-28
1 -66 42 -49 53 7 4 1 11 -16 17 -15 6 -27 18 -27 27 0 10 -5 14 -15 10 -8 -3
-15 -1 -15 4 0 5 -11 20 -24 33 -13 13 -26 32 -27 42 -2 10 -11 21 -19 25 -8
4 -27 13 -42 21 -16 7 -28 19 -28 28 0 14 -2 14 -10 1 -9 -13 -10 -13 -11 0
-1 8 -1 19 0 23 1 4 -4 7 -11 6 -31 -4 -48 2 -48 16 0 8 -4 15 -10 15 -5 0
-10 9 -10 20 0 10 -6 23 -13 27 -7 4 -13 17 -12 28 0 11 -7 20 -15 21 -39 3
-42 4 -36 21 4 10 4 14 0 10 -4 -4 -16 1 -26 10 -17 15 -20 15 -28 3 -8 -13
-10 -13 -11 0 -1 8 -1 18 0 23 1 4 -22 30 -50 57 -28 27 -48 54 -44 60 4 6 -4
10 -19 10 -25 0 -56 23 -56 41 0 6 -4 8 -9 4 -5 -3 -17 5 -26 17 -8 13 -19 22
-23 21 -4 -2 -7 3 -7 9 0 7 -8 14 -18 16 -10 2 -31 17 -46 33 -15 16 -30 26
-33 24 -3 -3 -11 1 -18 10 -8 10 -9 15 -1 15 6 0 11 5 11 10 0 6 -6 10 -12 8
-19 -3 -88 32 -85 44 1 6 -4 13 -10 15 -8 3 -13 -4 -14 -19 -1 -21 -1 -21 -9
5 -8 27 -57 74 -72 70 -5 -2 -7 0 -7 5 3 18 -2 32 -12 32 -5 0 -7 -4 -4 -10 3
-5 1 -10 -4 -10 -6 0 -11 6 -11 13 -1 6 -9 22 -20 35 -16 19 -23 21 -40 12
-25 -13 -26 -2 -2 17 16 13 15 14 -5 10 -13 -3 -23 -1 -23 4 0 4 -7 5 -17 2
-11 -4 -14 -3 -9 5 4 7 2 12 -4 12 -15 0 -40 25 -40 40 0 7 -7 10 -15 7 -8 -4
-17 -2 -20 3 -4 6 -1 10 5 10 6 0 8 5 4 11 -3 6 -16 8 -29 5 -14 -4 -28 0 -35
9 -7 9 -28 23 -46 31 -19 9 -32 20 -29 24 3 4 -2 11 -11 14 -10 4 -13 2 -8 -6
5 -7 3 -8 -5 -4 -7 5 -10 15 -6 23 4 13 3 14 -10 3 -12 -10 -15 -10 -15 4 0
10 -5 14 -10 11 -6 -3 -13 0 -16 8 -3 9 -13 13 -25 10 -10 -3 -19 -1 -19 5 0
6 -14 21 -32 33 -17 13 -28 17 -23 9 5 -9 4 -11 -3 -6 -18 11 -14 26 6 27 25
1 -48 27 -79 28 -14 1 -34 10 -44 21 -22 25 -78 54 -69 37 6 -12 -37 33 -69
72 -15 18 -21 20 -33 11 -10 -9 -18 -10 -27 -1 -8 6 -17 8 -20 4 -4 -3 -7 3
-7 15 0 11 -5 24 -12 28 -8 5 -9 0 -5 -17 5 -22 5 -22 -7 -6 -7 9 -20 17 -29
17 -20 0 -31 17 -15 22 19 7 -57 38 -91 38 -21 0 -31 5 -31 15 0 9 -6 15 -12
13 -22 -4 -58 13 -58 27 0 12 -73 35 -76 24 -1 -2 -11 4 -22 14 -11 10 -26 20
-34 21 -28 5 -98 43 -92 49 4 4 -2 7 -14 7 -11 0 -24 5 -27 10 -5 8 -12 7 -23
-2 -9 -7 -13 -8 -9 -2 10 16 -20 52 -31 37 -6 -10 -14 -9 -35 2 -19 10 -26 10
-21 2 5 -9 3 -9 -7 1 -7 6 -22 12 -33 13 -20 0 -20 1 2 9 12 5 22 11 22 13 0
6 -45 2 -57 -6 -17 -11 -33 0 -26 18 3 10 -1 15 -14 15 -10 0 -25 6 -32 13
-12 10 -13 9 -7 -7 6 -18 5 -19 -11 -4 -10 8 -24 13 -32 10 -8 -2 -11 0 -8 5
4 6 -7 9 -28 6 -20 -2 -35 1 -35 7 0 5 -15 11 -32 11 l-33 1 30 7 30 7 -33 7
c-50 10 -48 9 -93 50 -24 21 -53 22 -73 1 -14 -13 -17 -13 -22 -1 -3 8 -4 18
-3 23 4 22 -3 23 -23 4 -28 -25 -42 -26 -28 -1 14 28 15 28 -35 29 -25 0 -53
6 -62 14 -12 9 -15 9 -9 1 5 -9 2 -11 -8 -7 -9 3 -13 10 -10 15 4 8 -63 15
-90 10 -5 -1 -4 5 3 13 10 12 8 14 -20 9 -17 -2 -35 0 -38 5 -8 12 -101 24
-101 12 0 -4 -8 -7 -17 -5 -10 2 -22 4 -27 4 -4 1 -5 8 -2 17 3 8 2 12 -4 9
-6 -3 -10 -1 -10 4 0 6 -4 11 -9 11 -5 0 -7 -9 -4 -20 3 -11 0 -20 -6 -20 -6
0 -11 8 -11 19 0 19 -30 34 -62 31 -10 -1 -18 2 -18 7 0 4 -10 9 -22 10 -64 5
-93 12 -104 28 -11 15 -13 14 -17 -7 -4 -21 -4 -20 -6 5 -1 30 -21 38 -21 8 0
-11 -4 -23 -10 -26 -5 -3 -10 1 -10 10 0 20 -42 37 -52 21 -6 -8 -8 -7 -8 2 0
8 -8 10 -25 6 -19 -5 -25 -3 -23 7 2 10 -8 14 -34 13 -21 -1 -38 1 -38 5 0 3
-11 7 -25 8 -14 1 -37 3 -51 4 -17 1 -23 6 -20 16 4 9 2 11 -7 6 -21 -13 -47
-14 -44 -1 3 18 -29 21 -46 3 -18 -17 -36 -20 -38 -5 -1 6 -3 15 -4 20 -1 6
-3 13 -4 17 0 4 -7 -1 -14 -11 -15 -21 -63 -14 -50 7 4 7 -1 6 -10 -2 -9 -7
-17 -10 -18 -5 0 5 -7 -4 -14 -21 l-13 -30 -13 28 c-9 20 -15 24 -20 15 -7
-10 -15 -9 -42 5 -22 12 -43 16 -60 12 -17 -5 -27 -3 -27 4 0 6 -5 11 -11 11
-6 0 -9 -6 -6 -14 9 -24 -5 -27 -24 -5 -9 11 -20 20 -23 20 -26 -3 -36 1 -30
12 6 10 4 10 -7 0 -14 -14 -33 -18 -25 -5 2 4 -4 8 -14 9 -13 1 -17 -3 -14
-15 5 -15 4 -15 -9 0 -8 10 -17 15 -21 11 -3 -4 -13 2 -21 13 -15 19 -16 19
-13 -1 1 -11 -1 -21 -5 -22 -19 -7 -29 -1 -23 15 6 16 5 16 -8 0 -16 -22 -26
-23 -26 -4 0 15 -37 29 -45 16 -4 -7 -29 -7 -83 1 -29 5 -72 -3 -67 -11 3 -5
-4 -10 -16 -10 -16 0 -19 3 -11 13 9 10 0 13 -41 14 -28 0 -53 6 -55 12 -2 6
-8 11 -13 11 -6 0 -8 -4 -4 -9 3 -5 -2 -17 -11 -26 -13 -13 -19 -14 -25 -4
-11 18 -39 20 -39 3 0 -10 -6 -11 -24 -4 -13 5 -27 6 -30 3 -3 -3 -11 -1 -18
5 -7 5 -42 8 -78 7 -36 -2 -70 1 -77 7 -12 10 -18 1 -14 -24 1 -8 -20 -5 -38
6 -11 7 -11 10 0 17 10 6 10 9 2 9 -6 0 -15 -5 -18 -11 -5 -7 -12 -5 -23 4
-15 13 -20 13 -40 -1z m753 -32 c-3 -5 -12 -10 -18 -10 -7 0 -6 4 3 10 19 12
23 12 15 0z m-1635 -80 c0 -5 -9 -10 -20 -10 -11 0 -20 5 -20 10 0 6 9 10 20
10 11 0 20 -4 20 -10z m-260 -40 c0 -5 -4 -10 -10 -10 -5 0 -10 5 -10 10 0 6
5 10 10 10 6 0 10 -4 10 -10z m3005 -60 c3 -5 1 -10 -4 -10 -6 0 -11 5 -11 10
0 6 2 10 4 10 3 0 8 -4 11 -10z m722 -190 c1 -11 -2 -20 -8 -20 -5 0 -9 9 -9
20 0 11 4 20 8 20 4 0 8 -9 9 -20z m-5267 -264 c0 -2 -7 -6 -15 -10 -8 -3 -15
-1 -15 4 0 6 7 10 15 10 8 0 15 -2 15 -4z m6080 -76 c0 -5 -5 -10 -11 -10 -5
0 -7 5 -4 10 3 6 8 10 11 10 2 0 4 -4 4 -10z m-7006 -431 c3 -3 -4 -5 -14 -6
-11 -1 -20 2 -20 7 0 8 25 8 34 -1z m7260 -135 c9 -3 16 -13 16 -22 0 -12 3
-13 12 -4 26 26 88 8 88 -25 0 -15 -48 -17 -70 -4 -10 7 -18 4 -28 -10 -27
-39 -58 -21 -53 31 5 39 10 44 35 34z m-7586 -66 c-6 -18 -28 -21 -28 -4 0 9
7 16 16 16 9 0 14 -5 12 -12z m129 6 c-3 -3 -12 -4 -19 -1 -8 3 -5 6 6 6 11 1
17 -2 13 -5z m5590 -854 c286 -69 498 -207 695 -452 57 -71 76 -88 97 -88 106
0 227 -148 336 -411 28 -69 51 -89 101 -89 30 0 36 -15 59 -140 34 -186 30
-360 -9 -455 -10 -23 -20 -35 -26 -29 -12 13 -51 196 -57 271 -5 56 -9 66 -40
93 -41 36 -55 37 -114 5 l-47 -24 3 79 c2 44 6 89 10 100 4 11 2 20 -4 20 -6
0 -11 10 -11 23 0 12 -9 30 -20 40 -26 22 -30 22 -30 -7 0 -42 -22 -86 -49
-100 -14 -7 -50 -19 -79 -26 -42 -10 -53 -17 -58 -36 -3 -13 -9 -24 -13 -24
-4 0 -22 42 -41 93 -18 50 -51 126 -72 167 -35 71 -42 78 -115 122 -201 121
-345 168 -778 254 -218 43 -568 45 -770 5 -123 -25 -279 -35 -268 -18 6 10
-61 5 -102 -8 -11 -4 4 8 34 27 29 18 68 42 85 53 17 12 61 60 97 109 36 48
90 112 120 143 157 160 430 294 659 323 103 14 314 3 407 -20z m-4453 -54 c-2
-42 -24 -72 -48 -63 -35 14 -5 112 32 105 13 -3 17 -14 16 -42z m566 25 c0
-11 -12 -34 -26 -51 -20 -24 -33 -30 -49 -26 -14 4 -28 0 -35 -9 -17 -21 -30
-19 -30 4 0 12 21 34 58 59 65 45 82 50 82 23z m82 -133 c-7 -7 -12 -21 -12
-32 0 -10 -3 -17 -6 -13 -10 10 5 57 18 57 9 0 9 -3 0 -12z m-1018 -44 c-2
-36 -24 -86 -40 -91 -16 -5 -44 24 -44 45 0 9 9 32 20 50 15 24 27 32 43 30
18 -2 22 -9 21 -34z m657 -117 c19 -54 11 -110 -19 -126 -22 -11 -92 32 -92
57 0 31 19 84 37 104 28 31 55 19 74 -35z m119 -26 c-7 -17 -18 -36 -26 -42
-20 -16 -19 23 2 63 21 41 43 23 24 -21z m88 -37 c35 -24 26 -124 -11 -124
-17 0 -57 54 -57 77 0 20 26 63 38 63 4 0 18 -7 30 -16z m188 -32 c16 -11 34
-48 34 -71 0 -24 -22 -28 -40 -6 -17 21 -22 19 -75 -16 -50 -34 -63 -33 -44 3
41 78 90 114 125 90z m-3312 -17 c-7 -16 -24 -21 -24 -6 0 8 7 13 27 20 1 1 0
-6 -3 -14z m2806 -38 c0 -19 -27 -53 -35 -45 -12 12 4 58 20 58 8 0 15 -6 15
-13z m8350 -17 c0 -5 -2 -10 -4 -10 -3 0 -8 5 -11 10 -3 6 -1 10 4 10 6 0 11
-4 11 -10z m-7906 -142 c18 -68 5 -94 -60 -118 -21 -8 -26 -6 -39 20 l-15 30
-40 -25 c-29 -18 -40 -21 -40 -11 0 22 31 54 90 90 66 41 95 45 104 14z
m-3461 -85 c-7 -2 -19 -2 -25 0 -7 3 -2 5 12 5 14 0 19 -2 13 -5z m1627 -258
c0 -13 -65 -65 -83 -65 -12 0 21 58 40 69 26 15 43 13 43 -4z m1253 -75 c-6
-22 -18 -26 -29 -9 -3 6 0 15 7 20 22 14 28 11 22 -11z m-1163 -37 c0 -16 -4
-33 -8 -39 -12 -19 -71 -42 -91 -37 -13 3 -28 -5 -47 -26 -30 -34 -42 -38 -50
-16 -8 20 33 75 56 75 10 0 25 11 34 26 18 27 48 42 84 43 18 1 22 -4 22 -26z
m270 -6 c0 -19 -27 -53 -36 -44 -8 8 15 57 28 57 4 0 8 -6 8 -13z m9820 -37
c0 -5 -4 -10 -10 -10 -5 0 -10 5 -10 10 0 6 5 10 10 10 6 0 10 -4 10 -10z
m-10370 -44 c0 -3 -4 -8 -10 -11 -5 -3 -10 -1 -10 4 0 6 5 11 10 11 6 0 10 -2
10 -4z m-26 -41 c-5 -12 4 -15 46 -15 28 0 60 -5 72 -11 36 -19 75 -138 51
-152 -5 -2 -37 -1 -73 3 -56 7 -68 12 -91 41 -15 19 -30 49 -33 67 -5 36 7 82
23 82 6 0 8 -7 5 -15z m436 -85 c0 -15 -31 -60 -41 -60 -14 0 -11 23 7 48 16
23 34 29 34 12z m-899 -60 c10 -6 26 -25 35 -43 9 -18 26 -42 37 -54 17 -19
19 -27 9 -48 -12 -25 -45 -34 -57 -15 -3 6 -29 10 -56 10 -56 0 -93 26 -105
75 -14 56 77 106 137 75z m6149 -26 c55 -33 104 -148 71 -169 -14 -8 -99 35
-135 68 -17 15 -43 33 -58 40 -37 16 -35 33 5 57 39 24 80 25 117 4z m-4158
-74 c55 -29 95 -42 149 -50 85 -11 143 -23 249 -50 41 -10 87 -21 102 -25 18
-3 34 -17 44 -38 18 -34 31 -164 20 -193 -6 -15 -10 -14 -34 9 -16 15 -31 27
-35 27 -4 0 -7 -18 -7 -40 0 -23 -7 -54 -15 -70 -15 -28 -14 -30 5 -30 20 0
25 -15 14 -44 -4 -10 -18 -16 -41 -16 -25 0 -45 -9 -70 -30 -18 -16 -37 -30
-42 -30 -15 0 -40 35 -58 85 -19 52 -49 69 -77 46 -10 -9 -21 -3 -45 24 -17
20 -31 39 -31 43 0 4 -14 23 -31 42 -17 19 -42 52 -57 73 -14 21 -42 47 -62
57 -53 27 -100 69 -111 99 -13 33 -2 117 18 136 21 22 33 19 115 -25z m-1723
-36 c-9 -22 -13 -25 -16 -12 -5 19 18 69 24 52 2 -6 -2 -24 -8 -40z m-69 16
c0 -21 -29 -80 -39 -80 -16 0 -13 43 5 68 16 23 34 29 34 12z m4420 -70 c-5
-22 -8 -27 -9 -13 -1 21 9 56 14 51 2 -2 0 -19 -5 -38z m-3378 -70 c4 -19 6
-49 3 -66 -10 -56 -150 -176 -183 -155 -6 4 -12 39 -14 80 -2 63 1 76 16 85
10 6 44 30 75 53 67 51 92 52 103 3z m3820 -48 c6 -6 8 -18 4 -28 -5 -14 -16
-16 -61 -11 -54 5 -85 23 -85 48 0 15 126 7 142 -9z m1163 -32 c-32 -46 -45
-57 -45 -38 0 17 60 91 68 84 3 -3 -8 -24 -23 -46z m-1597 -17 c-2 -39 41
-341 53 -381 6 -18 9 -38 6 -45 -2 -6 -8 2 -11 18 -4 17 -11 38 -17 47 -5 10
-9 25 -9 33 0 9 -12 33 -26 55 -24 36 -26 49 -27 137 0 100 9 163 24 163 4 0
8 -12 7 -27z m-2695 -39 c23 -32 65 -83 94 -115 50 -55 68 -95 75 -164 3 -27
1 -30 -24 -27 -14 2 -29 -2 -33 -7 -11 -18 -42 -12 -58 12 -11 15 -19 18 -24
11 -12 -17 -41 -23 -121 -25 -62 -2 -77 1 -94 19 -19 19 -20 24 -8 53 10 24
28 39 77 61 35 17 65 33 68 38 3 4 -9 33 -25 64 -33 62 -35 74 -18 111 18 39
44 31 91 -31z m3797 -9 c0 -3 -19 -17 -42 -32 -24 -16 -56 -40 -73 -55 -16
-15 -31 -25 -33 -23 -6 6 25 59 45 77 29 26 103 50 103 33z m154 -1 c10 -4 16
-18 16 -40 0 -55 -33 -38 -36 19 -2 30 -2 30 20 21z m-472 -62 c-11 -8 -18 -9
-20 -2 -2 5 -12 10 -23 10 -10 0 -19 5 -19 11 0 6 7 8 16 5 11 -4 18 1 21 14
5 19 6 19 24 -3 17 -21 17 -23 1 -35z m323 -112 c-69 -141 -78 -168 -85 -237
-4 -42 -13 -79 -19 -81 -24 -8 -40 -35 -62 -102 -25 -80 -37 -93 -73 -84 -30
7 -32 20 -11 71 23 54 19 73 -15 84 -17 6 -27 16 -23 21 3 6 -3 17 -13 25 -18
13 -18 15 -1 24 9 6 17 17 17 24 0 15 6 16 69 19 36 1 43 8 46 43 3 49 5 52
18 48 26 -10 60 38 50 73 -4 16 8 35 44 74 50 55 93 112 93 124 0 11 33 45 38
39 3 -2 -30 -77 -73 -165z m-3053 108 c4 -41 19 -45 57 -12 39 32 75 28 129
-15 57 -44 77 -51 124 -45 46 6 80 1 278 -39 155 -32 288 -65 313 -79 22 -11
20 -33 -12 -118 -32 -86 -28 -159 14 -263 43 -105 44 -139 7 -195 l-28 -42
-21 22 c-11 13 -31 43 -43 68 -13 25 -28 48 -33 52 -6 4 -29 -11 -50 -33 -37
-37 -67 -50 -67 -29 0 5 7 30 16 55 20 62 15 73 -22 41 -59 -49 -89 -52 -144
-16 -14 9 -44 29 -67 45 l-42 27 -45 -26 c-31 -18 -44 -22 -40 -12 9 23 -16
88 -45 119 -23 25 -31 27 -71 21 -53 -8 -82 -31 -113 -93 -34 -67 -50 -91 -63
-91 -37 0 -16 75 36 129 44 46 50 62 20 54 -12 -3 -28 2 -39 11 -16 15 -19 14
-39 -4 -30 -29 -40 -25 -48 18 -3 20 -17 53 -30 72 -17 26 -24 53 -27 103 -4
53 -9 73 -27 92 -19 21 -21 30 -15 77 9 66 11 70 60 107 53 40 73 40 77 -1z
m3454 -79 c18 -20 18 -21 -6 -40 -51 -38 -135 -16 -99 27 30 36 78 42 105 13z
m1427 -68 c32 -65 36 -147 10 -213 -31 -79 -98 -181 -158 -243 -53 -54 -213
-175 -231 -175 -4 0 41 46 100 101 122 116 161 173 153 222 -13 77 -23 108
-32 107 -5 -1 -31 -26 -56 -57 -49 -57 -87 -89 -96 -80 -11 12 11 51 87 152
43 58 97 137 120 176 29 46 48 69 59 67 9 -2 28 -27 44 -57z m-3483 -12 c80
-38 159 -99 253 -196 56 -58 60 -60 88 -49 26 9 37 7 77 -14 52 -28 79 -67 59
-86 -20 -18 -77 -34 -123 -34 -24 0 -44 -5 -44 -10 0 -6 9 -29 21 -52 19 -36
21 -54 17 -157 -4 -107 -6 -121 -36 -179 -39 -74 -39 -73 53 -135 33 -22 83
-59 110 -82 65 -55 97 -70 172 -85 38 -8 69 -20 81 -34 21 -22 72 -175 72
-213 0 -12 -5 -25 -12 -29 -6 -4 -145 -8 -307 -8 -262 -1 -300 -3 -328 -18
-18 -10 -37 -18 -42 -18 -11 0 -57 137 -67 201 -5 31 -3 44 12 60 27 30 70 50
118 55 76 7 146 34 146 56 0 7 -105 73 -188 118 -93 51 -225 133 -329 205
-190 132 -271 247 -281 401 -5 79 12 132 63 193 27 32 31 33 79 28 28 -3 78
-17 111 -30 33 -13 89 -28 125 -31 36 -4 93 -14 128 -23 34 -9 66 -13 69 -9
26 26 -199 148 -307 167 -36 6 -76 13 -90 16 l-25 6 30 13 c21 10 59 13 125
11 84 -3 104 -7 170 -38z m1902 19 c-5 -7 -16 -32 -22 -55 -15 -51 -1 -72 48
-71 31 1 62 -16 62 -34 0 -5 18 -46 40 -91 50 -100 62 -164 35 -183 -27 -20
-59 -17 -87 9 -20 18 -23 30 -20 63 5 53 -14 62 -71 32 -33 -18 -57 -22 -114
-21 -63 2 -77 6 -108 30 -40 32 -41 48 -3 71 24 14 30 14 53 2 25 -13 28 -12
46 10 10 14 24 37 31 53 7 15 16 27 20 27 5 0 8 5 8 10 0 6 -11 10 -25 10 -14
0 -25 4 -25 9 0 11 133 149 139 145 2 -2 -1 -9 -7 -16z m188 -78 c0 -5 -4 -10
-10 -10 -5 0 -10 5 -10 10 0 6 5 10 10 10 6 0 10 -4 10 -10z m508 -50 c9 -1
30 -11 46 -24 28 -23 28 -24 10 -45 -30 -35 -64 -49 -134 -52 -77 -4 -88 1
-83 38 4 25 -1 31 -42 51 -62 30 -60 57 5 57 25 0 51 5 58 12 9 9 24 6 67 -13
31 -13 63 -24 73 -24z m-5233 -67 c9 -32 28 -92 41 -133 28 -90 31 -108 22
-109 -29 -3 -25 -11 -58 144 -10 50 -23 107 -28 127 -15 59 3 35 23 -29z m945
48 c0 -19 -17 -38 -25 -29 -7 7 7 48 16 48 5 0 9 -9 9 -19z m3979 -64 c31 -18
68 -39 83 -46 28 -14 38 -36 38 -87 0 -18 11 -56 25 -87 23 -50 25 -87 5 -87
-4 0 -13 13 -18 29 -10 28 -39 40 -165 66 -20 4 -32 16 -42 39 -8 19 -28 47
-45 64 -17 18 -30 41 -30 55 0 29 50 87 75 87 10 0 43 -15 74 -33z m1361 -107
c10 -19 25 -67 34 -107 9 -39 24 -87 35 -105 10 -18 26 -57 36 -85 9 -29 20
-53 24 -53 4 0 15 -15 25 -32 10 -18 35 -51 56 -73 20 -22 52 -65 70 -95 19
-30 60 -80 92 -111 59 -57 83 -104 67 -130 -14 -22 -11 -101 4 -96 6 2 12 19
12 37 0 18 6 35 12 37 23 8 69 -50 77 -95 3 -24 14 -55 23 -68 20 -32 3 -57
-25 -36 -9 7 -37 22 -62 33 -25 12 -54 29 -65 38 -11 10 -38 23 -61 29 -22 7
-51 21 -64 32 -13 11 -37 20 -54 20 -17 0 -41 7 -54 15 -12 9 -34 15 -49 13
-25 -3 -28 0 -25 22 5 49 24 78 60 94 23 9 30 15 18 15 -29 1 -56 31 -56 62 0
22 -6 30 -25 35 -38 9 -75 -3 -75 -26 0 -21 -36 -60 -57 -60 -20 0 -16 14 12
44 29 31 30 39 10 56 -22 18 -18 49 10 99 30 52 33 87 8 76 -10 -4 -37 -14
-61 -22 -33 -12 -56 -32 -105 -91 -71 -89 -91 -107 -160 -145 -36 -19 -54 -24
-61 -17 -17 17 37 109 110 187 73 78 144 205 144 258 0 41 -12 45 -29 9 -17
-37 -85 -116 -134 -155 l-42 -33 39 49 c22 28 58 73 81 100 64 77 113 174 125
252 16 99 17 99 41 77 12 -11 29 -35 39 -54z m-3000 -4 c0 -16 -18 -31 -27
-22 -8 8 5 36 17 36 5 0 10 -6 10 -14z m376 -52 c26 7 84 -28 84 -50 0 -7 8
-19 18 -26 19 -15 40 -44 48 -70 4 -10 10 -18 15 -18 5 0 9 -4 9 -10 0 -14
-75 -50 -103 -50 -59 0 -117 56 -117 113 0 22 -6 37 -16 41 -22 8 -8 25 16 19
15 -4 20 0 20 15 0 12 -4 24 -10 27 -5 3 -10 14 -10 23 1 15 2 15 11 -1 8 -13
18 -17 35 -13z m4850 -78 c61 -28 193 -151 178 -166 -5 -5 -36 -11 -69 -13
-40 -2 -60 -8 -63 -18 -2 -8 -6 -21 -9 -29 -3 -8 -7 -21 -7 -29 -1 -20 -26
-26 -26 -7 0 9 -4 16 -10 16 -5 0 -10 -7 -10 -15 0 -22 -42 -19 -67 5 -12 10
-25 30 -29 42 -3 13 -11 26 -16 29 -21 14 -12 75 16 112 27 36 28 38 11 57
-39 44 21 54 101 16z m-5112 -52 c25 -10 19 -58 -11 -88 -14 -15 -31 -25 -37
-23 -15 6 -9 66 10 94 16 26 16 25 38 17z m80 -172 c18 -63 -21 -100 -75 -72
-26 15 -24 43 7 80 32 38 55 35 68 -8z m2285 -7 c21 0 26 -5 26 -25 0 -23 -6
-26 -60 -37 -32 -6 -63 -9 -67 -7 -15 9 -8 32 18 64 22 26 29 29 42 18 8 -7
27 -13 41 -13z m-5459 -4 c32 -6 35 -9 35 -40 0 -49 -19 -49 -65 1 -43 46 -51
65 -22 53 9 -4 33 -11 52 -14z m8063 -93 c59 -38 71 -58 55 -92 -6 -14 -15
-26 -19 -26 -4 0 -11 -10 -15 -22 -10 -33 -144 -161 -211 -202 -51 -30 -118
-99 -192 -195 -50 -67 -284 -190 -756 -401 -58 -26 -208 -100 -213 -104 -2 -2
11 -23 28 -47 16 -24 41 -71 55 -104 13 -33 31 -63 39 -67 9 -5 24 -12 34 -16
31 -16 41 -52 31 -111 -7 -38 -7 -68 1 -102 6 -26 10 -65 9 -86 -2 -21 1 -44
5 -51 4 -8 10 -40 13 -72 6 -66 -13 -115 -66 -172 -35 -38 -59 -119 -78 -265
-7 -52 6 -60 78 -46 27 6 52 7 54 3 5 -8 -40 -32 -82 -44 -29 -9 -34 -27 -24
-81 10 -54 35 -85 68 -85 16 0 23 -6 23 -20 0 -13 11 -25 28 -32 37 -17 78
-47 212 -158 63 -53 144 -119 180 -147 101 -80 131 -117 231 -282 114 -191
139 -256 139 -371 0 -81 -11 -154 -24 -168 -9 -8 -89 -3 -96 7 -19 29 -94 34
-127 9 -16 -13 -47 5 -74 44 -32 47 -69 79 -80 72 -5 -3 -36 -59 -69 -124 -33
-66 -69 -124 -80 -130 -24 -13 -24 -13 -7 85 7 39 12 76 12 84 0 20 -54 49
-92 50 -43 1 -43 21 -1 56 18 15 37 37 43 48 6 12 18 32 25 43 12 19 11 24 -4
39 -32 33 -47 62 -56 116 -19 107 -30 154 -39 174 -6 11 -23 49 -39 85 -16 36
-50 87 -76 115 -45 47 -47 48 -41 21 3 -16 15 -41 26 -54 26 -34 25 -77 -3
-96 -31 -22 -50 -20 -84 9 -16 14 -36 27 -45 30 -23 8 -30 42 -12 56 12 11 10
16 -16 36 -17 14 -31 30 -31 36 0 7 -9 31 -20 55 l-19 43 -30 -16 c-17 -8 -38
-15 -48 -15 -29 0 -68 -25 -64 -41 2 -8 7 -27 11 -44 5 -16 22 -70 39 -119 20
-57 33 -117 37 -169 3 -45 8 -85 10 -89 11 -18 -10 -79 -38 -107 -36 -37 -38
-37 -66 -11 -18 17 -22 32 -22 81 0 63 -29 139 -53 139 -7 0 -29 -15 -49 -34
-93 -88 -127 -84 -89 9 20 48 22 60 11 85 -7 17 -18 30 -26 30 -7 0 -20 10
-28 21 -13 19 -18 20 -48 10 -18 -6 -69 -36 -113 -66 -51 -34 -93 -55 -115
-57 -32 -3 -35 0 -38 25 -2 15 -6 27 -10 27 -4 0 -5 25 -3 56 1 32 -2 68 -9
83 -7 14 -17 36 -23 48 -18 39 -43 38 -129 -6 -90 -46 -119 -50 -147 -20 -15
17 -26 20 -48 14 -36 -9 -53 -23 -53 -45 0 -9 -10 -25 -21 -36 -12 -10 -35
-41 -51 -69 -16 -27 -38 -62 -50 -76 -11 -15 -23 -48 -25 -74 -4 -30 -11 -49
-22 -53 -45 -16 -41 -55 15 -138 25 -38 60 -96 76 -129 17 -33 46 -78 64 -99
19 -22 34 -47 34 -56 0 -10 14 -31 30 -48 17 -18 30 -39 30 -47 0 -8 11 -25
25 -37 14 -12 25 -29 25 -38 0 -14 14 -38 75 -131 65 -100 111 -151 175 -195
56 -39 197 -114 215 -114 7 0 23 -8 36 -19 15 -11 58 -23 112 -31 48 -7 90
-17 93 -22 3 -4 16 -8 28 -8 13 0 29 -7 36 -15 9 -11 34 -14 100 -14 51 0 98
-5 111 -12 17 -9 24 -9 27 0 2 6 10 11 17 11 8 0 23 10 34 21 16 17 18 26 10
41 -14 25 -3 52 17 44 12 -4 14 -1 9 13 -4 14 0 23 14 31 16 8 19 8 16 -2 -3
-7 3 -18 14 -25 16 -10 20 -9 25 2 3 8 12 15 21 15 8 0 15 7 15 15 0 8 6 15
13 15 18 0 67 -24 67 -32 0 -5 6 -8 14 -8 8 0 17 -11 20 -25 8 -30 20 -32 38
-7 13 19 104 39 92 21 -3 -5 4 -9 15 -9 11 0 23 -5 26 -10 5 -8 11 -7 21 1 8
7 14 7 14 1 0 -14 73 -27 78 -13 2 6 8 11 13 11 5 0 4 -9 -3 -19 -6 -10 -17
-17 -24 -14 -8 3 -11 -7 -9 -36 2 -37 -1 -42 -32 -61 -19 -11 -45 -20 -59 -20
-13 0 -32 -9 -41 -20 -10 -11 -25 -20 -33 -20 -9 0 -21 -5 -27 -11 -14 -14
-100 -13 -137 1 -38 14 -56 13 -56 -4 0 -8 -6 -16 -12 -19 -21 -7 -38 4 -38
23 0 15 -11 19 -62 25 -35 3 -96 5 -136 5 -51 -1 -81 4 -97 14 -16 10 -56 18
-112 20 -48 3 -106 9 -128 15 -22 6 -55 11 -72 11 -21 0 -33 5 -33 14 0 18
-46 35 -93 35 -21 -1 -44 4 -52 11 -8 6 -26 13 -41 15 -26 3 -45 19 -70 61
-10 16 -12 16 -44 1 -49 -25 -66 -21 -97 21 -15 20 -31 39 -34 42 -4 3 -8 14
-10 25 -3 12 -14 21 -29 23 -32 5 -60 30 -60 54 0 11 -16 40 -35 65 -19 25
-35 51 -35 57 0 6 -14 31 -30 55 -16 24 -27 47 -24 52 3 5 1 9 -5 9 -19 0
-211 299 -211 329 0 19 -13 41 -40 69 -27 27 -40 49 -40 68 0 18 -12 38 -38
63 -21 20 -49 54 -62 76 -13 22 -53 73 -87 113 -35 40 -71 88 -80 107 -9 19
-28 40 -43 47 -42 20 -91 68 -143 138 -27 36 -60 80 -75 99 -15 19 -35 48 -45
64 -10 16 -32 41 -49 55 -29 25 -30 28 -26 94 l4 69 -36 -6 c-30 -5 -39 -2
-62 22 -36 38 -46 70 -39 123 6 45 6 45 46 45 32 0 40 -4 43 -20 2 -11 13 -28
25 -37 16 -12 21 -28 22 -62 0 -37 3 -46 17 -46 10 0 20 10 24 25 8 32 49 65
80 65 18 0 25 -7 30 -27 3 -16 10 -38 15 -51 12 -30 12 -79 -1 -87 -17 -10
-11 -61 10 -88 11 -14 20 -29 20 -35 0 -12 125 -127 182 -167 24 -17 53 -49
66 -70 48 -84 130 -191 156 -205 28 -15 28 -15 112 73 51 55 94 111 110 145
15 32 37 73 49 92 12 19 25 51 29 71 4 26 23 52 63 92 71 70 136 106 197 109
25 2 47 7 48 13 2 11 -93 80 -136 100 l-29 12 26 24 c36 31 34 39 -10 39 -49
0 -95 29 -129 80 -15 22 -32 40 -38 40 -15 0 -36 48 -30 65 4 11 -1 13 -23 8
-15 -3 -35 -5 -43 -5 -8 -1 -23 -8 -33 -16 -9 -8 -20 -12 -23 -9 -7 7 9 24 53
55 29 20 31 25 21 47 -15 34 9 68 60 83 39 12 179 111 195 139 4 7 23 13 40
13 22 0 43 10 64 29 17 15 38 31 47 34 19 8 21 26 3 33 -13 4 -27 0 -237 -76
-166 -60 -157 -59 -129 -21 13 18 68 60 122 94 53 33 97 64 97 69 0 10 3 11
-60 -8 -52 -15 -85 -34 -165 -95 -89 -67 -135 -87 -135 -57 0 27 103 135 174
183 19 12 19 13 -10 28 -16 8 -48 18 -71 22 -28 4 -43 12 -43 21 0 8 -9 33
-20 54 -23 45 -19 80 11 98 15 10 19 10 19 0 0 -8 3 -9 8 -3 11 16 60 35 75
30 7 -3 17 -15 22 -28 6 -12 20 -23 33 -25 12 -2 22 -7 22 -11 0 -11 47 -31
74 -31 13 0 29 -7 36 -15 19 -23 91 -19 148 10 28 14 58 25 68 25 70 1 60 81
-15 131 -55 36 -115 82 -127 98 -6 8 -16 11 -24 6 -7 -4 -27 -10 -44 -12 -17
-2 -33 -8 -34 -13 -2 -6 -17 -17 -34 -26 -18 -9 -28 -21 -24 -29 4 -12 -6 -14
-54 -11 -42 3 -63 0 -71 -10 -6 -8 -29 -14 -50 -14 -63 0 -142 -35 -157 -70
-8 -16 -10 -39 -7 -51 5 -15 4 -19 -4 -15 -7 5 -11 -2 -11 -16 0 -26 -33 -86
-58 -105 -34 -27 -85 -15 -164 37 -47 31 -87 50 -105 50 -16 0 -69 -18 -118
-40 -50 -22 -97 -40 -105 -40 -9 0 -20 -4 -25 -8 -6 -5 -22 -13 -37 -20 -45
-19 -32 1 15 23 23 11 44 22 47 25 3 3 34 20 70 39 126 65 296 132 385 151
102 23 394 120 430 144 13 8 26 29 30 45 3 17 17 41 31 53 13 13 24 28 24 34
0 16 -95 -13 -140 -42 -52 -34 -100 -50 -110 -35 -8 14 -60 5 -60 -10 0 -5 10
-13 22 -18 34 -12 5 -23 -76 -28 -85 -6 -165 -32 -264 -86 -40 -21 -76 -36
-79 -33 -10 10 44 61 122 114 37 27 75 59 84 72 15 23 15 23 -13 16 -15 -4
-52 -25 -82 -47 -30 -22 -54 -36 -54 -31 0 25 174 168 288 237 10 6 19 11 21
13 3 1 -6 13 -18 26 -31 32 -24 57 22 79 35 18 37 21 37 65 1 30 7 55 18 68
34 41 107 74 197 89 61 11 95 22 108 35 20 23 94 28 129 9 12 -6 71 -24 133
-39 81 -20 131 -39 181 -69 37 -23 73 -41 80 -41 23 0 225 -70 275 -95 26 -14
60 -25 73 -25 14 0 85 21 158 46 161 55 407 137 582 193 71 23 147 55 170 71
70 48 163 152 184 204 10 26 37 69 60 96 23 27 42 55 42 63 0 37 124 107 188
107 9 0 27 13 41 28 53 59 73 59 164 0z m-5853 -53 c0 -8 -2 -15 -4 -15 -2 0
-11 -3 -19 -6 -12 -4 -14 0 -10 15 6 24 33 29 33 6z m2923 -121 c11 -11 -5
-34 -24 -34 -10 0 -19 -4 -19 -9 0 -5 -13 -12 -30 -16 -16 -4 -32 -11 -35 -16
-4 -5 -18 -9 -33 -9 -24 0 -25 1 -10 16 14 14 124 72 139 74 3 0 8 -3 12 -6z
m-1756 -19 c44 -31 53 -145 13 -145 -40 0 -87 113 -60 145 16 19 20 19 47 0z
m1853 -74 c0 -27 -18 -44 -75 -71 -72 -34 -95 -37 -95 -12 0 33 28 54 105 78
49 16 65 17 65 5z m-356 -16 c4 -12 -3 -15 -36 -15 -39 0 -40 1 -22 15 25 19
50 19 58 0z m-133 -32 c4 -5 10 -22 13 -39 6 -28 4 -32 -21 -42 -96 -36 -143
-42 -143 -17 0 8 -4 15 -10 15 -5 0 -10 -5 -10 -11 0 -5 -5 -7 -12 -3 -6 4
-17 -1 -24 -11 -10 -13 -17 -15 -26 -8 -16 13 -96 15 -103 2 -10 -15 -45 -10
-45 6 0 9 9 15 23 15 13 0 27 4 33 9 11 11 143 58 176 64 13 2 34 8 48 14 45
18 55 20 74 17 11 -2 23 -7 27 -11z m-521 -113 c0 -5 -7 -7 -15 -4 -8 4 -12
10 -9 15 6 11 24 2 24 -11z m1710 -25 c-8 -8 -34 -17 -57 -21 -35 -5 -43 -4
-43 9 0 32 75 62 100 40 13 -11 13 -15 0 -28z m-2691 -181 c-33 -40 -39 20
-11 107 l17 54 3 -73 c2 -46 -2 -79 -9 -88z m6766 126 c-3 -5 -1 -10 4 -10 6
0 11 -5 11 -11 0 -8 -5 -8 -15 1 -13 11 -12 30 1 30 3 0 2 -4 -1 -10z m15 -56
c0 -8 -5 -12 -10 -9 -6 4 -8 11 -5 16 9 14 15 11 15 -7z m-11604 -76 c-10 -62
-26 -72 -26 -17 0 46 5 59 23 59 6 0 7 -17 3 -42z m-2332 14 c2 -4 -4 -9 -15
-9 -11 -1 -17 2 -14 8 7 11 22 12 29 1z m7280 -168 c-10 -26 -13 -48 -8 -53 5
-4 50 -20 99 -35 292 -92 519 -212 618 -327 57 -67 61 -72 100 -106 63 -54 39
-74 -33 -27 -41 28 -123 44 -134 26 -3 -5 27 -33 67 -62 39 -29 80 -64 91 -77
32 -41 90 -62 112 -40 11 11 42 8 50 -4 9 -15 -12 -27 -40 -22 -32 7 -39 -10
-15 -35 20 -22 39 -26 112 -24 43 0 48 -13 12 -30 -20 -9 -24 -16 -19 -37 3
-14 8 -38 11 -53 3 -16 9 -28 14 -28 5 0 9 -13 9 -30 0 -16 6 -35 13 -41 11
-11 10 -16 -4 -30 -24 -24 -14 -59 16 -59 12 0 28 -6 34 -14 26 -31 48 -243
27 -263 -2 -2 -15 1 -29 6 -29 11 -57 57 -57 93 0 13 -9 37 -19 55 -11 17 -23
48 -27 67 -3 20 -8 36 -11 36 -13 0 -52 -26 -83 -55 -27 -25 -47 -34 -84 -38
-27 -3 -61 -14 -77 -26 -32 -24 -47 -20 -103 26 -15 13 -47 32 -70 42 -163 74
-160 73 -231 73 -137 -2 -229 44 -366 180 -47 47 -103 97 -125 110 -44 29
-133 115 -143 139 -11 28 -125 120 -143 115 -26 -6 -71 40 -63 64 7 24 -38 69
-70 70 -11 0 -56 14 -100 30 -52 20 -108 33 -160 37 -44 3 -89 12 -100 19 -42
27 -146 46 -211 38 -73 -7 -75 -4 -45 61 34 74 47 79 195 85 137 6 173 15 365
94 80 32 88 32 184 -1 77 -26 78 -26 125 -10 31 11 77 17 134 17 86 0 88 0
102 29 8 15 32 43 53 61 31 28 39 31 41 17 2 -10 -4 -38 -14 -63z m-4578 -46
c10 -17 -34 -48 -65 -46 -14 1 -36 -4 -48 -10 -29 -16 -53 -15 -53 1 0 15 37
51 60 60 28 10 99 7 106 -5z m679 -10 l27 -21 -43 -23 c-41 -21 -86 -24 -137
-8 -21 6 4 42 41 58 47 21 81 19 112 -6z m-540 -28 c17 -11 41 -20 55 -20 42
0 52 -13 44 -55 -5 -28 -15 -42 -39 -57 -18 -10 -36 -25 -38 -32 -3 -8 -23
-17 -44 -20 -21 -4 -46 -9 -55 -12 -16 -5 -17 4 -14 90 4 127 24 150 91 106z
m6220 -30 c-10 -11 -20 -18 -23 -15 -7 6 18 35 31 35 5 0 2 -9 -8 -20z m-6562
-47 c-4 -9 -23 -31 -44 -50 -20 -18 -44 -49 -53 -68 -18 -37 -40 -38 -49 -3
-8 28 2 48 24 48 10 0 25 13 34 30 9 17 19 30 24 30 4 0 18 9 31 20 25 22 43
18 33 -7z m-2553 -13 c0 -5 -7 -10 -16 -10 -8 0 -12 5 -9 10 3 6 10 10 16 10
5 0 9 -4 9 -10z m-53 -232 c-3 -7 -5 -2 -5 12 0 14 2 19 5 13 2 -7 2 -19 0
-25z m6589 -29 c3 -6 -7 -29 -24 -52 -35 -50 -56 -86 -132 -232 -32 -61 -91
-164 -130 -230 -40 -66 -107 -176 -148 -245 -68 -112 -182 -333 -182 -352 0
-5 11 -8 24 -8 26 0 129 -78 146 -111 8 -15 6 -36 -11 -89 -15 -44 -19 -74
-13 -79 13 -14 176 -47 319 -66 66 -9 185 -27 265 -40 80 -14 219 -31 310 -40
91 -8 194 -21 230 -30 36 -8 88 -19 115 -24 28 -5 75 -14 105 -20 30 -6 85
-14 123 -17 42 -3 73 -12 83 -22 14 -13 20 -14 48 -2 44 18 94 23 141 13 36
-8 51 -23 71 -71 1 -1 12 1 25 7 13 5 50 17 82 27 48 15 59 16 67 5 5 -10 34
-15 93 -16 114 -4 131 -10 122 -43 -4 -15 -8 -33 -8 -39 -1 -18 -26 -38 -72
-55 -36 -14 -43 -14 -77 0 -21 9 -38 23 -38 30 0 8 -6 11 -12 8 -63 -25 -88
-29 -105 -13 -10 8 -35 18 -55 22 -21 4 -38 10 -38 14 0 3 -6 14 -14 23 -12
16 -15 16 -56 -4 -59 -29 -154 -24 -193 10 -14 13 -25 13 -64 5 -38 -9 -53 -8
-75 3 -39 20 -159 18 -197 -3 -17 -10 -31 -21 -31 -25 0 -4 -7 -5 -15 -2 -8 4
-15 1 -15 -5 0 -6 -4 -11 -9 -11 -5 0 -8 13 -6 29 6 44 -35 55 -132 35 -32 -6
-28 -24 5 -24 15 0 37 -7 49 -15 12 -8 30 -12 40 -9 15 5 16 4 3 -5 -21 -16
-204 -5 -430 25 -102 13 -205 29 -230 34 -68 14 -201 40 -235 45 -16 3 -59 12
-95 20 -36 8 -85 19 -110 24 -83 18 -215 50 -250 60 -48 15 -48 15 -65 -26
l-15 -36 -28 25 c-15 14 -40 32 -57 40 -16 8 -62 34 -102 57 -40 22 -77 41
-82 41 -40 0 4 135 135 416 13 28 24 55 24 60 0 5 9 17 20 27 24 20 27 67 5
67 -25 0 -17 19 11 26 19 5 24 12 21 25 -4 14 0 19 14 19 10 0 19 7 19 16 0 8
10 33 23 55 22 40 22 40 2 55 -19 14 -19 16 -2 28 9 7 17 20 17 27 0 19 32 47
48 41 19 -6 54 35 81 96 6 12 18 25 26 28 8 4 15 11 15 16 0 12 59 90 77 101
7 4 13 20 13 35 0 34 102 162 129 162 5 0 14 7 21 15 7 9 19 14 26 11 7 -3 18
2 24 10 7 8 18 14 24 14 7 0 27 15 45 34 25 26 46 36 92 45 32 7 59 16 59 21
0 18 105 26 116 9z m-1443 -18 c21 -4 3 -21 -23 -21 -19 0 -33 -7 -40 -20 -6
-11 -19 -20 -29 -20 -24 0 -88 -27 -96 -40 -3 -5 -16 -10 -28 -10 -12 0 -31
-7 -41 -15 -11 -8 -29 -15 -41 -15 -12 0 -25 -4 -30 -9 -16 -16 -105 -61 -119
-61 -8 0 -19 -7 -26 -15 -7 -8 -21 -15 -31 -15 -11 0 -28 -9 -39 -20 -11 -11
-29 -20 -40 -20 -10 0 -23 -6 -27 -13 -4 -7 -25 -23 -46 -37 -20 -14 -35 -30
-33 -35 6 -16 -17 -42 -39 -47 -13 -2 -24 4 -32 19 -12 24 -6 66 8 57 5 -3 9
3 9 13 0 20 68 96 120 135 76 57 316 149 465 178 33 7 65 13 70 15 9 2 71 -1
88 -4z m-5173 -199 c0 -10 -7 -19 -15 -19 -18 0 -19 9 -3 25 16 16 18 15 18
-6z m14220 -82 c0 -5 -4 -10 -10 -10 -5 0 -10 5 -10 10 0 6 5 10 10 10 6 0 10
-4 10 -10z m-5100 -169 c0 -13 -21 -26 -45 -27 -11 0 -31 -4 -45 -7 -14 -4 -2
4 25 17 57 28 65 30 65 17z m100 -22 c-7 -11 -14 -18 -17 -15 -3 3 0 12 7 21
18 21 23 19 10 -6z m-230 -29 c0 -5 -6 -10 -13 -10 -7 0 -28 -8 -47 -19 -19
-10 -46 -22 -60 -26 -25 -7 -25 -7 3 17 43 35 117 60 117 38z m304 -81 c-21
-24 -29 -18 -14 10 6 12 16 19 21 15 6 -4 4 -13 -7 -25z m74 -71 c-6 -20 -147
-87 -203 -98 -27 -5 -61 -12 -75 -16 -23 -5 -22 -3 12 30 20 19 47 37 60 40
106 21 180 41 184 48 8 13 26 9 22 -4z m-4526 -205 c34 -31 11 -65 -38 -55
-32 6 -43 23 -33 50 10 26 44 29 71 5z m98 -62 c8 -16 5 -21 -22 -30 -45 -16
-48 -14 -48 19 0 27 3 30 30 30 19 0 33 -7 40 -19z m9320 -11 c0 -5 -2 -10 -4
-10 -3 0 -8 5 -11 10 -3 6 -1 10 4 10 6 0 11 -4 11 -10z m-9189 -56 c35 -31
-16 -87 -54 -59 -20 14 -21 28 -7 56 13 23 37 25 61 3z m186 -71 c2 -6 -3 -16
-12 -23 -8 -7 -15 -18 -15 -25 0 -17 -57 -27 -82 -14 -15 8 -18 17 -13 37 4
15 12 30 18 34 16 11 100 3 104 -9z m5893 -62 c-16 -9 -190 -23 -190 -16 0 3
15 9 33 14 41 12 178 14 157 2z m-5780 -6 c0 -6 -40 -87 -46 -94 -2 -2 -9 1
-17 7 -8 7 -11 26 -9 49 3 36 6 39 38 41 19 2 34 0 34 -3z m3683 -26 c12 -7
23 -13 25 -14 1 -1 -2 -13 -8 -27 -14 -31 -124 -64 -163 -49 -14 5 -28 7 -31
4 -8 -9 -36 17 -36 34 0 8 11 25 25 38 21 22 33 25 95 25 39 0 81 -5 93 -11z
m385 -29 c40 -15 43 -46 7 -88 -14 -17 -25 -35 -25 -41 0 -17 -102 -111 -121
-111 -9 0 -33 16 -53 35 -20 19 -53 42 -72 51 -44 21 -94 67 -94 87 0 8 19 32
42 52 l41 38 121 -6 c67 -3 136 -11 154 -17z m-928 -669 c0 -32 11 -51 30 -51
15 0 17 -5 10 -33 -8 -39 3 -77 25 -77 8 0 15 -2 15 -5 0 -12 -45 -94 -81
-147 -22 -32 -39 -61 -39 -65 0 -10 -78 -130 -119 -183 -19 -25 -60 -71 -90
-102 -31 -32 -69 -74 -84 -93 -28 -34 -60 -45 -72 -25 -7 12 24 150 36 164 5
6 9 16 9 23 0 16 47 63 63 63 22 0 37 23 37 57 0 21 6 36 15 39 8 4 15 18 15
33 0 15 14 43 31 64 25 31 36 37 55 33 31 -8 31 7 0 36 -36 36 -76 126 -76
175 0 25 44 47 68 34 26 -14 67 -17 68 -6 5 58 84 119 84 66z m2338 -44 c5
-27 -17 -50 -34 -36 -15 12 -19 41 -7 53 12 12 38 1 41 -17z m-1784 -78 c31
-24 36 -78 10 -104 -22 -22 -130 -76 -137 -68 -10 9 4 95 20 126 18 36 49 67
67 67 7 0 25 -9 40 -21z m-2051 -171 c12 -7 48 -13 80 -14 32 -1 63 -6 69 -12
7 -7 28 -9 54 -5 33 4 49 1 72 -16 17 -11 42 -21 57 -21 19 0 29 -6 32 -20 4
-16 12 -20 37 -18 28 3 31 0 34 -29 2 -24 -2 -34 -17 -43 -18 -9 -25 -7 -45
13 -24 24 -71 33 -91 17 -15 -12 -76 -15 -107 -6 -21 6 -34 3 -54 -13 -35 -27
-52 -27 -64 3 -5 13 -13 27 -18 30 -19 12 -162 -23 -218 -53 -32 -17 -63 -31
-70 -31 -7 0 -41 -25 -76 -55 -34 -30 -66 -55 -71 -55 -10 0 -57 -50 -57 -61
0 -5 -22 -46 -50 -92 -27 -46 -50 -89 -50 -96 0 -7 -14 -38 -31 -69 -55 -98
-59 -107 -59 -124 0 -9 -9 -38 -21 -65 -11 -26 -22 -57 -24 -68 -14 -86 -30
-153 -40 -170 -6 -11 -18 -40 -25 -65 -8 -25 -18 -51 -24 -59 -6 -7 -11 -39
-12 -71 -2 -32 -8 -68 -14 -80 -6 -11 -8 -30 -5 -41 11 -34 -4 -87 -25 -94
-15 -5 -20 -15 -20 -40 0 -20 -6 -35 -15 -39 -19 -7 -19 -43 0 -76 22 -39 18
-64 -15 -88 -22 -17 -30 -31 -30 -53 0 -19 -9 -38 -25 -53 -29 -27 -31 -41 -8
-55 13 -7 14 -12 6 -23 -11 -13 -13 -18 -13 -38 0 -18 -42 -10 -66 13 -32 30
-31 57 1 57 30 0 31 4 5 30 -29 29 -25 63 12 94 l32 26 -18 73 c-18 70 -18 75
-1 122 13 36 18 75 16 138 -1 64 3 93 14 111 16 25 11 55 -12 69 -21 13 -15
27 10 24 21 -2 22 1 24 78 1 44 6 109 13 145 6 36 15 88 19 117 8 47 37 137
61 188 5 11 19 53 30 93 15 52 30 80 51 99 16 14 29 32 29 40 0 46 115 188
192 236 15 9 56 44 90 76 54 50 71 60 113 66 28 4 68 18 91 30 40 22 85 25
134 10 11 -4 26 -2 33 3 7 5 21 12 32 15 11 2 21 5 23 6 2 0 13 -4 25 -11z
m6936 -11 c13 -17 -8 -40 -52 -56 -42 -16 -57 -13 -57 10 0 12 5 19 12 17 7
-3 21 6 31 19 21 26 49 30 66 10z m-137 -36 c11 -2 2 -32 -11 -41 -19 -11 -66
4 -66 21 -1 20 16 29 45 25 14 -3 28 -5 32 -5z m-6272 -83 c0 -7 -11 -37 -25
-66 -31 -67 -31 -82 -2 -82 13 0 32 -9 42 -20 18 -20 18 -21 0 -34 -14 -10
-26 -11 -43 -5 -13 5 -37 9 -54 9 -27 0 -30 3 -23 23 4 12 8 32 8 44 1 12 5
25 10 29 4 4 7 24 7 45 0 57 8 69 46 69 21 0 34 -5 34 -12z m6252 -48 c18 0
19 -4 13 -37 -4 -21 -10 -40 -13 -43 -4 -3 -16 -21 -26 -40 -29 -54 -53 -76
-103 -95 -57 -22 -182 -90 -293 -161 -47 -29 -105 -66 -130 -81 -25 -15 -61
-39 -80 -53 -37 -28 -183 -120 -260 -164 -70 -39 -359 -182 -415 -204 -27 -11
-94 -38 -147 -60 -177 -73 -511 -141 -810 -163 -148 -11 -159 -10 -313 21 -27
6 -55 8 -62 5 -7 -2 -13 -3 -13 -1 0 3 -3 13 -6 23 -6 15 -4 16 7 6 15 -15 63
-18 55 -4 -10 15 20 32 55 31 57 0 123 12 144 26 12 9 47 14 97 14 42 0 97 6
120 14 42 14 121 34 228 56 30 7 87 21 125 33 39 11 80 20 92 19 12 -1 48 12
79 30 72 39 151 68 186 68 15 0 29 4 33 9 13 22 102 74 123 73 13 -1 22 4 22
13 0 8 17 22 38 31 20 10 52 35 70 55 18 21 49 43 70 49 20 7 78 36 127 65 50
29 99 57 111 63 11 6 42 29 69 51 27 23 74 53 105 68 30 16 62 35 72 43 34 30
44 36 101 59 31 13 57 27 57 32 0 5 7 9 15 9 9 0 26 6 38 14 12 8 56 26 97 40
41 14 120 41 175 60 55 19 106 33 113 30 8 -2 23 -4 34 -4z m-6384 -98 c3 -9
-3 -13 -19 -10 -12 1 -24 9 -27 16 -3 9 3 13 19 10 12 -1 24 -9 27 -16z m6502
-133 c0 -5 -4 -9 -8 -9 -5 0 -9 7 -9 15 0 8 4 12 9 9 4 -3 8 -9 8 -15z m-8415
-156 c0 -57 3 -65 34 -97 34 -35 34 -36 22 -78 -19 -63 -48 -116 -71 -128 -15
-8 -25 -5 -52 17 -18 16 -65 50 -104 76 -40 26 -74 56 -77 67 -8 29 12 105 36
142 32 47 75 66 149 64 l63 -2 0 -61z m2535 43 c75 -22 69 -41 -57 -168 -59
-61 -112 -114 -118 -119 -43 -37 -138 -108 -207 -155 -85 -58 -126 -96 -188
-174 -19 -24 -47 -56 -61 -71 -32 -34 -64 -82 -61 -91 1 -5 -5 -8 -13 -8 -8 0
-15 -4 -15 -10 0 -5 -23 -33 -51 -61 -27 -29 -56 -66 -63 -84 -8 -18 -27 -45
-42 -62 -42 -43 -154 -192 -164 -217 -4 -12 -42 -57 -85 -100 -42 -44 -84 -90
-92 -103 -8 -13 -22 -23 -29 -23 -8 0 -14 -6 -14 -14 0 -8 -14 -20 -30 -28
-17 -7 -33 -20 -35 -28 -3 -8 -37 -31 -76 -50 -39 -19 -74 -40 -76 -47 -3 -6
-18 -15 -34 -18 -16 -4 -31 -11 -34 -16 -4 -5 -17 -9 -31 -9 -13 0 -24 -5 -24
-11 0 -5 -5 -7 -10 -4 -6 3 -13 -1 -16 -9 -3 -9 -13 -16 -22 -16 -8 0 -40 -14
-70 -31 -30 -17 -60 -28 -67 -25 -7 2 -17 0 -22 -5 -15 -15 -70 -22 -78 -9
-17 27 10 52 108 101 98 49 293 188 386 273 57 54 197 228 454 565 56 73 202
234 317 351 72 73 190 176 319 281 112 90 191 164 191 177 0 5 15 14 33 20 17
5 32 10 32 11 0 0 20 -5 45 -13z m2860 -240 c0 -2 -7 -6 -15 -10 -8 -3 -15 -1
-15 4 0 6 7 10 15 10 8 0 15 -2 15 -4z m-5573 -48 c47 -34 123 -137 123 -167
0 -32 -35 -111 -49 -111 -6 0 -16 10 -22 22 -7 13 -26 36 -42 53 -80 80 -106
150 -77 206 14 25 28 24 67 -3z m5463 12 c0 -12 -28 -25 -36 -17 -9 9 6 27 22
27 8 0 14 -5 14 -10z m550 -64 c0 -3 -4 -8 -10 -11 -5 -3 -10 -1 -10 4 0 6 5
11 10 11 6 0 10 -2 10 -4z m-1432 -24 c2 -7 -6 -12 -17 -12 -21 0 -27 11 -14
24 9 9 26 2 31 -12z m1407 -22 c3 -6 -1 -7 -9 -4 -18 7 -21 14 -7 14 6 0 13
-4 16 -10z m-5972 -160 c51 -32 57 -50 36 -109 -11 -32 -12 -32 -66 -27 -30 2
-61 10 -70 17 -32 27 1 149 41 149 6 0 32 -14 59 -30z m5202 -100 c-3 -5 -12
-7 -20 -3 -21 7 -19 13 6 13 11 0 18 -4 14 -10z m-6440 -193 c22 -34 63 -85
92 -114 55 -55 72 -88 54 -106 -23 -23 -110 45 -185 143 -24 30 -46 64 -49 74
-8 21 16 66 36 66 6 0 30 -28 52 -63z m-69 -157 c19 -52 34 -112 34 -133 0
-22 7 -63 16 -93 18 -63 16 -119 -5 -119 -8 0 -39 29 -68 65 -30 36 -80 92
-112 125 -87 89 -93 155 -14 155 23 0 35 5 39 18 19 59 35 83 56 80 17 -2 28
-21 54 -98z m1529 -1010 c3 -5 1 -10 -4 -10 -6 0 -11 5 -11 10 0 6 2 10 4 10
3 0 8 -4 11 -10z m-309 -65 c25 -38 11 -113 -22 -121 -44 -11 -54 0 -54 65 0
47 4 62 18 70 27 16 40 13 58 -14z m-276 2 c0 -23 22 -38 37 -26 10 9 13 7 13
-10 0 -16 -5 -20 -22 -17 -13 2 -28 -1 -35 -6 -18 -14 -35 0 -24 20 6 10 6 23
0 34 -8 15 -6 18 11 18 11 0 20 -6 20 -13z m-70 -37 c0 -5 -7 -10 -15 -10 -8
0 -15 5 -15 10 0 6 7 10 15 10 8 0 15 -4 15 -10z m660 -17 c-1 -18 -19 -34
-90 -80 -87 -57 -125 -72 -160 -63 -28 7 -30 33 -9 102 12 37 12 37 73 41 125
7 186 7 186 0z m-314 -154 c14 -28 29 -46 45 -49 21 -5 24 -12 26 -58 2 -46
14 -85 59 -202 7 -19 13 -49 14 -66 0 -35 15 -87 35 -125 8 -14 17 -45 20 -68
3 -23 16 -62 29 -86 14 -23 27 -65 31 -91 4 -27 13 -67 22 -90 8 -22 13 -58
11 -80 -2 -31 -8 -40 -29 -48 -61 -21 -106 11 -124 89 -7 33 -20 89 -29 125
-8 36 -15 84 -16 107 0 23 -6 48 -14 55 -12 12 -18 47 -31 168 -2 25 -13 43
-41 66 l-38 32 12 103 c7 70 8 105 1 108 -6 1 -19 12 -30 24 -34 36 -21 146
16 134 5 -2 19 -23 31 -48z m-1894 -49 c26 0 82 -36 69 -45 -6 -3 -9 -10 -6
-15 3 -5 -5 -14 -17 -21 -12 -7 -29 -18 -36 -26 -8 -8 -17 -11 -20 -8 -3 3 4
12 16 21 29 20 30 54 1 47 -12 -4 -25 0 -30 8 -4 8 -16 14 -26 14 -19 0 -29
26 -19 51 5 13 9 12 28 -5 12 -12 30 -21 40 -21z m-32 -240 c20 -20 20 -20 1
-20 -11 0 -22 -4 -25 -9 -11 -17 -41 0 -42 25 -2 19 3 24 22 24 13 0 33 -9 44
-20z m658 -981 c-2 -6 -8 -10 -13 -10 -5 0 -11 4 -13 10 -2 6 4 11 13 11 9 0
15 -5 13 -11z m1804 -1143 c25 -37 -36 -60 -156 -58 -94 1 -112 8 -102 40 7
22 62 38 80 23 6 -5 28 -3 51 4 44 13 116 8 127 -9z"/>
<path d="M8670 11515 c0 -4 7 -19 16 -36 16 -32 21 -32 89 -4 l30 12 -54 17
c-57 17 -81 20 -81 11z"/>
<path d="M10650 10705 c-33 -54 -40 -73 -34 -89 7 -18 59 -40 73 -31 14 8 13
69 -2 120 l-12 39 -25 -39z"/>
<path d="M14340 10424 c-10 -3 -16 -20 -17 -55 l-2 -50 37 3 37 3 -3 45 c-2
25 -9 48 -15 52 -13 8 -13 8 -37 2z"/>
<path d="M13709 9561 c-43 -43 -54 -74 -16 -47 12 9 37 26 54 39 37 25 40 32
17 41 -11 4 -29 -7 -55 -33z"/>
<path d="M14240 9320 c0 -5 4 -10 9 -12 5 -1 11 -12 13 -23 3 -17 -3 -20 -38
-20 -43 0 -44 -1 -44 -35 0 -13 7 -20 19 -20 11 0 47 -9 80 -19 43 -13 71 -17
96 -11 24 5 40 4 52 -6 10 -7 28 -14 40 -14 12 0 24 -6 26 -12 4 -8 6 -7 6 4
1 9 -17 31 -39 50 -44 36 -220 131 -220 118z"/>
<path d="M13490 9310 c0 -5 7 -10 15 -10 8 0 15 5 15 10 0 6 -7 10 -15 10 -8
0 -15 -4 -15 -10z"/>
<path d="M13965 9163 c-11 -3 -24 -8 -30 -12 -5 -4 -29 -13 -52 -21 -24 -7
-43 -17 -43 -22 0 -10 0 -10 108 21 86 26 101 54 17 34z"/>
<path d="M14360 9046 c0 -2 7 -7 16 -10 8 -3 12 -2 9 4 -6 10 -25 14 -25 6z"/>
<path d="M13652 8562 c-27 -8 -28 -9 -19 -41 6 -23 7 -24 84 -16 43 5 119 8
168 7 l90 -1 -60 23 c-63 25 -219 41 -263 28z"/>
<path d="M13935 8210 c-18 -7 -18 -8 7 -15 14 -4 34 -5 44 -3 15 2 14 5 -7 14
-13 6 -33 8 -44 4z"/>
<path d="M14354 8155 c-4 -8 0 -22 7 -31 18 -22 68 -46 79 -39 13 8 13 41 0
66 -13 24 -78 27 -86 4z"/>
<path d="M13484 7756 c-16 -13 -26 -28 -22 -32 12 -11 83 20 83 36 0 24 -31
22 -61 -4z"/>
<path d="M14987 6474 c-9 -10 4 -34 19 -34 16 0 16 2 8 24 -6 17 -16 20 -27
10z"/>
<path d="M14872 6420 c0 -14 2 -19 5 -12 2 6 2 18 0 25 -3 6 -5 1 -5 -13z"/>
<path d="M14916 6418 c-17 -24 -22 -68 -8 -68 5 0 19 11 31 24 21 23 22 26 8
46 l-15 21 -16 -23z"/>
<path d="M14996 6405 c-3 -8 -1 -17 3 -20 5 -3 11 2 15 10 3 8 1 17 -3 20 -5
3 -11 -2 -15 -10z"/>
<path d="M11187 9703 c-8 -7 42 -43 61 -43 22 0 13 37 -10 44 -30 8 -43 7 -51
-1z"/>
<path d="M11345 9661 c-7 -13 8 -21 36 -20 13 1 58 -1 99 -4 l75 -7 -85 20
c-98 22 -117 24 -125 11z"/>
<path d="M11316 9531 c-8 -12 60 -65 115 -90 48 -22 113 -78 148 -128 19 -27
20 -35 9 -53 -15 -24 -40 -26 -72 -5 -19 12 -29 13 -52 4 l-29 -11 39 -34 c28
-24 48 -33 68 -32 19 2 33 -5 44 -20 8 -12 24 -22 34 -22 10 0 22 -5 25 -11 4
-5 18 -15 32 -20 14 -5 27 -18 30 -29 3 -11 9 -20 14 -20 5 0 9 -9 9 -21 0
-11 -4 -18 -9 -14 -5 3 -13 0 -17 -6 -3 -6 -22 -17 -40 -25 -19 -8 -34 -18
-34 -23 0 -9 51 -55 97 -88 l30 -22 24 51 c38 81 99 122 141 94 36 -23 205
-40 255 -27 40 11 73 34 73 50 0 27 -214 227 -295 276 -166 99 -225 130 -282
150 -37 13 -84 30 -103 38 -19 8 -69 20 -110 26 -41 7 -89 14 -107 17 -17 2
-34 0 -37 -5z"/>
<path d="M12042 9388 c6 -16 36 -34 44 -25 9 9 -15 37 -33 37 -8 0 -13 -5 -11
-12z"/>
<path d="M12465 8960 c3 -5 8 -10 11 -10 2 0 4 5 4 10 0 6 -5 10 -11 10 -5 0
-7 -4 -4 -10z"/>
<path d="M12545 7450 c3 -5 8 -10 11 -10 2 0 4 5 4 10 0 6 -5 10 -11 10 -5 0
-7 -4 -4 -10z"/>
<path d="M12765 15470 c3 -5 8 -10 11 -10 2 0 4 5 4 10 0 6 -5 10 -11 10 -5 0
-7 -4 -4 -10z"/>
<path d="M13680 15170 c0 -5 9 -10 20 -10 11 0 20 5 20 10 0 6 -9 10 -20 10
-11 0 -20 -4 -20 -10z"/>
<path d="M5821 13254 c0 -11 3 -14 6 -6 3 7 2 16 -1 19 -3 4 -6 -2 -5 -13z"/>
<path d="M5410 12740 c0 -6 7 -10 15 -10 8 0 15 2 15 4 0 2 -7 6 -15 10 -8 3
-15 1 -15 -4z"/>
<path d="M17520 11760 c0 -5 5 -10 11 -10 5 0 7 5 4 10 -3 6 -8 10 -11 10 -2
0 -4 -4 -4 -10z"/>
<path d="M17646 11527 c3 -10 9 -15 12 -12 3 3 0 11 -7 18 -10 9 -11 8 -5 -6z"/>
<path d="M4545 11240 c-3 -5 -1 -10 4 -10 6 0 11 5 11 10 0 6 -2 10 -4 10 -3
0 -8 -4 -11 -10z"/>
<path d="M4315 10680 c-3 -6 1 -7 9 -4 18 7 21 14 7 14 -6 0 -13 -4 -16 -10z"/>
<path d="M4130 9975 c0 -8 4 -15 10 -15 5 0 7 7 4 15 -4 8 -8 15 -10 15 -2 0
-4 -7 -4 -15z"/>
<path d="M4060 9620 c0 -5 5 -10 11 -10 5 0 7 5 4 10 -3 6 -8 10 -11 10 -2 0
-4 -4 -4 -10z"/>
<path d="M18277 9409 c7 -7 15 -10 18 -7 3 3 -2 9 -12 12 -14 6 -15 5 -6 -5z"/>
<path d="M3992 8760 c0 -14 2 -19 5 -12 2 6 2 18 0 25 -3 6 -5 1 -5 -13z"/>
<path d="M18331 8634 c0 -11 3 -14 6 -6 3 7 2 16 -1 19 -3 4 -6 -2 -5 -13z"/>
<path d="M18332 8308 c-14 -14 -16 -28 -3 -28 5 0 11 9 14 20 6 23 5 24 -11 8z"/>
<path d="M8920 6181 c0 -5 5 -13 10 -16 6 -3 10 -2 10 4 0 5 -4 13 -10 16 -5
3 -10 2 -10 -4z"/>
<path d="M6631 4094 c0 -11 3 -14 6 -6 3 7 2 16 -1 19 -3 4 -6 -2 -5 -13z"/>
<path d="M6565 4057 c-2 -6 -5 -33 -8 -59 -4 -47 9 -68 30 -47 5 5 10 -3 11
-21 2 -21 -5 -38 -23 -56 -27 -27 -45 -84 -27 -84 5 0 13 7 16 16 3 8 10 12
16 9 6 -4 8 -11 5 -16 -7 -10 22 -1 48 16 33 23 98 87 93 92 -3 3 -23 -2 -46
-11 -22 -9 -45 -16 -50 -16 -15 0 -12 28 8 57 12 19 13 25 3 19 -11 -7 -13 -2
-8 30 7 45 2 55 -36 72 -22 9 -28 9 -32 -1z"/>
<path d="M6830 4040 c-9 -6 -10 -10 -3 -10 6 0 15 5 18 10 8 12 4 12 -15 0z"/>
<path d="M6670 3979 c0 -5 5 -7 10 -4 6 3 10 8 10 11 0 2 -4 4 -10 4 -5 0 -10
-5 -10 -11z"/>
<path d="M7550 3706 c0 -8 4 -17 9 -20 5 -4 7 3 4 14 -6 23 -13 26 -13 6z"/>
<path d="M7634 3705 c-17 -13 -17 -14 -2 -15 9 0 20 5 23 11 11 17 0 20 -21 4z"/>
<path d="M7165 3502 c-48 -3 -83 -19 -96 -45 -16 -29 5 -46 44 -37 56 13 131
41 151 55 25 19 11 36 -27 33 -18 -2 -50 -4 -72 -6z"/>
<path d="M7460 3490 c-13 -8 -12 -10 3 -10 9 0 17 5 17 10 0 12 -1 12 -20 0z"/>
<path d="M7496 3431 c-12 -5 -15 -10 -9 -14 6 -4 16 0 23 8 14 17 13 17 -14 6z"/>
<path d="M6780 3371 c-5 -11 -10 -28 -10 -38 0 -15 2 -16 10 -3 12 18 12 17
14 -39 0 -24 6 -46 11 -48 15 -5 12 67 -4 95 -7 13 -10 30 -7 38 8 21 -2 17
-14 -5z"/>
<path d="M6760 3300 c0 -5 5 -10 11 -10 5 0 7 5 4 10 -3 6 -8 10 -11 10 -2 0
-4 -4 -4 -10z"/>
<path d="M7835 3270 c-3 -5 -1 -10 4 -10 6 0 11 5 11 10 0 6 -2 10 -4 10 -3 0
-8 -4 -11 -10z"/>
<path d="M6949 3180 c-22 -19 -23 -21 -6 -30 9 -6 17 -18 17 -26 0 -9 6 -14
13 -11 20 6 232 -107 312 -167 67 -50 74 -54 87 -38 34 40 49 75 46 104 -3 29
-7 32 -38 34 -159 10 -223 27 -276 74 -18 15 -42 31 -53 35 -12 3 -21 10 -21
14 0 6 -43 31 -54 31 -2 0 -14 -9 -27 -20z"/>
<path d="M7560 3140 c-8 -5 -11 -12 -7 -16 4 -4 13 -2 19 4 15 15 7 24 -12 12z"/>
<path d="M7508 3124 c-5 -4 -8 -15 -8 -25 0 -9 -6 -20 -12 -22 -7 -3 -8 -6 -3
-6 21 -1 37 17 33 39 -1 12 -6 18 -10 14z"/>
<path d="M10020 2610 c0 -5 5 -10 11 -10 5 0 7 5 4 10 -3 6 -8 10 -11 10 -2 0
-4 -4 -4 -10z"/>
<path d="M10448 2523 c7 -3 16 -2 19 1 4 3 -2 6 -13 5 -11 0 -14 -3 -6 -6z"/>
<path d="M7908 2333 c7 -3 16 -2 19 1 4 3 -2 6 -13 5 -11 0 -14 -3 -6 -6z"/>
<path d="M8600 2209 c0 -5 5 -7 10 -4 6 3 10 8 10 11 0 2 -4 4 -10 4 -5 0 -10
-5 -10 -11z"/>
<path d="M8570 2189 c0 -5 5 -7 10 -4 6 3 10 8 10 11 0 2 -4 4 -10 4 -5 0 -10
-5 -10 -11z"/>
<path d="M8980 1995 c0 -8 4 -15 9 -15 5 0 14 7 21 15 10 13 9 15 -9 15 -12 0
-21 -6 -21 -15z"/>
<path d="M9271 1957 c-6 -8 -8 -17 -4 -20 12 -13 22 -7 20 13 -2 24 -1 24 -16
7z"/>
</g>
</svg>
