<svg width="16" height="16" viewBox="0 0 16 16" fill="none" xmlns="http://www.w3.org/2000/svg">
<mask id="path-1-inside-1_1741_118" fill="white">
<path fill-rule="evenodd" clip-rule="evenodd" d="M8 16C12.4183 16 16 12.4183 16 8C16 3.58172 12.4183 0 8 0C3.58172 0 0 3.58172 0 8C0 9.51468 0.420947 10.931 1.15224 12.1385L0.297212 15.5694C0.240732 15.796 0.453477 15.9974 0.676681 15.9286L3.97128 14.9131C5.15444 15.6041 6.53098 16 8 16Z"/>
</mask>
<path d="M1.15224 12.1385L2.60772 12.5012L2.75869 11.8954L2.43526 11.3614L1.15224 12.1385ZM0.297212 15.5694L1.75269 15.9321L1.75269 15.9321L0.297212 15.5694ZM0.676681 15.9286L0.234822 14.4952L0.23482 14.4952L0.676681 15.9286ZM3.97128 14.9131L4.72776 13.6178L4.15893 13.2856L3.52943 13.4796L3.97128 14.9131ZM14.5 8C14.5 11.5899 11.5899 14.5 8 14.5V17.5C13.2467 17.5 17.5 13.2467 17.5 8H14.5ZM8 1.5C11.5899 1.5 14.5 4.41015 14.5 8H17.5C17.5 2.75329 13.2467 -1.5 8 -1.5V1.5ZM1.5 8C1.5 4.41015 4.41015 1.5 8 1.5V-1.5C2.75329 -1.5 -1.5 2.75329 -1.5 8H1.5ZM2.43526 11.3614C1.8419 10.3817 1.5 9.23307 1.5 8H-1.5C-1.5 9.79629 -1.00001 11.4804 -0.130793 12.9156L2.43526 11.3614ZM1.75269 15.9321L2.60772 12.5012L-0.303247 11.7758L-1.15827 15.2067L1.75269 15.9321ZM0.23482 14.4952C1.12764 14.22 1.97862 15.0256 1.75269 15.9321L-1.15827 15.2067C-1.49715 16.5665 -0.220686 17.7749 1.11854 17.3621L0.23482 14.4952ZM3.52943 13.4796L0.234822 14.4952L1.11854 17.3621L4.41314 16.3465L3.52943 13.4796ZM8 14.5C6.80395 14.5 5.68759 14.1783 4.72776 13.6178L3.21481 16.2083C4.6213 17.0298 6.25801 17.5 8 17.5V14.5Z" fill="white" mask="url(#path-1-inside-1_1741_118)"/>
<path d="M12.103 9.76669L12.1692 10.9692C12.1758 11.0808 12.159 11.1926 12.1198 11.2973C12.0806 11.4021 12.0199 11.4975 11.9417 11.5775C11.8634 11.6575 11.7693 11.7203 11.6653 11.7619C11.5613 11.8035 11.4497 11.823 11.3378 11.819C10.0945 11.753 8.88416 11.3969 7.80397 10.7793C6.79969 10.2172 5.93177 9.44142 5.26182 8.50688C4.52551 7.49854 4.03757 6.33123 3.83755 5.09951C3.82141 4.98922 3.82846 4.87678 3.85825 4.76934C3.88804 4.66191 3.93992 4.56184 4.01058 4.4755C4.08124 4.38917 4.16913 4.31846 4.26866 4.26787C4.3682 4.21729 4.47719 4.18794 4.5887 4.1817L5.79359 4.11539C5.9884 4.10274 6.18115 4.16123 6.33592 4.27994C6.49069 4.39865 6.59691 4.56949 6.63479 4.76061C6.70683 5.14264 6.82194 5.5153 6.97793 5.87148C7.03986 6.01197 7.06014 6.16725 7.03636 6.31891C7.01257 6.47057 6.94573 6.61226 6.84374 6.72719L6.36169 7.26432C6.98867 8.23636 7.86693 9.02143 8.90384 9.5367L9.38589 8.99956C9.48916 8.88578 9.62294 8.80393 9.77137 8.76369C9.91981 8.72346 10.0767 8.72653 10.2234 8.77255C10.5953 8.88819 10.979 8.96148 11.3674 8.99102C11.564 9.00775 11.7476 9.09601 11.8832 9.23903C12.0189 9.38205 12.0971 9.56984 12.103 9.76669Z" fill="white"/>
</svg>
